G04 pcbflow Gerber RS-274X export*
G75*
%MOMM*%
%FSLAX34Y34*%
%LPD*%
%IN*%
%IPPOS*%
%AMOC8*
5,1,8,0,0,1.08239X$1,22.5*%
G01*
%ADD10C,0.010000*%
%TF.FileFunction,*%G36*
X0238922Y0087933D02*
X0238207Y0087504D01*
X0237453Y0087147D01*
X0236667Y0086866D01*
X0235858Y0086663D01*
X0235033Y0086541D01*
X0234200Y0086500D01*
X0233367Y0086541D01*
X0232542Y0086663D01*
X0231733Y0086866D01*
X0230947Y0087147D01*
X0230193Y0087504D01*
X0229478Y0087933D01*
X0228808Y0088429D01*
X0228190Y0088990D01*
X0227629Y0089608D01*
X0227133Y0090278D01*
X0226704Y0090993D01*
X0226347Y0091747D01*
X0226066Y0092533D01*
X0225863Y0093342D01*
X0225741Y0094167D01*
X0225700Y0095000D01*
X0225741Y0095833D01*
X0225863Y0096658D01*
X0226066Y0097467D01*
X0226347Y0098253D01*
X0226704Y0099007D01*
X0227133Y0099722D01*
X0227629Y0100392D01*
X0228190Y0101010D01*
X0228808Y0101571D01*
X0229478Y0102067D01*
X0230193Y0102496D01*
X0230947Y0102853D01*
X0231733Y0103134D01*
X0232542Y0103337D01*
X0233367Y0103459D01*
X0234200Y0103500D01*
X0235033Y0103459D01*
X0235858Y0103337D01*
X0236667Y0103134D01*
X0237453Y0102853D01*
X0238207Y0102496D01*
X0238922Y0102067D01*
X0239592Y0101571D01*
X0240210Y0101010D01*
X0240771Y0100392D01*
X0241267Y0099722D01*
X0241696Y0099007D01*
X0242053Y0098253D01*
X0242334Y0097467D01*
X0242537Y0096658D01*
X0242659Y0095833D01*
X0242700Y0095000D01*
X0242659Y0094167D01*
X0242537Y0093342D01*
X0242334Y0092533D01*
X0242053Y0091747D01*
X0241696Y0090993D01*
X0241267Y0090278D01*
X0240771Y0089608D01*
X0240210Y0088990D01*
X0239592Y0088429D01*
X0238922Y0087933D01*
G37*

G36*
X0150522Y0087933D02*
X0149807Y0087504D01*
X0149053Y0087147D01*
X0148267Y0086866D01*
X0147458Y0086663D01*
X0146633Y0086541D01*
X0145800Y0086500D01*
X0144967Y0086541D01*
X0144142Y0086663D01*
X0143333Y0086866D01*
X0142547Y0087147D01*
X0141793Y0087504D01*
X0141078Y0087933D01*
X0140408Y0088429D01*
X0139790Y0088990D01*
X0139229Y0089608D01*
X0138733Y0090278D01*
X0138304Y0090993D01*
X0137947Y0091747D01*
X0137666Y0092533D01*
X0137463Y0093342D01*
X0137341Y0094167D01*
X0137300Y0095000D01*
X0137341Y0095833D01*
X0137463Y0096658D01*
X0137666Y0097467D01*
X0137947Y0098253D01*
X0138304Y0099007D01*
X0138733Y0099722D01*
X0139229Y0100392D01*
X0139790Y0101010D01*
X0140408Y0101571D01*
X0141078Y0102067D01*
X0141793Y0102496D01*
X0142547Y0102853D01*
X0143333Y0103134D01*
X0144142Y0103337D01*
X0144967Y0103459D01*
X0145800Y0103500D01*
X0146633Y0103459D01*
X0147458Y0103337D01*
X0148267Y0103134D01*
X0149053Y0102853D01*
X0149807Y0102496D01*
X0150522Y0102067D01*
X0151192Y0101571D01*
X0151810Y0101010D01*
X0152371Y0100392D01*
X0152867Y0099722D01*
X0153296Y0099007D01*
X0153653Y0098253D01*
X0153934Y0097467D01*
X0154137Y0096658D01*
X0154259Y0095833D01*
X0154300Y0095000D01*
X0154259Y0094167D01*
X0154137Y0093342D01*
X0153934Y0092533D01*
X0153653Y0091747D01*
X0153296Y0090993D01*
X0152867Y0090278D01*
X0152371Y0089608D01*
X0151810Y0088990D01*
X0151192Y0088429D01*
X0150522Y0087933D01*
G37*

G36*
X0107688Y0079540D02*
X0106111Y0078371D01*
X0104428Y0077362D01*
X0102654Y0076522D01*
X0100806Y0075861D01*
X0098902Y0075384D01*
X0096960Y0075096D01*
X0095000Y0075000D01*
X0093040Y0075096D01*
X0091098Y0075384D01*
X0089194Y0075861D01*
X0087346Y0076522D01*
X0085572Y0077362D01*
X0083889Y0078371D01*
X0082312Y0079540D01*
X0080858Y0080858D01*
X0079540Y0082312D01*
X0078371Y0083889D01*
X0077362Y0085572D01*
X0076522Y0087346D01*
X0075861Y0089194D01*
X0075384Y0091098D01*
X0075096Y0093040D01*
X0075000Y0095000D01*
X0075096Y0096960D01*
X0075384Y0098902D01*
X0075861Y0100806D01*
X0076522Y0102654D01*
X0077362Y0104428D01*
X0078371Y0106111D01*
X0079540Y0107688D01*
X0080858Y0109142D01*
X0082312Y0110460D01*
X0083889Y0111629D01*
X0085572Y0112638D01*
X0087346Y0113478D01*
X0089194Y0114139D01*
X0091098Y0114616D01*
X0093040Y0114904D01*
X0095000Y0115000D01*
X0096960Y0114904D01*
X0098902Y0114616D01*
X0100806Y0114139D01*
X0102654Y0113478D01*
X0104428Y0112638D01*
X0106111Y0111629D01*
X0107688Y0110460D01*
X0109142Y0109142D01*
X0110460Y0107688D01*
X0111629Y0106111D01*
X0112638Y0104428D01*
X0113478Y0102654D01*
X0114139Y0100806D01*
X0114616Y0098902D01*
X0114904Y0096960D01*
X0115000Y0095000D01*
X0114904Y0093040D01*
X0114616Y0091098D01*
X0114139Y0089194D01*
X0113478Y0087346D01*
X0112638Y0085572D01*
X0111629Y0083889D01*
X0110460Y0082312D01*
X0109142Y0080858D01*
X0107688Y0079540D01*
G37*

G36*
X0048922Y0087933D02*
X0048207Y0087504D01*
X0047453Y0087147D01*
X0046667Y0086866D01*
X0045858Y0086663D01*
X0045033Y0086541D01*
X0044200Y0086500D01*
X0043367Y0086541D01*
X0042542Y0086663D01*
X0041733Y0086866D01*
X0040947Y0087147D01*
X0040193Y0087504D01*
X0039478Y0087933D01*
X0038808Y0088429D01*
X0038190Y0088990D01*
X0037629Y0089608D01*
X0037133Y0090278D01*
X0036704Y0090993D01*
X0036347Y0091747D01*
X0036066Y0092533D01*
X0035863Y0093342D01*
X0035741Y0094167D01*
X0035700Y0095000D01*
X0035741Y0095833D01*
X0035863Y0096658D01*
X0036066Y0097467D01*
X0036347Y0098253D01*
X0036704Y0099007D01*
X0037133Y0099722D01*
X0037629Y0100392D01*
X0038190Y0101010D01*
X0038808Y0101571D01*
X0039478Y0102067D01*
X0040193Y0102496D01*
X0040947Y0102853D01*
X0041733Y0103134D01*
X0042542Y0103337D01*
X0043367Y0103459D01*
X0044200Y0103500D01*
X0045033Y0103459D01*
X0045858Y0103337D01*
X0046667Y0103134D01*
X0047453Y0102853D01*
X0048207Y0102496D01*
X0048922Y0102067D01*
X0049592Y0101571D01*
X0050210Y0101010D01*
X0050771Y0100392D01*
X0051267Y0099722D01*
X0051696Y0099007D01*
X0052053Y0098253D01*
X0052334Y0097467D01*
X0052537Y0096658D01*
X0052659Y0095833D01*
X0052700Y0095000D01*
X0052659Y0094167D01*
X0052537Y0093342D01*
X0052334Y0092533D01*
X0052053Y0091747D01*
X0051696Y0090993D01*
X0051267Y0090278D01*
X0050771Y0089608D01*
X0050210Y0088990D01*
X0049592Y0088429D01*
X0048922Y0087933D01*
G37*

G36*
X0061067Y0114164D02*
X0060435Y0113786D01*
X0059770Y0113471D01*
X0059077Y0113223D01*
X0058363Y0113044D01*
X0057635Y0112936D01*
X0056900Y0112900D01*
X0056165Y0112936D01*
X0055437Y0113044D01*
X0054723Y0113223D01*
X0054030Y0113471D01*
X0053365Y0113786D01*
X0052733Y0114164D01*
X0052142Y0114602D01*
X0051597Y0115097D01*
X0051102Y0115642D01*
X0050664Y0116233D01*
X0050286Y0116865D01*
X0049971Y0117530D01*
X0049723Y0118223D01*
X0049544Y0118937D01*
X0049436Y0119665D01*
X0049400Y0120400D01*
X0049436Y0121135D01*
X0049544Y0121863D01*
X0049723Y0122577D01*
X0049971Y0123270D01*
X0050286Y0123935D01*
X0050664Y0124567D01*
X0051102Y0125158D01*
X0051597Y0125703D01*
X0052142Y0126198D01*
X0052733Y0126636D01*
X0053365Y0127014D01*
X0054030Y0127329D01*
X0054723Y0127577D01*
X0055437Y0127756D01*
X0056165Y0127864D01*
X0056900Y0127900D01*
X0057635Y0127864D01*
X0058363Y0127756D01*
X0059077Y0127577D01*
X0059770Y0127329D01*
X0060435Y0127014D01*
X0061067Y0126636D01*
X0061658Y0126198D01*
X0062203Y0125703D01*
X0062698Y0125158D01*
X0063136Y0124567D01*
X0063514Y0123935D01*
X0063829Y0123270D01*
X0064077Y0122577D01*
X0064256Y0121863D01*
X0064364Y0121135D01*
X0064400Y0120400D01*
X0064364Y0119665D01*
X0064256Y0118937D01*
X0064077Y0118223D01*
X0063829Y0117530D01*
X0063514Y0116865D01*
X0063136Y0116233D01*
X0062698Y0115642D01*
X0062203Y0115097D01*
X0061658Y0114602D01*
X0061067Y0114164D01*
G37*

G36*
X0124567Y0139564D02*
X0123935Y0139186D01*
X0123270Y0138871D01*
X0122577Y0138623D01*
X0121863Y0138444D01*
X0121135Y0138336D01*
X0120400Y0138300D01*
X0119665Y0138336D01*
X0118937Y0138444D01*
X0118223Y0138623D01*
X0117530Y0138871D01*
X0116865Y0139186D01*
X0116233Y0139564D01*
X0115642Y0140002D01*
X0115097Y0140497D01*
X0114602Y0141042D01*
X0114164Y0141633D01*
X0113786Y0142265D01*
X0113471Y0142930D01*
X0113223Y0143623D01*
X0113044Y0144337D01*
X0112936Y0145065D01*
X0112900Y0145800D01*
X0112936Y0146535D01*
X0113044Y0147263D01*
X0113223Y0147977D01*
X0113471Y0148670D01*
X0113786Y0149335D01*
X0114164Y0149967D01*
X0114602Y0150558D01*
X0115097Y0151103D01*
X0115642Y0151598D01*
X0116233Y0152036D01*
X0116865Y0152414D01*
X0117530Y0152729D01*
X0118223Y0152977D01*
X0118937Y0153156D01*
X0119665Y0153264D01*
X0120400Y0153300D01*
X0121135Y0153264D01*
X0121863Y0153156D01*
X0122577Y0152977D01*
X0123270Y0152729D01*
X0123935Y0152414D01*
X0124567Y0152036D01*
X0125158Y0151598D01*
X0125703Y0151103D01*
X0126198Y0150558D01*
X0126636Y0149967D01*
X0127014Y0149335D01*
X0127329Y0148670D01*
X0127577Y0147977D01*
X0127756Y0147263D01*
X0127864Y0146535D01*
X0127900Y0145800D01*
X0127864Y0145065D01*
X0127756Y0144337D01*
X0127577Y0143623D01*
X0127329Y0142930D01*
X0127014Y0142265D01*
X0126636Y0141633D01*
X0126198Y0141042D01*
X0125703Y0140497D01*
X0125158Y0140002D01*
X0124567Y0139564D01*
G37*

G36*
X0197778Y0182222D02*
X0196978Y0181497D01*
X0196111Y0180854D01*
X0195185Y0180299D01*
X0194210Y0179837D01*
X0193193Y0179474D01*
X0192146Y0179211D01*
X0191078Y0179053D01*
X0190000Y0179000D01*
X0188922Y0179053D01*
X0187854Y0179211D01*
X0186807Y0179474D01*
X0185790Y0179837D01*
X0184815Y0180299D01*
X0183889Y0180854D01*
X0183022Y0181497D01*
X0182222Y0182222D01*
X0181497Y0183022D01*
X0180854Y0183889D01*
X0180299Y0184815D01*
X0179837Y0185790D01*
X0179474Y0186807D01*
X0179211Y0187854D01*
X0179053Y0188922D01*
X0179000Y0190000D01*
X0179053Y0191078D01*
X0179211Y0192146D01*
X0179474Y0193193D01*
X0179837Y0194210D01*
X0180299Y0195185D01*
X0180854Y0196111D01*
X0181497Y0196978D01*
X0182222Y0197778D01*
X0183022Y0198503D01*
X0183889Y0199146D01*
X0184815Y0199701D01*
X0185790Y0200163D01*
X0186807Y0200526D01*
X0187854Y0200789D01*
X0188922Y0200947D01*
X0190000Y0201000D01*
X0191078Y0200947D01*
X0192146Y0200789D01*
X0193193Y0200526D01*
X0194210Y0200163D01*
X0195185Y0199701D01*
X0196111Y0199146D01*
X0196978Y0198503D01*
X0197778Y0197778D01*
X0198503Y0196978D01*
X0199146Y0196111D01*
X0199701Y0195185D01*
X0200163Y0194210D01*
X0200526Y0193193D01*
X0200789Y0192146D01*
X0200947Y0191078D01*
X0201000Y0190000D01*
X0200947Y0188922D01*
X0200789Y0187854D01*
X0200526Y0186807D01*
X0200163Y0185790D01*
X0199701Y0184815D01*
X0199146Y0183889D01*
X0198503Y0183022D01*
X0197778Y0182222D01*
G37*

G36*
X0110396Y0206715D02*
X0110061Y0206466D01*
X0109703Y0206252D01*
X0109326Y0206074D01*
X0108934Y0205933D01*
X0108529Y0205832D01*
X0108117Y0205770D01*
X0107700Y0205750D01*
X0107283Y0205770D01*
X0106871Y0205832D01*
X0106466Y0205933D01*
X0106074Y0206074D01*
X0105697Y0206252D01*
X0105339Y0206466D01*
X0105004Y0206715D01*
X0104695Y0206995D01*
X0104415Y0207304D01*
X0104166Y0207639D01*
X0103952Y0207997D01*
X0103774Y0208374D01*
X0103633Y0208766D01*
X0103532Y0209171D01*
X0103470Y0209583D01*
X0103450Y0210000D01*
X0103470Y0210417D01*
X0103532Y0210829D01*
X0103633Y0211234D01*
X0103774Y0211626D01*
X0103952Y0212003D01*
X0104166Y0212361D01*
X0104415Y0212696D01*
X0104695Y0213005D01*
X0105004Y0213285D01*
X0105339Y0213534D01*
X0105697Y0213748D01*
X0106074Y0213926D01*
X0106466Y0214067D01*
X0106871Y0214168D01*
X0107283Y0214230D01*
X0107700Y0214250D01*
X0108117Y0214230D01*
X0108529Y0214168D01*
X0108934Y0214067D01*
X0109326Y0213926D01*
X0109703Y0213748D01*
X0110061Y0213534D01*
X0110396Y0213285D01*
X0110705Y0213005D01*
X0110985Y0212696D01*
X0111234Y0212361D01*
X0111448Y0212003D01*
X0111626Y0211626D01*
X0111767Y0211234D01*
X0111868Y0210829D01*
X0111930Y0210417D01*
X0111950Y0210000D01*
X0111930Y0209583D01*
X0111868Y0209171D01*
X0111767Y0208766D01*
X0111626Y0208374D01*
X0111448Y0207997D01*
X0111234Y0207639D01*
X0110985Y0207304D01*
X0110705Y0206995D01*
X0110396Y0206715D01*
G37*

G36*
X0135796Y0206715D02*
X0135461Y0206466D01*
X0135103Y0206252D01*
X0134726Y0206074D01*
X0134334Y0205933D01*
X0133929Y0205832D01*
X0133517Y0205770D01*
X0133100Y0205750D01*
X0132683Y0205770D01*
X0132271Y0205832D01*
X0131866Y0205933D01*
X0131474Y0206074D01*
X0131097Y0206252D01*
X0130739Y0206466D01*
X0130404Y0206715D01*
X0130095Y0206995D01*
X0129815Y0207304D01*
X0129566Y0207639D01*
X0129352Y0207997D01*
X0129174Y0208374D01*
X0129033Y0208766D01*
X0128932Y0209171D01*
X0128870Y0209583D01*
X0128850Y0210000D01*
X0128870Y0210417D01*
X0128932Y0210829D01*
X0129033Y0211234D01*
X0129174Y0211626D01*
X0129352Y0212003D01*
X0129566Y0212361D01*
X0129815Y0212696D01*
X0130095Y0213005D01*
X0130404Y0213285D01*
X0130739Y0213534D01*
X0131097Y0213748D01*
X0131474Y0213926D01*
X0131866Y0214067D01*
X0132271Y0214168D01*
X0132683Y0214230D01*
X0133100Y0214250D01*
X0133517Y0214230D01*
X0133929Y0214168D01*
X0134334Y0214067D01*
X0134726Y0213926D01*
X0135103Y0213748D01*
X0135461Y0213534D01*
X0135796Y0213285D01*
X0136105Y0213005D01*
X0136385Y0212696D01*
X0136634Y0212361D01*
X0136848Y0212003D01*
X0137026Y0211626D01*
X0137167Y0211234D01*
X0137268Y0210829D01*
X0137330Y0210417D01*
X0137350Y0210000D01*
X0137330Y0209583D01*
X0137268Y0209171D01*
X0137167Y0208766D01*
X0137026Y0208374D01*
X0136848Y0207997D01*
X0136634Y0207639D01*
X0136385Y0207304D01*
X0136105Y0206995D01*
X0135796Y0206715D01*
G37*

G36*
X0085305Y0206995D02*
X0084996Y0206715D01*
X0084661Y0206466D01*
X0084303Y0206252D01*
X0083926Y0206074D01*
X0083534Y0205933D01*
X0083129Y0205832D01*
X0082717Y0205770D01*
X0082300Y0205750D01*
X0081883Y0205770D01*
X0081471Y0205832D01*
X0081066Y0205933D01*
X0080674Y0206074D01*
X0080297Y0206252D01*
X0079939Y0206466D01*
X0079604Y0206715D01*
X0079295Y0206995D01*
X0079015Y0207304D01*
X0078766Y0207639D01*
X0078552Y0207997D01*
X0078374Y0208374D01*
X0078233Y0208766D01*
X0078132Y0209171D01*
X0078070Y0209583D01*
X0078050Y0210000D01*
X0078070Y0210417D01*
X0078132Y0210829D01*
X0078233Y0211234D01*
X0078374Y0211626D01*
X0078552Y0212003D01*
X0078766Y0212361D01*
X0079015Y0212696D01*
X0079295Y0213005D01*
X0079604Y0213285D01*
X0079939Y0213534D01*
X0080297Y0213748D01*
X0080674Y0213926D01*
X0081066Y0214067D01*
X0081471Y0214168D01*
X0081883Y0214230D01*
X0082300Y0214250D01*
X0082717Y0214230D01*
X0083129Y0214168D01*
X0083534Y0214067D01*
X0083926Y0213926D01*
X0084303Y0213748D01*
X0084661Y0213534D01*
X0084996Y0213285D01*
X0085305Y0213005D01*
X0085585Y0212696D01*
X0085834Y0212361D01*
X0086048Y0212003D01*
X0086226Y0211626D01*
X0086367Y0211234D01*
X0086468Y0210829D01*
X0086530Y0210417D01*
X0086550Y0210000D01*
X0086530Y0209583D01*
X0086468Y0209171D01*
X0086367Y0208766D01*
X0086226Y0208374D01*
X0086048Y0207997D01*
X0085834Y0207639D01*
X0085585Y0207304D01*
X0085305Y0206995D01*
G37*

G36*
X0059905Y0206995D02*
X0059596Y0206715D01*
X0059261Y0206466D01*
X0058903Y0206252D01*
X0058526Y0206074D01*
X0058134Y0205933D01*
X0057729Y0205832D01*
X0057317Y0205770D01*
X0056900Y0205750D01*
X0056483Y0205770D01*
X0056071Y0205832D01*
X0055666Y0205933D01*
X0055274Y0206074D01*
X0054897Y0206252D01*
X0054539Y0206466D01*
X0054204Y0206715D01*
X0053895Y0206995D01*
X0053615Y0207304D01*
X0053366Y0207639D01*
X0053152Y0207997D01*
X0052974Y0208374D01*
X0052833Y0208766D01*
X0052732Y0209171D01*
X0052670Y0209583D01*
X0052650Y0210000D01*
X0052670Y0210417D01*
X0052732Y0210829D01*
X0052833Y0211234D01*
X0052974Y0211626D01*
X0053152Y0212003D01*
X0053366Y0212361D01*
X0053615Y0212696D01*
X0053895Y0213005D01*
X0054204Y0213285D01*
X0054539Y0213534D01*
X0054897Y0213748D01*
X0055274Y0213926D01*
X0055666Y0214067D01*
X0056071Y0214168D01*
X0056483Y0214230D01*
X0056900Y0214250D01*
X0057317Y0214230D01*
X0057729Y0214168D01*
X0058134Y0214067D01*
X0058526Y0213926D01*
X0058903Y0213748D01*
X0059261Y0213534D01*
X0059596Y0213285D01*
X0059905Y0213005D01*
X0060185Y0212696D01*
X0060434Y0212361D01*
X0060648Y0212003D01*
X0060826Y0211626D01*
X0060967Y0211234D01*
X0061068Y0210829D01*
X0061130Y0210417D01*
X0061150Y0210000D01*
X0061130Y0209583D01*
X0061068Y0209171D01*
X0060967Y0208766D01*
X0060826Y0208374D01*
X0060648Y0207997D01*
X0060434Y0207639D01*
X0060185Y0207304D01*
X0059905Y0206995D01*
G37*

G36*
X0038838Y0375708D02*
X0038522Y0375474D01*
X0038186Y0375272D01*
X0037831Y0375104D01*
X0037461Y0374972D01*
X0037080Y0374877D01*
X0036692Y0374819D01*
X0036300Y0374800D01*
X0035908Y0374819D01*
X0035520Y0374877D01*
X0035139Y0374972D01*
X0034769Y0375104D01*
X0034414Y0375272D01*
X0034078Y0375474D01*
X0033762Y0375708D01*
X0033472Y0375972D01*
X0033208Y0376262D01*
X0032974Y0376578D01*
X0032772Y0376914D01*
X0032604Y0377269D01*
X0032472Y0377639D01*
X0032377Y0378020D01*
X0032319Y0378408D01*
X0032300Y0378800D01*
X0032319Y0379192D01*
X0032377Y0379580D01*
X0032472Y0379961D01*
X0032604Y0380331D01*
X0032772Y0380686D01*
X0032974Y0381022D01*
X0033208Y0381338D01*
X0033472Y0381628D01*
X0033762Y0381892D01*
X0034078Y0382126D01*
X0034414Y0382328D01*
X0034769Y0382496D01*
X0035139Y0382628D01*
X0035520Y0382723D01*
X0035908Y0382781D01*
X0036300Y0382800D01*
X0036692Y0382781D01*
X0037080Y0382723D01*
X0037461Y0382628D01*
X0037831Y0382496D01*
X0038186Y0382328D01*
X0038522Y0382126D01*
X0038838Y0381892D01*
X0039128Y0381628D01*
X0039392Y0381338D01*
X0039626Y0381022D01*
X0039828Y0380686D01*
X0039996Y0380331D01*
X0040128Y0379961D01*
X0040223Y0379580D01*
X0040281Y0379192D01*
X0040300Y0378800D01*
X0040281Y0378408D01*
X0040223Y0378020D01*
X0040128Y0377639D01*
X0039996Y0377269D01*
X0039828Y0376914D01*
X0039626Y0376578D01*
X0039392Y0376262D01*
X0039128Y0375972D01*
X0038838Y0375708D01*
G37*

G36*
X0191238Y0375708D02*
X0190922Y0375474D01*
X0190586Y0375272D01*
X0190231Y0375104D01*
X0189861Y0374972D01*
X0189480Y0374877D01*
X0189092Y0374819D01*
X0188700Y0374800D01*
X0188308Y0374819D01*
X0187920Y0374877D01*
X0187539Y0374972D01*
X0187169Y0375104D01*
X0186814Y0375272D01*
X0186478Y0375474D01*
X0186162Y0375708D01*
X0185872Y0375972D01*
X0185608Y0376262D01*
X0185374Y0376578D01*
X0185172Y0376914D01*
X0185004Y0377269D01*
X0184872Y0377639D01*
X0184777Y0378020D01*
X0184719Y0378408D01*
X0184700Y0378800D01*
X0184719Y0379192D01*
X0184777Y0379580D01*
X0184872Y0379961D01*
X0185004Y0380331D01*
X0185172Y0380686D01*
X0185374Y0381022D01*
X0185608Y0381338D01*
X0185872Y0381628D01*
X0186162Y0381892D01*
X0186478Y0382126D01*
X0186814Y0382328D01*
X0187169Y0382496D01*
X0187539Y0382628D01*
X0187920Y0382723D01*
X0188308Y0382781D01*
X0188700Y0382800D01*
X0189092Y0382781D01*
X0189480Y0382723D01*
X0189861Y0382628D01*
X0190231Y0382496D01*
X0190586Y0382328D01*
X0190922Y0382126D01*
X0191238Y0381892D01*
X0191528Y0381628D01*
X0191792Y0381338D01*
X0192026Y0381022D01*
X0192228Y0380686D01*
X0192396Y0380331D01*
X0192528Y0379961D01*
X0192623Y0379580D01*
X0192681Y0379192D01*
X0192700Y0378800D01*
X0192681Y0378408D01*
X0192623Y0378020D01*
X0192528Y0377639D01*
X0192396Y0377269D01*
X0192228Y0376914D01*
X0192026Y0376578D01*
X0191792Y0376262D01*
X0191528Y0375972D01*
X0191238Y0375708D01*
G37*

G36*
X0190922Y0400874D02*
X0190586Y0400672D01*
X0190231Y0400504D01*
X0189861Y0400372D01*
X0189480Y0400277D01*
X0189092Y0400219D01*
X0188700Y0400200D01*
X0188308Y0400219D01*
X0187920Y0400277D01*
X0187539Y0400372D01*
X0187169Y0400504D01*
X0186814Y0400672D01*
X0186478Y0400874D01*
X0186162Y0401108D01*
X0185872Y0401372D01*
X0185608Y0401662D01*
X0185374Y0401978D01*
X0185172Y0402314D01*
X0185004Y0402669D01*
X0184872Y0403039D01*
X0184777Y0403420D01*
X0184719Y0403808D01*
X0184700Y0404200D01*
X0184719Y0404592D01*
X0184777Y0404980D01*
X0184872Y0405361D01*
X0185004Y0405731D01*
X0185172Y0406086D01*
X0185374Y0406422D01*
X0185608Y0406738D01*
X0185872Y0407028D01*
X0186162Y0407292D01*
X0186478Y0407526D01*
X0186814Y0407728D01*
X0187169Y0407896D01*
X0187539Y0408028D01*
X0187920Y0408123D01*
X0188308Y0408181D01*
X0188700Y0408200D01*
X0189092Y0408181D01*
X0189480Y0408123D01*
X0189861Y0408028D01*
X0190231Y0407896D01*
X0190586Y0407728D01*
X0190922Y0407526D01*
X0191238Y0407292D01*
X0191528Y0407028D01*
X0191792Y0406738D01*
X0192026Y0406422D01*
X0192228Y0406086D01*
X0192396Y0405731D01*
X0192528Y0405361D01*
X0192623Y0404980D01*
X0192681Y0404592D01*
X0192700Y0404200D01*
X0192681Y0403808D01*
X0192623Y0403420D01*
X0192528Y0403039D01*
X0192396Y0402669D01*
X0192228Y0402314D01*
X0192026Y0401978D01*
X0191792Y0401662D01*
X0191528Y0401372D01*
X0191238Y0401108D01*
X0190922Y0400874D01*
G37*

G36*
X0038522Y0400874D02*
X0038186Y0400672D01*
X0037831Y0400504D01*
X0037461Y0400372D01*
X0037080Y0400277D01*
X0036692Y0400219D01*
X0036300Y0400200D01*
X0035908Y0400219D01*
X0035520Y0400277D01*
X0035139Y0400372D01*
X0034769Y0400504D01*
X0034414Y0400672D01*
X0034078Y0400874D01*
X0033762Y0401108D01*
X0033472Y0401372D01*
X0033208Y0401662D01*
X0032974Y0401978D01*
X0032772Y0402314D01*
X0032604Y0402669D01*
X0032472Y0403039D01*
X0032377Y0403420D01*
X0032319Y0403808D01*
X0032300Y0404200D01*
X0032319Y0404592D01*
X0032377Y0404980D01*
X0032472Y0405361D01*
X0032604Y0405731D01*
X0032772Y0406086D01*
X0032974Y0406422D01*
X0033208Y0406738D01*
X0033472Y0407028D01*
X0033762Y0407292D01*
X0034078Y0407526D01*
X0034414Y0407728D01*
X0034769Y0407896D01*
X0035139Y0408028D01*
X0035520Y0408123D01*
X0035908Y0408181D01*
X0036300Y0408200D01*
X0036692Y0408181D01*
X0037080Y0408123D01*
X0037461Y0408028D01*
X0037831Y0407896D01*
X0038186Y0407728D01*
X0038522Y0407526D01*
X0038838Y0407292D01*
X0039128Y0407028D01*
X0039392Y0406738D01*
X0039626Y0406422D01*
X0039828Y0406086D01*
X0039996Y0405731D01*
X0040128Y0405361D01*
X0040223Y0404980D01*
X0040281Y0404592D01*
X0040300Y0404200D01*
X0040281Y0403808D01*
X0040223Y0403420D01*
X0040128Y0403039D01*
X0039996Y0402669D01*
X0039828Y0402314D01*
X0039626Y0401978D01*
X0039392Y0401662D01*
X0039128Y0401372D01*
X0038838Y0401108D01*
X0038522Y0400874D01*
G37*

G36*
X0190922Y0426274D02*
X0190586Y0426072D01*
X0190231Y0425904D01*
X0189861Y0425772D01*
X0189480Y0425677D01*
X0189092Y0425619D01*
X0188700Y0425600D01*
X0188308Y0425619D01*
X0187920Y0425677D01*
X0187539Y0425772D01*
X0187169Y0425904D01*
X0186814Y0426072D01*
X0186478Y0426274D01*
X0186162Y0426508D01*
X0185872Y0426772D01*
X0185608Y0427062D01*
X0185374Y0427378D01*
X0185172Y0427714D01*
X0185004Y0428069D01*
X0184872Y0428439D01*
X0184777Y0428820D01*
X0184719Y0429208D01*
X0184700Y0429600D01*
X0184719Y0429992D01*
X0184777Y0430380D01*
X0184872Y0430761D01*
X0185004Y0431131D01*
X0185172Y0431486D01*
X0185374Y0431822D01*
X0185608Y0432138D01*
X0185872Y0432428D01*
X0186162Y0432692D01*
X0186478Y0432926D01*
X0186814Y0433128D01*
X0187169Y0433296D01*
X0187539Y0433428D01*
X0187920Y0433523D01*
X0188308Y0433581D01*
X0188700Y0433600D01*
X0189092Y0433581D01*
X0189480Y0433523D01*
X0189861Y0433428D01*
X0190231Y0433296D01*
X0190586Y0433128D01*
X0190922Y0432926D01*
X0191238Y0432692D01*
X0191528Y0432428D01*
X0191792Y0432138D01*
X0192026Y0431822D01*
X0192228Y0431486D01*
X0192396Y0431131D01*
X0192528Y0430761D01*
X0192623Y0430380D01*
X0192681Y0429992D01*
X0192700Y0429600D01*
X0192681Y0429208D01*
X0192623Y0428820D01*
X0192528Y0428439D01*
X0192396Y0428069D01*
X0192228Y0427714D01*
X0192026Y0427378D01*
X0191792Y0427062D01*
X0191528Y0426772D01*
X0191238Y0426508D01*
X0190922Y0426274D01*
G37*

G36*
X0038186Y0426072D02*
X0037831Y0425904D01*
X0037461Y0425772D01*
X0037080Y0425677D01*
X0036692Y0425619D01*
X0036300Y0425600D01*
X0035908Y0425619D01*
X0035520Y0425677D01*
X0035139Y0425772D01*
X0034769Y0425904D01*
X0034414Y0426072D01*
X0034078Y0426274D01*
X0033762Y0426508D01*
X0033472Y0426772D01*
X0033208Y0427062D01*
X0032974Y0427378D01*
X0032772Y0427714D01*
X0032604Y0428069D01*
X0032472Y0428439D01*
X0032377Y0428820D01*
X0032319Y0429208D01*
X0032300Y0429600D01*
X0032319Y0429992D01*
X0032377Y0430380D01*
X0032472Y0430761D01*
X0032604Y0431131D01*
X0032772Y0431486D01*
X0032974Y0431822D01*
X0033208Y0432138D01*
X0033472Y0432428D01*
X0033762Y0432692D01*
X0034078Y0432926D01*
X0034414Y0433128D01*
X0034769Y0433296D01*
X0035139Y0433428D01*
X0035520Y0433523D01*
X0035908Y0433581D01*
X0036300Y0433600D01*
X0036692Y0433581D01*
X0037080Y0433523D01*
X0037461Y0433428D01*
X0037831Y0433296D01*
X0038186Y0433128D01*
X0038522Y0432926D01*
X0038838Y0432692D01*
X0039128Y0432428D01*
X0039392Y0432138D01*
X0039626Y0431822D01*
X0039828Y0431486D01*
X0039996Y0431131D01*
X0040128Y0430761D01*
X0040223Y0430380D01*
X0040281Y0429992D01*
X0040300Y0429600D01*
X0040281Y0429208D01*
X0040223Y0428820D01*
X0040128Y0428439D01*
X0039996Y0428069D01*
X0039828Y0427714D01*
X0039626Y0427378D01*
X0039392Y0427062D01*
X0039128Y0426772D01*
X0038838Y0426508D01*
X0038522Y0426274D01*
X0038186Y0426072D01*
G37*

G36*
X0038186Y0451472D02*
X0037831Y0451304D01*
X0037461Y0451172D01*
X0037080Y0451077D01*
X0036692Y0451019D01*
X0036300Y0451000D01*
X0035908Y0451019D01*
X0035520Y0451077D01*
X0035139Y0451172D01*
X0034769Y0451304D01*
X0034414Y0451472D01*
X0034078Y0451674D01*
X0033762Y0451908D01*
X0033472Y0452172D01*
X0033208Y0452462D01*
X0032974Y0452778D01*
X0032772Y0453114D01*
X0032604Y0453469D01*
X0032472Y0453839D01*
X0032377Y0454220D01*
X0032319Y0454608D01*
X0032300Y0455000D01*
X0032319Y0455392D01*
X0032377Y0455780D01*
X0032472Y0456161D01*
X0032604Y0456531D01*
X0032772Y0456886D01*
X0032974Y0457222D01*
X0033208Y0457538D01*
X0033472Y0457828D01*
X0033762Y0458092D01*
X0034078Y0458326D01*
X0034414Y0458528D01*
X0034769Y0458696D01*
X0035139Y0458828D01*
X0035520Y0458923D01*
X0035908Y0458981D01*
X0036300Y0459000D01*
X0036692Y0458981D01*
X0037080Y0458923D01*
X0037461Y0458828D01*
X0037831Y0458696D01*
X0038186Y0458528D01*
X0038522Y0458326D01*
X0038838Y0458092D01*
X0039128Y0457828D01*
X0039392Y0457538D01*
X0039626Y0457222D01*
X0039828Y0456886D01*
X0039996Y0456531D01*
X0040128Y0456161D01*
X0040223Y0455780D01*
X0040281Y0455392D01*
X0040300Y0455000D01*
X0040281Y0454608D01*
X0040223Y0454220D01*
X0040128Y0453839D01*
X0039996Y0453469D01*
X0039828Y0453114D01*
X0039626Y0452778D01*
X0039392Y0452462D01*
X0039128Y0452172D01*
X0038838Y0451908D01*
X0038522Y0451674D01*
X0038186Y0451472D01*
G37*

G36*
X0190922Y0451674D02*
X0190586Y0451472D01*
X0190231Y0451304D01*
X0189861Y0451172D01*
X0189480Y0451077D01*
X0189092Y0451019D01*
X0188700Y0451000D01*
X0188308Y0451019D01*
X0187920Y0451077D01*
X0187539Y0451172D01*
X0187169Y0451304D01*
X0186814Y0451472D01*
X0186478Y0451674D01*
X0186162Y0451908D01*
X0185872Y0452172D01*
X0185608Y0452462D01*
X0185374Y0452778D01*
X0185172Y0453114D01*
X0185004Y0453469D01*
X0184872Y0453839D01*
X0184777Y0454220D01*
X0184719Y0454608D01*
X0184700Y0455000D01*
X0184719Y0455392D01*
X0184777Y0455780D01*
X0184872Y0456161D01*
X0185004Y0456531D01*
X0185172Y0456886D01*
X0185374Y0457222D01*
X0185608Y0457538D01*
X0185872Y0457828D01*
X0186162Y0458092D01*
X0186478Y0458326D01*
X0186814Y0458528D01*
X0187169Y0458696D01*
X0187539Y0458828D01*
X0187920Y0458923D01*
X0188308Y0458981D01*
X0188700Y0459000D01*
X0189092Y0458981D01*
X0189480Y0458923D01*
X0189861Y0458828D01*
X0190231Y0458696D01*
X0190586Y0458528D01*
X0190922Y0458326D01*
X0191238Y0458092D01*
X0191528Y0457828D01*
X0191792Y0457538D01*
X0192026Y0457222D01*
X0192228Y0456886D01*
X0192396Y0456531D01*
X0192528Y0456161D01*
X0192623Y0455780D01*
X0192681Y0455392D01*
X0192700Y0455000D01*
X0192681Y0454608D01*
X0192623Y0454220D01*
X0192528Y0453839D01*
X0192396Y0453469D01*
X0192228Y0453114D01*
X0192026Y0452778D01*
X0191792Y0452462D01*
X0191528Y0452172D01*
X0191238Y0451908D01*
X0190922Y0451674D01*
G37*

G36*
X0038522Y0477074D02*
X0038186Y0476872D01*
X0037831Y0476704D01*
X0037461Y0476572D01*
X0037080Y0476477D01*
X0036692Y0476419D01*
X0036300Y0476400D01*
X0035908Y0476419D01*
X0035520Y0476477D01*
X0035139Y0476572D01*
X0034769Y0476704D01*
X0034414Y0476872D01*
X0034078Y0477074D01*
X0033762Y0477308D01*
X0033472Y0477572D01*
X0033208Y0477862D01*
X0032974Y0478178D01*
X0032772Y0478514D01*
X0032604Y0478869D01*
X0032472Y0479239D01*
X0032377Y0479620D01*
X0032319Y0480008D01*
X0032300Y0480400D01*
X0032319Y0480792D01*
X0032377Y0481180D01*
X0032472Y0481561D01*
X0032604Y0481931D01*
X0032772Y0482286D01*
X0032974Y0482622D01*
X0033208Y0482938D01*
X0033472Y0483228D01*
X0033762Y0483492D01*
X0034078Y0483726D01*
X0034414Y0483928D01*
X0034769Y0484096D01*
X0035139Y0484228D01*
X0035520Y0484323D01*
X0035908Y0484381D01*
X0036300Y0484400D01*
X0036692Y0484381D01*
X0037080Y0484323D01*
X0037461Y0484228D01*
X0037831Y0484096D01*
X0038186Y0483928D01*
X0038522Y0483726D01*
X0038838Y0483492D01*
X0039128Y0483228D01*
X0039392Y0482938D01*
X0039626Y0482622D01*
X0039828Y0482286D01*
X0039996Y0481931D01*
X0040128Y0481561D01*
X0040223Y0481180D01*
X0040281Y0480792D01*
X0040300Y0480400D01*
X0040281Y0480008D01*
X0040223Y0479620D01*
X0040128Y0479239D01*
X0039996Y0478869D01*
X0039828Y0478514D01*
X0039626Y0478178D01*
X0039392Y0477862D01*
X0039128Y0477572D01*
X0038838Y0477308D01*
X0038522Y0477074D01*
G37*

G36*
X0190922Y0477074D02*
X0190586Y0476872D01*
X0190231Y0476704D01*
X0189861Y0476572D01*
X0189480Y0476477D01*
X0189092Y0476419D01*
X0188700Y0476400D01*
X0188308Y0476419D01*
X0187920Y0476477D01*
X0187539Y0476572D01*
X0187169Y0476704D01*
X0186814Y0476872D01*
X0186478Y0477074D01*
X0186162Y0477308D01*
X0185872Y0477572D01*
X0185608Y0477862D01*
X0185374Y0478178D01*
X0185172Y0478514D01*
X0185004Y0478869D01*
X0184872Y0479239D01*
X0184777Y0479620D01*
X0184719Y0480008D01*
X0184700Y0480400D01*
X0184719Y0480792D01*
X0184777Y0481180D01*
X0184872Y0481561D01*
X0185004Y0481931D01*
X0185172Y0482286D01*
X0185374Y0482622D01*
X0185608Y0482938D01*
X0185872Y0483228D01*
X0186162Y0483492D01*
X0186478Y0483726D01*
X0186814Y0483928D01*
X0187169Y0484096D01*
X0187539Y0484228D01*
X0187920Y0484323D01*
X0188308Y0484381D01*
X0188700Y0484400D01*
X0189092Y0484381D01*
X0189480Y0484323D01*
X0189861Y0484228D01*
X0190231Y0484096D01*
X0190586Y0483928D01*
X0190922Y0483726D01*
X0191238Y0483492D01*
X0191528Y0483228D01*
X0191792Y0482938D01*
X0192026Y0482622D01*
X0192228Y0482286D01*
X0192396Y0481931D01*
X0192528Y0481561D01*
X0192623Y0481180D01*
X0192681Y0480792D01*
X0192700Y0480400D01*
X0192681Y0480008D01*
X0192623Y0479620D01*
X0192528Y0479239D01*
X0192396Y0478869D01*
X0192228Y0478514D01*
X0192026Y0478178D01*
X0191792Y0477862D01*
X0191528Y0477572D01*
X0191238Y0477308D01*
X0190922Y0477074D01*
G37*

G36*
X0038522Y0502474D02*
X0038186Y0502272D01*
X0037831Y0502104D01*
X0037461Y0501972D01*
X0037080Y0501877D01*
X0036692Y0501819D01*
X0036300Y0501800D01*
X0035908Y0501819D01*
X0035520Y0501877D01*
X0035139Y0501972D01*
X0034769Y0502104D01*
X0034414Y0502272D01*
X0034078Y0502474D01*
X0033762Y0502708D01*
X0033472Y0502972D01*
X0033208Y0503262D01*
X0032974Y0503578D01*
X0032772Y0503914D01*
X0032604Y0504269D01*
X0032472Y0504639D01*
X0032377Y0505020D01*
X0032319Y0505408D01*
X0032300Y0505800D01*
X0032319Y0506192D01*
X0032377Y0506580D01*
X0032472Y0506961D01*
X0032604Y0507331D01*
X0032772Y0507686D01*
X0032974Y0508022D01*
X0033208Y0508338D01*
X0033472Y0508628D01*
X0033762Y0508892D01*
X0034078Y0509126D01*
X0034414Y0509328D01*
X0034769Y0509496D01*
X0035139Y0509628D01*
X0035520Y0509723D01*
X0035908Y0509781D01*
X0036300Y0509800D01*
X0036692Y0509781D01*
X0037080Y0509723D01*
X0037461Y0509628D01*
X0037831Y0509496D01*
X0038186Y0509328D01*
X0038522Y0509126D01*
X0038838Y0508892D01*
X0039128Y0508628D01*
X0039392Y0508338D01*
X0039626Y0508022D01*
X0039828Y0507686D01*
X0039996Y0507331D01*
X0040128Y0506961D01*
X0040223Y0506580D01*
X0040281Y0506192D01*
X0040300Y0505800D01*
X0040281Y0505408D01*
X0040223Y0505020D01*
X0040128Y0504639D01*
X0039996Y0504269D01*
X0039828Y0503914D01*
X0039626Y0503578D01*
X0039392Y0503262D01*
X0039128Y0502972D01*
X0038838Y0502708D01*
X0038522Y0502474D01*
G37*

G36*
X0190922Y0502474D02*
X0190586Y0502272D01*
X0190231Y0502104D01*
X0189861Y0501972D01*
X0189480Y0501877D01*
X0189092Y0501819D01*
X0188700Y0501800D01*
X0188308Y0501819D01*
X0187920Y0501877D01*
X0187539Y0501972D01*
X0187169Y0502104D01*
X0186814Y0502272D01*
X0186478Y0502474D01*
X0186162Y0502708D01*
X0185872Y0502972D01*
X0185608Y0503262D01*
X0185374Y0503578D01*
X0185172Y0503914D01*
X0185004Y0504269D01*
X0184872Y0504639D01*
X0184777Y0505020D01*
X0184719Y0505408D01*
X0184700Y0505800D01*
X0184719Y0506192D01*
X0184777Y0506580D01*
X0184872Y0506961D01*
X0185004Y0507331D01*
X0185172Y0507686D01*
X0185374Y0508022D01*
X0185608Y0508338D01*
X0185872Y0508628D01*
X0186162Y0508892D01*
X0186478Y0509126D01*
X0186814Y0509328D01*
X0187169Y0509496D01*
X0187539Y0509628D01*
X0187920Y0509723D01*
X0188308Y0509781D01*
X0188700Y0509800D01*
X0189092Y0509781D01*
X0189480Y0509723D01*
X0189861Y0509628D01*
X0190231Y0509496D01*
X0190586Y0509328D01*
X0190922Y0509126D01*
X0191238Y0508892D01*
X0191528Y0508628D01*
X0191792Y0508338D01*
X0192026Y0508022D01*
X0192228Y0507686D01*
X0192396Y0507331D01*
X0192528Y0506961D01*
X0192623Y0506580D01*
X0192681Y0506192D01*
X0192700Y0505800D01*
X0192681Y0505408D01*
X0192623Y0505020D01*
X0192528Y0504639D01*
X0192396Y0504269D01*
X0192228Y0503914D01*
X0192026Y0503578D01*
X0191792Y0503262D01*
X0191528Y0502972D01*
X0191238Y0502708D01*
X0190922Y0502474D01*
G37*

G36*
X0038522Y0527874D02*
X0038186Y0527672D01*
X0037831Y0527504D01*
X0037461Y0527372D01*
X0037080Y0527277D01*
X0036692Y0527219D01*
X0036300Y0527200D01*
X0035908Y0527219D01*
X0035520Y0527277D01*
X0035139Y0527372D01*
X0034769Y0527504D01*
X0034414Y0527672D01*
X0034078Y0527874D01*
X0033762Y0528108D01*
X0033472Y0528372D01*
X0033208Y0528662D01*
X0032974Y0528978D01*
X0032772Y0529314D01*
X0032604Y0529669D01*
X0032472Y0530039D01*
X0032377Y0530420D01*
X0032319Y0530808D01*
X0032300Y0531200D01*
X0032319Y0531592D01*
X0032377Y0531980D01*
X0032472Y0532361D01*
X0032604Y0532731D01*
X0032772Y0533086D01*
X0032974Y0533422D01*
X0033208Y0533738D01*
X0033472Y0534028D01*
X0033762Y0534292D01*
X0034078Y0534526D01*
X0034414Y0534728D01*
X0034769Y0534896D01*
X0035139Y0535028D01*
X0035520Y0535123D01*
X0035908Y0535181D01*
X0036300Y0535200D01*
X0036692Y0535181D01*
X0037080Y0535123D01*
X0037461Y0535028D01*
X0037831Y0534896D01*
X0038186Y0534728D01*
X0038522Y0534526D01*
X0038838Y0534292D01*
X0039128Y0534028D01*
X0039392Y0533738D01*
X0039626Y0533422D01*
X0039828Y0533086D01*
X0039996Y0532731D01*
X0040128Y0532361D01*
X0040223Y0531980D01*
X0040281Y0531592D01*
X0040300Y0531200D01*
X0040281Y0530808D01*
X0040223Y0530420D01*
X0040128Y0530039D01*
X0039996Y0529669D01*
X0039828Y0529314D01*
X0039626Y0528978D01*
X0039392Y0528662D01*
X0039128Y0528372D01*
X0038838Y0528108D01*
X0038522Y0527874D01*
G37*

G36*
X0190922Y0527874D02*
X0190586Y0527672D01*
X0190231Y0527504D01*
X0189861Y0527372D01*
X0189480Y0527277D01*
X0189092Y0527219D01*
X0188700Y0527200D01*
X0188308Y0527219D01*
X0187920Y0527277D01*
X0187539Y0527372D01*
X0187169Y0527504D01*
X0186814Y0527672D01*
X0186478Y0527874D01*
X0186162Y0528108D01*
X0185872Y0528372D01*
X0185608Y0528662D01*
X0185374Y0528978D01*
X0185172Y0529314D01*
X0185004Y0529669D01*
X0184872Y0530039D01*
X0184777Y0530420D01*
X0184719Y0530808D01*
X0184700Y0531200D01*
X0184719Y0531592D01*
X0184777Y0531980D01*
X0184872Y0532361D01*
X0185004Y0532731D01*
X0185172Y0533086D01*
X0185374Y0533422D01*
X0185608Y0533738D01*
X0185872Y0534028D01*
X0186162Y0534292D01*
X0186478Y0534526D01*
X0186814Y0534728D01*
X0187169Y0534896D01*
X0187539Y0535028D01*
X0187920Y0535123D01*
X0188308Y0535181D01*
X0188700Y0535200D01*
X0189092Y0535181D01*
X0189480Y0535123D01*
X0189861Y0535028D01*
X0190231Y0534896D01*
X0190586Y0534728D01*
X0190922Y0534526D01*
X0191238Y0534292D01*
X0191528Y0534028D01*
X0191792Y0533738D01*
X0192026Y0533422D01*
X0192228Y0533086D01*
X0192396Y0532731D01*
X0192528Y0532361D01*
X0192623Y0531980D01*
X0192681Y0531592D01*
X0192700Y0531200D01*
X0192681Y0530808D01*
X0192623Y0530420D01*
X0192528Y0530039D01*
X0192396Y0529669D01*
X0192228Y0529314D01*
X0192026Y0528978D01*
X0191792Y0528662D01*
X0191528Y0528372D01*
X0191238Y0528108D01*
X0190922Y0527874D01*
G37*

G36*
X0427453Y0087147D02*
X0426667Y0086866D01*
X0425858Y0086663D01*
X0425033Y0086541D01*
X0424200Y0086500D01*
X0423367Y0086541D01*
X0422542Y0086663D01*
X0421733Y0086866D01*
X0420947Y0087147D01*
X0420193Y0087504D01*
X0419478Y0087933D01*
X0418808Y0088429D01*
X0418190Y0088990D01*
X0417629Y0089608D01*
X0417133Y0090278D01*
X0416704Y0090993D01*
X0416347Y0091747D01*
X0416066Y0092533D01*
X0415863Y0093342D01*
X0415741Y0094167D01*
X0415700Y0095000D01*
X0415741Y0095833D01*
X0415863Y0096658D01*
X0416066Y0097467D01*
X0416347Y0098253D01*
X0416704Y0099007D01*
X0417133Y0099722D01*
X0417629Y0100392D01*
X0418190Y0101010D01*
X0418808Y0101571D01*
X0419478Y0102067D01*
X0420193Y0102496D01*
X0420947Y0102853D01*
X0421733Y0103134D01*
X0422542Y0103337D01*
X0423367Y0103459D01*
X0424200Y0103500D01*
X0425033Y0103459D01*
X0425858Y0103337D01*
X0426667Y0103134D01*
X0427453Y0102853D01*
X0428207Y0102496D01*
X0428922Y0102067D01*
X0429592Y0101571D01*
X0430210Y0101010D01*
X0430771Y0100392D01*
X0431267Y0099722D01*
X0431696Y0099007D01*
X0432053Y0098253D01*
X0432334Y0097467D01*
X0432537Y0096658D01*
X0432659Y0095833D01*
X0432700Y0095000D01*
X0432659Y0094167D01*
X0432537Y0093342D01*
X0432334Y0092533D01*
X0432053Y0091747D01*
X0431696Y0090993D01*
X0431267Y0090278D01*
X0430771Y0089608D01*
X0430210Y0088990D01*
X0429592Y0088429D01*
X0428922Y0087933D01*
X0428207Y0087504D01*
X0427453Y0087147D01*
G37*

G36*
X0339053Y0087147D02*
X0338267Y0086866D01*
X0337458Y0086663D01*
X0336633Y0086541D01*
X0335800Y0086500D01*
X0334967Y0086541D01*
X0334142Y0086663D01*
X0333333Y0086866D01*
X0332547Y0087147D01*
X0331793Y0087504D01*
X0331078Y0087933D01*
X0330408Y0088429D01*
X0329790Y0088990D01*
X0329229Y0089608D01*
X0328733Y0090278D01*
X0328304Y0090993D01*
X0327947Y0091747D01*
X0327666Y0092533D01*
X0327463Y0093342D01*
X0327341Y0094167D01*
X0327300Y0095000D01*
X0327341Y0095833D01*
X0327463Y0096658D01*
X0327666Y0097467D01*
X0327947Y0098253D01*
X0328304Y0099007D01*
X0328733Y0099722D01*
X0329229Y0100392D01*
X0329790Y0101010D01*
X0330408Y0101571D01*
X0331078Y0102067D01*
X0331793Y0102496D01*
X0332547Y0102853D01*
X0333333Y0103134D01*
X0334142Y0103337D01*
X0334967Y0103459D01*
X0335800Y0103500D01*
X0336633Y0103459D01*
X0337458Y0103337D01*
X0338267Y0103134D01*
X0339053Y0102853D01*
X0339807Y0102496D01*
X0340522Y0102067D01*
X0341192Y0101571D01*
X0341810Y0101010D01*
X0342371Y0100392D01*
X0342867Y0099722D01*
X0343296Y0099007D01*
X0343653Y0098253D01*
X0343934Y0097467D01*
X0344137Y0096658D01*
X0344259Y0095833D01*
X0344300Y0095000D01*
X0344259Y0094167D01*
X0344137Y0093342D01*
X0343934Y0092533D01*
X0343653Y0091747D01*
X0343296Y0090993D01*
X0342867Y0090278D01*
X0342371Y0089608D01*
X0341810Y0088990D01*
X0341192Y0088429D01*
X0340522Y0087933D01*
X0339807Y0087504D01*
X0339053Y0087147D01*
G37*

G36*
X0487688Y0079540D02*
X0486111Y0078371D01*
X0484428Y0077362D01*
X0482654Y0076522D01*
X0480806Y0075861D01*
X0478902Y0075384D01*
X0476960Y0075096D01*
X0475000Y0075000D01*
X0473040Y0075096D01*
X0471098Y0075384D01*
X0469194Y0075861D01*
X0467346Y0076522D01*
X0465572Y0077362D01*
X0463889Y0078371D01*
X0462312Y0079540D01*
X0460858Y0080858D01*
X0459540Y0082312D01*
X0458371Y0083889D01*
X0457362Y0085572D01*
X0456522Y0087346D01*
X0455861Y0089194D01*
X0455384Y0091098D01*
X0455096Y0093040D01*
X0455000Y0095000D01*
X0455096Y0096960D01*
X0455384Y0098902D01*
X0455861Y0100806D01*
X0456522Y0102654D01*
X0457362Y0104428D01*
X0458371Y0106111D01*
X0459540Y0107688D01*
X0460858Y0109142D01*
X0462312Y0110460D01*
X0463889Y0111629D01*
X0465572Y0112638D01*
X0467346Y0113478D01*
X0469194Y0114139D01*
X0471098Y0114616D01*
X0473040Y0114904D01*
X0475000Y0115000D01*
X0476960Y0114904D01*
X0478902Y0114616D01*
X0480806Y0114139D01*
X0482654Y0113478D01*
X0484428Y0112638D01*
X0486111Y0111629D01*
X0487688Y0110460D01*
X0489142Y0109142D01*
X0490460Y0107688D01*
X0491629Y0106111D01*
X0492638Y0104428D01*
X0493478Y0102654D01*
X0494139Y0100806D01*
X0494616Y0098902D01*
X0494904Y0096960D01*
X0495000Y0095000D01*
X0494904Y0093040D01*
X0494616Y0091098D01*
X0494139Y0089194D01*
X0493478Y0087346D01*
X0492638Y0085572D01*
X0491629Y0083889D01*
X0490460Y0082312D01*
X0489142Y0080858D01*
X0487688Y0079540D01*
G37*

G36*
X0297688Y0079540D02*
X0296111Y0078371D01*
X0294428Y0077362D01*
X0292654Y0076522D01*
X0290806Y0075861D01*
X0288902Y0075384D01*
X0286960Y0075096D01*
X0285000Y0075000D01*
X0283040Y0075096D01*
X0281098Y0075384D01*
X0279194Y0075861D01*
X0277346Y0076522D01*
X0275572Y0077362D01*
X0273889Y0078371D01*
X0272312Y0079540D01*
X0270858Y0080858D01*
X0269540Y0082312D01*
X0268371Y0083889D01*
X0267362Y0085572D01*
X0266522Y0087346D01*
X0265861Y0089194D01*
X0265384Y0091098D01*
X0265096Y0093040D01*
X0265000Y0095000D01*
X0265096Y0096960D01*
X0265384Y0098902D01*
X0265861Y0100806D01*
X0266522Y0102654D01*
X0267362Y0104428D01*
X0268371Y0106111D01*
X0269540Y0107688D01*
X0270858Y0109142D01*
X0272312Y0110460D01*
X0273889Y0111629D01*
X0275572Y0112638D01*
X0277346Y0113478D01*
X0279194Y0114139D01*
X0281098Y0114616D01*
X0283040Y0114904D01*
X0285000Y0115000D01*
X0286960Y0114904D01*
X0288902Y0114616D01*
X0290806Y0114139D01*
X0292654Y0113478D01*
X0294428Y0112638D01*
X0296111Y0111629D01*
X0297688Y0110460D01*
X0299142Y0109142D01*
X0300460Y0107688D01*
X0301629Y0106111D01*
X0302638Y0104428D01*
X0303478Y0102654D01*
X0304139Y0100806D01*
X0304616Y0098902D01*
X0304904Y0096960D01*
X0305000Y0095000D01*
X0304904Y0093040D01*
X0304616Y0091098D01*
X0304139Y0089194D01*
X0303478Y0087346D01*
X0302638Y0085572D01*
X0301629Y0083889D01*
X0300460Y0082312D01*
X0299142Y0080858D01*
X0297688Y0079540D01*
G37*

G36*
X0251067Y0114164D02*
X0250435Y0113786D01*
X0249770Y0113471D01*
X0249077Y0113223D01*
X0248363Y0113044D01*
X0247635Y0112936D01*
X0246900Y0112900D01*
X0246165Y0112936D01*
X0245437Y0113044D01*
X0244723Y0113223D01*
X0244030Y0113471D01*
X0243365Y0113786D01*
X0242733Y0114164D01*
X0242142Y0114602D01*
X0241597Y0115097D01*
X0241102Y0115642D01*
X0240664Y0116233D01*
X0240286Y0116865D01*
X0239971Y0117530D01*
X0239723Y0118223D01*
X0239544Y0118937D01*
X0239436Y0119665D01*
X0239400Y0120400D01*
X0239436Y0121135D01*
X0239544Y0121863D01*
X0239723Y0122577D01*
X0239971Y0123270D01*
X0240286Y0123935D01*
X0240664Y0124567D01*
X0241102Y0125158D01*
X0241597Y0125703D01*
X0242142Y0126198D01*
X0242733Y0126636D01*
X0243365Y0127014D01*
X0244030Y0127329D01*
X0244723Y0127577D01*
X0245437Y0127756D01*
X0246165Y0127864D01*
X0246900Y0127900D01*
X0247635Y0127864D01*
X0248363Y0127756D01*
X0249077Y0127577D01*
X0249770Y0127329D01*
X0250435Y0127014D01*
X0251067Y0126636D01*
X0251658Y0126198D01*
X0252203Y0125703D01*
X0252698Y0125158D01*
X0253136Y0124567D01*
X0253514Y0123935D01*
X0253829Y0123270D01*
X0254077Y0122577D01*
X0254256Y0121863D01*
X0254364Y0121135D01*
X0254400Y0120400D01*
X0254364Y0119665D01*
X0254256Y0118937D01*
X0254077Y0118223D01*
X0253829Y0117530D01*
X0253514Y0116865D01*
X0253136Y0116233D01*
X0252698Y0115642D01*
X0252203Y0115097D01*
X0251658Y0114602D01*
X0251067Y0114164D01*
G37*

G36*
X0440435Y0113786D02*
X0439770Y0113471D01*
X0439077Y0113223D01*
X0438363Y0113044D01*
X0437635Y0112936D01*
X0436900Y0112900D01*
X0436165Y0112936D01*
X0435437Y0113044D01*
X0434723Y0113223D01*
X0434030Y0113471D01*
X0433365Y0113786D01*
X0432733Y0114164D01*
X0432142Y0114602D01*
X0431597Y0115097D01*
X0431102Y0115642D01*
X0430664Y0116233D01*
X0430286Y0116865D01*
X0429971Y0117530D01*
X0429723Y0118223D01*
X0429544Y0118937D01*
X0429436Y0119665D01*
X0429400Y0120400D01*
X0429436Y0121135D01*
X0429544Y0121863D01*
X0429723Y0122577D01*
X0429971Y0123270D01*
X0430286Y0123935D01*
X0430664Y0124567D01*
X0431102Y0125158D01*
X0431597Y0125703D01*
X0432142Y0126198D01*
X0432733Y0126636D01*
X0433365Y0127014D01*
X0434030Y0127329D01*
X0434723Y0127577D01*
X0435437Y0127756D01*
X0436165Y0127864D01*
X0436900Y0127900D01*
X0437635Y0127864D01*
X0438363Y0127756D01*
X0439077Y0127577D01*
X0439770Y0127329D01*
X0440435Y0127014D01*
X0441067Y0126636D01*
X0441658Y0126198D01*
X0442203Y0125703D01*
X0442698Y0125158D01*
X0443136Y0124567D01*
X0443514Y0123935D01*
X0443829Y0123270D01*
X0444077Y0122577D01*
X0444256Y0121863D01*
X0444364Y0121135D01*
X0444400Y0120400D01*
X0444364Y0119665D01*
X0444256Y0118937D01*
X0444077Y0118223D01*
X0443829Y0117530D01*
X0443514Y0116865D01*
X0443136Y0116233D01*
X0442698Y0115642D01*
X0442203Y0115097D01*
X0441658Y0114602D01*
X0441067Y0114164D01*
X0440435Y0113786D01*
G37*

G36*
X0313270Y0138871D02*
X0312577Y0138623D01*
X0311863Y0138444D01*
X0311135Y0138336D01*
X0310400Y0138300D01*
X0309665Y0138336D01*
X0308937Y0138444D01*
X0308223Y0138623D01*
X0307530Y0138871D01*
X0306865Y0139186D01*
X0306233Y0139564D01*
X0305642Y0140002D01*
X0305097Y0140497D01*
X0304602Y0141042D01*
X0304164Y0141633D01*
X0303786Y0142265D01*
X0303471Y0142930D01*
X0303223Y0143623D01*
X0303044Y0144337D01*
X0302936Y0145065D01*
X0302900Y0145800D01*
X0302936Y0146535D01*
X0303044Y0147263D01*
X0303223Y0147977D01*
X0303471Y0148670D01*
X0303786Y0149335D01*
X0304164Y0149967D01*
X0304602Y0150558D01*
X0305097Y0151103D01*
X0305642Y0151598D01*
X0306233Y0152036D01*
X0306865Y0152414D01*
X0307530Y0152729D01*
X0308223Y0152977D01*
X0308937Y0153156D01*
X0309665Y0153264D01*
X0310400Y0153300D01*
X0311135Y0153264D01*
X0311863Y0153156D01*
X0312577Y0152977D01*
X0313270Y0152729D01*
X0313935Y0152414D01*
X0314567Y0152036D01*
X0315158Y0151598D01*
X0315703Y0151103D01*
X0316198Y0150558D01*
X0316636Y0149967D01*
X0317014Y0149335D01*
X0317329Y0148670D01*
X0317577Y0147977D01*
X0317756Y0147263D01*
X0317864Y0146535D01*
X0317900Y0145800D01*
X0317864Y0145065D01*
X0317756Y0144337D01*
X0317577Y0143623D01*
X0317329Y0142930D01*
X0317014Y0142265D01*
X0316636Y0141633D01*
X0316198Y0141042D01*
X0315703Y0140497D01*
X0315158Y0140002D01*
X0314567Y0139564D01*
X0313935Y0139186D01*
X0313270Y0138871D01*
G37*

G36*
X0296111Y0268371D02*
X0294428Y0267362D01*
X0292654Y0266522D01*
X0290806Y0265861D01*
X0288902Y0265384D01*
X0286960Y0265096D01*
X0285000Y0265000D01*
X0283040Y0265096D01*
X0281098Y0265384D01*
X0279194Y0265861D01*
X0277346Y0266522D01*
X0275572Y0267362D01*
X0273889Y0268371D01*
X0272312Y0269540D01*
X0270858Y0270858D01*
X0269540Y0272312D01*
X0268371Y0273889D01*
X0267362Y0275572D01*
X0266522Y0277346D01*
X0265861Y0279194D01*
X0265384Y0281098D01*
X0265096Y0283040D01*
X0265000Y0285000D01*
X0265096Y0286960D01*
X0265384Y0288902D01*
X0265861Y0290806D01*
X0266522Y0292654D01*
X0267362Y0294428D01*
X0268371Y0296111D01*
X0269540Y0297688D01*
X0270858Y0299142D01*
X0272312Y0300460D01*
X0273889Y0301629D01*
X0275572Y0302638D01*
X0277346Y0303478D01*
X0279194Y0304139D01*
X0281098Y0304616D01*
X0283040Y0304904D01*
X0285000Y0305000D01*
X0286960Y0304904D01*
X0288902Y0304616D01*
X0290806Y0304139D01*
X0292654Y0303478D01*
X0294428Y0302638D01*
X0296111Y0301629D01*
X0297688Y0300460D01*
X0299142Y0299142D01*
X0300460Y0297688D01*
X0301629Y0296111D01*
X0302638Y0294428D01*
X0303478Y0292654D01*
X0304139Y0290806D01*
X0304616Y0288902D01*
X0304904Y0286960D01*
X0305000Y0285000D01*
X0304904Y0283040D01*
X0304616Y0281098D01*
X0304139Y0279194D01*
X0303478Y0277346D01*
X0302638Y0275572D01*
X0301629Y0273889D01*
X0300460Y0272312D01*
X0299142Y0270858D01*
X0297688Y0269540D01*
X0296111Y0268371D01*
G37*

G36*
X0340522Y0277933D02*
X0339807Y0277504D01*
X0339053Y0277147D01*
X0338267Y0276866D01*
X0337458Y0276663D01*
X0336633Y0276541D01*
X0335800Y0276500D01*
X0334967Y0276541D01*
X0334142Y0276663D01*
X0333333Y0276866D01*
X0332547Y0277147D01*
X0331793Y0277504D01*
X0331078Y0277933D01*
X0330408Y0278429D01*
X0329790Y0278990D01*
X0329229Y0279608D01*
X0328733Y0280278D01*
X0328304Y0280993D01*
X0327947Y0281747D01*
X0327666Y0282533D01*
X0327463Y0283342D01*
X0327341Y0284167D01*
X0327300Y0285000D01*
X0327341Y0285833D01*
X0327463Y0286658D01*
X0327666Y0287467D01*
X0327947Y0288253D01*
X0328304Y0289007D01*
X0328733Y0289722D01*
X0329229Y0290392D01*
X0329790Y0291010D01*
X0330408Y0291571D01*
X0331078Y0292067D01*
X0331793Y0292496D01*
X0332547Y0292853D01*
X0333333Y0293134D01*
X0334142Y0293337D01*
X0334967Y0293459D01*
X0335800Y0293500D01*
X0336633Y0293459D01*
X0337458Y0293337D01*
X0338267Y0293134D01*
X0339053Y0292853D01*
X0339807Y0292496D01*
X0340522Y0292067D01*
X0341192Y0291571D01*
X0341810Y0291010D01*
X0342371Y0290392D01*
X0342867Y0289722D01*
X0343296Y0289007D01*
X0343653Y0288253D01*
X0343934Y0287467D01*
X0344137Y0286658D01*
X0344259Y0285833D01*
X0344300Y0285000D01*
X0344259Y0284167D01*
X0344137Y0283342D01*
X0343934Y0282533D01*
X0343653Y0281747D01*
X0343296Y0280993D01*
X0342867Y0280278D01*
X0342371Y0279608D01*
X0341810Y0278990D01*
X0341192Y0278429D01*
X0340522Y0277933D01*
G37*

G36*
X0487688Y0269540D02*
X0486111Y0268371D01*
X0484428Y0267362D01*
X0482654Y0266522D01*
X0480806Y0265861D01*
X0478902Y0265384D01*
X0476960Y0265096D01*
X0475000Y0265000D01*
X0473040Y0265096D01*
X0471098Y0265384D01*
X0469194Y0265861D01*
X0467346Y0266522D01*
X0465572Y0267362D01*
X0463889Y0268371D01*
X0462312Y0269540D01*
X0460858Y0270858D01*
X0459540Y0272312D01*
X0458371Y0273889D01*
X0457362Y0275572D01*
X0456522Y0277346D01*
X0455861Y0279194D01*
X0455384Y0281098D01*
X0455096Y0283040D01*
X0455000Y0285000D01*
X0455096Y0286960D01*
X0455384Y0288902D01*
X0455861Y0290806D01*
X0456522Y0292654D01*
X0457362Y0294428D01*
X0458371Y0296111D01*
X0459540Y0297688D01*
X0460858Y0299142D01*
X0462312Y0300460D01*
X0463889Y0301629D01*
X0465572Y0302638D01*
X0467346Y0303478D01*
X0469194Y0304139D01*
X0471098Y0304616D01*
X0473040Y0304904D01*
X0475000Y0305000D01*
X0476960Y0304904D01*
X0478902Y0304616D01*
X0480806Y0304139D01*
X0482654Y0303478D01*
X0484428Y0302638D01*
X0486111Y0301629D01*
X0487688Y0300460D01*
X0489142Y0299142D01*
X0490460Y0297688D01*
X0491629Y0296111D01*
X0492638Y0294428D01*
X0493478Y0292654D01*
X0494139Y0290806D01*
X0494616Y0288902D01*
X0494904Y0286960D01*
X0495000Y0285000D01*
X0494904Y0283040D01*
X0494616Y0281098D01*
X0494139Y0279194D01*
X0493478Y0277346D01*
X0492638Y0275572D01*
X0491629Y0273889D01*
X0490460Y0272312D01*
X0489142Y0270858D01*
X0487688Y0269540D01*
G37*

G36*
X0427453Y0277147D02*
X0426667Y0276866D01*
X0425858Y0276663D01*
X0425033Y0276541D01*
X0424200Y0276500D01*
X0423367Y0276541D01*
X0422542Y0276663D01*
X0421733Y0276866D01*
X0420947Y0277147D01*
X0420193Y0277504D01*
X0419478Y0277933D01*
X0418808Y0278429D01*
X0418190Y0278990D01*
X0417629Y0279608D01*
X0417133Y0280278D01*
X0416704Y0280993D01*
X0416347Y0281747D01*
X0416066Y0282533D01*
X0415863Y0283342D01*
X0415741Y0284167D01*
X0415700Y0285000D01*
X0415741Y0285833D01*
X0415863Y0286658D01*
X0416066Y0287467D01*
X0416347Y0288253D01*
X0416704Y0289007D01*
X0417133Y0289722D01*
X0417629Y0290392D01*
X0418190Y0291010D01*
X0418808Y0291571D01*
X0419478Y0292067D01*
X0420193Y0292496D01*
X0420947Y0292853D01*
X0421733Y0293134D01*
X0422542Y0293337D01*
X0423367Y0293459D01*
X0424200Y0293500D01*
X0425033Y0293459D01*
X0425858Y0293337D01*
X0426667Y0293134D01*
X0427453Y0292853D01*
X0428207Y0292496D01*
X0428922Y0292067D01*
X0429592Y0291571D01*
X0430210Y0291010D01*
X0430771Y0290392D01*
X0431267Y0289722D01*
X0431696Y0289007D01*
X0432053Y0288253D01*
X0432334Y0287467D01*
X0432537Y0286658D01*
X0432659Y0285833D01*
X0432700Y0285000D01*
X0432659Y0284167D01*
X0432537Y0283342D01*
X0432334Y0282533D01*
X0432053Y0281747D01*
X0431696Y0280993D01*
X0431267Y0280278D01*
X0430771Y0279608D01*
X0430210Y0278990D01*
X0429592Y0278429D01*
X0428922Y0277933D01*
X0428207Y0277504D01*
X0427453Y0277147D01*
G37*

G36*
X0238207Y0277504D02*
X0237453Y0277147D01*
X0236667Y0276866D01*
X0235858Y0276663D01*
X0235033Y0276541D01*
X0234200Y0276500D01*
X0233367Y0276541D01*
X0232542Y0276663D01*
X0231733Y0276866D01*
X0230947Y0277147D01*
X0230193Y0277504D01*
X0229478Y0277933D01*
X0228808Y0278429D01*
X0228190Y0278990D01*
X0227629Y0279608D01*
X0227133Y0280278D01*
X0226704Y0280993D01*
X0226347Y0281747D01*
X0226066Y0282533D01*
X0225863Y0283342D01*
X0225741Y0284167D01*
X0225700Y0285000D01*
X0225741Y0285833D01*
X0225863Y0286658D01*
X0226066Y0287467D01*
X0226347Y0288253D01*
X0226704Y0289007D01*
X0227133Y0289722D01*
X0227629Y0290392D01*
X0228190Y0291010D01*
X0228808Y0291571D01*
X0229478Y0292067D01*
X0230193Y0292496D01*
X0230947Y0292853D01*
X0231733Y0293134D01*
X0232542Y0293337D01*
X0233367Y0293459D01*
X0234200Y0293500D01*
X0235033Y0293459D01*
X0235858Y0293337D01*
X0236667Y0293134D01*
X0237453Y0292853D01*
X0238207Y0292496D01*
X0238922Y0292067D01*
X0239592Y0291571D01*
X0240210Y0291010D01*
X0240771Y0290392D01*
X0241267Y0289722D01*
X0241696Y0289007D01*
X0242053Y0288253D01*
X0242334Y0287467D01*
X0242537Y0286658D01*
X0242659Y0285833D01*
X0242700Y0285000D01*
X0242659Y0284167D01*
X0242537Y0283342D01*
X0242334Y0282533D01*
X0242053Y0281747D01*
X0241696Y0280993D01*
X0241267Y0280278D01*
X0240771Y0279608D01*
X0240210Y0278990D01*
X0239592Y0278429D01*
X0238922Y0277933D01*
X0238207Y0277504D01*
G37*

G36*
X0250435Y0303786D02*
X0249770Y0303471D01*
X0249077Y0303223D01*
X0248363Y0303044D01*
X0247635Y0302936D01*
X0246900Y0302900D01*
X0246165Y0302936D01*
X0245437Y0303044D01*
X0244723Y0303223D01*
X0244030Y0303471D01*
X0243365Y0303786D01*
X0242733Y0304164D01*
X0242142Y0304602D01*
X0241597Y0305097D01*
X0241102Y0305642D01*
X0240664Y0306233D01*
X0240286Y0306865D01*
X0239971Y0307530D01*
X0239723Y0308223D01*
X0239544Y0308937D01*
X0239436Y0309665D01*
X0239400Y0310400D01*
X0239436Y0311135D01*
X0239544Y0311863D01*
X0239723Y0312577D01*
X0239971Y0313270D01*
X0240286Y0313935D01*
X0240664Y0314567D01*
X0241102Y0315158D01*
X0241597Y0315703D01*
X0242142Y0316198D01*
X0242733Y0316636D01*
X0243365Y0317014D01*
X0244030Y0317329D01*
X0244723Y0317577D01*
X0245437Y0317756D01*
X0246165Y0317864D01*
X0246900Y0317900D01*
X0247635Y0317864D01*
X0248363Y0317756D01*
X0249077Y0317577D01*
X0249770Y0317329D01*
X0250435Y0317014D01*
X0251067Y0316636D01*
X0251658Y0316198D01*
X0252203Y0315703D01*
X0252698Y0315158D01*
X0253136Y0314567D01*
X0253514Y0313935D01*
X0253829Y0313270D01*
X0254077Y0312577D01*
X0254256Y0311863D01*
X0254364Y0311135D01*
X0254400Y0310400D01*
X0254364Y0309665D01*
X0254256Y0308937D01*
X0254077Y0308223D01*
X0253829Y0307530D01*
X0253514Y0306865D01*
X0253136Y0306233D01*
X0252698Y0305642D01*
X0252203Y0305097D01*
X0251658Y0304602D01*
X0251067Y0304164D01*
X0250435Y0303786D01*
G37*

G36*
X0441067Y0304164D02*
X0440435Y0303786D01*
X0439770Y0303471D01*
X0439077Y0303223D01*
X0438363Y0303044D01*
X0437635Y0302936D01*
X0436900Y0302900D01*
X0436165Y0302936D01*
X0435437Y0303044D01*
X0434723Y0303223D01*
X0434030Y0303471D01*
X0433365Y0303786D01*
X0432733Y0304164D01*
X0432142Y0304602D01*
X0431597Y0305097D01*
X0431102Y0305642D01*
X0430664Y0306233D01*
X0430286Y0306865D01*
X0429971Y0307530D01*
X0429723Y0308223D01*
X0429544Y0308937D01*
X0429436Y0309665D01*
X0429400Y0310400D01*
X0429436Y0311135D01*
X0429544Y0311863D01*
X0429723Y0312577D01*
X0429971Y0313270D01*
X0430286Y0313935D01*
X0430664Y0314567D01*
X0431102Y0315158D01*
X0431597Y0315703D01*
X0432142Y0316198D01*
X0432733Y0316636D01*
X0433365Y0317014D01*
X0434030Y0317329D01*
X0434723Y0317577D01*
X0435437Y0317756D01*
X0436165Y0317864D01*
X0436900Y0317900D01*
X0437635Y0317864D01*
X0438363Y0317756D01*
X0439077Y0317577D01*
X0439770Y0317329D01*
X0440435Y0317014D01*
X0441067Y0316636D01*
X0441658Y0316198D01*
X0442203Y0315703D01*
X0442698Y0315158D01*
X0443136Y0314567D01*
X0443514Y0313935D01*
X0443829Y0313270D01*
X0444077Y0312577D01*
X0444256Y0311863D01*
X0444364Y0311135D01*
X0444400Y0310400D01*
X0444364Y0309665D01*
X0444256Y0308937D01*
X0444077Y0308223D01*
X0443829Y0307530D01*
X0443514Y0306865D01*
X0443136Y0306233D01*
X0442698Y0305642D01*
X0442203Y0305097D01*
X0441658Y0304602D01*
X0441067Y0304164D01*
G37*

G36*
X0314567Y0329564D02*
X0313935Y0329186D01*
X0313270Y0328871D01*
X0312577Y0328623D01*
X0311863Y0328444D01*
X0311135Y0328336D01*
X0310400Y0328300D01*
X0309665Y0328336D01*
X0308937Y0328444D01*
X0308223Y0328623D01*
X0307530Y0328871D01*
X0306865Y0329186D01*
X0306233Y0329564D01*
X0305642Y0330002D01*
X0305097Y0330497D01*
X0304602Y0331042D01*
X0304164Y0331633D01*
X0303786Y0332265D01*
X0303471Y0332930D01*
X0303223Y0333623D01*
X0303044Y0334337D01*
X0302936Y0335065D01*
X0302900Y0335800D01*
X0302936Y0336535D01*
X0303044Y0337263D01*
X0303223Y0337977D01*
X0303471Y0338670D01*
X0303786Y0339335D01*
X0304164Y0339967D01*
X0304602Y0340558D01*
X0305097Y0341103D01*
X0305642Y0341598D01*
X0306233Y0342036D01*
X0306865Y0342414D01*
X0307530Y0342729D01*
X0308223Y0342977D01*
X0308937Y0343156D01*
X0309665Y0343264D01*
X0310400Y0343300D01*
X0311135Y0343264D01*
X0311863Y0343156D01*
X0312577Y0342977D01*
X0313270Y0342729D01*
X0313935Y0342414D01*
X0314567Y0342036D01*
X0315158Y0341598D01*
X0315703Y0341103D01*
X0316198Y0340558D01*
X0316636Y0339967D01*
X0317014Y0339335D01*
X0317329Y0338670D01*
X0317577Y0337977D01*
X0317756Y0337263D01*
X0317864Y0336535D01*
X0317900Y0335800D01*
X0317864Y0335065D01*
X0317756Y0334337D01*
X0317577Y0333623D01*
X0317329Y0332930D01*
X0317014Y0332265D01*
X0316636Y0331633D01*
X0316198Y0331042D01*
X0315703Y0330497D01*
X0315158Y0330002D01*
X0314567Y0329564D01*
G37*

G36*
X0387778Y0372222D02*
X0386978Y0371497D01*
X0386111Y0370854D01*
X0385185Y0370299D01*
X0384210Y0369837D01*
X0383193Y0369474D01*
X0382146Y0369211D01*
X0381078Y0369053D01*
X0380000Y0369000D01*
X0378922Y0369053D01*
X0377854Y0369211D01*
X0376807Y0369474D01*
X0375790Y0369837D01*
X0374815Y0370299D01*
X0373889Y0370854D01*
X0373022Y0371497D01*
X0372222Y0372222D01*
X0371497Y0373022D01*
X0370854Y0373889D01*
X0370299Y0374815D01*
X0369837Y0375790D01*
X0369474Y0376807D01*
X0369211Y0377854D01*
X0369053Y0378922D01*
X0369000Y0380000D01*
X0369053Y0381078D01*
X0369211Y0382146D01*
X0369474Y0383193D01*
X0369837Y0384210D01*
X0370299Y0385185D01*
X0370854Y0386111D01*
X0371497Y0386978D01*
X0372222Y0387778D01*
X0373022Y0388503D01*
X0373889Y0389146D01*
X0374815Y0389701D01*
X0375790Y0390163D01*
X0376807Y0390526D01*
X0377854Y0390789D01*
X0378922Y0390947D01*
X0380000Y0391000D01*
X0381078Y0390947D01*
X0382146Y0390789D01*
X0383193Y0390526D01*
X0384210Y0390163D01*
X0385185Y0389701D01*
X0386111Y0389146D01*
X0386978Y0388503D01*
X0387778Y0387778D01*
X0388503Y0386978D01*
X0389146Y0386111D01*
X0389701Y0385185D01*
X0390163Y0384210D01*
X0390526Y0383193D01*
X0390789Y0382146D01*
X0390947Y0381078D01*
X0391000Y0380000D01*
X0390947Y0378922D01*
X0390789Y0377854D01*
X0390526Y0376807D01*
X0390163Y0375790D01*
X0389701Y0374815D01*
X0389146Y0373889D01*
X0388503Y0373022D01*
X0387778Y0372222D01*
G37*

G36*
X0347319Y0435563D02*
X0347121Y0435344D01*
X0346903Y0435147D01*
X0346667Y0434971D01*
X0346414Y0434820D01*
X0346148Y0434694D01*
X0345871Y0434595D01*
X0345585Y0434523D01*
X0345294Y0434480D01*
X0345000Y0434466D01*
X0344706Y0434480D01*
X0344415Y0434523D01*
X0344129Y0434595D01*
X0343852Y0434694D01*
X0343586Y0434820D01*
X0343333Y0434971D01*
X0343097Y0435147D01*
X0342879Y0435344D01*
X0342681Y0435563D01*
X0342506Y0435799D01*
X0342354Y0436052D01*
X0342228Y0436318D01*
X0342129Y0436595D01*
X0342058Y0436880D01*
X0342014Y0437172D01*
X0342000Y0437466D01*
X0342014Y0437760D01*
X0342058Y0438051D01*
X0342129Y0438337D01*
X0342228Y0438614D01*
X0342354Y0438880D01*
X0342506Y0439132D01*
X0342681Y0439369D01*
X0342879Y0439587D01*
X0343097Y0439785D01*
X0343333Y0439960D01*
X0343586Y0440111D01*
X0343852Y0440237D01*
X0344129Y0440337D01*
X0344415Y0440408D01*
X0344706Y0440451D01*
X0345000Y0440466D01*
X0345294Y0440451D01*
X0345585Y0440408D01*
X0345871Y0440337D01*
X0346148Y0440237D01*
X0346414Y0440111D01*
X0346667Y0439960D01*
X0346903Y0439785D01*
X0347121Y0439587D01*
X0347319Y0439369D01*
X0347494Y0439132D01*
X0347646Y0438880D01*
X0347772Y0438614D01*
X0347871Y0438337D01*
X0347942Y0438051D01*
X0347986Y0437760D01*
X0348000Y0437466D01*
X0347986Y0437172D01*
X0347942Y0436880D01*
X0347871Y0436595D01*
X0347772Y0436318D01*
X0347646Y0436052D01*
X0347494Y0435799D01*
X0347319Y0435563D01*
G37*

G36*
X0486111Y0458371D02*
X0484428Y0457362D01*
X0482654Y0456522D01*
X0480806Y0455861D01*
X0478902Y0455384D01*
X0476960Y0455096D01*
X0475000Y0455000D01*
X0473040Y0455096D01*
X0471098Y0455384D01*
X0469194Y0455861D01*
X0467346Y0456522D01*
X0465572Y0457362D01*
X0463889Y0458371D01*
X0462312Y0459540D01*
X0460858Y0460858D01*
X0459540Y0462312D01*
X0458371Y0463889D01*
X0457362Y0465572D01*
X0456522Y0467346D01*
X0455861Y0469194D01*
X0455384Y0471098D01*
X0455096Y0473040D01*
X0455000Y0475000D01*
X0455096Y0476960D01*
X0455384Y0478902D01*
X0455861Y0480806D01*
X0456522Y0482654D01*
X0457362Y0484428D01*
X0458371Y0486111D01*
X0459540Y0487688D01*
X0460858Y0489142D01*
X0462312Y0490460D01*
X0463889Y0491629D01*
X0465572Y0492638D01*
X0467346Y0493478D01*
X0469194Y0494139D01*
X0471098Y0494616D01*
X0473040Y0494904D01*
X0475000Y0495000D01*
X0476960Y0494904D01*
X0478902Y0494616D01*
X0480806Y0494139D01*
X0482654Y0493478D01*
X0484428Y0492638D01*
X0486111Y0491629D01*
X0487688Y0490460D01*
X0489142Y0489142D01*
X0490460Y0487688D01*
X0491629Y0486111D01*
X0492638Y0484428D01*
X0493478Y0482654D01*
X0494139Y0480806D01*
X0494616Y0478902D01*
X0494904Y0476960D01*
X0495000Y0475000D01*
X0494904Y0473040D01*
X0494616Y0471098D01*
X0494139Y0469194D01*
X0493478Y0467346D01*
X0492638Y0465572D01*
X0491629Y0463889D01*
X0490460Y0462312D01*
X0489142Y0460858D01*
X0487688Y0459540D01*
X0486111Y0458371D01*
G37*

G36*
X0428207Y0467504D02*
X0427453Y0467147D01*
X0426667Y0466866D01*
X0425858Y0466663D01*
X0425033Y0466541D01*
X0424200Y0466500D01*
X0423367Y0466541D01*
X0422542Y0466663D01*
X0421733Y0466866D01*
X0420947Y0467147D01*
X0420193Y0467504D01*
X0419478Y0467933D01*
X0418808Y0468429D01*
X0418190Y0468990D01*
X0417629Y0469608D01*
X0417133Y0470278D01*
X0416704Y0470993D01*
X0416347Y0471747D01*
X0416066Y0472533D01*
X0415863Y0473342D01*
X0415741Y0474167D01*
X0415700Y0475000D01*
X0415741Y0475833D01*
X0415863Y0476658D01*
X0416066Y0477467D01*
X0416347Y0478253D01*
X0416704Y0479007D01*
X0417133Y0479722D01*
X0417629Y0480392D01*
X0418190Y0481010D01*
X0418808Y0481571D01*
X0419478Y0482067D01*
X0420193Y0482496D01*
X0420947Y0482853D01*
X0421733Y0483134D01*
X0422542Y0483337D01*
X0423367Y0483459D01*
X0424200Y0483500D01*
X0425033Y0483459D01*
X0425858Y0483337D01*
X0426667Y0483134D01*
X0427453Y0482853D01*
X0428207Y0482496D01*
X0428922Y0482067D01*
X0429592Y0481571D01*
X0430210Y0481010D01*
X0430771Y0480392D01*
X0431267Y0479722D01*
X0431696Y0479007D01*
X0432053Y0478253D01*
X0432334Y0477467D01*
X0432537Y0476658D01*
X0432659Y0475833D01*
X0432700Y0475000D01*
X0432659Y0474167D01*
X0432537Y0473342D01*
X0432334Y0472533D01*
X0432053Y0471747D01*
X0431696Y0470993D01*
X0431267Y0470278D01*
X0430771Y0469608D01*
X0430210Y0468990D01*
X0429592Y0468429D01*
X0428922Y0467933D01*
X0428207Y0467504D01*
G37*

G36*
X0339053Y0467147D02*
X0338267Y0466866D01*
X0337458Y0466663D01*
X0336633Y0466541D01*
X0335800Y0466500D01*
X0334967Y0466541D01*
X0334142Y0466663D01*
X0333333Y0466866D01*
X0332547Y0467147D01*
X0331793Y0467504D01*
X0331078Y0467933D01*
X0330408Y0468429D01*
X0329790Y0468990D01*
X0329229Y0469608D01*
X0328733Y0470278D01*
X0328304Y0470993D01*
X0327947Y0471747D01*
X0327666Y0472533D01*
X0327463Y0473342D01*
X0327341Y0474167D01*
X0327300Y0475000D01*
X0327341Y0475833D01*
X0327463Y0476658D01*
X0327666Y0477467D01*
X0327947Y0478253D01*
X0328304Y0479007D01*
X0328733Y0479722D01*
X0329229Y0480392D01*
X0329790Y0481010D01*
X0330408Y0481571D01*
X0331078Y0482067D01*
X0331793Y0482496D01*
X0332547Y0482853D01*
X0333333Y0483134D01*
X0334142Y0483337D01*
X0334967Y0483459D01*
X0335800Y0483500D01*
X0336633Y0483459D01*
X0337458Y0483337D01*
X0338267Y0483134D01*
X0339053Y0482853D01*
X0339807Y0482496D01*
X0340522Y0482067D01*
X0341192Y0481571D01*
X0341810Y0481010D01*
X0342371Y0480392D01*
X0342867Y0479722D01*
X0343296Y0479007D01*
X0343653Y0478253D01*
X0343934Y0477467D01*
X0344137Y0476658D01*
X0344259Y0475833D01*
X0344300Y0475000D01*
X0344259Y0474167D01*
X0344137Y0473342D01*
X0343934Y0472533D01*
X0343653Y0471747D01*
X0343296Y0470993D01*
X0342867Y0470278D01*
X0342371Y0469608D01*
X0341810Y0468990D01*
X0341192Y0468429D01*
X0340522Y0467933D01*
X0339807Y0467504D01*
X0339053Y0467147D01*
G37*

G36*
X0296111Y0458371D02*
X0294428Y0457362D01*
X0292654Y0456522D01*
X0290806Y0455861D01*
X0288902Y0455384D01*
X0286960Y0455096D01*
X0285000Y0455000D01*
X0283040Y0455096D01*
X0281098Y0455384D01*
X0279194Y0455861D01*
X0277346Y0456522D01*
X0275572Y0457362D01*
X0273889Y0458371D01*
X0272312Y0459540D01*
X0270858Y0460858D01*
X0269540Y0462312D01*
X0268371Y0463889D01*
X0267362Y0465572D01*
X0266522Y0467346D01*
X0265861Y0469194D01*
X0265384Y0471098D01*
X0265096Y0473040D01*
X0265000Y0475000D01*
X0265096Y0476960D01*
X0265384Y0478902D01*
X0265861Y0480806D01*
X0266522Y0482654D01*
X0267362Y0484428D01*
X0268371Y0486111D01*
X0269540Y0487688D01*
X0270858Y0489142D01*
X0272312Y0490460D01*
X0273889Y0491629D01*
X0275572Y0492638D01*
X0277346Y0493478D01*
X0279194Y0494139D01*
X0281098Y0494616D01*
X0283040Y0494904D01*
X0285000Y0495000D01*
X0286960Y0494904D01*
X0288902Y0494616D01*
X0290806Y0494139D01*
X0292654Y0493478D01*
X0294428Y0492638D01*
X0296111Y0491629D01*
X0297688Y0490460D01*
X0299142Y0489142D01*
X0300460Y0487688D01*
X0301629Y0486111D01*
X0302638Y0484428D01*
X0303478Y0482654D01*
X0304139Y0480806D01*
X0304616Y0478902D01*
X0304904Y0476960D01*
X0305000Y0475000D01*
X0304904Y0473040D01*
X0304616Y0471098D01*
X0304139Y0469194D01*
X0303478Y0467346D01*
X0302638Y0465572D01*
X0301629Y0463889D01*
X0300460Y0462312D01*
X0299142Y0460858D01*
X0297688Y0459540D01*
X0296111Y0458371D01*
G37*

G36*
X0238922Y0467933D02*
X0238207Y0467504D01*
X0237453Y0467147D01*
X0236667Y0466866D01*
X0235858Y0466663D01*
X0235033Y0466541D01*
X0234200Y0466500D01*
X0233367Y0466541D01*
X0232542Y0466663D01*
X0231733Y0466866D01*
X0230947Y0467147D01*
X0230193Y0467504D01*
X0229478Y0467933D01*
X0228808Y0468429D01*
X0228190Y0468990D01*
X0227629Y0469608D01*
X0227133Y0470278D01*
X0226704Y0470993D01*
X0226347Y0471747D01*
X0226066Y0472533D01*
X0225863Y0473342D01*
X0225741Y0474167D01*
X0225700Y0475000D01*
X0225741Y0475833D01*
X0225863Y0476658D01*
X0226066Y0477467D01*
X0226347Y0478253D01*
X0226704Y0479007D01*
X0227133Y0479722D01*
X0227629Y0480392D01*
X0228190Y0481010D01*
X0228808Y0481571D01*
X0229478Y0482067D01*
X0230193Y0482496D01*
X0230947Y0482853D01*
X0231733Y0483134D01*
X0232542Y0483337D01*
X0233367Y0483459D01*
X0234200Y0483500D01*
X0235033Y0483459D01*
X0235858Y0483337D01*
X0236667Y0483134D01*
X0237453Y0482853D01*
X0238207Y0482496D01*
X0238922Y0482067D01*
X0239592Y0481571D01*
X0240210Y0481010D01*
X0240771Y0480392D01*
X0241267Y0479722D01*
X0241696Y0479007D01*
X0242053Y0478253D01*
X0242334Y0477467D01*
X0242537Y0476658D01*
X0242659Y0475833D01*
X0242700Y0475000D01*
X0242659Y0474167D01*
X0242537Y0473342D01*
X0242334Y0472533D01*
X0242053Y0471747D01*
X0241696Y0470993D01*
X0241267Y0470278D01*
X0240771Y0469608D01*
X0240210Y0468990D01*
X0239592Y0468429D01*
X0238922Y0467933D01*
G37*

G36*
X0440435Y0493786D02*
X0439770Y0493471D01*
X0439077Y0493223D01*
X0438363Y0493044D01*
X0437635Y0492936D01*
X0436900Y0492900D01*
X0436165Y0492936D01*
X0435437Y0493044D01*
X0434723Y0493223D01*
X0434030Y0493471D01*
X0433365Y0493786D01*
X0432733Y0494164D01*
X0432142Y0494602D01*
X0431597Y0495097D01*
X0431102Y0495642D01*
X0430664Y0496233D01*
X0430286Y0496865D01*
X0429971Y0497530D01*
X0429723Y0498223D01*
X0429544Y0498937D01*
X0429436Y0499665D01*
X0429400Y0500400D01*
X0429436Y0501135D01*
X0429544Y0501863D01*
X0429723Y0502577D01*
X0429971Y0503270D01*
X0430286Y0503935D01*
X0430664Y0504567D01*
X0431102Y0505158D01*
X0431597Y0505703D01*
X0432142Y0506198D01*
X0432733Y0506636D01*
X0433365Y0507014D01*
X0434030Y0507329D01*
X0434723Y0507577D01*
X0435437Y0507756D01*
X0436165Y0507864D01*
X0436900Y0507900D01*
X0437635Y0507864D01*
X0438363Y0507756D01*
X0439077Y0507577D01*
X0439770Y0507329D01*
X0440435Y0507014D01*
X0441067Y0506636D01*
X0441658Y0506198D01*
X0442203Y0505703D01*
X0442698Y0505158D01*
X0443136Y0504567D01*
X0443514Y0503935D01*
X0443829Y0503270D01*
X0444077Y0502577D01*
X0444256Y0501863D01*
X0444364Y0501135D01*
X0444400Y0500400D01*
X0444364Y0499665D01*
X0444256Y0498937D01*
X0444077Y0498223D01*
X0443829Y0497530D01*
X0443514Y0496865D01*
X0443136Y0496233D01*
X0442698Y0495642D01*
X0442203Y0495097D01*
X0441658Y0494602D01*
X0441067Y0494164D01*
X0440435Y0493786D01*
G37*

G36*
X0251067Y0494164D02*
X0250435Y0493786D01*
X0249770Y0493471D01*
X0249077Y0493223D01*
X0248363Y0493044D01*
X0247635Y0492936D01*
X0246900Y0492900D01*
X0246165Y0492936D01*
X0245437Y0493044D01*
X0244723Y0493223D01*
X0244030Y0493471D01*
X0243365Y0493786D01*
X0242733Y0494164D01*
X0242142Y0494602D01*
X0241597Y0495097D01*
X0241102Y0495642D01*
X0240664Y0496233D01*
X0240286Y0496865D01*
X0239971Y0497530D01*
X0239723Y0498223D01*
X0239544Y0498937D01*
X0239436Y0499665D01*
X0239400Y0500400D01*
X0239436Y0501135D01*
X0239544Y0501863D01*
X0239723Y0502577D01*
X0239971Y0503270D01*
X0240286Y0503935D01*
X0240664Y0504567D01*
X0241102Y0505158D01*
X0241597Y0505703D01*
X0242142Y0506198D01*
X0242733Y0506636D01*
X0243365Y0507014D01*
X0244030Y0507329D01*
X0244723Y0507577D01*
X0245437Y0507756D01*
X0246165Y0507864D01*
X0246900Y0507900D01*
X0247635Y0507864D01*
X0248363Y0507756D01*
X0249077Y0507577D01*
X0249770Y0507329D01*
X0250435Y0507014D01*
X0251067Y0506636D01*
X0251658Y0506198D01*
X0252203Y0505703D01*
X0252698Y0505158D01*
X0253136Y0504567D01*
X0253514Y0503935D01*
X0253829Y0503270D01*
X0254077Y0502577D01*
X0254256Y0501863D01*
X0254364Y0501135D01*
X0254400Y0500400D01*
X0254364Y0499665D01*
X0254256Y0498937D01*
X0254077Y0498223D01*
X0253829Y0497530D01*
X0253514Y0496865D01*
X0253136Y0496233D01*
X0252698Y0495642D01*
X0252203Y0495097D01*
X0251658Y0494602D01*
X0251067Y0494164D01*
G37*

G36*
X0313270Y0518871D02*
X0312577Y0518623D01*
X0311863Y0518444D01*
X0311135Y0518336D01*
X0310400Y0518300D01*
X0309665Y0518336D01*
X0308937Y0518444D01*
X0308223Y0518623D01*
X0307530Y0518871D01*
X0306865Y0519186D01*
X0306233Y0519564D01*
X0305642Y0520002D01*
X0305097Y0520497D01*
X0304602Y0521042D01*
X0304164Y0521633D01*
X0303786Y0522265D01*
X0303471Y0522930D01*
X0303223Y0523623D01*
X0303044Y0524337D01*
X0302936Y0525065D01*
X0302900Y0525800D01*
X0302936Y0526535D01*
X0303044Y0527263D01*
X0303223Y0527977D01*
X0303471Y0528670D01*
X0303786Y0529335D01*
X0304164Y0529967D01*
X0304602Y0530558D01*
X0305097Y0531103D01*
X0305642Y0531598D01*
X0306233Y0532036D01*
X0306865Y0532414D01*
X0307530Y0532729D01*
X0308223Y0532977D01*
X0308937Y0533156D01*
X0309665Y0533264D01*
X0310400Y0533300D01*
X0311135Y0533264D01*
X0311863Y0533156D01*
X0312577Y0532977D01*
X0313270Y0532729D01*
X0313935Y0532414D01*
X0314567Y0532036D01*
X0315158Y0531598D01*
X0315703Y0531103D01*
X0316198Y0530558D01*
X0316636Y0529967D01*
X0317014Y0529335D01*
X0317329Y0528670D01*
X0317577Y0527977D01*
X0317756Y0527263D01*
X0317864Y0526535D01*
X0317900Y0525800D01*
X0317864Y0525065D01*
X0317756Y0524337D01*
X0317577Y0523623D01*
X0317329Y0522930D01*
X0317014Y0522265D01*
X0316636Y0521633D01*
X0316198Y0521042D01*
X0315703Y0520497D01*
X0315158Y0520002D01*
X0314567Y0519564D01*
X0313935Y0519186D01*
X0313270Y0518871D01*
G37*

G36*
X0719807Y0087504D02*
X0719053Y0087147D01*
X0718267Y0086866D01*
X0717458Y0086663D01*
X0716633Y0086541D01*
X0715800Y0086500D01*
X0714967Y0086541D01*
X0714142Y0086663D01*
X0713333Y0086866D01*
X0712547Y0087147D01*
X0711793Y0087504D01*
X0711078Y0087933D01*
X0710408Y0088429D01*
X0709790Y0088990D01*
X0709229Y0089608D01*
X0708733Y0090278D01*
X0708304Y0090993D01*
X0707947Y0091747D01*
X0707666Y0092533D01*
X0707463Y0093342D01*
X0707341Y0094167D01*
X0707300Y0095000D01*
X0707341Y0095833D01*
X0707463Y0096658D01*
X0707666Y0097467D01*
X0707947Y0098253D01*
X0708304Y0099007D01*
X0708733Y0099722D01*
X0709229Y0100392D01*
X0709790Y0101010D01*
X0710408Y0101571D01*
X0711078Y0102067D01*
X0711793Y0102496D01*
X0712547Y0102853D01*
X0713333Y0103134D01*
X0714142Y0103337D01*
X0714967Y0103459D01*
X0715800Y0103500D01*
X0716633Y0103459D01*
X0717458Y0103337D01*
X0718267Y0103134D01*
X0719053Y0102853D01*
X0719807Y0102496D01*
X0720522Y0102067D01*
X0721192Y0101571D01*
X0721810Y0101010D01*
X0722371Y0100392D01*
X0722867Y0099722D01*
X0723296Y0099007D01*
X0723653Y0098253D01*
X0723934Y0097467D01*
X0724137Y0096658D01*
X0724259Y0095833D01*
X0724300Y0095000D01*
X0724259Y0094167D01*
X0724137Y0093342D01*
X0723934Y0092533D01*
X0723653Y0091747D01*
X0723296Y0090993D01*
X0722867Y0090278D01*
X0722371Y0089608D01*
X0721810Y0088990D01*
X0721192Y0088429D01*
X0720522Y0087933D01*
X0719807Y0087504D01*
G37*

G36*
X0530522Y0087933D02*
X0529807Y0087504D01*
X0529053Y0087147D01*
X0528267Y0086866D01*
X0527458Y0086663D01*
X0526633Y0086541D01*
X0525800Y0086500D01*
X0524967Y0086541D01*
X0524142Y0086663D01*
X0523333Y0086866D01*
X0522547Y0087147D01*
X0521793Y0087504D01*
X0521078Y0087933D01*
X0520408Y0088429D01*
X0519790Y0088990D01*
X0519229Y0089608D01*
X0518733Y0090278D01*
X0518304Y0090993D01*
X0517947Y0091747D01*
X0517666Y0092533D01*
X0517463Y0093342D01*
X0517341Y0094167D01*
X0517300Y0095000D01*
X0517341Y0095833D01*
X0517463Y0096658D01*
X0517666Y0097467D01*
X0517947Y0098253D01*
X0518304Y0099007D01*
X0518733Y0099722D01*
X0519229Y0100392D01*
X0519790Y0101010D01*
X0520408Y0101571D01*
X0521078Y0102067D01*
X0521793Y0102496D01*
X0522547Y0102853D01*
X0523333Y0103134D01*
X0524142Y0103337D01*
X0524967Y0103459D01*
X0525800Y0103500D01*
X0526633Y0103459D01*
X0527458Y0103337D01*
X0528267Y0103134D01*
X0529053Y0102853D01*
X0529807Y0102496D01*
X0530522Y0102067D01*
X0531192Y0101571D01*
X0531810Y0101010D01*
X0532371Y0100392D01*
X0532867Y0099722D01*
X0533296Y0099007D01*
X0533653Y0098253D01*
X0533934Y0097467D01*
X0534137Y0096658D01*
X0534259Y0095833D01*
X0534300Y0095000D01*
X0534259Y0094167D01*
X0534137Y0093342D01*
X0533934Y0092533D01*
X0533653Y0091747D01*
X0533296Y0090993D01*
X0532867Y0090278D01*
X0532371Y0089608D01*
X0531810Y0088990D01*
X0531192Y0088429D01*
X0530522Y0087933D01*
G37*

G36*
X0618922Y0087933D02*
X0618207Y0087504D01*
X0617453Y0087147D01*
X0616667Y0086866D01*
X0615858Y0086663D01*
X0615033Y0086541D01*
X0614200Y0086500D01*
X0613367Y0086541D01*
X0612542Y0086663D01*
X0611733Y0086866D01*
X0610947Y0087147D01*
X0610193Y0087504D01*
X0609478Y0087933D01*
X0608808Y0088429D01*
X0608190Y0088990D01*
X0607629Y0089608D01*
X0607133Y0090278D01*
X0606704Y0090993D01*
X0606347Y0091747D01*
X0606066Y0092533D01*
X0605863Y0093342D01*
X0605741Y0094167D01*
X0605700Y0095000D01*
X0605741Y0095833D01*
X0605863Y0096658D01*
X0606066Y0097467D01*
X0606347Y0098253D01*
X0606704Y0099007D01*
X0607133Y0099722D01*
X0607629Y0100392D01*
X0608190Y0101010D01*
X0608808Y0101571D01*
X0609478Y0102067D01*
X0610193Y0102496D01*
X0610947Y0102853D01*
X0611733Y0103134D01*
X0612542Y0103337D01*
X0613367Y0103459D01*
X0614200Y0103500D01*
X0615033Y0103459D01*
X0615858Y0103337D01*
X0616667Y0103134D01*
X0617453Y0102853D01*
X0618207Y0102496D01*
X0618922Y0102067D01*
X0619592Y0101571D01*
X0620210Y0101010D01*
X0620771Y0100392D01*
X0621267Y0099722D01*
X0621696Y0099007D01*
X0622053Y0098253D01*
X0622334Y0097467D01*
X0622537Y0096658D01*
X0622659Y0095833D01*
X0622700Y0095000D01*
X0622659Y0094167D01*
X0622537Y0093342D01*
X0622334Y0092533D01*
X0622053Y0091747D01*
X0621696Y0090993D01*
X0621267Y0090278D01*
X0620771Y0089608D01*
X0620210Y0088990D01*
X0619592Y0088429D01*
X0618922Y0087933D01*
G37*

G36*
X0676111Y0078371D02*
X0674428Y0077362D01*
X0672654Y0076522D01*
X0670806Y0075861D01*
X0668902Y0075384D01*
X0666960Y0075096D01*
X0665000Y0075000D01*
X0663040Y0075096D01*
X0661098Y0075384D01*
X0659194Y0075861D01*
X0657346Y0076522D01*
X0655572Y0077362D01*
X0653889Y0078371D01*
X0652312Y0079540D01*
X0650858Y0080858D01*
X0649540Y0082312D01*
X0648371Y0083889D01*
X0647362Y0085572D01*
X0646522Y0087346D01*
X0645861Y0089194D01*
X0645384Y0091098D01*
X0645096Y0093040D01*
X0645000Y0095000D01*
X0645096Y0096960D01*
X0645384Y0098902D01*
X0645861Y0100806D01*
X0646522Y0102654D01*
X0647362Y0104428D01*
X0648371Y0106111D01*
X0649540Y0107688D01*
X0650858Y0109142D01*
X0652312Y0110460D01*
X0653889Y0111629D01*
X0655572Y0112638D01*
X0657346Y0113478D01*
X0659194Y0114139D01*
X0661098Y0114616D01*
X0663040Y0114904D01*
X0665000Y0115000D01*
X0666960Y0114904D01*
X0668902Y0114616D01*
X0670806Y0114139D01*
X0672654Y0113478D01*
X0674428Y0112638D01*
X0676111Y0111629D01*
X0677688Y0110460D01*
X0679142Y0109142D01*
X0680460Y0107688D01*
X0681629Y0106111D01*
X0682638Y0104428D01*
X0683478Y0102654D01*
X0684139Y0100806D01*
X0684616Y0098902D01*
X0684904Y0096960D01*
X0685000Y0095000D01*
X0684904Y0093040D01*
X0684616Y0091098D01*
X0684139Y0089194D01*
X0683478Y0087346D01*
X0682638Y0085572D01*
X0681629Y0083889D01*
X0680460Y0082312D01*
X0679142Y0080858D01*
X0677688Y0079540D01*
X0676111Y0078371D01*
G37*

G36*
X0630435Y0113786D02*
X0629770Y0113471D01*
X0629077Y0113223D01*
X0628363Y0113044D01*
X0627635Y0112936D01*
X0626900Y0112900D01*
X0626165Y0112936D01*
X0625437Y0113044D01*
X0624723Y0113223D01*
X0624030Y0113471D01*
X0623365Y0113786D01*
X0622733Y0114164D01*
X0622142Y0114602D01*
X0621597Y0115097D01*
X0621102Y0115642D01*
X0620664Y0116233D01*
X0620286Y0116865D01*
X0619971Y0117530D01*
X0619723Y0118223D01*
X0619544Y0118937D01*
X0619436Y0119665D01*
X0619400Y0120400D01*
X0619436Y0121135D01*
X0619544Y0121863D01*
X0619723Y0122577D01*
X0619971Y0123270D01*
X0620286Y0123935D01*
X0620664Y0124567D01*
X0621102Y0125158D01*
X0621597Y0125703D01*
X0622142Y0126198D01*
X0622733Y0126636D01*
X0623365Y0127014D01*
X0624030Y0127329D01*
X0624723Y0127577D01*
X0625437Y0127756D01*
X0626165Y0127864D01*
X0626900Y0127900D01*
X0627635Y0127864D01*
X0628363Y0127756D01*
X0629077Y0127577D01*
X0629770Y0127329D01*
X0630435Y0127014D01*
X0631067Y0126636D01*
X0631658Y0126198D01*
X0632203Y0125703D01*
X0632698Y0125158D01*
X0633136Y0124567D01*
X0633514Y0123935D01*
X0633829Y0123270D01*
X0634077Y0122577D01*
X0634256Y0121863D01*
X0634364Y0121135D01*
X0634400Y0120400D01*
X0634364Y0119665D01*
X0634256Y0118937D01*
X0634077Y0118223D01*
X0633829Y0117530D01*
X0633514Y0116865D01*
X0633136Y0116233D01*
X0632698Y0115642D01*
X0632203Y0115097D01*
X0631658Y0114602D01*
X0631067Y0114164D01*
X0630435Y0113786D01*
G37*

G36*
X0503935Y0139186D02*
X0503270Y0138871D01*
X0502577Y0138623D01*
X0501863Y0138444D01*
X0501135Y0138336D01*
X0500400Y0138300D01*
X0499665Y0138336D01*
X0498937Y0138444D01*
X0498223Y0138623D01*
X0497530Y0138871D01*
X0496865Y0139186D01*
X0496233Y0139564D01*
X0495642Y0140002D01*
X0495097Y0140497D01*
X0494602Y0141042D01*
X0494164Y0141633D01*
X0493786Y0142265D01*
X0493471Y0142930D01*
X0493223Y0143623D01*
X0493044Y0144337D01*
X0492936Y0145065D01*
X0492900Y0145800D01*
X0492936Y0146535D01*
X0493044Y0147263D01*
X0493223Y0147977D01*
X0493471Y0148670D01*
X0493786Y0149335D01*
X0494164Y0149967D01*
X0494602Y0150558D01*
X0495097Y0151103D01*
X0495642Y0151598D01*
X0496233Y0152036D01*
X0496865Y0152414D01*
X0497530Y0152729D01*
X0498223Y0152977D01*
X0498937Y0153156D01*
X0499665Y0153264D01*
X0500400Y0153300D01*
X0501135Y0153264D01*
X0501863Y0153156D01*
X0502577Y0152977D01*
X0503270Y0152729D01*
X0503935Y0152414D01*
X0504567Y0152036D01*
X0505158Y0151598D01*
X0505703Y0151103D01*
X0506198Y0150558D01*
X0506636Y0149967D01*
X0507014Y0149335D01*
X0507329Y0148670D01*
X0507577Y0147977D01*
X0507756Y0147263D01*
X0507864Y0146535D01*
X0507900Y0145800D01*
X0507864Y0145065D01*
X0507756Y0144337D01*
X0507577Y0143623D01*
X0507329Y0142930D01*
X0507014Y0142265D01*
X0506636Y0141633D01*
X0506198Y0141042D01*
X0505703Y0140497D01*
X0505158Y0140002D01*
X0504567Y0139564D01*
X0503935Y0139186D01*
G37*

G36*
X0693935Y0139186D02*
X0693270Y0138871D01*
X0692577Y0138623D01*
X0691863Y0138444D01*
X0691135Y0138336D01*
X0690400Y0138300D01*
X0689665Y0138336D01*
X0688937Y0138444D01*
X0688223Y0138623D01*
X0687530Y0138871D01*
X0686865Y0139186D01*
X0686233Y0139564D01*
X0685642Y0140002D01*
X0685097Y0140497D01*
X0684602Y0141042D01*
X0684164Y0141633D01*
X0683786Y0142265D01*
X0683471Y0142930D01*
X0683223Y0143623D01*
X0683044Y0144337D01*
X0682936Y0145065D01*
X0682900Y0145800D01*
X0682936Y0146535D01*
X0683044Y0147263D01*
X0683223Y0147977D01*
X0683471Y0148670D01*
X0683786Y0149335D01*
X0684164Y0149967D01*
X0684602Y0150558D01*
X0685097Y0151103D01*
X0685642Y0151598D01*
X0686233Y0152036D01*
X0686865Y0152414D01*
X0687530Y0152729D01*
X0688223Y0152977D01*
X0688937Y0153156D01*
X0689665Y0153264D01*
X0690400Y0153300D01*
X0691135Y0153264D01*
X0691863Y0153156D01*
X0692577Y0152977D01*
X0693270Y0152729D01*
X0693935Y0152414D01*
X0694567Y0152036D01*
X0695158Y0151598D01*
X0695703Y0151103D01*
X0696198Y0150558D01*
X0696636Y0149967D01*
X0697014Y0149335D01*
X0697329Y0148670D01*
X0697577Y0147977D01*
X0697756Y0147263D01*
X0697864Y0146535D01*
X0697900Y0145800D01*
X0697864Y0145065D01*
X0697756Y0144337D01*
X0697577Y0143623D01*
X0697329Y0142930D01*
X0697014Y0142265D01*
X0696636Y0141633D01*
X0696198Y0141042D01*
X0695703Y0140497D01*
X0695158Y0140002D01*
X0694567Y0139564D01*
X0693935Y0139186D01*
G37*

G36*
X0577778Y0182222D02*
X0576978Y0181497D01*
X0576111Y0180854D01*
X0575185Y0180299D01*
X0574210Y0179837D01*
X0573193Y0179474D01*
X0572146Y0179211D01*
X0571078Y0179053D01*
X0570000Y0179000D01*
X0568922Y0179053D01*
X0567854Y0179211D01*
X0566807Y0179474D01*
X0565790Y0179837D01*
X0564815Y0180299D01*
X0563889Y0180854D01*
X0563022Y0181497D01*
X0562222Y0182222D01*
X0561497Y0183022D01*
X0560854Y0183889D01*
X0560299Y0184815D01*
X0559837Y0185790D01*
X0559474Y0186807D01*
X0559211Y0187854D01*
X0559053Y0188922D01*
X0559000Y0190000D01*
X0559053Y0191078D01*
X0559211Y0192146D01*
X0559474Y0193193D01*
X0559837Y0194210D01*
X0560299Y0195185D01*
X0560854Y0196111D01*
X0561497Y0196978D01*
X0562222Y0197778D01*
X0563022Y0198503D01*
X0563889Y0199146D01*
X0564815Y0199701D01*
X0565790Y0200163D01*
X0566807Y0200526D01*
X0567854Y0200789D01*
X0568922Y0200947D01*
X0570000Y0201000D01*
X0571078Y0200947D01*
X0572146Y0200789D01*
X0573193Y0200526D01*
X0574210Y0200163D01*
X0575185Y0199701D01*
X0576111Y0199146D01*
X0576978Y0198503D01*
X0577778Y0197778D01*
X0578503Y0196978D01*
X0579146Y0196111D01*
X0579701Y0195185D01*
X0580163Y0194210D01*
X0580526Y0193193D01*
X0580789Y0192146D01*
X0580947Y0191078D01*
X0581000Y0190000D01*
X0580947Y0188922D01*
X0580789Y0187854D01*
X0580526Y0186807D01*
X0580163Y0185790D01*
X0579701Y0184815D01*
X0579146Y0183889D01*
X0578503Y0183022D01*
X0577778Y0182222D01*
G37*

G36*
X0720522Y0277933D02*
X0719807Y0277504D01*
X0719053Y0277147D01*
X0718267Y0276866D01*
X0717458Y0276663D01*
X0716633Y0276541D01*
X0715800Y0276500D01*
X0714967Y0276541D01*
X0714142Y0276663D01*
X0713333Y0276866D01*
X0712547Y0277147D01*
X0711793Y0277504D01*
X0711078Y0277933D01*
X0710408Y0278429D01*
X0709790Y0278990D01*
X0709229Y0279608D01*
X0708733Y0280278D01*
X0708304Y0280993D01*
X0707947Y0281747D01*
X0707666Y0282533D01*
X0707463Y0283342D01*
X0707341Y0284167D01*
X0707300Y0285000D01*
X0707341Y0285833D01*
X0707463Y0286658D01*
X0707666Y0287467D01*
X0707947Y0288253D01*
X0708304Y0289007D01*
X0708733Y0289722D01*
X0709229Y0290392D01*
X0709790Y0291010D01*
X0710408Y0291571D01*
X0711078Y0292067D01*
X0711793Y0292496D01*
X0712547Y0292853D01*
X0713333Y0293134D01*
X0714142Y0293337D01*
X0714967Y0293459D01*
X0715800Y0293500D01*
X0716633Y0293459D01*
X0717458Y0293337D01*
X0718267Y0293134D01*
X0719053Y0292853D01*
X0719807Y0292496D01*
X0720522Y0292067D01*
X0721192Y0291571D01*
X0721810Y0291010D01*
X0722371Y0290392D01*
X0722867Y0289722D01*
X0723296Y0289007D01*
X0723653Y0288253D01*
X0723934Y0287467D01*
X0724137Y0286658D01*
X0724259Y0285833D01*
X0724300Y0285000D01*
X0724259Y0284167D01*
X0724137Y0283342D01*
X0723934Y0282533D01*
X0723653Y0281747D01*
X0723296Y0280993D01*
X0722867Y0280278D01*
X0722371Y0279608D01*
X0721810Y0278990D01*
X0721192Y0278429D01*
X0720522Y0277933D01*
G37*

G36*
X0529807Y0277504D02*
X0529053Y0277147D01*
X0528267Y0276866D01*
X0527458Y0276663D01*
X0526633Y0276541D01*
X0525800Y0276500D01*
X0524967Y0276541D01*
X0524142Y0276663D01*
X0523333Y0276866D01*
X0522547Y0277147D01*
X0521793Y0277504D01*
X0521078Y0277933D01*
X0520408Y0278429D01*
X0519790Y0278990D01*
X0519229Y0279608D01*
X0518733Y0280278D01*
X0518304Y0280993D01*
X0517947Y0281747D01*
X0517666Y0282533D01*
X0517463Y0283342D01*
X0517341Y0284167D01*
X0517300Y0285000D01*
X0517341Y0285833D01*
X0517463Y0286658D01*
X0517666Y0287467D01*
X0517947Y0288253D01*
X0518304Y0289007D01*
X0518733Y0289722D01*
X0519229Y0290392D01*
X0519790Y0291010D01*
X0520408Y0291571D01*
X0521078Y0292067D01*
X0521793Y0292496D01*
X0522547Y0292853D01*
X0523333Y0293134D01*
X0524142Y0293337D01*
X0524967Y0293459D01*
X0525800Y0293500D01*
X0526633Y0293459D01*
X0527458Y0293337D01*
X0528267Y0293134D01*
X0529053Y0292853D01*
X0529807Y0292496D01*
X0530522Y0292067D01*
X0531192Y0291571D01*
X0531810Y0291010D01*
X0532371Y0290392D01*
X0532867Y0289722D01*
X0533296Y0289007D01*
X0533653Y0288253D01*
X0533934Y0287467D01*
X0534137Y0286658D01*
X0534259Y0285833D01*
X0534300Y0285000D01*
X0534259Y0284167D01*
X0534137Y0283342D01*
X0533934Y0282533D01*
X0533653Y0281747D01*
X0533296Y0280993D01*
X0532867Y0280278D01*
X0532371Y0279608D01*
X0531810Y0278990D01*
X0531192Y0278429D01*
X0530522Y0277933D01*
X0529807Y0277504D01*
G37*

G36*
X0677688Y0269540D02*
X0676111Y0268371D01*
X0674428Y0267362D01*
X0672654Y0266522D01*
X0670806Y0265861D01*
X0668902Y0265384D01*
X0666960Y0265096D01*
X0665000Y0265000D01*
X0663040Y0265096D01*
X0661098Y0265384D01*
X0659194Y0265861D01*
X0657346Y0266522D01*
X0655572Y0267362D01*
X0653889Y0268371D01*
X0652312Y0269540D01*
X0650858Y0270858D01*
X0649540Y0272312D01*
X0648371Y0273889D01*
X0647362Y0275572D01*
X0646522Y0277346D01*
X0645861Y0279194D01*
X0645384Y0281098D01*
X0645096Y0283040D01*
X0645000Y0285000D01*
X0645096Y0286960D01*
X0645384Y0288902D01*
X0645861Y0290806D01*
X0646522Y0292654D01*
X0647362Y0294428D01*
X0648371Y0296111D01*
X0649540Y0297688D01*
X0650858Y0299142D01*
X0652312Y0300460D01*
X0653889Y0301629D01*
X0655572Y0302638D01*
X0657346Y0303478D01*
X0659194Y0304139D01*
X0661098Y0304616D01*
X0663040Y0304904D01*
X0665000Y0305000D01*
X0666960Y0304904D01*
X0668902Y0304616D01*
X0670806Y0304139D01*
X0672654Y0303478D01*
X0674428Y0302638D01*
X0676111Y0301629D01*
X0677688Y0300460D01*
X0679142Y0299142D01*
X0680460Y0297688D01*
X0681629Y0296111D01*
X0682638Y0294428D01*
X0683478Y0292654D01*
X0684139Y0290806D01*
X0684616Y0288902D01*
X0684904Y0286960D01*
X0685000Y0285000D01*
X0684904Y0283040D01*
X0684616Y0281098D01*
X0684139Y0279194D01*
X0683478Y0277346D01*
X0682638Y0275572D01*
X0681629Y0273889D01*
X0680460Y0272312D01*
X0679142Y0270858D01*
X0677688Y0269540D01*
G37*

G36*
X0618922Y0277933D02*
X0618207Y0277504D01*
X0617453Y0277147D01*
X0616667Y0276866D01*
X0615858Y0276663D01*
X0615033Y0276541D01*
X0614200Y0276500D01*
X0613367Y0276541D01*
X0612542Y0276663D01*
X0611733Y0276866D01*
X0610947Y0277147D01*
X0610193Y0277504D01*
X0609478Y0277933D01*
X0608808Y0278429D01*
X0608190Y0278990D01*
X0607629Y0279608D01*
X0607133Y0280278D01*
X0606704Y0280993D01*
X0606347Y0281747D01*
X0606066Y0282533D01*
X0605863Y0283342D01*
X0605741Y0284167D01*
X0605700Y0285000D01*
X0605741Y0285833D01*
X0605863Y0286658D01*
X0606066Y0287467D01*
X0606347Y0288253D01*
X0606704Y0289007D01*
X0607133Y0289722D01*
X0607629Y0290392D01*
X0608190Y0291010D01*
X0608808Y0291571D01*
X0609478Y0292067D01*
X0610193Y0292496D01*
X0610947Y0292853D01*
X0611733Y0293134D01*
X0612542Y0293337D01*
X0613367Y0293459D01*
X0614200Y0293500D01*
X0615033Y0293459D01*
X0615858Y0293337D01*
X0616667Y0293134D01*
X0617453Y0292853D01*
X0618207Y0292496D01*
X0618922Y0292067D01*
X0619592Y0291571D01*
X0620210Y0291010D01*
X0620771Y0290392D01*
X0621267Y0289722D01*
X0621696Y0289007D01*
X0622053Y0288253D01*
X0622334Y0287467D01*
X0622537Y0286658D01*
X0622659Y0285833D01*
X0622700Y0285000D01*
X0622659Y0284167D01*
X0622537Y0283342D01*
X0622334Y0282533D01*
X0622053Y0281747D01*
X0621696Y0280993D01*
X0621267Y0280278D01*
X0620771Y0279608D01*
X0620210Y0278990D01*
X0619592Y0278429D01*
X0618922Y0277933D01*
G37*

G36*
X0630435Y0303786D02*
X0629770Y0303471D01*
X0629077Y0303223D01*
X0628363Y0303044D01*
X0627635Y0302936D01*
X0626900Y0302900D01*
X0626165Y0302936D01*
X0625437Y0303044D01*
X0624723Y0303223D01*
X0624030Y0303471D01*
X0623365Y0303786D01*
X0622733Y0304164D01*
X0622142Y0304602D01*
X0621597Y0305097D01*
X0621102Y0305642D01*
X0620664Y0306233D01*
X0620286Y0306865D01*
X0619971Y0307530D01*
X0619723Y0308223D01*
X0619544Y0308937D01*
X0619436Y0309665D01*
X0619400Y0310400D01*
X0619436Y0311135D01*
X0619544Y0311863D01*
X0619723Y0312577D01*
X0619971Y0313270D01*
X0620286Y0313935D01*
X0620664Y0314567D01*
X0621102Y0315158D01*
X0621597Y0315703D01*
X0622142Y0316198D01*
X0622733Y0316636D01*
X0623365Y0317014D01*
X0624030Y0317329D01*
X0624723Y0317577D01*
X0625437Y0317756D01*
X0626165Y0317864D01*
X0626900Y0317900D01*
X0627635Y0317864D01*
X0628363Y0317756D01*
X0629077Y0317577D01*
X0629770Y0317329D01*
X0630435Y0317014D01*
X0631067Y0316636D01*
X0631658Y0316198D01*
X0632203Y0315703D01*
X0632698Y0315158D01*
X0633136Y0314567D01*
X0633514Y0313935D01*
X0633829Y0313270D01*
X0634077Y0312577D01*
X0634256Y0311863D01*
X0634364Y0311135D01*
X0634400Y0310400D01*
X0634364Y0309665D01*
X0634256Y0308937D01*
X0634077Y0308223D01*
X0633829Y0307530D01*
X0633514Y0306865D01*
X0633136Y0306233D01*
X0632698Y0305642D01*
X0632203Y0305097D01*
X0631658Y0304602D01*
X0631067Y0304164D01*
X0630435Y0303786D01*
G37*

G36*
X0503935Y0329186D02*
X0503270Y0328871D01*
X0502577Y0328623D01*
X0501863Y0328444D01*
X0501135Y0328336D01*
X0500400Y0328300D01*
X0499665Y0328336D01*
X0498937Y0328444D01*
X0498223Y0328623D01*
X0497530Y0328871D01*
X0496865Y0329186D01*
X0496233Y0329564D01*
X0495642Y0330002D01*
X0495097Y0330497D01*
X0494602Y0331042D01*
X0494164Y0331633D01*
X0493786Y0332265D01*
X0493471Y0332930D01*
X0493223Y0333623D01*
X0493044Y0334337D01*
X0492936Y0335065D01*
X0492900Y0335800D01*
X0492936Y0336535D01*
X0493044Y0337263D01*
X0493223Y0337977D01*
X0493471Y0338670D01*
X0493786Y0339335D01*
X0494164Y0339967D01*
X0494602Y0340558D01*
X0495097Y0341103D01*
X0495642Y0341598D01*
X0496233Y0342036D01*
X0496865Y0342414D01*
X0497530Y0342729D01*
X0498223Y0342977D01*
X0498937Y0343156D01*
X0499665Y0343264D01*
X0500400Y0343300D01*
X0501135Y0343264D01*
X0501863Y0343156D01*
X0502577Y0342977D01*
X0503270Y0342729D01*
X0503935Y0342414D01*
X0504567Y0342036D01*
X0505158Y0341598D01*
X0505703Y0341103D01*
X0506198Y0340558D01*
X0506636Y0339967D01*
X0507014Y0339335D01*
X0507329Y0338670D01*
X0507577Y0337977D01*
X0507756Y0337263D01*
X0507864Y0336535D01*
X0507900Y0335800D01*
X0507864Y0335065D01*
X0507756Y0334337D01*
X0507577Y0333623D01*
X0507329Y0332930D01*
X0507014Y0332265D01*
X0506636Y0331633D01*
X0506198Y0331042D01*
X0505703Y0330497D01*
X0505158Y0330002D01*
X0504567Y0329564D01*
X0503935Y0329186D01*
G37*

G36*
X0693935Y0329186D02*
X0693270Y0328871D01*
X0692577Y0328623D01*
X0691863Y0328444D01*
X0691135Y0328336D01*
X0690400Y0328300D01*
X0689665Y0328336D01*
X0688937Y0328444D01*
X0688223Y0328623D01*
X0687530Y0328871D01*
X0686865Y0329186D01*
X0686233Y0329564D01*
X0685642Y0330002D01*
X0685097Y0330497D01*
X0684602Y0331042D01*
X0684164Y0331633D01*
X0683786Y0332265D01*
X0683471Y0332930D01*
X0683223Y0333623D01*
X0683044Y0334337D01*
X0682936Y0335065D01*
X0682900Y0335800D01*
X0682936Y0336535D01*
X0683044Y0337263D01*
X0683223Y0337977D01*
X0683471Y0338670D01*
X0683786Y0339335D01*
X0684164Y0339967D01*
X0684602Y0340558D01*
X0685097Y0341103D01*
X0685642Y0341598D01*
X0686233Y0342036D01*
X0686865Y0342414D01*
X0687530Y0342729D01*
X0688223Y0342977D01*
X0688937Y0343156D01*
X0689665Y0343264D01*
X0690400Y0343300D01*
X0691135Y0343264D01*
X0691863Y0343156D01*
X0692577Y0342977D01*
X0693270Y0342729D01*
X0693935Y0342414D01*
X0694567Y0342036D01*
X0695158Y0341598D01*
X0695703Y0341103D01*
X0696198Y0340558D01*
X0696636Y0339967D01*
X0697014Y0339335D01*
X0697329Y0338670D01*
X0697577Y0337977D01*
X0697756Y0337263D01*
X0697864Y0336535D01*
X0697900Y0335800D01*
X0697864Y0335065D01*
X0697756Y0334337D01*
X0697577Y0333623D01*
X0697329Y0332930D01*
X0697014Y0332265D01*
X0696636Y0331633D01*
X0696198Y0331042D01*
X0695703Y0330497D01*
X0695158Y0330002D01*
X0694567Y0329564D01*
X0693935Y0329186D01*
G37*

G36*
X0577778Y0372222D02*
X0576978Y0371497D01*
X0576111Y0370854D01*
X0575185Y0370299D01*
X0574210Y0369837D01*
X0573193Y0369474D01*
X0572146Y0369211D01*
X0571078Y0369053D01*
X0570000Y0369000D01*
X0568922Y0369053D01*
X0567854Y0369211D01*
X0566807Y0369474D01*
X0565790Y0369837D01*
X0564815Y0370299D01*
X0563889Y0370854D01*
X0563022Y0371497D01*
X0562222Y0372222D01*
X0561497Y0373022D01*
X0560854Y0373889D01*
X0560299Y0374815D01*
X0559837Y0375790D01*
X0559474Y0376807D01*
X0559211Y0377854D01*
X0559053Y0378922D01*
X0559000Y0380000D01*
X0559053Y0381078D01*
X0559211Y0382146D01*
X0559474Y0383193D01*
X0559837Y0384210D01*
X0560299Y0385185D01*
X0560854Y0386111D01*
X0561497Y0386978D01*
X0562222Y0387778D01*
X0563022Y0388503D01*
X0563889Y0389146D01*
X0564815Y0389701D01*
X0565790Y0390163D01*
X0566807Y0390526D01*
X0567854Y0390789D01*
X0568922Y0390947D01*
X0570000Y0391000D01*
X0571078Y0390947D01*
X0572146Y0390789D01*
X0573193Y0390526D01*
X0574210Y0390163D01*
X0575185Y0389701D01*
X0576111Y0389146D01*
X0576978Y0388503D01*
X0577778Y0387778D01*
X0578503Y0386978D01*
X0579146Y0386111D01*
X0579701Y0385185D01*
X0580163Y0384210D01*
X0580526Y0383193D01*
X0580789Y0382146D01*
X0580947Y0381078D01*
X0581000Y0380000D01*
X0580947Y0378922D01*
X0580789Y0377854D01*
X0580526Y0376807D01*
X0580163Y0375790D01*
X0579701Y0374815D01*
X0579146Y0373889D01*
X0578503Y0373022D01*
X0577778Y0372222D01*
G37*

G36*
X0537121Y0435344D02*
X0536903Y0435147D01*
X0536667Y0434971D01*
X0536414Y0434820D01*
X0536148Y0434694D01*
X0535871Y0434595D01*
X0535585Y0434523D01*
X0535294Y0434480D01*
X0535000Y0434466D01*
X0534706Y0434480D01*
X0534415Y0434523D01*
X0534129Y0434595D01*
X0533852Y0434694D01*
X0533586Y0434820D01*
X0533333Y0434971D01*
X0533097Y0435147D01*
X0532879Y0435344D01*
X0532681Y0435563D01*
X0532506Y0435799D01*
X0532354Y0436052D01*
X0532228Y0436318D01*
X0532129Y0436595D01*
X0532058Y0436880D01*
X0532014Y0437172D01*
X0532000Y0437466D01*
X0532014Y0437760D01*
X0532058Y0438051D01*
X0532129Y0438337D01*
X0532228Y0438614D01*
X0532354Y0438880D01*
X0532506Y0439132D01*
X0532681Y0439369D01*
X0532879Y0439587D01*
X0533097Y0439785D01*
X0533333Y0439960D01*
X0533586Y0440111D01*
X0533852Y0440237D01*
X0534129Y0440337D01*
X0534415Y0440408D01*
X0534706Y0440451D01*
X0535000Y0440466D01*
X0535294Y0440451D01*
X0535585Y0440408D01*
X0535871Y0440337D01*
X0536148Y0440237D01*
X0536414Y0440111D01*
X0536667Y0439960D01*
X0536903Y0439785D01*
X0537121Y0439587D01*
X0537319Y0439369D01*
X0537494Y0439132D01*
X0537646Y0438880D01*
X0537772Y0438614D01*
X0537871Y0438337D01*
X0537942Y0438051D01*
X0537986Y0437760D01*
X0538000Y0437466D01*
X0537986Y0437172D01*
X0537942Y0436880D01*
X0537871Y0436595D01*
X0537772Y0436318D01*
X0537646Y0436052D01*
X0537494Y0435799D01*
X0537319Y0435563D01*
X0537121Y0435344D01*
G37*

G36*
X0727121Y0435344D02*
X0726903Y0435147D01*
X0726667Y0434971D01*
X0726414Y0434820D01*
X0726148Y0434694D01*
X0725871Y0434595D01*
X0725585Y0434523D01*
X0725294Y0434480D01*
X0725000Y0434466D01*
X0724706Y0434480D01*
X0724415Y0434523D01*
X0724129Y0434595D01*
X0723852Y0434694D01*
X0723586Y0434820D01*
X0723333Y0434971D01*
X0723097Y0435147D01*
X0722879Y0435344D01*
X0722681Y0435563D01*
X0722506Y0435799D01*
X0722354Y0436052D01*
X0722228Y0436318D01*
X0722129Y0436595D01*
X0722058Y0436880D01*
X0722014Y0437172D01*
X0722000Y0437466D01*
X0722014Y0437760D01*
X0722058Y0438051D01*
X0722129Y0438337D01*
X0722228Y0438614D01*
X0722354Y0438880D01*
X0722506Y0439132D01*
X0722681Y0439369D01*
X0722879Y0439587D01*
X0723097Y0439785D01*
X0723333Y0439960D01*
X0723586Y0440111D01*
X0723852Y0440237D01*
X0724129Y0440337D01*
X0724415Y0440408D01*
X0724706Y0440451D01*
X0725000Y0440466D01*
X0725294Y0440451D01*
X0725585Y0440408D01*
X0725871Y0440337D01*
X0726148Y0440237D01*
X0726414Y0440111D01*
X0726667Y0439960D01*
X0726903Y0439785D01*
X0727121Y0439587D01*
X0727319Y0439369D01*
X0727494Y0439132D01*
X0727646Y0438880D01*
X0727772Y0438614D01*
X0727871Y0438337D01*
X0727942Y0438051D01*
X0727986Y0437760D01*
X0728000Y0437466D01*
X0727986Y0437172D01*
X0727942Y0436880D01*
X0727871Y0436595D01*
X0727772Y0436318D01*
X0727646Y0436052D01*
X0727494Y0435799D01*
X0727319Y0435563D01*
X0727121Y0435344D01*
G37*

G36*
X0617453Y0467147D02*
X0616667Y0466866D01*
X0615858Y0466663D01*
X0615033Y0466541D01*
X0614200Y0466500D01*
X0613367Y0466541D01*
X0612542Y0466663D01*
X0611733Y0466866D01*
X0610947Y0467147D01*
X0610193Y0467504D01*
X0609478Y0467933D01*
X0608808Y0468429D01*
X0608190Y0468990D01*
X0607629Y0469608D01*
X0607133Y0470278D01*
X0606704Y0470993D01*
X0606347Y0471747D01*
X0606066Y0472533D01*
X0605863Y0473342D01*
X0605741Y0474167D01*
X0605700Y0475000D01*
X0605741Y0475833D01*
X0605863Y0476658D01*
X0606066Y0477467D01*
X0606347Y0478253D01*
X0606704Y0479007D01*
X0607133Y0479722D01*
X0607629Y0480392D01*
X0608190Y0481010D01*
X0608808Y0481571D01*
X0609478Y0482067D01*
X0610193Y0482496D01*
X0610947Y0482853D01*
X0611733Y0483134D01*
X0612542Y0483337D01*
X0613367Y0483459D01*
X0614200Y0483500D01*
X0615033Y0483459D01*
X0615858Y0483337D01*
X0616667Y0483134D01*
X0617453Y0482853D01*
X0618207Y0482496D01*
X0618922Y0482067D01*
X0619592Y0481571D01*
X0620210Y0481010D01*
X0620771Y0480392D01*
X0621267Y0479722D01*
X0621696Y0479007D01*
X0622053Y0478253D01*
X0622334Y0477467D01*
X0622537Y0476658D01*
X0622659Y0475833D01*
X0622700Y0475000D01*
X0622659Y0474167D01*
X0622537Y0473342D01*
X0622334Y0472533D01*
X0622053Y0471747D01*
X0621696Y0470993D01*
X0621267Y0470278D01*
X0620771Y0469608D01*
X0620210Y0468990D01*
X0619592Y0468429D01*
X0618922Y0467933D01*
X0618207Y0467504D01*
X0617453Y0467147D01*
G37*

G36*
X0674428Y0457362D02*
X0672654Y0456522D01*
X0670806Y0455861D01*
X0668902Y0455384D01*
X0666960Y0455096D01*
X0665000Y0455000D01*
X0663040Y0455096D01*
X0661098Y0455384D01*
X0659194Y0455861D01*
X0657346Y0456522D01*
X0655572Y0457362D01*
X0653889Y0458371D01*
X0652312Y0459540D01*
X0650858Y0460858D01*
X0649540Y0462312D01*
X0648371Y0463889D01*
X0647362Y0465572D01*
X0646522Y0467346D01*
X0645861Y0469194D01*
X0645384Y0471098D01*
X0645096Y0473040D01*
X0645000Y0475000D01*
X0645096Y0476960D01*
X0645384Y0478902D01*
X0645861Y0480806D01*
X0646522Y0482654D01*
X0647362Y0484428D01*
X0648371Y0486111D01*
X0649540Y0487688D01*
X0650858Y0489142D01*
X0652312Y0490460D01*
X0653889Y0491629D01*
X0655572Y0492638D01*
X0657346Y0493478D01*
X0659194Y0494139D01*
X0661098Y0494616D01*
X0663040Y0494904D01*
X0665000Y0495000D01*
X0666960Y0494904D01*
X0668902Y0494616D01*
X0670806Y0494139D01*
X0672654Y0493478D01*
X0674428Y0492638D01*
X0676111Y0491629D01*
X0677688Y0490460D01*
X0679142Y0489142D01*
X0680460Y0487688D01*
X0681629Y0486111D01*
X0682638Y0484428D01*
X0683478Y0482654D01*
X0684139Y0480806D01*
X0684616Y0478902D01*
X0684904Y0476960D01*
X0685000Y0475000D01*
X0684904Y0473040D01*
X0684616Y0471098D01*
X0684139Y0469194D01*
X0683478Y0467346D01*
X0682638Y0465572D01*
X0681629Y0463889D01*
X0680460Y0462312D01*
X0679142Y0460858D01*
X0677688Y0459540D01*
X0676111Y0458371D01*
X0674428Y0457362D01*
G37*

G36*
X0530522Y0467933D02*
X0529807Y0467504D01*
X0529053Y0467147D01*
X0528267Y0466866D01*
X0527458Y0466663D01*
X0526633Y0466541D01*
X0525800Y0466500D01*
X0524967Y0466541D01*
X0524142Y0466663D01*
X0523333Y0466866D01*
X0522547Y0467147D01*
X0521793Y0467504D01*
X0521078Y0467933D01*
X0520408Y0468429D01*
X0519790Y0468990D01*
X0519229Y0469608D01*
X0518733Y0470278D01*
X0518304Y0470993D01*
X0517947Y0471747D01*
X0517666Y0472533D01*
X0517463Y0473342D01*
X0517341Y0474167D01*
X0517300Y0475000D01*
X0517341Y0475833D01*
X0517463Y0476658D01*
X0517666Y0477467D01*
X0517947Y0478253D01*
X0518304Y0479007D01*
X0518733Y0479722D01*
X0519229Y0480392D01*
X0519790Y0481010D01*
X0520408Y0481571D01*
X0521078Y0482067D01*
X0521793Y0482496D01*
X0522547Y0482853D01*
X0523333Y0483134D01*
X0524142Y0483337D01*
X0524967Y0483459D01*
X0525800Y0483500D01*
X0526633Y0483459D01*
X0527458Y0483337D01*
X0528267Y0483134D01*
X0529053Y0482853D01*
X0529807Y0482496D01*
X0530522Y0482067D01*
X0531192Y0481571D01*
X0531810Y0481010D01*
X0532371Y0480392D01*
X0532867Y0479722D01*
X0533296Y0479007D01*
X0533653Y0478253D01*
X0533934Y0477467D01*
X0534137Y0476658D01*
X0534259Y0475833D01*
X0534300Y0475000D01*
X0534259Y0474167D01*
X0534137Y0473342D01*
X0533934Y0472533D01*
X0533653Y0471747D01*
X0533296Y0470993D01*
X0532867Y0470278D01*
X0532371Y0469608D01*
X0531810Y0468990D01*
X0531192Y0468429D01*
X0530522Y0467933D01*
G37*

G36*
X0719807Y0467504D02*
X0719053Y0467147D01*
X0718267Y0466866D01*
X0717458Y0466663D01*
X0716633Y0466541D01*
X0715800Y0466500D01*
X0714967Y0466541D01*
X0714142Y0466663D01*
X0713333Y0466866D01*
X0712547Y0467147D01*
X0711793Y0467504D01*
X0711078Y0467933D01*
X0710408Y0468429D01*
X0709790Y0468990D01*
X0709229Y0469608D01*
X0708733Y0470278D01*
X0708304Y0470993D01*
X0707947Y0471747D01*
X0707666Y0472533D01*
X0707463Y0473342D01*
X0707341Y0474167D01*
X0707300Y0475000D01*
X0707341Y0475833D01*
X0707463Y0476658D01*
X0707666Y0477467D01*
X0707947Y0478253D01*
X0708304Y0479007D01*
X0708733Y0479722D01*
X0709229Y0480392D01*
X0709790Y0481010D01*
X0710408Y0481571D01*
X0711078Y0482067D01*
X0711793Y0482496D01*
X0712547Y0482853D01*
X0713333Y0483134D01*
X0714142Y0483337D01*
X0714967Y0483459D01*
X0715800Y0483500D01*
X0716633Y0483459D01*
X0717458Y0483337D01*
X0718267Y0483134D01*
X0719053Y0482853D01*
X0719807Y0482496D01*
X0720522Y0482067D01*
X0721192Y0481571D01*
X0721810Y0481010D01*
X0722371Y0480392D01*
X0722867Y0479722D01*
X0723296Y0479007D01*
X0723653Y0478253D01*
X0723934Y0477467D01*
X0724137Y0476658D01*
X0724259Y0475833D01*
X0724300Y0475000D01*
X0724259Y0474167D01*
X0724137Y0473342D01*
X0723934Y0472533D01*
X0723653Y0471747D01*
X0723296Y0470993D01*
X0722867Y0470278D01*
X0722371Y0469608D01*
X0721810Y0468990D01*
X0721192Y0468429D01*
X0720522Y0467933D01*
X0719807Y0467504D01*
G37*

G36*
X0631067Y0494164D02*
X0630435Y0493786D01*
X0629770Y0493471D01*
X0629077Y0493223D01*
X0628363Y0493044D01*
X0627635Y0492936D01*
X0626900Y0492900D01*
X0626165Y0492936D01*
X0625437Y0493044D01*
X0624723Y0493223D01*
X0624030Y0493471D01*
X0623365Y0493786D01*
X0622733Y0494164D01*
X0622142Y0494602D01*
X0621597Y0495097D01*
X0621102Y0495642D01*
X0620664Y0496233D01*
X0620286Y0496865D01*
X0619971Y0497530D01*
X0619723Y0498223D01*
X0619544Y0498937D01*
X0619436Y0499665D01*
X0619400Y0500400D01*
X0619436Y0501135D01*
X0619544Y0501863D01*
X0619723Y0502577D01*
X0619971Y0503270D01*
X0620286Y0503935D01*
X0620664Y0504567D01*
X0621102Y0505158D01*
X0621597Y0505703D01*
X0622142Y0506198D01*
X0622733Y0506636D01*
X0623365Y0507014D01*
X0624030Y0507329D01*
X0624723Y0507577D01*
X0625437Y0507756D01*
X0626165Y0507864D01*
X0626900Y0507900D01*
X0627635Y0507864D01*
X0628363Y0507756D01*
X0629077Y0507577D01*
X0629770Y0507329D01*
X0630435Y0507014D01*
X0631067Y0506636D01*
X0631658Y0506198D01*
X0632203Y0505703D01*
X0632698Y0505158D01*
X0633136Y0504567D01*
X0633514Y0503935D01*
X0633829Y0503270D01*
X0634077Y0502577D01*
X0634256Y0501863D01*
X0634364Y0501135D01*
X0634400Y0500400D01*
X0634364Y0499665D01*
X0634256Y0498937D01*
X0634077Y0498223D01*
X0633829Y0497530D01*
X0633514Y0496865D01*
X0633136Y0496233D01*
X0632698Y0495642D01*
X0632203Y0495097D01*
X0631658Y0494602D01*
X0631067Y0494164D01*
G37*

G36*
X0693270Y0518871D02*
X0692577Y0518623D01*
X0691863Y0518444D01*
X0691135Y0518336D01*
X0690400Y0518300D01*
X0689665Y0518336D01*
X0688937Y0518444D01*
X0688223Y0518623D01*
X0687530Y0518871D01*
X0686865Y0519186D01*
X0686233Y0519564D01*
X0685642Y0520002D01*
X0685097Y0520497D01*
X0684602Y0521042D01*
X0684164Y0521633D01*
X0683786Y0522265D01*
X0683471Y0522930D01*
X0683223Y0523623D01*
X0683044Y0524337D01*
X0682936Y0525065D01*
X0682900Y0525800D01*
X0682936Y0526535D01*
X0683044Y0527263D01*
X0683223Y0527977D01*
X0683471Y0528670D01*
X0683786Y0529335D01*
X0684164Y0529967D01*
X0684602Y0530558D01*
X0685097Y0531103D01*
X0685642Y0531598D01*
X0686233Y0532036D01*
X0686865Y0532414D01*
X0687530Y0532729D01*
X0688223Y0532977D01*
X0688937Y0533156D01*
X0689665Y0533264D01*
X0690400Y0533300D01*
X0691135Y0533264D01*
X0691863Y0533156D01*
X0692577Y0532977D01*
X0693270Y0532729D01*
X0693935Y0532414D01*
X0694567Y0532036D01*
X0695158Y0531598D01*
X0695703Y0531103D01*
X0696198Y0530558D01*
X0696636Y0529967D01*
X0697014Y0529335D01*
X0697329Y0528670D01*
X0697577Y0527977D01*
X0697756Y0527263D01*
X0697864Y0526535D01*
X0697900Y0525800D01*
X0697864Y0525065D01*
X0697756Y0524337D01*
X0697577Y0523623D01*
X0697329Y0522930D01*
X0697014Y0522265D01*
X0696636Y0521633D01*
X0696198Y0521042D01*
X0695703Y0520497D01*
X0695158Y0520002D01*
X0694567Y0519564D01*
X0693935Y0519186D01*
X0693270Y0518871D01*
G37*

G36*
X0503270Y0518871D02*
X0502577Y0518623D01*
X0501863Y0518444D01*
X0501135Y0518336D01*
X0500400Y0518300D01*
X0499665Y0518336D01*
X0498937Y0518444D01*
X0498223Y0518623D01*
X0497530Y0518871D01*
X0496865Y0519186D01*
X0496233Y0519564D01*
X0495642Y0520002D01*
X0495097Y0520497D01*
X0494602Y0521042D01*
X0494164Y0521633D01*
X0493786Y0522265D01*
X0493471Y0522930D01*
X0493223Y0523623D01*
X0493044Y0524337D01*
X0492936Y0525065D01*
X0492900Y0525800D01*
X0492936Y0526535D01*
X0493044Y0527263D01*
X0493223Y0527977D01*
X0493471Y0528670D01*
X0493786Y0529335D01*
X0494164Y0529967D01*
X0494602Y0530558D01*
X0495097Y0531103D01*
X0495642Y0531598D01*
X0496233Y0532036D01*
X0496865Y0532414D01*
X0497530Y0532729D01*
X0498223Y0532977D01*
X0498937Y0533156D01*
X0499665Y0533264D01*
X0500400Y0533300D01*
X0501135Y0533264D01*
X0501863Y0533156D01*
X0502577Y0532977D01*
X0503270Y0532729D01*
X0503935Y0532414D01*
X0504567Y0532036D01*
X0505158Y0531598D01*
X0505703Y0531103D01*
X0506198Y0530558D01*
X0506636Y0529967D01*
X0507014Y0529335D01*
X0507329Y0528670D01*
X0507577Y0527977D01*
X0507756Y0527263D01*
X0507864Y0526535D01*
X0507900Y0525800D01*
X0507864Y0525065D01*
X0507756Y0524337D01*
X0507577Y0523623D01*
X0507329Y0522930D01*
X0507014Y0522265D01*
X0506636Y0521633D01*
X0506198Y0521042D01*
X0505703Y0520497D01*
X0505158Y0520002D01*
X0504567Y0519564D01*
X0503935Y0519186D01*
X0503270Y0518871D01*
G37*

M02*
