M48
FMAT,2
ICI,OFF
METRIC,TZ,000.000
T2C0.600
T3C0.800
T4C0.850
T5C1.500
%
G90
M71
T2
X34500Y43747
X53500Y43747
X72500Y43747
T3
X18870Y53120
X18870Y50580
X18870Y48040
X18870Y45500
X18870Y42960
X18870Y40420
X18870Y37880
X3630Y37880
X3630Y40420
X3630Y42960
X3630Y45500
X3630Y48040
X3630Y50580
X3630Y53120
T4
X5690Y21000
X8230Y21000
X10770Y21000
X13310Y21000
T5
X24690Y50040
X31040Y52580
X43690Y50040
X50040Y52580
X62690Y50040
X69040Y52580
X24690Y31040
X31040Y33580
X43690Y31040
X50040Y33580
X62690Y31040
X69040Y33580
X5690Y12040
X12040Y14580
X24690Y12040
X31040Y14580
X43690Y12040
X50040Y14580
X62690Y12040
X69040Y14580
M30
