G04 pcbflow Gerber RS-274X export*
G75*
%MOMM*%
%FSLAX34Y34*%
%LPD*%
%INBottom Documentation*%
%IPPOS*%
%AMOC8*
5,1,8,0,0,1.08239X$1,22.5*%
G01*
%ADD10C,0.010000*%
%TF.FileFunction,AssemblyDrawing,Bot*%G36*
X0050736Y0377485D02*
X0050830Y0377598D01*
X0050943Y0377692D01*
X0051073Y0377761D01*
X0051214Y0377804D01*
X0051360Y0377818D01*
X0077835Y0377818D01*
X0077835Y0376318D01*
X0052110Y0376318D01*
X0052110Y0350294D01*
X0077835Y0350294D01*
X0077835Y0348154D01*
X0043920Y0348154D01*
X0043774Y0348168D01*
X0043633Y0348211D01*
X0043503Y0348280D01*
X0043390Y0348374D01*
X0043296Y0348487D01*
X0043227Y0348617D01*
X0043184Y0348758D01*
X0043170Y0348904D01*
X0043184Y0349050D01*
X0043227Y0349191D01*
X0043296Y0349321D01*
X0043390Y0349434D01*
X0043503Y0349528D01*
X0043633Y0349597D01*
X0043774Y0349640D01*
X0043920Y0349654D01*
X0050610Y0349654D01*
X0050610Y0377068D01*
X0050624Y0377214D01*
X0050667Y0377355D01*
X0050736Y0377485D01*
G37*

G36*
X0077835Y0348154D02*
X0077835Y0350294D01*
X0086501Y0350294D01*
X0086501Y0348154D01*
X0077835Y0348154D01*
G37*

G36*
X0077835Y0376318D02*
X0077835Y0377818D01*
X0086501Y0377818D01*
X0086501Y0376318D01*
X0077835Y0376318D01*
G37*

G36*
X0090799Y0380779D02*
X0090806Y0380815D01*
X0090809Y0380851D01*
X0090820Y0380887D01*
X0090827Y0380923D01*
X0090834Y0380940D01*
X0090834Y0356340D01*
X0090827Y0356357D01*
X0090820Y0356393D01*
X0090809Y0356429D01*
X0090806Y0356465D01*
X0090799Y0356501D01*
X0090799Y0356538D01*
X0090795Y0356575D01*
X0090795Y0376318D01*
X0086501Y0376318D01*
X0086501Y0377818D01*
X0090795Y0377818D01*
X0090795Y0380705D01*
X0090799Y0380742D01*
X0090799Y0380779D01*
G37*

G36*
X0086501Y0348154D02*
X0086501Y0350294D01*
X0090834Y0350294D01*
X0090834Y0348154D01*
X0086501Y0348154D01*
G37*

G36*
X0090852Y0380992D02*
X0090869Y0381025D01*
X0090884Y0381059D01*
X0090904Y0381089D01*
X0090921Y0381122D01*
X0090945Y0381150D01*
X0090965Y0381181D01*
X0090991Y0381207D01*
X0091015Y0381235D01*
X0091043Y0381259D01*
X0091069Y0381285D01*
X0091100Y0381305D01*
X0091128Y0381329D01*
X0091161Y0381346D01*
X0091191Y0381366D01*
X0091225Y0381381D01*
X0091258Y0381398D01*
X0091293Y0381409D01*
X0091327Y0381423D01*
X0091363Y0381430D01*
X0091399Y0381441D01*
X0091435Y0381444D01*
X0091471Y0381451D01*
X0091508Y0381451D01*
X0091545Y0381455D01*
X0091581Y0381451D01*
X0093001Y0381452D01*
X0093001Y0379955D01*
X0092295Y0379955D01*
X0092295Y0377818D01*
X0092360Y0377818D01*
X0092506Y0377804D01*
X0092647Y0377761D01*
X0092777Y0377692D01*
X0092890Y0377598D01*
X0092984Y0377485D01*
X0093001Y0377452D01*
X0093001Y0348154D01*
X0090834Y0348154D01*
X0090834Y0350294D01*
X0091610Y0350294D01*
X0091610Y0355825D01*
X0091545Y0355825D01*
X0091399Y0355839D01*
X0091258Y0355882D01*
X0091128Y0355951D01*
X0091015Y0356045D01*
X0090921Y0356158D01*
X0090898Y0356202D01*
X0090884Y0356221D01*
X0090869Y0356255D01*
X0090852Y0356288D01*
X0090841Y0356323D01*
X0090834Y0356340D01*
X0090834Y0380940D01*
X0090841Y0380957D01*
X0090852Y0380992D01*
G37*

G36*
X0095168Y0381452D02*
X0095168Y0349806D01*
X0094750Y0349806D01*
X0094604Y0349820D01*
X0094463Y0349863D01*
X0094333Y0349932D01*
X0094220Y0350026D01*
X0094126Y0350139D01*
X0094057Y0350269D01*
X0094014Y0350410D01*
X0094000Y0350556D01*
X0094000Y0355826D01*
X0093110Y0355825D01*
X0093110Y0349654D01*
X0095168Y0349654D01*
X0095168Y0348154D01*
X0093001Y0348154D01*
X0093001Y0377452D01*
X0093053Y0377355D01*
X0093096Y0377214D01*
X0093110Y0377068D01*
X0093110Y0357322D01*
X0094000Y0357322D01*
X0094000Y0379556D01*
X0094014Y0379702D01*
X0094057Y0379843D01*
X0094117Y0379956D01*
X0093001Y0379955D01*
X0093001Y0381452D01*
X0095168Y0381452D01*
G37*

G36*
X0095500Y0355826D02*
X0095500Y0351306D01*
X0103834Y0351306D01*
X0103834Y0349806D01*
X0095168Y0349806D01*
X0095168Y0381452D01*
X0103834Y0381455D01*
X0103834Y0378806D01*
X0095500Y0378806D01*
X0095500Y0357322D01*
X0103834Y0357325D01*
X0103834Y0355828D01*
X0095500Y0355826D01*
G37*

G36*
X0105661Y0381441D02*
X0105802Y0381398D01*
X0105932Y0381329D01*
X0106045Y0381235D01*
X0106139Y0381122D01*
X0106162Y0381078D01*
X0106176Y0381059D01*
X0106191Y0381025D01*
X0106208Y0380992D01*
X0106219Y0380957D01*
X0106233Y0380923D01*
X0106240Y0380887D01*
X0106251Y0380851D01*
X0106254Y0380815D01*
X0106261Y0380779D01*
X0106261Y0380742D01*
X0106265Y0380705D01*
X0106265Y0380306D01*
X0112500Y0380306D01*
X0112500Y0378806D01*
X0106265Y0378806D01*
X0106265Y0356575D01*
X0106261Y0356538D01*
X0106261Y0356501D01*
X0106254Y0356465D01*
X0106251Y0356429D01*
X0106240Y0356393D01*
X0106233Y0356357D01*
X0106219Y0356323D01*
X0106208Y0356288D01*
X0106191Y0356255D01*
X0106176Y0356221D01*
X0106156Y0356191D01*
X0106139Y0356158D01*
X0106115Y0356130D01*
X0106095Y0356099D01*
X0106069Y0356073D01*
X0106045Y0356045D01*
X0106017Y0356021D01*
X0105991Y0355995D01*
X0105960Y0355975D01*
X0105932Y0355951D01*
X0105899Y0355934D01*
X0105869Y0355914D01*
X0105835Y0355899D01*
X0105802Y0355882D01*
X0105767Y0355871D01*
X0105733Y0355857D01*
X0105697Y0355850D01*
X0105661Y0355839D01*
X0105625Y0355836D01*
X0105589Y0355829D01*
X0105552Y0355829D01*
X0105515Y0355825D01*
X0105479Y0355829D01*
X0103834Y0355828D01*
X0103834Y0357325D01*
X0104765Y0357325D01*
X0104765Y0378806D01*
X0103834Y0378806D01*
X0103834Y0381455D01*
X0105515Y0381455D01*
X0105661Y0381441D01*
G37*

G36*
X0112500Y0351306D02*
X0112500Y0349806D01*
X0103834Y0349806D01*
X0103834Y0351306D01*
X0112500Y0351306D01*
G37*

G36*
X0112500Y0349654D02*
X0112500Y0348154D01*
X0095168Y0348154D01*
X0095168Y0349654D01*
X0112500Y0349654D01*
G37*

G36*
X0116195Y0380705D02*
X0116199Y0380742D01*
X0116199Y0380779D01*
X0116206Y0380815D01*
X0116209Y0380851D01*
X0116220Y0380887D01*
X0116227Y0380923D01*
X0116241Y0380957D01*
X0116252Y0380992D01*
X0116269Y0381025D01*
X0116284Y0381059D01*
X0116304Y0381089D01*
X0116321Y0381122D01*
X0116345Y0381150D01*
X0116365Y0381181D01*
X0116391Y0381207D01*
X0116415Y0381235D01*
X0116443Y0381259D01*
X0116469Y0381285D01*
X0116500Y0381305D01*
X0116528Y0381329D01*
X0116561Y0381346D01*
X0116591Y0381366D01*
X0116625Y0381381D01*
X0116658Y0381398D01*
X0116693Y0381409D01*
X0116727Y0381423D01*
X0116763Y0381430D01*
X0116799Y0381441D01*
X0116835Y0381444D01*
X0116871Y0381451D01*
X0116908Y0381451D01*
X0116945Y0381455D01*
X0116981Y0381451D01*
X0122082Y0381453D01*
X0122082Y0378806D01*
X0117695Y0378806D01*
X0117695Y0357322D01*
X0122082Y0357323D01*
X0122082Y0355826D01*
X0116945Y0355825D01*
X0116799Y0355839D01*
X0116658Y0355882D01*
X0116528Y0355951D01*
X0116415Y0356045D01*
X0116321Y0356158D01*
X0116298Y0356202D01*
X0116284Y0356221D01*
X0116269Y0356255D01*
X0116252Y0356288D01*
X0116241Y0356323D01*
X0116227Y0356357D01*
X0116220Y0356393D01*
X0116209Y0356429D01*
X0116206Y0356465D01*
X0116199Y0356501D01*
X0116199Y0356538D01*
X0116195Y0356575D01*
X0116195Y0378806D01*
X0112500Y0378806D01*
X0112500Y0380306D01*
X0116195Y0380306D01*
X0116195Y0380705D01*
G37*

G36*
X0112500Y0349806D02*
X0112500Y0351306D01*
X0122082Y0351306D01*
X0122082Y0349806D01*
X0112500Y0349806D01*
G37*

G36*
X0122082Y0349806D02*
X0122082Y0351306D01*
X0126750Y0351306D01*
X0126750Y0355828D01*
X0122082Y0355826D01*
X0122082Y0357323D01*
X0126750Y0357324D01*
X0126750Y0378806D01*
X0122082Y0378806D01*
X0122082Y0381453D01*
X0126874Y0381454D01*
X0126874Y0349806D01*
X0122082Y0349806D01*
G37*

G36*
X0128250Y0355828D02*
X0128250Y0350556D01*
X0128236Y0350410D01*
X0128193Y0350269D01*
X0128124Y0350139D01*
X0128030Y0350026D01*
X0127917Y0349932D01*
X0127787Y0349863D01*
X0127646Y0349820D01*
X0127500Y0349806D01*
X0126874Y0349806D01*
X0126874Y0381454D01*
X0129269Y0381455D01*
X0129269Y0379958D01*
X0128132Y0379958D01*
X0128193Y0379843D01*
X0128236Y0379702D01*
X0128250Y0379556D01*
X0128250Y0357324D01*
X0129269Y0357325D01*
X0129269Y0355828D01*
X0128250Y0355828D01*
G37*

G36*
X0131202Y0381398D02*
X0131332Y0381329D01*
X0131445Y0381235D01*
X0131539Y0381122D01*
X0131562Y0381078D01*
X0131576Y0381059D01*
X0131591Y0381025D01*
X0131608Y0380992D01*
X0131619Y0380957D01*
X0131633Y0380923D01*
X0131640Y0380887D01*
X0131651Y0380851D01*
X0131654Y0380815D01*
X0131661Y0380779D01*
X0131661Y0380742D01*
X0131665Y0380705D01*
X0131665Y0356575D01*
X0131661Y0356538D01*
X0131661Y0356501D01*
X0131654Y0356465D01*
X0131651Y0356429D01*
X0131640Y0356393D01*
X0131633Y0356357D01*
X0131619Y0356323D01*
X0131608Y0356288D01*
X0131591Y0356255D01*
X0131576Y0356221D01*
X0131556Y0356191D01*
X0131539Y0356158D01*
X0131515Y0356130D01*
X0131495Y0356099D01*
X0131469Y0356073D01*
X0131445Y0356045D01*
X0131417Y0356021D01*
X0131391Y0355995D01*
X0131360Y0355975D01*
X0131332Y0355951D01*
X0131299Y0355934D01*
X0131269Y0355914D01*
X0131235Y0355899D01*
X0131202Y0355882D01*
X0131167Y0355871D01*
X0131133Y0355857D01*
X0131097Y0355850D01*
X0131061Y0355839D01*
X0131025Y0355836D01*
X0130989Y0355829D01*
X0130952Y0355829D01*
X0130915Y0355825D01*
X0130879Y0355829D01*
X0129269Y0355828D01*
X0129269Y0357325D01*
X0130165Y0357325D01*
X0130165Y0379958D01*
X0129269Y0379958D01*
X0129269Y0381455D01*
X0130915Y0381455D01*
X0131061Y0381441D01*
X0131202Y0381398D01*
G37*

G36*
X0131890Y0377068D02*
X0131904Y0377214D01*
X0131947Y0377355D01*
X0132016Y0377485D01*
X0132110Y0377598D01*
X0132223Y0377692D01*
X0132353Y0377761D01*
X0132494Y0377804D01*
X0132640Y0377818D01*
X0147165Y0377818D01*
X0147165Y0376318D01*
X0133390Y0376318D01*
X0133390Y0350294D01*
X0147165Y0350294D01*
X0147165Y0348154D01*
X0112500Y0348154D01*
X0112500Y0349654D01*
X0131890Y0349654D01*
X0131890Y0377068D01*
G37*

G36*
X0173640Y0377818D02*
X0173786Y0377804D01*
X0173927Y0377761D01*
X0174057Y0377692D01*
X0174170Y0377598D01*
X0174264Y0377485D01*
X0174333Y0377355D01*
X0174376Y0377214D01*
X0174390Y0377068D01*
X0174390Y0349654D01*
X0181080Y0349654D01*
X0181226Y0349640D01*
X0181367Y0349597D01*
X0181497Y0349528D01*
X0181610Y0349434D01*
X0181704Y0349321D01*
X0181773Y0349191D01*
X0181816Y0349050D01*
X0181830Y0348904D01*
X0181816Y0348758D01*
X0181773Y0348617D01*
X0181704Y0348487D01*
X0181610Y0348374D01*
X0181497Y0348280D01*
X0181367Y0348211D01*
X0181226Y0348168D01*
X0181080Y0348154D01*
X0147165Y0348154D01*
X0147165Y0350294D01*
X0172890Y0350294D01*
X0172890Y0376318D01*
X0147165Y0376318D01*
X0147165Y0377818D01*
X0173640Y0377818D01*
G37*

G36*
X0074602Y0361563D02*
X0074418Y0361302D01*
X0074209Y0361061D01*
X0073978Y0360842D01*
X0073726Y0360646D01*
X0073456Y0360476D01*
X0073171Y0360333D01*
X0072873Y0360219D01*
X0072566Y0360135D01*
X0072252Y0360081D01*
X0071934Y0360058D01*
X0071615Y0360066D01*
X0071298Y0360106D01*
X0070988Y0360176D01*
X0070685Y0360277D01*
X0070394Y0360407D01*
X0070117Y0360564D01*
X0069856Y0360748D01*
X0069615Y0360957D01*
X0069396Y0361188D01*
X0069200Y0361440D01*
X0069030Y0361710D01*
X0068887Y0361995D01*
X0068773Y0362293D01*
X0068689Y0362600D01*
X0068635Y0362914D01*
X0068612Y0363232D01*
X0068620Y0363551D01*
X0068660Y0363868D01*
X0068730Y0364178D01*
X0068831Y0364481D01*
X0068961Y0364772D01*
X0069118Y0365049D01*
X0069302Y0365310D01*
X0069511Y0365551D01*
X0069742Y0365770D01*
X0069994Y0365966D01*
X0070264Y0366136D01*
X0070549Y0366279D01*
X0070847Y0366393D01*
X0071154Y0366477D01*
X0071468Y0366531D01*
X0071786Y0366554D01*
X0072105Y0366546D01*
X0072422Y0366506D01*
X0072732Y0366436D01*
X0073035Y0366335D01*
X0073326Y0366205D01*
X0073603Y0366048D01*
X0073864Y0365864D01*
X0074105Y0365655D01*
X0074324Y0365424D01*
X0074520Y0365172D01*
X0074690Y0364902D01*
X0074833Y0364617D01*
X0074947Y0364319D01*
X0075031Y0364012D01*
X0075085Y0363698D01*
X0075108Y0363380D01*
X0075100Y0363061D01*
X0075060Y0362744D01*
X0074990Y0362434D01*
X0074889Y0362131D01*
X0074759Y0361840D01*
X0074602Y0361563D01*
G37*

G36*
X0023887Y0369547D02*
X0023746Y0369504D01*
X0023600Y0369490D01*
X0023454Y0369504D01*
X0023313Y0369547D01*
X0023183Y0369616D01*
X0023070Y0369710D01*
X0022939Y0369886D01*
X0022882Y0370022D01*
X0022854Y0370166D01*
X0022854Y0375724D01*
X0022882Y0375868D01*
X0022939Y0376004D01*
X0023070Y0376180D01*
X0023246Y0376311D01*
X0023382Y0376368D01*
X0023526Y0376396D01*
X0023674Y0376396D01*
X0023818Y0376368D01*
X0023954Y0376311D01*
X0024076Y0376230D01*
X0024180Y0376126D01*
X0024261Y0376004D01*
X0024318Y0375868D01*
X0024346Y0375724D01*
X0024350Y0370240D01*
X0024336Y0370094D01*
X0024293Y0369953D01*
X0024224Y0369823D01*
X0024130Y0369710D01*
X0024017Y0369616D01*
X0023887Y0369547D01*
G37*

G36*
X0039012Y0376669D02*
X0038790Y0376414D01*
X0038544Y0376181D01*
X0038277Y0375974D01*
X0037990Y0375794D01*
X0037688Y0375642D01*
X0037371Y0375522D01*
X0037045Y0375432D01*
X0036711Y0375376D01*
X0036374Y0375352D01*
X0036035Y0375361D01*
X0035699Y0375404D01*
X0035369Y0375479D01*
X0035048Y0375586D01*
X0034739Y0375724D01*
X0034445Y0375892D01*
X0034169Y0376088D01*
X0033914Y0376310D01*
X0033681Y0376556D01*
X0033474Y0376823D01*
X0033294Y0377110D01*
X0033142Y0377412D01*
X0033022Y0377729D01*
X0032932Y0378055D01*
X0032876Y0378389D01*
X0032852Y0378726D01*
X0032861Y0379065D01*
X0032904Y0379401D01*
X0032979Y0379731D01*
X0033086Y0380052D01*
X0033224Y0380361D01*
X0033392Y0380655D01*
X0033588Y0380931D01*
X0033810Y0381186D01*
X0034056Y0381419D01*
X0034323Y0381626D01*
X0034610Y0381806D01*
X0034912Y0381958D01*
X0035229Y0382078D01*
X0035555Y0382168D01*
X0035889Y0382224D01*
X0036226Y0382248D01*
X0036565Y0382239D01*
X0036901Y0382196D01*
X0037231Y0382121D01*
X0037552Y0382014D01*
X0037861Y0381876D01*
X0038155Y0381708D01*
X0038431Y0381512D01*
X0038686Y0381290D01*
X0038919Y0381044D01*
X0039126Y0380777D01*
X0039306Y0380490D01*
X0039458Y0380188D01*
X0039578Y0379871D01*
X0039668Y0379545D01*
X0039724Y0379211D01*
X0039748Y0378874D01*
X0039739Y0378535D01*
X0039696Y0378199D01*
X0039621Y0377869D01*
X0039514Y0377548D01*
X0039376Y0377239D01*
X0039208Y0376945D01*
X0039012Y0376669D01*
G37*

G36*
X0023887Y0381257D02*
X0023746Y0381214D01*
X0023600Y0381200D01*
X0023454Y0381214D01*
X0023313Y0381257D01*
X0023183Y0381326D01*
X0023070Y0381420D01*
X0022976Y0381533D01*
X0022907Y0381663D01*
X0022864Y0381804D01*
X0022850Y0381950D01*
X0022850Y0401050D01*
X0022864Y0401196D01*
X0022907Y0401337D01*
X0022976Y0401467D01*
X0023070Y0401580D01*
X0023183Y0401674D01*
X0023313Y0401743D01*
X0023454Y0401786D01*
X0023600Y0401800D01*
X0023746Y0401786D01*
X0023887Y0401743D01*
X0024017Y0401674D01*
X0024130Y0401580D01*
X0024224Y0401467D01*
X0024293Y0401337D01*
X0024336Y0401196D01*
X0024350Y0401050D01*
X0024350Y0381950D01*
X0024336Y0381804D01*
X0024293Y0381663D01*
X0024224Y0381533D01*
X0024130Y0381420D01*
X0024017Y0381326D01*
X0023887Y0381257D01*
G37*

G36*
X0039208Y0402345D02*
X0039012Y0402069D01*
X0038790Y0401814D01*
X0038544Y0401581D01*
X0038277Y0401374D01*
X0037990Y0401194D01*
X0037688Y0401042D01*
X0037371Y0400922D01*
X0037045Y0400832D01*
X0036711Y0400776D01*
X0036374Y0400752D01*
X0036035Y0400761D01*
X0035699Y0400804D01*
X0035369Y0400879D01*
X0035048Y0400986D01*
X0034739Y0401124D01*
X0034445Y0401292D01*
X0034169Y0401488D01*
X0033914Y0401710D01*
X0033681Y0401956D01*
X0033474Y0402223D01*
X0033294Y0402510D01*
X0033142Y0402812D01*
X0033022Y0403129D01*
X0032932Y0403455D01*
X0032876Y0403789D01*
X0032852Y0404126D01*
X0032861Y0404465D01*
X0032904Y0404801D01*
X0032979Y0405131D01*
X0033086Y0405452D01*
X0033224Y0405761D01*
X0033392Y0406055D01*
X0033588Y0406331D01*
X0033810Y0406586D01*
X0034056Y0406819D01*
X0034323Y0407026D01*
X0034610Y0407206D01*
X0034912Y0407358D01*
X0035229Y0407478D01*
X0035555Y0407568D01*
X0035889Y0407624D01*
X0036226Y0407648D01*
X0036565Y0407639D01*
X0036901Y0407596D01*
X0037231Y0407521D01*
X0037552Y0407414D01*
X0037861Y0407276D01*
X0038155Y0407108D01*
X0038431Y0406912D01*
X0038686Y0406690D01*
X0038919Y0406444D01*
X0039126Y0406177D01*
X0039306Y0405890D01*
X0039458Y0405588D01*
X0039578Y0405271D01*
X0039668Y0404945D01*
X0039724Y0404611D01*
X0039748Y0404274D01*
X0039739Y0403935D01*
X0039696Y0403599D01*
X0039621Y0403269D01*
X0039514Y0402948D01*
X0039376Y0402639D01*
X0039208Y0402345D01*
G37*

G36*
X0023887Y0406657D02*
X0023746Y0406614D01*
X0023600Y0406600D01*
X0023454Y0406614D01*
X0023313Y0406657D01*
X0023183Y0406726D01*
X0023070Y0406820D01*
X0022976Y0406933D01*
X0022907Y0407063D01*
X0022864Y0407204D01*
X0022850Y0407350D01*
X0022850Y0426450D01*
X0022864Y0426596D01*
X0022907Y0426737D01*
X0022976Y0426867D01*
X0023070Y0426980D01*
X0023183Y0427074D01*
X0023313Y0427143D01*
X0023454Y0427186D01*
X0023600Y0427200D01*
X0023746Y0427186D01*
X0023887Y0427143D01*
X0024017Y0427074D01*
X0024130Y0426980D01*
X0024224Y0426867D01*
X0024293Y0426737D01*
X0024336Y0426596D01*
X0024350Y0426450D01*
X0024350Y0407350D01*
X0024336Y0407204D01*
X0024293Y0407063D01*
X0024224Y0406933D01*
X0024130Y0406820D01*
X0024017Y0406726D01*
X0023887Y0406657D01*
G37*

G36*
X0039012Y0427469D02*
X0038790Y0427214D01*
X0038544Y0426981D01*
X0038277Y0426774D01*
X0037990Y0426594D01*
X0037688Y0426442D01*
X0037371Y0426322D01*
X0037045Y0426232D01*
X0036711Y0426176D01*
X0036374Y0426152D01*
X0036035Y0426161D01*
X0035699Y0426204D01*
X0035369Y0426279D01*
X0035048Y0426386D01*
X0034739Y0426524D01*
X0034445Y0426692D01*
X0034169Y0426888D01*
X0033914Y0427110D01*
X0033681Y0427356D01*
X0033474Y0427623D01*
X0033294Y0427910D01*
X0033142Y0428212D01*
X0033022Y0428529D01*
X0032932Y0428855D01*
X0032876Y0429189D01*
X0032852Y0429526D01*
X0032861Y0429865D01*
X0032904Y0430201D01*
X0032979Y0430531D01*
X0033086Y0430852D01*
X0033224Y0431161D01*
X0033392Y0431455D01*
X0033588Y0431731D01*
X0033810Y0431986D01*
X0034056Y0432219D01*
X0034323Y0432426D01*
X0034610Y0432606D01*
X0034912Y0432758D01*
X0035229Y0432878D01*
X0035555Y0432968D01*
X0035889Y0433024D01*
X0036226Y0433048D01*
X0036565Y0433039D01*
X0036901Y0432996D01*
X0037231Y0432921D01*
X0037552Y0432814D01*
X0037861Y0432676D01*
X0038155Y0432508D01*
X0038431Y0432312D01*
X0038686Y0432090D01*
X0038919Y0431844D01*
X0039126Y0431577D01*
X0039306Y0431290D01*
X0039458Y0430988D01*
X0039578Y0430671D01*
X0039668Y0430345D01*
X0039724Y0430011D01*
X0039748Y0429674D01*
X0039739Y0429335D01*
X0039696Y0428999D01*
X0039621Y0428669D01*
X0039514Y0428348D01*
X0039376Y0428039D01*
X0039208Y0427745D01*
X0039012Y0427469D01*
G37*

G36*
X0023746Y0432014D02*
X0023600Y0432000D01*
X0023454Y0432014D01*
X0023313Y0432057D01*
X0023183Y0432126D01*
X0023070Y0432220D01*
X0022976Y0432333D01*
X0022907Y0432463D01*
X0022864Y0432604D01*
X0022850Y0432750D01*
X0022850Y0451850D01*
X0022864Y0451996D01*
X0022907Y0452137D01*
X0022976Y0452267D01*
X0023070Y0452380D01*
X0023183Y0452474D01*
X0023313Y0452543D01*
X0023454Y0452586D01*
X0023600Y0452600D01*
X0023746Y0452586D01*
X0023887Y0452543D01*
X0024017Y0452474D01*
X0024130Y0452380D01*
X0024224Y0452267D01*
X0024293Y0452137D01*
X0024336Y0451996D01*
X0024350Y0451850D01*
X0024350Y0432750D01*
X0024336Y0432604D01*
X0024293Y0432463D01*
X0024224Y0432333D01*
X0024130Y0432220D01*
X0024017Y0432126D01*
X0023887Y0432057D01*
X0023746Y0432014D01*
G37*

G36*
X0039208Y0453145D02*
X0039012Y0452869D01*
X0038790Y0452614D01*
X0038544Y0452381D01*
X0038277Y0452174D01*
X0037990Y0451994D01*
X0037688Y0451842D01*
X0037371Y0451722D01*
X0037045Y0451632D01*
X0036711Y0451576D01*
X0036374Y0451552D01*
X0036035Y0451561D01*
X0035699Y0451604D01*
X0035369Y0451679D01*
X0035048Y0451786D01*
X0034739Y0451924D01*
X0034445Y0452092D01*
X0034169Y0452288D01*
X0033914Y0452510D01*
X0033681Y0452756D01*
X0033474Y0453023D01*
X0033294Y0453310D01*
X0033142Y0453612D01*
X0033022Y0453929D01*
X0032932Y0454255D01*
X0032876Y0454589D01*
X0032852Y0454926D01*
X0032861Y0455265D01*
X0032904Y0455601D01*
X0032979Y0455931D01*
X0033086Y0456252D01*
X0033224Y0456561D01*
X0033392Y0456855D01*
X0033588Y0457131D01*
X0033810Y0457386D01*
X0034056Y0457619D01*
X0034323Y0457826D01*
X0034610Y0458006D01*
X0034912Y0458158D01*
X0035229Y0458278D01*
X0035555Y0458368D01*
X0035889Y0458424D01*
X0036226Y0458448D01*
X0036565Y0458439D01*
X0036901Y0458396D01*
X0037231Y0458321D01*
X0037552Y0458214D01*
X0037861Y0458076D01*
X0038155Y0457908D01*
X0038431Y0457712D01*
X0038686Y0457490D01*
X0038919Y0457244D01*
X0039126Y0456977D01*
X0039306Y0456690D01*
X0039458Y0456388D01*
X0039578Y0456071D01*
X0039668Y0455745D01*
X0039724Y0455411D01*
X0039748Y0455074D01*
X0039739Y0454735D01*
X0039696Y0454399D01*
X0039621Y0454069D01*
X0039514Y0453748D01*
X0039376Y0453439D01*
X0039208Y0453145D01*
G37*

G36*
X0023887Y0457457D02*
X0023746Y0457414D01*
X0023600Y0457400D01*
X0023454Y0457414D01*
X0023313Y0457457D01*
X0023183Y0457526D01*
X0023070Y0457620D01*
X0022976Y0457733D01*
X0022907Y0457863D01*
X0022864Y0458004D01*
X0022850Y0458150D01*
X0022850Y0477250D01*
X0022864Y0477396D01*
X0022907Y0477537D01*
X0022976Y0477667D01*
X0023070Y0477780D01*
X0023183Y0477874D01*
X0023313Y0477943D01*
X0023454Y0477986D01*
X0023600Y0478000D01*
X0023746Y0477986D01*
X0023887Y0477943D01*
X0024017Y0477874D01*
X0024130Y0477780D01*
X0024224Y0477667D01*
X0024293Y0477537D01*
X0024336Y0477396D01*
X0024350Y0477250D01*
X0024350Y0458150D01*
X0024336Y0458004D01*
X0024293Y0457863D01*
X0024224Y0457733D01*
X0024130Y0457620D01*
X0024017Y0457526D01*
X0023887Y0457457D01*
G37*

G36*
X0039208Y0478545D02*
X0039012Y0478269D01*
X0038790Y0478014D01*
X0038544Y0477781D01*
X0038277Y0477574D01*
X0037990Y0477394D01*
X0037688Y0477242D01*
X0037371Y0477122D01*
X0037045Y0477032D01*
X0036711Y0476976D01*
X0036374Y0476952D01*
X0036035Y0476961D01*
X0035699Y0477004D01*
X0035369Y0477079D01*
X0035048Y0477186D01*
X0034739Y0477324D01*
X0034445Y0477492D01*
X0034169Y0477688D01*
X0033914Y0477910D01*
X0033681Y0478156D01*
X0033474Y0478423D01*
X0033294Y0478710D01*
X0033142Y0479012D01*
X0033022Y0479329D01*
X0032932Y0479655D01*
X0032876Y0479989D01*
X0032852Y0480326D01*
X0032861Y0480665D01*
X0032904Y0481001D01*
X0032979Y0481331D01*
X0033086Y0481652D01*
X0033224Y0481961D01*
X0033392Y0482255D01*
X0033588Y0482531D01*
X0033810Y0482786D01*
X0034056Y0483019D01*
X0034323Y0483226D01*
X0034610Y0483406D01*
X0034912Y0483558D01*
X0035229Y0483678D01*
X0035555Y0483768D01*
X0035889Y0483824D01*
X0036226Y0483848D01*
X0036565Y0483839D01*
X0036901Y0483796D01*
X0037231Y0483721D01*
X0037552Y0483614D01*
X0037861Y0483476D01*
X0038155Y0483308D01*
X0038431Y0483112D01*
X0038686Y0482890D01*
X0038919Y0482644D01*
X0039126Y0482377D01*
X0039306Y0482090D01*
X0039458Y0481788D01*
X0039578Y0481471D01*
X0039668Y0481145D01*
X0039724Y0480811D01*
X0039748Y0480474D01*
X0039739Y0480135D01*
X0039696Y0479799D01*
X0039621Y0479469D01*
X0039514Y0479148D01*
X0039376Y0478839D01*
X0039208Y0478545D01*
G37*

G36*
X0023746Y0482814D02*
X0023600Y0482800D01*
X0023454Y0482814D01*
X0023313Y0482857D01*
X0023183Y0482926D01*
X0023070Y0483020D01*
X0022976Y0483133D01*
X0022907Y0483263D01*
X0022864Y0483404D01*
X0022850Y0483550D01*
X0022850Y0502650D01*
X0022864Y0502796D01*
X0022907Y0502937D01*
X0022976Y0503067D01*
X0023070Y0503180D01*
X0023183Y0503274D01*
X0023313Y0503343D01*
X0023454Y0503386D01*
X0023600Y0503400D01*
X0023746Y0503386D01*
X0023887Y0503343D01*
X0024017Y0503274D01*
X0024130Y0503180D01*
X0024224Y0503067D01*
X0024293Y0502937D01*
X0024336Y0502796D01*
X0024350Y0502650D01*
X0024350Y0483550D01*
X0024336Y0483404D01*
X0024293Y0483263D01*
X0024224Y0483133D01*
X0024130Y0483020D01*
X0024017Y0482926D01*
X0023887Y0482857D01*
X0023746Y0482814D01*
G37*

G36*
X0039012Y0503669D02*
X0038790Y0503414D01*
X0038544Y0503181D01*
X0038277Y0502974D01*
X0037990Y0502794D01*
X0037688Y0502642D01*
X0037371Y0502522D01*
X0037045Y0502432D01*
X0036711Y0502376D01*
X0036374Y0502352D01*
X0036035Y0502361D01*
X0035699Y0502404D01*
X0035369Y0502479D01*
X0035048Y0502586D01*
X0034739Y0502724D01*
X0034445Y0502892D01*
X0034169Y0503088D01*
X0033914Y0503310D01*
X0033681Y0503556D01*
X0033474Y0503823D01*
X0033294Y0504110D01*
X0033142Y0504412D01*
X0033022Y0504729D01*
X0032932Y0505055D01*
X0032876Y0505389D01*
X0032852Y0505726D01*
X0032861Y0506065D01*
X0032904Y0506401D01*
X0032979Y0506731D01*
X0033086Y0507052D01*
X0033224Y0507361D01*
X0033392Y0507655D01*
X0033588Y0507931D01*
X0033810Y0508186D01*
X0034056Y0508419D01*
X0034323Y0508626D01*
X0034610Y0508806D01*
X0034912Y0508958D01*
X0035229Y0509078D01*
X0035555Y0509168D01*
X0035889Y0509224D01*
X0036226Y0509248D01*
X0036565Y0509239D01*
X0036901Y0509196D01*
X0037231Y0509121D01*
X0037552Y0509014D01*
X0037861Y0508876D01*
X0038155Y0508708D01*
X0038431Y0508512D01*
X0038686Y0508290D01*
X0038919Y0508044D01*
X0039126Y0507777D01*
X0039306Y0507490D01*
X0039458Y0507188D01*
X0039578Y0506871D01*
X0039668Y0506545D01*
X0039724Y0506211D01*
X0039748Y0505874D01*
X0039739Y0505535D01*
X0039696Y0505199D01*
X0039621Y0504869D01*
X0039514Y0504548D01*
X0039376Y0504239D01*
X0039208Y0503945D01*
X0039012Y0503669D01*
G37*

G36*
X0086134Y0510115D02*
X0085964Y0509875D01*
X0085772Y0509652D01*
X0085559Y0509449D01*
X0085327Y0509268D01*
X0085078Y0509111D01*
X0084815Y0508978D01*
X0084541Y0508872D01*
X0084257Y0508794D01*
X0083967Y0508743D01*
X0083674Y0508722D01*
X0083379Y0508729D01*
X0083087Y0508765D01*
X0082800Y0508830D01*
X0082521Y0508922D01*
X0082252Y0509041D01*
X0081995Y0509186D01*
X0081755Y0509356D01*
X0081532Y0509548D01*
X0081329Y0509761D01*
X0081148Y0509993D01*
X0080991Y0510242D01*
X0080858Y0510505D01*
X0080752Y0510779D01*
X0080674Y0511063D01*
X0080623Y0511353D01*
X0080602Y0511646D01*
X0080609Y0511941D01*
X0080645Y0512233D01*
X0080710Y0512520D01*
X0080802Y0512799D01*
X0080921Y0513068D01*
X0081066Y0513325D01*
X0081236Y0513565D01*
X0081428Y0513788D01*
X0081641Y0513991D01*
X0081873Y0514172D01*
X0082122Y0514329D01*
X0082385Y0514462D01*
X0082659Y0514568D01*
X0082943Y0514646D01*
X0083233Y0514697D01*
X0083526Y0514718D01*
X0083821Y0514711D01*
X0084113Y0514675D01*
X0084400Y0514610D01*
X0084679Y0514518D01*
X0084948Y0514399D01*
X0085205Y0514254D01*
X0085445Y0514084D01*
X0085668Y0513892D01*
X0085871Y0513679D01*
X0086052Y0513447D01*
X0086209Y0513198D01*
X0086342Y0512935D01*
X0086448Y0512661D01*
X0086526Y0512377D01*
X0086577Y0512087D01*
X0086598Y0511794D01*
X0086591Y0511499D01*
X0086555Y0511207D01*
X0086490Y0510920D01*
X0086398Y0510641D01*
X0086279Y0510372D01*
X0086134Y0510115D01*
G37*

G36*
X0090129Y0522411D02*
X0090275Y0522425D01*
X0098530Y0522425D01*
X0098530Y0520925D01*
X0091025Y0520925D01*
X0091025Y0505915D01*
X0098530Y0505915D01*
X0098530Y0504415D01*
X0090275Y0504415D01*
X0090129Y0504429D01*
X0089988Y0504472D01*
X0089858Y0504541D01*
X0089745Y0504635D01*
X0089651Y0504748D01*
X0089582Y0504878D01*
X0089539Y0505019D01*
X0089525Y0505165D01*
X0089525Y0521675D01*
X0089539Y0521821D01*
X0089582Y0521962D01*
X0089651Y0522092D01*
X0089745Y0522205D01*
X0089858Y0522299D01*
X0089988Y0522368D01*
X0090129Y0522411D01*
G37*

G36*
X0106785Y0522425D02*
X0106931Y0522411D01*
X0107072Y0522368D01*
X0107202Y0522299D01*
X0107315Y0522205D01*
X0107409Y0522092D01*
X0107478Y0521962D01*
X0107521Y0521821D01*
X0107535Y0521675D01*
X0107535Y0505165D01*
X0107521Y0505019D01*
X0107478Y0504878D01*
X0107409Y0504748D01*
X0107315Y0504635D01*
X0107202Y0504541D01*
X0107072Y0504472D01*
X0106931Y0504429D01*
X0106785Y0504415D01*
X0098530Y0504415D01*
X0098530Y0505915D01*
X0106035Y0505915D01*
X0106035Y0520925D01*
X0098530Y0520925D01*
X0098530Y0522425D01*
X0106785Y0522425D01*
G37*

G36*
X0023887Y0508257D02*
X0023746Y0508214D01*
X0023600Y0508200D01*
X0023454Y0508214D01*
X0023313Y0508257D01*
X0023183Y0508326D01*
X0023070Y0508420D01*
X0022976Y0508533D01*
X0022907Y0508663D01*
X0022864Y0508804D01*
X0022850Y0508950D01*
X0022850Y0528050D01*
X0022864Y0528196D01*
X0022907Y0528337D01*
X0022976Y0528467D01*
X0023070Y0528580D01*
X0023183Y0528674D01*
X0023313Y0528743D01*
X0023454Y0528786D01*
X0023600Y0528800D01*
X0023746Y0528786D01*
X0023887Y0528743D01*
X0024017Y0528674D01*
X0024130Y0528580D01*
X0024224Y0528467D01*
X0024293Y0528337D01*
X0024336Y0528196D01*
X0024350Y0528050D01*
X0024350Y0508950D01*
X0024336Y0508804D01*
X0024293Y0508663D01*
X0024224Y0508533D01*
X0024130Y0508420D01*
X0024017Y0508326D01*
X0023887Y0508257D01*
G37*

G36*
X0039208Y0529345D02*
X0039012Y0529069D01*
X0038790Y0528814D01*
X0038544Y0528581D01*
X0038277Y0528374D01*
X0037990Y0528194D01*
X0037688Y0528042D01*
X0037371Y0527922D01*
X0037045Y0527832D01*
X0036711Y0527776D01*
X0036374Y0527752D01*
X0036035Y0527761D01*
X0035699Y0527804D01*
X0035369Y0527879D01*
X0035048Y0527986D01*
X0034739Y0528124D01*
X0034445Y0528292D01*
X0034169Y0528488D01*
X0033914Y0528710D01*
X0033681Y0528956D01*
X0033474Y0529223D01*
X0033294Y0529510D01*
X0033142Y0529812D01*
X0033022Y0530129D01*
X0032932Y0530455D01*
X0032876Y0530789D01*
X0032852Y0531126D01*
X0032861Y0531465D01*
X0032904Y0531801D01*
X0032979Y0532131D01*
X0033086Y0532452D01*
X0033224Y0532761D01*
X0033392Y0533055D01*
X0033588Y0533331D01*
X0033810Y0533586D01*
X0034056Y0533819D01*
X0034323Y0534026D01*
X0034610Y0534206D01*
X0034912Y0534358D01*
X0035229Y0534478D01*
X0035555Y0534568D01*
X0035889Y0534624D01*
X0036226Y0534648D01*
X0036565Y0534639D01*
X0036901Y0534596D01*
X0037231Y0534521D01*
X0037552Y0534414D01*
X0037861Y0534276D01*
X0038155Y0534108D01*
X0038431Y0533912D01*
X0038686Y0533690D01*
X0038919Y0533444D01*
X0039126Y0533177D01*
X0039306Y0532890D01*
X0039458Y0532588D01*
X0039578Y0532271D01*
X0039668Y0531945D01*
X0039724Y0531611D01*
X0039748Y0531274D01*
X0039739Y0530935D01*
X0039696Y0530599D01*
X0039621Y0530269D01*
X0039514Y0529948D01*
X0039376Y0529639D01*
X0039208Y0529345D01*
G37*

G36*
X0063776Y0575591D02*
X0063922Y0575605D01*
X0112500Y0575605D01*
X0112500Y0574105D01*
X0064672Y0574105D01*
X0064672Y0560670D01*
X0112500Y0560670D01*
X0112500Y0559170D01*
X0064672Y0559170D01*
X0064672Y0494970D01*
X0112500Y0494970D01*
X0112500Y0493470D01*
X0063922Y0493470D01*
X0063776Y0493484D01*
X0063635Y0493527D01*
X0063506Y0493596D01*
X0063392Y0493690D01*
X0063299Y0493803D01*
X0063230Y0493933D01*
X0063187Y0494074D01*
X0063172Y0494220D01*
X0063172Y0559170D01*
X0043920Y0559170D01*
X0043774Y0559184D01*
X0043633Y0559227D01*
X0043503Y0559296D01*
X0043390Y0559390D01*
X0043296Y0559503D01*
X0043227Y0559633D01*
X0043184Y0559774D01*
X0043170Y0559920D01*
X0043184Y0560066D01*
X0043227Y0560207D01*
X0043296Y0560337D01*
X0043390Y0560450D01*
X0043503Y0560544D01*
X0043633Y0560613D01*
X0043774Y0560656D01*
X0043920Y0560670D01*
X0063172Y0560670D01*
X0063172Y0574855D01*
X0063187Y0575001D01*
X0063230Y0575142D01*
X0063299Y0575272D01*
X0063392Y0575385D01*
X0063506Y0575479D01*
X0063635Y0575548D01*
X0063776Y0575591D01*
G37*

G36*
X0161078Y0575605D02*
X0161224Y0575591D01*
X0161365Y0575548D01*
X0161494Y0575479D01*
X0161608Y0575385D01*
X0161701Y0575272D01*
X0161770Y0575142D01*
X0161813Y0575001D01*
X0161828Y0574855D01*
X0161828Y0560670D01*
X0181080Y0560670D01*
X0181226Y0560656D01*
X0181367Y0560613D01*
X0181497Y0560544D01*
X0181610Y0560450D01*
X0181704Y0560337D01*
X0181773Y0560207D01*
X0181816Y0560066D01*
X0181830Y0559920D01*
X0181816Y0559774D01*
X0181773Y0559633D01*
X0181704Y0559503D01*
X0181610Y0559390D01*
X0181497Y0559296D01*
X0181367Y0559227D01*
X0181226Y0559184D01*
X0181080Y0559170D01*
X0161828Y0559170D01*
X0161828Y0494220D01*
X0161813Y0494074D01*
X0161770Y0493933D01*
X0161701Y0493803D01*
X0161608Y0493690D01*
X0161494Y0493596D01*
X0161365Y0493527D01*
X0161224Y0493484D01*
X0161078Y0493470D01*
X0112500Y0493470D01*
X0112500Y0494970D01*
X0160328Y0494970D01*
X0160328Y0559170D01*
X0112500Y0559170D01*
X0112500Y0560670D01*
X0160328Y0560670D01*
X0160328Y0574105D01*
X0112500Y0574105D01*
X0112500Y0575605D01*
X0161078Y0575605D01*
G37*

G36*
X0023818Y0533632D02*
X0023674Y0533604D01*
X0023526Y0533604D01*
X0023382Y0533632D01*
X0023246Y0533689D01*
X0023124Y0533770D01*
X0023020Y0533874D01*
X0022939Y0533996D01*
X0022882Y0534132D01*
X0022854Y0534276D01*
X0022854Y0539674D01*
X0022882Y0539818D01*
X0022939Y0539954D01*
X0023070Y0540130D01*
X0023246Y0540261D01*
X0023382Y0540318D01*
X0023526Y0540346D01*
X0023674Y0540346D01*
X0023818Y0540318D01*
X0023954Y0540261D01*
X0024076Y0540180D01*
X0024180Y0540076D01*
X0024261Y0539954D01*
X0024318Y0539818D01*
X0024346Y0539674D01*
X0024350Y0534350D01*
X0024336Y0534204D01*
X0024293Y0534063D01*
X0024180Y0533874D01*
X0024076Y0533770D01*
X0023954Y0533689D01*
X0023818Y0533632D01*
G37*

G36*
X0090129Y0547811D02*
X0090275Y0547825D01*
X0098530Y0547825D01*
X0098530Y0546325D01*
X0091025Y0546325D01*
X0091025Y0531315D01*
X0098530Y0531315D01*
X0098530Y0529815D01*
X0090275Y0529815D01*
X0090129Y0529829D01*
X0089988Y0529872D01*
X0089858Y0529941D01*
X0089745Y0530035D01*
X0089651Y0530148D01*
X0089582Y0530278D01*
X0089539Y0530419D01*
X0089525Y0530565D01*
X0089525Y0547075D01*
X0089539Y0547221D01*
X0089582Y0547362D01*
X0089651Y0547492D01*
X0089745Y0547605D01*
X0089858Y0547699D01*
X0089988Y0547768D01*
X0090129Y0547811D01*
G37*

G36*
X0106785Y0547825D02*
X0106931Y0547811D01*
X0107072Y0547768D01*
X0107202Y0547699D01*
X0107315Y0547605D01*
X0107409Y0547492D01*
X0107478Y0547362D01*
X0107521Y0547221D01*
X0107535Y0547075D01*
X0107535Y0530565D01*
X0107521Y0530419D01*
X0107478Y0530278D01*
X0107409Y0530148D01*
X0107315Y0530035D01*
X0107202Y0529941D01*
X0107072Y0529872D01*
X0106931Y0529829D01*
X0106785Y0529815D01*
X0098530Y0529815D01*
X0098530Y0531315D01*
X0106035Y0531315D01*
X0106035Y0546325D01*
X0098530Y0546325D01*
X0098530Y0547825D01*
X0106785Y0547825D01*
G37*

G36*
X0114939Y0505019D02*
X0114925Y0505165D01*
X0114925Y0521675D01*
X0114939Y0521821D01*
X0114982Y0521962D01*
X0115051Y0522092D01*
X0115145Y0522205D01*
X0115258Y0522299D01*
X0115388Y0522368D01*
X0115529Y0522411D01*
X0115675Y0522425D01*
X0123930Y0522425D01*
X0123930Y0520925D01*
X0116425Y0520925D01*
X0116425Y0505915D01*
X0123930Y0505915D01*
X0123930Y0504415D01*
X0115675Y0504415D01*
X0115529Y0504429D01*
X0115388Y0504472D01*
X0115258Y0504541D01*
X0115145Y0504635D01*
X0115051Y0504748D01*
X0114982Y0504878D01*
X0114939Y0505019D01*
G37*

G36*
X0132185Y0522425D02*
X0132331Y0522411D01*
X0132472Y0522368D01*
X0132602Y0522299D01*
X0132715Y0522205D01*
X0132809Y0522092D01*
X0132878Y0521962D01*
X0132921Y0521821D01*
X0132935Y0521675D01*
X0132935Y0505165D01*
X0132921Y0505019D01*
X0132878Y0504878D01*
X0132809Y0504748D01*
X0132715Y0504635D01*
X0132602Y0504541D01*
X0132472Y0504472D01*
X0132331Y0504429D01*
X0132185Y0504415D01*
X0123930Y0504415D01*
X0123930Y0505915D01*
X0131435Y0505915D01*
X0131435Y0520925D01*
X0123930Y0520925D01*
X0123930Y0522425D01*
X0132185Y0522425D01*
G37*

G36*
X0114939Y0530419D02*
X0114925Y0530565D01*
X0114925Y0547075D01*
X0114939Y0547221D01*
X0114982Y0547362D01*
X0115051Y0547492D01*
X0115145Y0547605D01*
X0115258Y0547699D01*
X0115388Y0547768D01*
X0115529Y0547811D01*
X0115675Y0547825D01*
X0123930Y0547825D01*
X0123930Y0546325D01*
X0116425Y0546325D01*
X0116425Y0531315D01*
X0123930Y0531315D01*
X0123930Y0529815D01*
X0115675Y0529815D01*
X0115529Y0529829D01*
X0115388Y0529872D01*
X0115258Y0529941D01*
X0115145Y0530035D01*
X0115051Y0530148D01*
X0114982Y0530278D01*
X0114939Y0530419D01*
G37*

G36*
X0132185Y0547825D02*
X0132331Y0547811D01*
X0132472Y0547768D01*
X0132602Y0547699D01*
X0132715Y0547605D01*
X0132809Y0547492D01*
X0132878Y0547362D01*
X0132921Y0547221D01*
X0132935Y0547075D01*
X0132935Y0530565D01*
X0132921Y0530419D01*
X0132878Y0530278D01*
X0132809Y0530148D01*
X0132715Y0530035D01*
X0132602Y0529941D01*
X0132472Y0529872D01*
X0132331Y0529829D01*
X0132185Y0529815D01*
X0123930Y0529815D01*
X0123930Y0531315D01*
X0131435Y0531315D01*
X0131435Y0546325D01*
X0123930Y0546325D01*
X0123930Y0547825D01*
X0132185Y0547825D01*
G37*

G36*
X0155882Y0361563D02*
X0155698Y0361302D01*
X0155489Y0361061D01*
X0155258Y0360842D01*
X0155006Y0360646D01*
X0154736Y0360476D01*
X0154451Y0360333D01*
X0154153Y0360219D01*
X0153846Y0360135D01*
X0153532Y0360081D01*
X0153214Y0360058D01*
X0152895Y0360066D01*
X0152578Y0360106D01*
X0152268Y0360176D01*
X0151965Y0360277D01*
X0151674Y0360407D01*
X0151397Y0360564D01*
X0151136Y0360748D01*
X0150895Y0360957D01*
X0150676Y0361188D01*
X0150480Y0361440D01*
X0150310Y0361710D01*
X0150167Y0361995D01*
X0150053Y0362293D01*
X0149969Y0362600D01*
X0149915Y0362914D01*
X0149892Y0363232D01*
X0149900Y0363551D01*
X0149940Y0363868D01*
X0150010Y0364178D01*
X0150111Y0364481D01*
X0150241Y0364772D01*
X0150398Y0365049D01*
X0150582Y0365310D01*
X0150791Y0365551D01*
X0151022Y0365770D01*
X0151274Y0365966D01*
X0151544Y0366136D01*
X0151829Y0366279D01*
X0152127Y0366393D01*
X0152434Y0366477D01*
X0152748Y0366531D01*
X0153066Y0366554D01*
X0153385Y0366546D01*
X0153702Y0366506D01*
X0154012Y0366436D01*
X0154315Y0366335D01*
X0154606Y0366205D01*
X0154883Y0366048D01*
X0155144Y0365864D01*
X0155385Y0365655D01*
X0155604Y0365424D01*
X0155800Y0365172D01*
X0155970Y0364902D01*
X0156113Y0364617D01*
X0156227Y0364319D01*
X0156311Y0364012D01*
X0156365Y0363698D01*
X0156388Y0363380D01*
X0156380Y0363061D01*
X0156340Y0362744D01*
X0156270Y0362434D01*
X0156169Y0362131D01*
X0156039Y0361840D01*
X0155882Y0361563D01*
G37*

G36*
X0201254Y0376386D02*
X0201400Y0376400D01*
X0201546Y0376386D01*
X0201687Y0376343D01*
X0201817Y0376274D01*
X0201930Y0376180D01*
X0202024Y0376067D01*
X0202093Y0375937D01*
X0202146Y0375724D01*
X0202146Y0370166D01*
X0202093Y0369953D01*
X0202024Y0369823D01*
X0201930Y0369710D01*
X0201754Y0369579D01*
X0201618Y0369522D01*
X0201474Y0369494D01*
X0201326Y0369494D01*
X0201182Y0369522D01*
X0201046Y0369579D01*
X0200924Y0369660D01*
X0200820Y0369764D01*
X0200739Y0369886D01*
X0200682Y0370022D01*
X0200654Y0370166D01*
X0200650Y0375650D01*
X0200664Y0375796D01*
X0200707Y0375937D01*
X0200776Y0376067D01*
X0200870Y0376180D01*
X0200983Y0376274D01*
X0201113Y0376343D01*
X0201254Y0376386D01*
G37*

G36*
X0191608Y0376945D02*
X0191412Y0376669D01*
X0191190Y0376414D01*
X0190944Y0376181D01*
X0190677Y0375974D01*
X0190390Y0375794D01*
X0190088Y0375642D01*
X0189771Y0375522D01*
X0189445Y0375432D01*
X0189111Y0375376D01*
X0188774Y0375352D01*
X0188435Y0375361D01*
X0188099Y0375404D01*
X0187769Y0375479D01*
X0187448Y0375586D01*
X0187139Y0375724D01*
X0186845Y0375892D01*
X0186569Y0376088D01*
X0186314Y0376310D01*
X0186081Y0376556D01*
X0185874Y0376823D01*
X0185694Y0377110D01*
X0185542Y0377412D01*
X0185422Y0377729D01*
X0185332Y0378055D01*
X0185276Y0378389D01*
X0185252Y0378726D01*
X0185261Y0379065D01*
X0185304Y0379401D01*
X0185379Y0379731D01*
X0185486Y0380052D01*
X0185624Y0380361D01*
X0185792Y0380655D01*
X0185988Y0380931D01*
X0186210Y0381186D01*
X0186456Y0381419D01*
X0186723Y0381626D01*
X0187010Y0381806D01*
X0187312Y0381958D01*
X0187629Y0382078D01*
X0187955Y0382168D01*
X0188289Y0382224D01*
X0188626Y0382248D01*
X0188965Y0382239D01*
X0189301Y0382196D01*
X0189631Y0382121D01*
X0189952Y0382014D01*
X0190261Y0381876D01*
X0190555Y0381708D01*
X0190831Y0381512D01*
X0191086Y0381290D01*
X0191319Y0381044D01*
X0191526Y0380777D01*
X0191706Y0380490D01*
X0191858Y0380188D01*
X0191978Y0379871D01*
X0192068Y0379545D01*
X0192124Y0379211D01*
X0192148Y0378874D01*
X0192139Y0378535D01*
X0192096Y0378199D01*
X0192021Y0377869D01*
X0191914Y0377548D01*
X0191776Y0377239D01*
X0191608Y0376945D01*
G37*

G36*
X0201113Y0401743D02*
X0201254Y0401786D01*
X0201400Y0401800D01*
X0201546Y0401786D01*
X0201687Y0401743D01*
X0201817Y0401674D01*
X0201930Y0401580D01*
X0202024Y0401467D01*
X0202093Y0401337D01*
X0202136Y0401196D01*
X0202150Y0401050D01*
X0202150Y0381950D01*
X0202136Y0381804D01*
X0202093Y0381663D01*
X0202024Y0381533D01*
X0201930Y0381420D01*
X0201817Y0381326D01*
X0201687Y0381257D01*
X0201546Y0381214D01*
X0201400Y0381200D01*
X0201254Y0381214D01*
X0201113Y0381257D01*
X0200983Y0381326D01*
X0200870Y0381420D01*
X0200776Y0381533D01*
X0200707Y0381663D01*
X0200664Y0381804D01*
X0200650Y0381950D01*
X0200650Y0401050D01*
X0200664Y0401196D01*
X0200707Y0401337D01*
X0200776Y0401467D01*
X0200870Y0401580D01*
X0200983Y0401674D01*
X0201113Y0401743D01*
G37*

G36*
X0191608Y0402345D02*
X0191412Y0402069D01*
X0191190Y0401814D01*
X0190944Y0401581D01*
X0190677Y0401374D01*
X0190390Y0401194D01*
X0190088Y0401042D01*
X0189771Y0400922D01*
X0189445Y0400832D01*
X0189111Y0400776D01*
X0188774Y0400752D01*
X0188435Y0400761D01*
X0188099Y0400804D01*
X0187769Y0400879D01*
X0187448Y0400986D01*
X0187139Y0401124D01*
X0186845Y0401292D01*
X0186569Y0401488D01*
X0186314Y0401710D01*
X0186081Y0401956D01*
X0185874Y0402223D01*
X0185694Y0402510D01*
X0185542Y0402812D01*
X0185422Y0403129D01*
X0185332Y0403455D01*
X0185276Y0403789D01*
X0185252Y0404126D01*
X0185261Y0404465D01*
X0185304Y0404801D01*
X0185379Y0405131D01*
X0185486Y0405452D01*
X0185624Y0405761D01*
X0185792Y0406055D01*
X0185988Y0406331D01*
X0186210Y0406586D01*
X0186456Y0406819D01*
X0186723Y0407026D01*
X0187010Y0407206D01*
X0187312Y0407358D01*
X0187629Y0407478D01*
X0187955Y0407568D01*
X0188289Y0407624D01*
X0188626Y0407648D01*
X0188965Y0407639D01*
X0189301Y0407596D01*
X0189631Y0407521D01*
X0189952Y0407414D01*
X0190261Y0407276D01*
X0190555Y0407108D01*
X0190831Y0406912D01*
X0191086Y0406690D01*
X0191319Y0406444D01*
X0191526Y0406177D01*
X0191706Y0405890D01*
X0191858Y0405588D01*
X0191978Y0405271D01*
X0192068Y0404945D01*
X0192124Y0404611D01*
X0192148Y0404274D01*
X0192139Y0403935D01*
X0192096Y0403599D01*
X0192021Y0403269D01*
X0191914Y0402948D01*
X0191776Y0402639D01*
X0191608Y0402345D01*
G37*

G36*
X0201113Y0427143D02*
X0201254Y0427186D01*
X0201400Y0427200D01*
X0201546Y0427186D01*
X0201687Y0427143D01*
X0201817Y0427074D01*
X0201930Y0426980D01*
X0202024Y0426867D01*
X0202093Y0426737D01*
X0202136Y0426596D01*
X0202150Y0426450D01*
X0202150Y0407350D01*
X0202136Y0407204D01*
X0202093Y0407063D01*
X0202024Y0406933D01*
X0201930Y0406820D01*
X0201817Y0406726D01*
X0201687Y0406657D01*
X0201546Y0406614D01*
X0201400Y0406600D01*
X0201254Y0406614D01*
X0201113Y0406657D01*
X0200983Y0406726D01*
X0200870Y0406820D01*
X0200776Y0406933D01*
X0200707Y0407063D01*
X0200664Y0407204D01*
X0200650Y0407350D01*
X0200650Y0426450D01*
X0200664Y0426596D01*
X0200707Y0426737D01*
X0200776Y0426867D01*
X0200870Y0426980D01*
X0200983Y0427074D01*
X0201113Y0427143D01*
G37*

G36*
X0191608Y0427745D02*
X0191412Y0427469D01*
X0191190Y0427214D01*
X0190944Y0426981D01*
X0190677Y0426774D01*
X0190390Y0426594D01*
X0190088Y0426442D01*
X0189771Y0426322D01*
X0189445Y0426232D01*
X0189111Y0426176D01*
X0188774Y0426152D01*
X0188435Y0426161D01*
X0188099Y0426204D01*
X0187769Y0426279D01*
X0187448Y0426386D01*
X0187139Y0426524D01*
X0186845Y0426692D01*
X0186569Y0426888D01*
X0186314Y0427110D01*
X0186081Y0427356D01*
X0185874Y0427623D01*
X0185694Y0427910D01*
X0185542Y0428212D01*
X0185422Y0428529D01*
X0185332Y0428855D01*
X0185276Y0429189D01*
X0185252Y0429526D01*
X0185261Y0429865D01*
X0185304Y0430201D01*
X0185379Y0430531D01*
X0185486Y0430852D01*
X0185624Y0431161D01*
X0185792Y0431455D01*
X0185988Y0431731D01*
X0186210Y0431986D01*
X0186456Y0432219D01*
X0186723Y0432426D01*
X0187010Y0432606D01*
X0187312Y0432758D01*
X0187629Y0432878D01*
X0187955Y0432968D01*
X0188289Y0433024D01*
X0188626Y0433048D01*
X0188965Y0433039D01*
X0189301Y0432996D01*
X0189631Y0432921D01*
X0189952Y0432814D01*
X0190261Y0432676D01*
X0190555Y0432508D01*
X0190831Y0432312D01*
X0191086Y0432090D01*
X0191319Y0431844D01*
X0191526Y0431577D01*
X0191706Y0431290D01*
X0191858Y0430988D01*
X0191978Y0430671D01*
X0192068Y0430345D01*
X0192124Y0430011D01*
X0192148Y0429674D01*
X0192139Y0429335D01*
X0192096Y0428999D01*
X0192021Y0428669D01*
X0191914Y0428348D01*
X0191776Y0428039D01*
X0191608Y0427745D01*
G37*

G36*
X0201113Y0452543D02*
X0201254Y0452586D01*
X0201400Y0452600D01*
X0201546Y0452586D01*
X0201687Y0452543D01*
X0201817Y0452474D01*
X0201930Y0452380D01*
X0202024Y0452267D01*
X0202093Y0452137D01*
X0202136Y0451996D01*
X0202150Y0451850D01*
X0202150Y0432750D01*
X0202136Y0432604D01*
X0202093Y0432463D01*
X0202024Y0432333D01*
X0201930Y0432220D01*
X0201817Y0432126D01*
X0201687Y0432057D01*
X0201546Y0432014D01*
X0201400Y0432000D01*
X0201254Y0432014D01*
X0201113Y0432057D01*
X0200983Y0432126D01*
X0200870Y0432220D01*
X0200776Y0432333D01*
X0200707Y0432463D01*
X0200664Y0432604D01*
X0200650Y0432750D01*
X0200650Y0451850D01*
X0200664Y0451996D01*
X0200707Y0452137D01*
X0200776Y0452267D01*
X0200870Y0452380D01*
X0200983Y0452474D01*
X0201113Y0452543D01*
G37*

G36*
X0191412Y0452869D02*
X0191190Y0452614D01*
X0190944Y0452381D01*
X0190677Y0452174D01*
X0190390Y0451994D01*
X0190088Y0451842D01*
X0189771Y0451722D01*
X0189445Y0451632D01*
X0189111Y0451576D01*
X0188774Y0451552D01*
X0188435Y0451561D01*
X0188099Y0451604D01*
X0187769Y0451679D01*
X0187448Y0451786D01*
X0187139Y0451924D01*
X0186845Y0452092D01*
X0186569Y0452288D01*
X0186314Y0452510D01*
X0186081Y0452756D01*
X0185874Y0453023D01*
X0185694Y0453310D01*
X0185542Y0453612D01*
X0185422Y0453929D01*
X0185332Y0454255D01*
X0185276Y0454589D01*
X0185252Y0454926D01*
X0185261Y0455265D01*
X0185304Y0455601D01*
X0185379Y0455931D01*
X0185486Y0456252D01*
X0185624Y0456561D01*
X0185792Y0456855D01*
X0185988Y0457131D01*
X0186210Y0457386D01*
X0186456Y0457619D01*
X0186723Y0457826D01*
X0187010Y0458006D01*
X0187312Y0458158D01*
X0187629Y0458278D01*
X0187955Y0458368D01*
X0188289Y0458424D01*
X0188626Y0458448D01*
X0188965Y0458439D01*
X0189301Y0458396D01*
X0189631Y0458321D01*
X0189952Y0458214D01*
X0190261Y0458076D01*
X0190555Y0457908D01*
X0190831Y0457712D01*
X0191086Y0457490D01*
X0191319Y0457244D01*
X0191526Y0456977D01*
X0191706Y0456690D01*
X0191858Y0456388D01*
X0191978Y0456071D01*
X0192068Y0455745D01*
X0192124Y0455411D01*
X0192148Y0455074D01*
X0192139Y0454735D01*
X0192096Y0454399D01*
X0192021Y0454069D01*
X0191914Y0453748D01*
X0191776Y0453439D01*
X0191608Y0453145D01*
X0191412Y0452869D01*
G37*

G36*
X0201254Y0477986D02*
X0201400Y0478000D01*
X0201546Y0477986D01*
X0201687Y0477943D01*
X0201817Y0477874D01*
X0201930Y0477780D01*
X0202024Y0477667D01*
X0202093Y0477537D01*
X0202136Y0477396D01*
X0202150Y0477250D01*
X0202150Y0458150D01*
X0202136Y0458004D01*
X0202093Y0457863D01*
X0202024Y0457733D01*
X0201930Y0457620D01*
X0201817Y0457526D01*
X0201687Y0457457D01*
X0201546Y0457414D01*
X0201400Y0457400D01*
X0201254Y0457414D01*
X0201113Y0457457D01*
X0200983Y0457526D01*
X0200870Y0457620D01*
X0200776Y0457733D01*
X0200707Y0457863D01*
X0200664Y0458004D01*
X0200650Y0458150D01*
X0200650Y0477250D01*
X0200664Y0477396D01*
X0200707Y0477537D01*
X0200776Y0477667D01*
X0200870Y0477780D01*
X0200983Y0477874D01*
X0201113Y0477943D01*
X0201254Y0477986D01*
G37*

G36*
X0191608Y0478545D02*
X0191412Y0478269D01*
X0191190Y0478014D01*
X0190944Y0477781D01*
X0190677Y0477574D01*
X0190390Y0477394D01*
X0190088Y0477242D01*
X0189771Y0477122D01*
X0189445Y0477032D01*
X0189111Y0476976D01*
X0188774Y0476952D01*
X0188435Y0476961D01*
X0188099Y0477004D01*
X0187769Y0477079D01*
X0187448Y0477186D01*
X0187139Y0477324D01*
X0186845Y0477492D01*
X0186569Y0477688D01*
X0186314Y0477910D01*
X0186081Y0478156D01*
X0185874Y0478423D01*
X0185694Y0478710D01*
X0185542Y0479012D01*
X0185422Y0479329D01*
X0185332Y0479655D01*
X0185276Y0479989D01*
X0185252Y0480326D01*
X0185261Y0480665D01*
X0185304Y0481001D01*
X0185379Y0481331D01*
X0185486Y0481652D01*
X0185624Y0481961D01*
X0185792Y0482255D01*
X0185988Y0482531D01*
X0186210Y0482786D01*
X0186456Y0483019D01*
X0186723Y0483226D01*
X0187010Y0483406D01*
X0187312Y0483558D01*
X0187629Y0483678D01*
X0187955Y0483768D01*
X0188289Y0483824D01*
X0188626Y0483848D01*
X0188965Y0483839D01*
X0189301Y0483796D01*
X0189631Y0483721D01*
X0189952Y0483614D01*
X0190261Y0483476D01*
X0190555Y0483308D01*
X0190831Y0483112D01*
X0191086Y0482890D01*
X0191319Y0482644D01*
X0191526Y0482377D01*
X0191706Y0482090D01*
X0191858Y0481788D01*
X0191978Y0481471D01*
X0192068Y0481145D01*
X0192124Y0480811D01*
X0192148Y0480474D01*
X0192139Y0480135D01*
X0192096Y0479799D01*
X0192021Y0479469D01*
X0191914Y0479148D01*
X0191776Y0478839D01*
X0191608Y0478545D01*
G37*

G36*
X0201113Y0503343D02*
X0201254Y0503386D01*
X0201400Y0503400D01*
X0201546Y0503386D01*
X0201687Y0503343D01*
X0201817Y0503274D01*
X0201930Y0503180D01*
X0202024Y0503067D01*
X0202093Y0502937D01*
X0202136Y0502796D01*
X0202150Y0502650D01*
X0202150Y0483550D01*
X0202136Y0483404D01*
X0202093Y0483263D01*
X0202024Y0483133D01*
X0201930Y0483020D01*
X0201817Y0482926D01*
X0201687Y0482857D01*
X0201546Y0482814D01*
X0201400Y0482800D01*
X0201254Y0482814D01*
X0201113Y0482857D01*
X0200983Y0482926D01*
X0200870Y0483020D01*
X0200776Y0483133D01*
X0200707Y0483263D01*
X0200664Y0483404D01*
X0200650Y0483550D01*
X0200650Y0502650D01*
X0200664Y0502796D01*
X0200707Y0502937D01*
X0200776Y0503067D01*
X0200870Y0503180D01*
X0200983Y0503274D01*
X0201113Y0503343D01*
G37*

G36*
X0191608Y0503945D02*
X0191412Y0503669D01*
X0191190Y0503414D01*
X0190944Y0503181D01*
X0190677Y0502974D01*
X0190390Y0502794D01*
X0190088Y0502642D01*
X0189771Y0502522D01*
X0189445Y0502432D01*
X0189111Y0502376D01*
X0188774Y0502352D01*
X0188435Y0502361D01*
X0188099Y0502404D01*
X0187769Y0502479D01*
X0187448Y0502586D01*
X0187139Y0502724D01*
X0186845Y0502892D01*
X0186569Y0503088D01*
X0186314Y0503310D01*
X0186081Y0503556D01*
X0185874Y0503823D01*
X0185694Y0504110D01*
X0185542Y0504412D01*
X0185422Y0504729D01*
X0185332Y0505055D01*
X0185276Y0505389D01*
X0185252Y0505726D01*
X0185261Y0506065D01*
X0185304Y0506401D01*
X0185379Y0506731D01*
X0185486Y0507052D01*
X0185624Y0507361D01*
X0185792Y0507655D01*
X0185988Y0507931D01*
X0186210Y0508186D01*
X0186456Y0508419D01*
X0186723Y0508626D01*
X0187010Y0508806D01*
X0187312Y0508958D01*
X0187629Y0509078D01*
X0187955Y0509168D01*
X0188289Y0509224D01*
X0188626Y0509248D01*
X0188965Y0509239D01*
X0189301Y0509196D01*
X0189631Y0509121D01*
X0189952Y0509014D01*
X0190261Y0508876D01*
X0190555Y0508708D01*
X0190831Y0508512D01*
X0191086Y0508290D01*
X0191319Y0508044D01*
X0191526Y0507777D01*
X0191706Y0507490D01*
X0191858Y0507188D01*
X0191978Y0506871D01*
X0192068Y0506545D01*
X0192124Y0506211D01*
X0192148Y0505874D01*
X0192139Y0505535D01*
X0192096Y0505199D01*
X0192021Y0504869D01*
X0191914Y0504548D01*
X0191776Y0504239D01*
X0191608Y0503945D01*
G37*

G36*
X0143764Y0509875D02*
X0143572Y0509652D01*
X0143359Y0509449D01*
X0143127Y0509268D01*
X0142878Y0509111D01*
X0142615Y0508978D01*
X0142341Y0508872D01*
X0142057Y0508794D01*
X0141767Y0508743D01*
X0141474Y0508722D01*
X0141179Y0508729D01*
X0140887Y0508765D01*
X0140600Y0508830D01*
X0140321Y0508922D01*
X0140052Y0509041D01*
X0139795Y0509186D01*
X0139555Y0509356D01*
X0139332Y0509548D01*
X0139129Y0509761D01*
X0138948Y0509993D01*
X0138791Y0510242D01*
X0138658Y0510505D01*
X0138552Y0510779D01*
X0138474Y0511063D01*
X0138423Y0511353D01*
X0138402Y0511646D01*
X0138409Y0511941D01*
X0138445Y0512233D01*
X0138510Y0512520D01*
X0138602Y0512799D01*
X0138721Y0513068D01*
X0138866Y0513325D01*
X0139036Y0513565D01*
X0139228Y0513788D01*
X0139441Y0513991D01*
X0139673Y0514172D01*
X0139922Y0514329D01*
X0140185Y0514462D01*
X0140459Y0514568D01*
X0140743Y0514646D01*
X0141033Y0514697D01*
X0141326Y0514718D01*
X0141621Y0514711D01*
X0141913Y0514675D01*
X0142200Y0514610D01*
X0142479Y0514518D01*
X0142748Y0514399D01*
X0143005Y0514254D01*
X0143245Y0514084D01*
X0143468Y0513892D01*
X0143671Y0513679D01*
X0143852Y0513447D01*
X0144009Y0513198D01*
X0144142Y0512935D01*
X0144248Y0512661D01*
X0144326Y0512377D01*
X0144377Y0512087D01*
X0144398Y0511794D01*
X0144391Y0511499D01*
X0144355Y0511207D01*
X0144290Y0510920D01*
X0144198Y0510641D01*
X0144079Y0510372D01*
X0143934Y0510115D01*
X0143764Y0509875D01*
G37*

G36*
X0201113Y0528743D02*
X0201254Y0528786D01*
X0201400Y0528800D01*
X0201546Y0528786D01*
X0201687Y0528743D01*
X0201817Y0528674D01*
X0201930Y0528580D01*
X0202024Y0528467D01*
X0202093Y0528337D01*
X0202136Y0528196D01*
X0202150Y0528050D01*
X0202150Y0508950D01*
X0202136Y0508804D01*
X0202093Y0508663D01*
X0202024Y0508533D01*
X0201930Y0508420D01*
X0201817Y0508326D01*
X0201687Y0508257D01*
X0201546Y0508214D01*
X0201400Y0508200D01*
X0201254Y0508214D01*
X0201113Y0508257D01*
X0200983Y0508326D01*
X0200870Y0508420D01*
X0200776Y0508533D01*
X0200707Y0508663D01*
X0200664Y0508804D01*
X0200650Y0508950D01*
X0200650Y0528050D01*
X0200664Y0528196D01*
X0200707Y0528337D01*
X0200776Y0528467D01*
X0200870Y0528580D01*
X0200983Y0528674D01*
X0201113Y0528743D01*
G37*

G36*
X0191608Y0529345D02*
X0191412Y0529069D01*
X0191190Y0528814D01*
X0190944Y0528581D01*
X0190677Y0528374D01*
X0190390Y0528194D01*
X0190088Y0528042D01*
X0189771Y0527922D01*
X0189445Y0527832D01*
X0189111Y0527776D01*
X0188774Y0527752D01*
X0188435Y0527761D01*
X0188099Y0527804D01*
X0187769Y0527879D01*
X0187448Y0527986D01*
X0187139Y0528124D01*
X0186845Y0528292D01*
X0186569Y0528488D01*
X0186314Y0528710D01*
X0186081Y0528956D01*
X0185874Y0529223D01*
X0185694Y0529510D01*
X0185542Y0529812D01*
X0185422Y0530129D01*
X0185332Y0530455D01*
X0185276Y0530789D01*
X0185252Y0531126D01*
X0185261Y0531465D01*
X0185304Y0531801D01*
X0185379Y0532131D01*
X0185486Y0532452D01*
X0185624Y0532761D01*
X0185792Y0533055D01*
X0185988Y0533331D01*
X0186210Y0533586D01*
X0186456Y0533819D01*
X0186723Y0534026D01*
X0187010Y0534206D01*
X0187312Y0534358D01*
X0187629Y0534478D01*
X0187955Y0534568D01*
X0188289Y0534624D01*
X0188626Y0534648D01*
X0188965Y0534639D01*
X0189301Y0534596D01*
X0189631Y0534521D01*
X0189952Y0534414D01*
X0190261Y0534276D01*
X0190555Y0534108D01*
X0190831Y0533912D01*
X0191086Y0533690D01*
X0191319Y0533444D01*
X0191526Y0533177D01*
X0191706Y0532890D01*
X0191858Y0532588D01*
X0191978Y0532271D01*
X0192068Y0531945D01*
X0192124Y0531611D01*
X0192148Y0531274D01*
X0192139Y0530935D01*
X0192096Y0530599D01*
X0192021Y0530269D01*
X0191914Y0529948D01*
X0191776Y0529639D01*
X0191608Y0529345D01*
G37*

G36*
X0201254Y0540336D02*
X0201400Y0540350D01*
X0201546Y0540336D01*
X0201687Y0540293D01*
X0201817Y0540224D01*
X0201930Y0540130D01*
X0202024Y0540017D01*
X0202093Y0539887D01*
X0202146Y0539674D01*
X0202146Y0534276D01*
X0202093Y0534063D01*
X0202024Y0533933D01*
X0201930Y0533820D01*
X0201754Y0533689D01*
X0201618Y0533632D01*
X0201474Y0533604D01*
X0201326Y0533604D01*
X0201182Y0533632D01*
X0201046Y0533689D01*
X0200924Y0533770D01*
X0200820Y0533874D01*
X0200739Y0533996D01*
X0200682Y0534132D01*
X0200654Y0534276D01*
X0200650Y0539600D01*
X0200664Y0539746D01*
X0200707Y0539887D01*
X0200776Y0540017D01*
X0200870Y0540130D01*
X0200983Y0540224D01*
X0201113Y0540293D01*
X0201254Y0540336D01*
G37*

M02*
