G04 pcbflow Gerber RS-274X export*
G75*
%MOMM*%
%FSLAX34Y34*%
%LPD*%
%INBottom Paste*%
%IPPOS*%
%AMOC8*
5,1,8,0,0,1.08239X$1,22.5*%
G01*
%ADD10C,0.010000*%
%TF.FileFunction,Paste,Bot*%G36*
X0150250Y0133750D02*
X0159750Y0133750D01*
X0159750Y0119750D01*
X0150250Y0119750D01*
X0150250Y0133750D01*
G37*

G36*
X0340250Y0133750D02*
X0349750Y0133750D01*
X0349750Y0119750D01*
X0340250Y0119750D01*
X0340250Y0133750D01*
G37*

G36*
X0150250Y0170250D02*
X0159750Y0170250D01*
X0159750Y0156250D01*
X0150250Y0156250D01*
X0150250Y0170250D01*
G37*

G36*
X0349750Y0170250D02*
X0349750Y0156250D01*
X0340250Y0156250D01*
X0340250Y0170250D01*
X0349750Y0170250D01*
G37*

G36*
X0349750Y0323750D02*
X0349750Y0309750D01*
X0340250Y0309750D01*
X0340250Y0323750D01*
X0349750Y0323750D01*
G37*

G36*
X0340250Y0360250D02*
X0349750Y0360250D01*
X0349750Y0346250D01*
X0340250Y0346250D01*
X0340250Y0360250D01*
G37*

G36*
X0340250Y0513750D02*
X0349750Y0513750D01*
X0349750Y0499750D01*
X0340250Y0499750D01*
X0340250Y0513750D01*
G37*

G36*
X0530250Y0513750D02*
X0539750Y0513750D01*
X0539750Y0499750D01*
X0530250Y0499750D01*
X0530250Y0513750D01*
G37*

G36*
X0349750Y0550250D02*
X0349750Y0536250D01*
X0340250Y0536250D01*
X0340250Y0550250D01*
X0349750Y0550250D01*
G37*

G36*
X0539750Y0550250D02*
X0539750Y0536250D01*
X0530250Y0536250D01*
X0530250Y0550250D01*
X0539750Y0550250D01*
G37*

G36*
X0530250Y0133750D02*
X0539750Y0133750D01*
X0539750Y0119750D01*
X0530250Y0119750D01*
X0530250Y0133750D01*
G37*

G36*
X0720250Y0133750D02*
X0729750Y0133750D01*
X0729750Y0119750D01*
X0720250Y0119750D01*
X0720250Y0133750D01*
G37*

G36*
X0530250Y0170250D02*
X0539750Y0170250D01*
X0539750Y0156250D01*
X0530250Y0156250D01*
X0530250Y0170250D01*
G37*

G36*
X0729750Y0170250D02*
X0729750Y0156250D01*
X0720250Y0156250D01*
X0720250Y0170250D01*
X0729750Y0170250D01*
G37*

G36*
X0539750Y0323750D02*
X0539750Y0309750D01*
X0530250Y0309750D01*
X0530250Y0323750D01*
X0539750Y0323750D01*
G37*

G36*
X0720250Y0323750D02*
X0729750Y0323750D01*
X0729750Y0309750D01*
X0720250Y0309750D01*
X0720250Y0323750D01*
G37*

G36*
X0530250Y0360250D02*
X0539750Y0360250D01*
X0539750Y0346250D01*
X0530250Y0346250D01*
X0530250Y0360250D01*
G37*

G36*
X0720250Y0360250D02*
X0729750Y0360250D01*
X0729750Y0346250D01*
X0720250Y0346250D01*
X0720250Y0360250D01*
G37*

G36*
X0729750Y0513750D02*
X0729750Y0499750D01*
X0720250Y0499750D01*
X0720250Y0513750D01*
X0729750Y0513750D01*
G37*

G36*
X0729750Y0550250D02*
X0729750Y0536250D01*
X0720250Y0536250D01*
X0720250Y0550250D01*
X0729750Y0550250D01*
G37*

M02*
