G04 pcbflow Gerber RS-274X export*
G75*
%MOMM*%
%FSLAX34Y34*%
%LPD*%
%INTop Silkscreen*%
%IPPOS*%
%AMOC8*
5,1,8,0,0,1.08239X$1,22.5*%
G01*
%ADD10C,0.010000*%
%TF.FileFunction,Legend,Top*%G36*
X0349790Y0080990D02*
X0349390Y0080998D01*
X0349390Y0084190D01*
X0348990Y0084199D01*
X0348990Y0088990D01*
X0348590Y0089000D01*
X0348590Y0213800D01*
X0348990Y0213810D01*
X0348990Y0219001D01*
X0349390Y0219010D01*
X0349390Y0222202D01*
X0349790Y0222210D01*
X0349790Y0224202D01*
X0350190Y0224210D01*
X0350190Y0226202D01*
X0350590Y0226210D01*
X0350590Y0227801D01*
X0350990Y0227810D01*
X0350990Y0229403D01*
X0351390Y0229410D01*
X0351390Y0230602D01*
X0351790Y0230610D01*
X0351790Y0231802D01*
X0352190Y0231810D01*
X0352191Y0233005D01*
X0352590Y0233010D01*
X0352591Y0234204D01*
X0352990Y0234210D01*
X0352993Y0235007D01*
X0353390Y0235010D01*
X0353390Y0236202D01*
X0353790Y0236210D01*
X0353791Y0237404D01*
X0354190Y0237410D01*
X0354191Y0238204D01*
X0354590Y0238210D01*
X0354590Y0239003D01*
X0354990Y0239010D01*
X0354993Y0239807D01*
X0355390Y0239810D01*
X0355392Y0240606D01*
X0355790Y0240610D01*
X0355791Y0241405D01*
X0356190Y0241410D01*
X0356191Y0242205D01*
X0356590Y0242210D01*
X0356591Y0243005D01*
X0356990Y0243010D01*
X0356991Y0243805D01*
X0357390Y0243810D01*
X0357395Y0244209D01*
X0357790Y0244210D01*
X0357790Y0245003D01*
X0358190Y0245010D01*
X0358191Y0245805D01*
X0358590Y0245810D01*
X0358595Y0246209D01*
X0358990Y0246210D01*
X0358991Y0247005D01*
X0359390Y0247010D01*
X0359395Y0247409D01*
X0359790Y0247410D01*
X0359791Y0248204D01*
X0360190Y0248210D01*
X0360195Y0248609D01*
X0360590Y0248610D01*
X0360592Y0249406D01*
X0360990Y0249410D01*
X0360991Y0249805D01*
X0361390Y0249810D01*
X0361394Y0250208D01*
X0361790Y0250210D01*
X0361793Y0251007D01*
X0362190Y0251010D01*
X0362191Y0251405D01*
X0362590Y0251410D01*
X0362594Y0251808D01*
X0362990Y0251810D01*
X0362992Y0252606D01*
X0363390Y0252610D01*
X0363392Y0253006D01*
X0363790Y0253010D01*
X0363795Y0253409D01*
X0364190Y0253410D01*
X0364192Y0253806D01*
X0364590Y0253810D01*
X0364595Y0254209D01*
X0364990Y0254210D01*
X0364994Y0254608D01*
X0365390Y0254610D01*
X0365392Y0255406D01*
X0365790Y0255410D01*
X0365795Y0255809D01*
X0366190Y0255810D01*
X0366191Y0256205D01*
X0366590Y0256210D01*
X0366594Y0256608D01*
X0366990Y0256610D01*
X0366992Y0257006D01*
X0367390Y0257010D01*
X0367395Y0257409D01*
X0367790Y0257410D01*
X0367791Y0257805D01*
X0368190Y0257810D01*
X0368194Y0258208D01*
X0368590Y0258210D01*
X0368594Y0258608D01*
X0368990Y0258610D01*
X0368992Y0259006D01*
X0369390Y0259010D01*
X0369395Y0259409D01*
X0369790Y0259410D01*
X0369794Y0259808D01*
X0370590Y0259810D01*
X0370592Y0260206D01*
X0370990Y0260210D01*
X0370992Y0260606D01*
X0371390Y0260610D01*
X0371395Y0261009D01*
X0371790Y0261010D01*
X0371791Y0261405D01*
X0372190Y0261410D01*
X0372194Y0261808D01*
X0372990Y0261810D01*
X0372992Y0262206D01*
X0373390Y0262210D01*
X0373392Y0262606D01*
X0373790Y0262610D01*
X0373795Y0263009D01*
X0374190Y0263010D01*
X0374194Y0263408D01*
X0374990Y0263410D01*
X0374991Y0263805D01*
X0375390Y0263810D01*
X0375396Y0264209D01*
X0376190Y0264210D01*
X0376192Y0264606D01*
X0376590Y0264610D01*
X0376595Y0265009D01*
X0376990Y0265010D01*
X0376994Y0265408D01*
X0377790Y0265410D01*
X0377797Y0265810D01*
X0378590Y0265810D01*
X0378591Y0266205D01*
X0378990Y0266210D01*
X0378993Y0266607D01*
X0379790Y0266610D01*
X0379791Y0267005D01*
X0380190Y0267010D01*
X0380194Y0267408D01*
X0380990Y0267410D01*
X0380993Y0267807D01*
X0381790Y0267810D01*
X0381797Y0268210D01*
X0382590Y0268210D01*
X0382596Y0268609D01*
X0383390Y0268610D01*
X0383396Y0269009D01*
X0384190Y0269010D01*
X0384196Y0269409D01*
X0384990Y0269410D01*
X0384996Y0269809D01*
X0385790Y0269810D01*
X0385796Y0270209D01*
X0386590Y0270210D01*
X0386596Y0270609D01*
X0387790Y0270610D01*
X0387794Y0271008D01*
X0388590Y0271010D01*
X0388597Y0271410D01*
X0389390Y0271410D01*
X0389396Y0271809D01*
X0390590Y0271810D01*
X0390596Y0272209D01*
X0391790Y0272210D01*
X0391795Y0272609D01*
X0392990Y0272610D01*
X0392998Y0273010D01*
X0394190Y0273010D01*
X0394198Y0273410D01*
X0395790Y0273410D01*
X0395794Y0273808D01*
X0396990Y0273810D01*
X0396997Y0274210D01*
X0398990Y0274210D01*
X0398996Y0274609D01*
X0400990Y0274610D01*
X0400999Y0275010D01*
X0403790Y0275010D01*
X0403799Y0275410D01*
X0408190Y0275410D01*
X0408200Y0275810D01*
X0542400Y0275810D01*
X0542400Y0155390D01*
X0475010Y0155390D01*
X0475010Y0139410D01*
X0542400Y0139408D01*
X0542400Y0106990D01*
X0541410Y0106990D01*
X0541402Y0106590D01*
X0539410Y0106590D01*
X0539405Y0106191D01*
X0538210Y0106190D01*
X0538206Y0105792D01*
X0537410Y0105790D01*
X0537403Y0105390D01*
X0536610Y0105390D01*
X0536604Y0104991D01*
X0535410Y0104990D01*
X0535405Y0104591D01*
X0534610Y0104590D01*
X0534609Y0104195D01*
X0534210Y0104190D01*
X0534206Y0103792D01*
X0533410Y0103790D01*
X0533409Y0103395D01*
X0533010Y0103390D01*
X0533004Y0102991D01*
X0532210Y0102990D01*
X0532208Y0102594D01*
X0531810Y0102590D01*
X0531805Y0102191D01*
X0531410Y0102190D01*
X0531406Y0101792D01*
X0530610Y0101790D01*
X0530608Y0101394D01*
X0530210Y0101390D01*
X0530208Y0100994D01*
X0529810Y0100990D01*
X0529805Y0100591D01*
X0529410Y0100590D01*
X0529408Y0100194D01*
X0529010Y0100190D01*
X0529005Y0099791D01*
X0528610Y0099790D01*
X0528606Y0099392D01*
X0528210Y0099390D01*
X0528207Y0098993D01*
X0527810Y0098990D01*
X0527808Y0098194D01*
X0527410Y0098190D01*
X0527409Y0097795D01*
X0527010Y0097790D01*
X0527006Y0097392D01*
X0526610Y0097390D01*
X0526608Y0096594D01*
X0526210Y0096590D01*
X0526205Y0096191D01*
X0525810Y0096190D01*
X0525809Y0095396D01*
X0525410Y0095390D01*
X0525410Y0094597D01*
X0525010Y0094590D01*
X0525008Y0093794D01*
X0524610Y0093790D01*
X0524609Y0092995D01*
X0524210Y0092990D01*
X0524207Y0092193D01*
X0523810Y0092190D01*
X0523809Y0090996D01*
X0523410Y0090990D01*
X0523410Y0089398D01*
X0523010Y0089390D01*
X0523009Y0087795D01*
X0522610Y0087790D01*
X0522610Y0084599D01*
X0522210Y0084590D01*
X0522210Y0081810D01*
X0522610Y0081802D01*
X0522610Y0078610D01*
X0523010Y0078602D01*
X0523010Y0077010D01*
X0523409Y0077004D01*
X0523410Y0075810D01*
X0523809Y0075804D01*
X0523810Y0074610D01*
X0524209Y0074604D01*
X0524210Y0073410D01*
X0524609Y0073405D01*
X0524610Y0072610D01*
X0525010Y0072603D01*
X0525010Y0071810D01*
X0525405Y0071809D01*
X0525410Y0071410D01*
X0525808Y0071406D01*
X0525810Y0070610D01*
X0526210Y0070603D01*
X0526210Y0069810D01*
X0526605Y0069809D01*
X0526610Y0069410D01*
X0527009Y0069404D01*
X0527010Y0068610D01*
X0527406Y0068608D01*
X0527410Y0068210D01*
X0527809Y0068205D01*
X0527810Y0067810D01*
X0528207Y0067807D01*
X0528210Y0067410D01*
X0528606Y0067408D01*
X0528610Y0067010D01*
X0529006Y0067008D01*
X0529010Y0066610D01*
X0529409Y0066605D01*
X0529410Y0066210D01*
X0529805Y0066209D01*
X0529810Y0065810D01*
X0530208Y0065806D01*
X0530210Y0065410D01*
X0530605Y0065409D01*
X0530610Y0065010D01*
X0531008Y0065006D01*
X0531010Y0064610D01*
X0531405Y0064609D01*
X0531410Y0064210D01*
X0531808Y0064206D01*
X0531810Y0063810D01*
X0532606Y0063808D01*
X0532610Y0063410D01*
X0533009Y0063405D01*
X0533010Y0063010D01*
X0533805Y0063009D01*
X0533810Y0062610D01*
X0534209Y0062605D01*
X0534210Y0062210D01*
X0535005Y0062209D01*
X0535010Y0061810D01*
X0535807Y0061807D01*
X0535810Y0061410D01*
X0537003Y0061410D01*
X0537010Y0061010D01*
X0537803Y0061010D01*
X0537810Y0060610D01*
X0538606Y0060608D01*
X0538610Y0060210D01*
X0540201Y0060210D01*
X0540210Y0059810D01*
X0541802Y0059810D01*
X0541810Y0059410D01*
X0542400Y0059410D01*
X0542400Y0026590D01*
X0542210Y0026590D01*
X0542201Y0026190D01*
X0540210Y0026190D01*
X0540204Y0025791D01*
X0538210Y0025790D01*
X0538202Y0025390D01*
X0535410Y0025390D01*
X0535402Y0024990D01*
X0533010Y0024990D01*
X0533003Y0024590D01*
X0530610Y0024590D01*
X0530601Y0024190D01*
X0528210Y0024190D01*
X0528201Y0023790D01*
X0525010Y0023790D01*
X0525003Y0023390D01*
X0522210Y0023390D01*
X0522201Y0022990D01*
X0518210Y0022990D01*
X0518201Y0022590D01*
X0514610Y0022590D01*
X0514601Y0022190D01*
X0510610Y0022190D01*
X0510601Y0021790D01*
X0506210Y0021790D01*
X0506201Y0021390D01*
X0500210Y0021390D01*
X0500200Y0020990D01*
X0491810Y0020990D01*
X0491800Y0020590D01*
X0459800Y0020590D01*
X0459790Y0020990D01*
X0451000Y0020990D01*
X0450990Y0021390D01*
X0444999Y0021390D01*
X0444990Y0021790D01*
X0440599Y0021790D01*
X0440590Y0022190D01*
X0436199Y0022190D01*
X0436190Y0022590D01*
X0432599Y0022590D01*
X0432590Y0022990D01*
X0428998Y0022990D01*
X0428990Y0023390D01*
X0425399Y0023390D01*
X0425390Y0023790D01*
X0422599Y0023790D01*
X0422590Y0024190D01*
X0419799Y0024190D01*
X0419790Y0024590D01*
X0416999Y0024590D01*
X0416990Y0024990D01*
X0414598Y0024990D01*
X0414590Y0025390D01*
X0411799Y0025390D01*
X0411790Y0025790D01*
X0409398Y0025790D01*
X0409390Y0026190D01*
X0407798Y0026190D01*
X0407790Y0026590D01*
X0406198Y0026590D01*
X0406190Y0026990D01*
X0404598Y0026990D01*
X0404590Y0027390D01*
X0402999Y0027390D01*
X0402990Y0027790D01*
X0401397Y0027790D01*
X0401390Y0028190D01*
X0400198Y0028190D01*
X0400190Y0028590D01*
X0398995Y0028591D01*
X0398990Y0028990D01*
X0397798Y0028990D01*
X0397790Y0029390D01*
X0396594Y0029392D01*
X0396590Y0029790D01*
X0395397Y0029790D01*
X0395390Y0030190D01*
X0394593Y0030193D01*
X0394590Y0030590D01*
X0393397Y0030590D01*
X0393390Y0030990D01*
X0392597Y0030990D01*
X0392590Y0031390D01*
X0391794Y0031392D01*
X0391790Y0031790D01*
X0390596Y0031791D01*
X0390590Y0032190D01*
X0389796Y0032191D01*
X0389790Y0032590D01*
X0388997Y0032590D01*
X0388990Y0032990D01*
X0388193Y0032993D01*
X0388190Y0033390D01*
X0387394Y0033392D01*
X0387390Y0033790D01*
X0386595Y0033791D01*
X0386590Y0034190D01*
X0385795Y0034191D01*
X0385790Y0034590D01*
X0384995Y0034591D01*
X0384990Y0034990D01*
X0384195Y0034991D01*
X0384190Y0035390D01*
X0383395Y0035391D01*
X0383390Y0035790D01*
X0382991Y0035795D01*
X0382990Y0036190D01*
X0382197Y0036190D01*
X0382190Y0036590D01*
X0381395Y0036591D01*
X0381390Y0036990D01*
X0380991Y0036995D01*
X0380990Y0037390D01*
X0380195Y0037391D01*
X0380190Y0037790D01*
X0379791Y0037795D01*
X0379790Y0038190D01*
X0378995Y0038191D01*
X0378990Y0038590D01*
X0378591Y0038595D01*
X0378590Y0038990D01*
X0377796Y0038991D01*
X0377790Y0039390D01*
X0377391Y0039395D01*
X0377390Y0039790D01*
X0376594Y0039792D01*
X0376590Y0040190D01*
X0376191Y0040195D01*
X0376190Y0040590D01*
X0375394Y0040592D01*
X0375390Y0040990D01*
X0374995Y0040991D01*
X0374990Y0041390D01*
X0374592Y0041394D01*
X0374590Y0041790D01*
X0373793Y0041793D01*
X0373790Y0042190D01*
X0373394Y0042192D01*
X0373390Y0042590D01*
X0372995Y0042591D01*
X0372990Y0042990D01*
X0372592Y0042994D01*
X0372590Y0043390D01*
X0372192Y0043394D01*
X0372190Y0043790D01*
X0371393Y0043793D01*
X0371390Y0044190D01*
X0370994Y0044192D01*
X0370990Y0044590D01*
X0370591Y0044595D01*
X0370590Y0044990D01*
X0370194Y0044992D01*
X0370190Y0045390D01*
X0369791Y0045395D01*
X0369790Y0045790D01*
X0369395Y0045791D01*
X0369390Y0046190D01*
X0368992Y0046194D01*
X0368990Y0046590D01*
X0368592Y0046594D01*
X0368590Y0046990D01*
X0367794Y0046992D01*
X0367790Y0047390D01*
X0367391Y0047395D01*
X0367390Y0047790D01*
X0366992Y0047794D01*
X0366990Y0048190D01*
X0366593Y0048193D01*
X0366590Y0048990D01*
X0366194Y0048992D01*
X0366190Y0049390D01*
X0365795Y0049391D01*
X0365790Y0049790D01*
X0365392Y0049794D01*
X0365390Y0050190D01*
X0364994Y0050192D01*
X0364990Y0050590D01*
X0364591Y0050595D01*
X0364590Y0050990D01*
X0364194Y0050992D01*
X0364190Y0051390D01*
X0363791Y0051395D01*
X0363790Y0051790D01*
X0363392Y0051794D01*
X0363390Y0052190D01*
X0362992Y0052194D01*
X0362990Y0052990D01*
X0362594Y0052992D01*
X0362590Y0053390D01*
X0362194Y0053392D01*
X0362190Y0053790D01*
X0361791Y0053795D01*
X0361790Y0054190D01*
X0361392Y0054194D01*
X0361390Y0054990D01*
X0360994Y0054992D01*
X0360990Y0055390D01*
X0360591Y0055395D01*
X0360590Y0055790D01*
X0360192Y0055794D01*
X0360190Y0056590D01*
X0359795Y0056591D01*
X0359790Y0056990D01*
X0359391Y0056996D01*
X0359390Y0057790D01*
X0358995Y0057791D01*
X0358990Y0058190D01*
X0358591Y0058195D01*
X0358590Y0058990D01*
X0358195Y0058991D01*
X0358190Y0059390D01*
X0357792Y0059394D01*
X0357790Y0060190D01*
X0357390Y0060197D01*
X0357390Y0060990D01*
X0356995Y0060991D01*
X0356990Y0061390D01*
X0356591Y0061395D01*
X0356590Y0062190D01*
X0356191Y0062195D01*
X0356190Y0062990D01*
X0355791Y0062995D01*
X0355790Y0063790D01*
X0355391Y0063795D01*
X0355390Y0064590D01*
X0354992Y0064594D01*
X0354990Y0065390D01*
X0354593Y0065393D01*
X0354590Y0066190D01*
X0354190Y0066197D01*
X0354190Y0066990D01*
X0353791Y0066996D01*
X0353790Y0067790D01*
X0353391Y0067796D01*
X0353390Y0068990D01*
X0352993Y0068993D01*
X0352990Y0069790D01*
X0352590Y0069797D01*
X0352590Y0070990D01*
X0352193Y0070993D01*
X0352190Y0071790D01*
X0351791Y0071796D01*
X0351790Y0072990D01*
X0351390Y0072999D01*
X0351390Y0074590D01*
X0350992Y0074594D01*
X0350990Y0075790D01*
X0350590Y0075798D01*
X0350590Y0077390D01*
X0350190Y0077398D01*
X0350190Y0078990D01*
X0349791Y0078996D01*
X0349790Y0080990D01*
G37*

G36*
X0544590Y0275810D02*
X0544598Y0276210D01*
X0547790Y0276210D01*
X0547799Y0276610D01*
X0550590Y0276610D01*
X0550598Y0277010D01*
X0552990Y0277010D01*
X0552998Y0277410D01*
X0554990Y0277410D01*
X0554994Y0277808D01*
X0556190Y0277810D01*
X0556197Y0278210D01*
X0557790Y0278210D01*
X0557799Y0278610D01*
X0559390Y0278610D01*
X0559396Y0279009D01*
X0560590Y0279010D01*
X0560594Y0279408D01*
X0561790Y0279410D01*
X0561798Y0279810D01*
X0562990Y0279810D01*
X0562997Y0280210D01*
X0564190Y0280210D01*
X0564193Y0280607D01*
X0564990Y0280610D01*
X0564997Y0281010D01*
X0566190Y0281010D01*
X0566193Y0281407D01*
X0566990Y0281410D01*
X0566996Y0281809D01*
X0568190Y0281810D01*
X0568194Y0282208D01*
X0568990Y0282210D01*
X0568993Y0282607D01*
X0569790Y0282610D01*
X0569797Y0283010D01*
X0570590Y0283010D01*
X0570596Y0283409D01*
X0571390Y0283410D01*
X0571395Y0283809D01*
X0572590Y0283810D01*
X0572595Y0284209D01*
X0573390Y0284210D01*
X0573391Y0284605D01*
X0573790Y0284610D01*
X0573795Y0285009D01*
X0574590Y0285010D01*
X0574594Y0285408D01*
X0575390Y0285410D01*
X0575397Y0285810D01*
X0576190Y0285810D01*
X0576196Y0286209D01*
X0576990Y0286210D01*
X0576991Y0286605D01*
X0577390Y0286610D01*
X0577393Y0287007D01*
X0578190Y0287010D01*
X0578191Y0287405D01*
X0578590Y0287410D01*
X0578594Y0287808D01*
X0579390Y0287810D01*
X0579397Y0288210D01*
X0580190Y0288210D01*
X0580191Y0288605D01*
X0580590Y0288610D01*
X0580594Y0289008D01*
X0581390Y0289010D01*
X0581391Y0289405D01*
X0581790Y0289410D01*
X0581796Y0289809D01*
X0582590Y0289810D01*
X0582592Y0290206D01*
X0582990Y0290210D01*
X0582995Y0290609D01*
X0583390Y0290610D01*
X0583394Y0291008D01*
X0584190Y0291010D01*
X0584192Y0291406D01*
X0584590Y0291410D01*
X0584595Y0291809D01*
X0584990Y0291810D01*
X0584993Y0292207D01*
X0585790Y0292210D01*
X0585792Y0292606D01*
X0586190Y0292610D01*
X0586191Y0293005D01*
X0586590Y0293010D01*
X0586594Y0293408D01*
X0587390Y0293410D01*
X0587392Y0293806D01*
X0587790Y0293810D01*
X0587795Y0294209D01*
X0588190Y0294210D01*
X0588192Y0294606D01*
X0588590Y0294610D01*
X0588595Y0295009D01*
X0588990Y0295010D01*
X0588992Y0295406D01*
X0589390Y0295410D01*
X0589395Y0295809D01*
X0589790Y0295810D01*
X0589794Y0296208D01*
X0590590Y0296210D01*
X0590593Y0296607D01*
X0590990Y0296610D01*
X0590991Y0297005D01*
X0591390Y0297010D01*
X0591393Y0297407D01*
X0591790Y0297410D01*
X0591792Y0297806D01*
X0592190Y0297810D01*
X0592191Y0298205D01*
X0592590Y0298210D01*
X0592594Y0298608D01*
X0592990Y0298610D01*
X0592993Y0299007D01*
X0593390Y0299010D01*
X0593392Y0299406D01*
X0593790Y0299410D01*
X0593791Y0299805D01*
X0594190Y0299810D01*
X0594194Y0300208D01*
X0594590Y0300210D01*
X0594592Y0300606D01*
X0594990Y0300610D01*
X0594995Y0301009D01*
X0595390Y0301010D01*
X0595391Y0301405D01*
X0595790Y0301410D01*
X0595794Y0301808D01*
X0596190Y0301810D01*
X0596194Y0302208D01*
X0596590Y0302210D01*
X0596593Y0303007D01*
X0596990Y0303010D01*
X0596992Y0303406D01*
X0597390Y0303410D01*
X0597391Y0303805D01*
X0597790Y0303810D01*
X0597794Y0304208D01*
X0598190Y0304210D01*
X0598191Y0304605D01*
X0598590Y0304610D01*
X0598594Y0305008D01*
X0598990Y0305010D01*
X0598992Y0305806D01*
X0599390Y0305810D01*
X0599395Y0306209D01*
X0599790Y0306210D01*
X0599794Y0306608D01*
X0600190Y0306610D01*
X0600194Y0307008D01*
X0600590Y0307010D01*
X0600592Y0307806D01*
X0600990Y0307810D01*
X0600991Y0308205D01*
X0601390Y0308210D01*
X0601394Y0308608D01*
X0601790Y0308610D01*
X0601793Y0309407D01*
X0602190Y0309410D01*
X0602191Y0309805D01*
X0602590Y0309810D01*
X0602594Y0310208D01*
X0602990Y0310210D01*
X0602991Y0311004D01*
X0603390Y0311010D01*
X0603395Y0311409D01*
X0603790Y0311410D01*
X0603792Y0312206D01*
X0604190Y0312210D01*
X0604195Y0312609D01*
X0604590Y0312610D01*
X0604590Y0313403D01*
X0604990Y0313410D01*
X0604992Y0314206D01*
X0605390Y0314210D01*
X0605395Y0314609D01*
X0605790Y0314610D01*
X0605790Y0315403D01*
X0606190Y0315410D01*
X0606192Y0316206D01*
X0606590Y0316210D01*
X0606595Y0316609D01*
X0606990Y0316610D01*
X0606990Y0317403D01*
X0607390Y0317410D01*
X0607391Y0318205D01*
X0607790Y0318210D01*
X0607793Y0319007D01*
X0608190Y0319010D01*
X0608191Y0319804D01*
X0608590Y0319810D01*
X0608590Y0320603D01*
X0608990Y0320610D01*
X0608992Y0321406D01*
X0609390Y0321410D01*
X0609391Y0322205D01*
X0609790Y0322210D01*
X0609790Y0323003D01*
X0610190Y0323010D01*
X0610191Y0323805D01*
X0610590Y0323810D01*
X0610591Y0325005D01*
X0610990Y0325010D01*
X0610990Y0325803D01*
X0611390Y0325810D01*
X0611392Y0326606D01*
X0611790Y0326610D01*
X0611790Y0327802D01*
X0612190Y0327810D01*
X0612192Y0329006D01*
X0612590Y0329010D01*
X0612591Y0330204D01*
X0612990Y0330210D01*
X0612993Y0331007D01*
X0613390Y0331010D01*
X0613390Y0332603D01*
X0613790Y0332610D01*
X0613792Y0333806D01*
X0614190Y0333810D01*
X0614190Y0335402D01*
X0614590Y0335410D01*
X0614590Y0337001D01*
X0614990Y0337010D01*
X0614990Y0338602D01*
X0615390Y0338610D01*
X0615390Y0340601D01*
X0615790Y0340610D01*
X0615790Y0342602D01*
X0616190Y0342610D01*
X0616190Y0345401D01*
X0616590Y0345410D01*
X0616590Y0351001D01*
X0616990Y0351010D01*
X0616996Y0411809D01*
X0666200Y0411810D01*
X0666210Y0411410D01*
X0669801Y0411410D01*
X0669810Y0411010D01*
X0672601Y0411010D01*
X0672610Y0410610D01*
X0674602Y0410610D01*
X0674610Y0410210D01*
X0676202Y0410210D01*
X0676210Y0409810D01*
X0677802Y0409810D01*
X0677810Y0409410D01*
X0679006Y0409408D01*
X0679010Y0409010D01*
X0680602Y0409010D01*
X0680610Y0408610D01*
X0681806Y0408608D01*
X0681810Y0408210D01*
X0683004Y0408209D01*
X0683010Y0407810D01*
X0683807Y0407807D01*
X0683810Y0407410D01*
X0685003Y0407410D01*
X0685010Y0407010D01*
X0685803Y0407010D01*
X0685810Y0406610D01*
X0686606Y0406608D01*
X0686610Y0406210D01*
X0687804Y0406209D01*
X0687810Y0405810D01*
X0688607Y0405807D01*
X0688610Y0405410D01*
X0689009Y0405405D01*
X0689010Y0405010D01*
X0689804Y0405009D01*
X0689810Y0404610D01*
X0690603Y0404610D01*
X0690610Y0404210D01*
X0691406Y0404208D01*
X0691410Y0403810D01*
X0692205Y0403809D01*
X0692210Y0403410D01*
X0692609Y0403405D01*
X0692610Y0403010D01*
X0693405Y0403009D01*
X0693410Y0402610D01*
X0693809Y0402605D01*
X0693810Y0402210D01*
X0694605Y0402209D01*
X0694610Y0401810D01*
X0695009Y0401805D01*
X0695010Y0401410D01*
X0695804Y0401409D01*
X0695810Y0401010D01*
X0696209Y0401005D01*
X0696210Y0400610D01*
X0697006Y0400608D01*
X0697010Y0400210D01*
X0697405Y0400209D01*
X0697410Y0399810D01*
X0697808Y0399806D01*
X0697810Y0399410D01*
X0698606Y0399408D01*
X0698610Y0399010D01*
X0699006Y0399008D01*
X0699010Y0398610D01*
X0699406Y0398608D01*
X0699410Y0398210D01*
X0699809Y0398205D01*
X0699810Y0397810D01*
X0700208Y0397806D01*
X0700210Y0397410D01*
X0701006Y0397408D01*
X0701010Y0397010D01*
X0701409Y0397005D01*
X0701410Y0396610D01*
X0701806Y0396608D01*
X0701810Y0396210D01*
X0702209Y0396205D01*
X0702210Y0395810D01*
X0702606Y0395808D01*
X0702610Y0395410D01*
X0703009Y0395405D01*
X0703010Y0395010D01*
X0703405Y0395009D01*
X0703410Y0394610D01*
X0703808Y0394606D01*
X0703810Y0394210D01*
X0704205Y0394209D01*
X0704210Y0393810D01*
X0704608Y0393806D01*
X0704610Y0393410D01*
X0705007Y0393407D01*
X0705010Y0393010D01*
X0705406Y0393008D01*
X0705410Y0392610D01*
X0705809Y0392605D01*
X0705810Y0392210D01*
X0706206Y0392208D01*
X0706210Y0391810D01*
X0706609Y0391805D01*
X0706610Y0391410D01*
X0707008Y0391406D01*
X0707010Y0390610D01*
X0707406Y0390608D01*
X0707410Y0390210D01*
X0707806Y0390208D01*
X0707810Y0389810D01*
X0708205Y0389809D01*
X0708210Y0389410D01*
X0708608Y0389406D01*
X0708610Y0389010D01*
X0709008Y0389006D01*
X0709010Y0388210D01*
X0709406Y0388208D01*
X0709410Y0387810D01*
X0709809Y0387805D01*
X0709810Y0387410D01*
X0710208Y0387406D01*
X0710210Y0386610D01*
X0710606Y0386608D01*
X0710610Y0386210D01*
X0711009Y0386205D01*
X0711010Y0385810D01*
X0711408Y0385806D01*
X0711410Y0385010D01*
X0711805Y0385009D01*
X0711810Y0384610D01*
X0712209Y0384604D01*
X0712210Y0383810D01*
X0712605Y0383809D01*
X0712610Y0383410D01*
X0713009Y0383405D01*
X0713010Y0382610D01*
X0713405Y0382609D01*
X0713410Y0382210D01*
X0713809Y0382205D01*
X0713810Y0381410D01*
X0714205Y0381409D01*
X0714210Y0381010D01*
X0714608Y0381006D01*
X0714610Y0380210D01*
X0715010Y0380203D01*
X0715010Y0379410D01*
X0715405Y0379409D01*
X0715410Y0379010D01*
X0715809Y0379005D01*
X0715810Y0378210D01*
X0716209Y0378205D01*
X0716210Y0377410D01*
X0716608Y0377406D01*
X0716610Y0376610D01*
X0717010Y0376603D01*
X0717010Y0375810D01*
X0717409Y0375804D01*
X0717410Y0375010D01*
X0717805Y0375009D01*
X0717810Y0374610D01*
X0718209Y0374605D01*
X0718210Y0373410D01*
X0718609Y0373405D01*
X0718610Y0372610D01*
X0719009Y0372605D01*
X0719010Y0371810D01*
X0719408Y0371806D01*
X0719410Y0371010D01*
X0719807Y0371007D01*
X0719810Y0370210D01*
X0720210Y0370203D01*
X0720210Y0369410D01*
X0720609Y0369404D01*
X0720610Y0368610D01*
X0721009Y0368604D01*
X0721010Y0367410D01*
X0721407Y0367407D01*
X0721410Y0366610D01*
X0721809Y0366604D01*
X0721810Y0365410D01*
X0722207Y0365407D01*
X0722210Y0364610D01*
X0722609Y0364604D01*
X0722610Y0363410D01*
X0723009Y0363405D01*
X0723010Y0362210D01*
X0723410Y0362202D01*
X0723410Y0361010D01*
X0723810Y0361002D01*
X0723810Y0359810D01*
X0724210Y0359803D01*
X0724210Y0358610D01*
X0724607Y0358607D01*
X0724610Y0357810D01*
X0725010Y0357803D01*
X0725010Y0356210D01*
X0725408Y0356206D01*
X0725410Y0355010D01*
X0725810Y0355003D01*
X0725810Y0353410D01*
X0726208Y0353406D01*
X0726210Y0352210D01*
X0726610Y0352203D01*
X0726610Y0350610D01*
X0727010Y0350601D01*
X0727010Y0349010D01*
X0727410Y0349002D01*
X0727410Y0347410D01*
X0727810Y0347402D01*
X0727810Y0345810D01*
X0728210Y0345802D01*
X0728210Y0343810D01*
X0728610Y0343803D01*
X0728610Y0342210D01*
X0729010Y0342201D01*
X0729010Y0340610D01*
X0729410Y0340602D01*
X0729410Y0339010D01*
X0729810Y0339002D01*
X0729810Y0337010D01*
X0730210Y0337001D01*
X0730210Y0335010D01*
X0730610Y0335002D01*
X0730610Y0333010D01*
X0731010Y0333003D01*
X0731010Y0331010D01*
X0731409Y0331004D01*
X0731410Y0329010D01*
X0731810Y0329001D01*
X0731810Y0327010D01*
X0732210Y0327002D01*
X0732210Y0324610D01*
X0732609Y0324604D01*
X0732610Y0322610D01*
X0733010Y0322602D01*
X0733010Y0320210D01*
X0733410Y0320203D01*
X0733410Y0317810D01*
X0733810Y0317801D01*
X0733810Y0315010D01*
X0734210Y0315001D01*
X0734210Y0312210D01*
X0734610Y0312201D01*
X0734610Y0309010D01*
X0735010Y0309001D01*
X0735010Y0305410D01*
X0735410Y0305401D01*
X0735410Y0301410D01*
X0735810Y0301400D01*
X0735810Y0296210D01*
X0736210Y0296200D01*
X0736210Y0271000D01*
X0735810Y0270990D01*
X0735810Y0265399D01*
X0735410Y0265390D01*
X0735410Y0261798D01*
X0735010Y0261790D01*
X0735010Y0258199D01*
X0734610Y0258190D01*
X0734610Y0254599D01*
X0734210Y0254590D01*
X0734210Y0251799D01*
X0733810Y0251790D01*
X0733810Y0249397D01*
X0733410Y0249390D01*
X0733410Y0246998D01*
X0733010Y0246990D01*
X0733010Y0244598D01*
X0732610Y0244590D01*
X0732610Y0242198D01*
X0732210Y0242190D01*
X0732210Y0240198D01*
X0731810Y0240190D01*
X0731810Y0237798D01*
X0731410Y0237790D01*
X0731409Y0236195D01*
X0731010Y0236190D01*
X0731010Y0234198D01*
X0730610Y0234190D01*
X0730610Y0232199D01*
X0730210Y0232190D01*
X0730210Y0230197D01*
X0729810Y0230190D01*
X0729810Y0228198D01*
X0729410Y0228190D01*
X0729410Y0226598D01*
X0729010Y0226590D01*
X0729010Y0224998D01*
X0728610Y0224990D01*
X0728610Y0223398D01*
X0728210Y0223390D01*
X0728210Y0221398D01*
X0727810Y0221390D01*
X0727810Y0219798D01*
X0727410Y0219790D01*
X0727410Y0218199D01*
X0727010Y0218190D01*
X0727010Y0216597D01*
X0726610Y0216590D01*
X0726608Y0215394D01*
X0726210Y0215390D01*
X0726210Y0213797D01*
X0725810Y0213790D01*
X0725810Y0212597D01*
X0725410Y0212590D01*
X0725410Y0211398D01*
X0725010Y0211390D01*
X0725010Y0210198D01*
X0724610Y0210190D01*
X0724609Y0208995D01*
X0724210Y0208990D01*
X0724209Y0207796D01*
X0723810Y0207790D01*
X0723807Y0206993D01*
X0723410Y0206990D01*
X0723410Y0205798D01*
X0723010Y0205790D01*
X0723009Y0204596D01*
X0722610Y0204590D01*
X0722610Y0203797D01*
X0722210Y0203790D01*
X0722207Y0202993D01*
X0721810Y0202990D01*
X0721808Y0202194D01*
X0721410Y0202190D01*
X0721409Y0200996D01*
X0721010Y0200990D01*
X0721009Y0200196D01*
X0720610Y0200190D01*
X0720610Y0199397D01*
X0720210Y0199390D01*
X0720207Y0198593D01*
X0719810Y0198590D01*
X0719808Y0197794D01*
X0719410Y0197790D01*
X0719409Y0196995D01*
X0719010Y0196990D01*
X0719005Y0196591D01*
X0718610Y0196590D01*
X0718610Y0195797D01*
X0718210Y0195790D01*
X0718209Y0194995D01*
X0717810Y0194990D01*
X0717807Y0194193D01*
X0717410Y0194190D01*
X0717409Y0193395D01*
X0717010Y0193390D01*
X0717005Y0192991D01*
X0716610Y0192990D01*
X0716610Y0192197D01*
X0716210Y0192190D01*
X0716209Y0191395D01*
X0715810Y0191390D01*
X0715805Y0190991D01*
X0715410Y0190990D01*
X0715409Y0190195D01*
X0715010Y0190190D01*
X0715005Y0189791D01*
X0714610Y0189790D01*
X0714609Y0188996D01*
X0714210Y0188990D01*
X0714205Y0188591D01*
X0713810Y0188590D01*
X0713808Y0187794D01*
X0713410Y0187790D01*
X0713409Y0187395D01*
X0713010Y0187390D01*
X0713006Y0186992D01*
X0712610Y0186990D01*
X0712607Y0186193D01*
X0712210Y0186190D01*
X0712209Y0185795D01*
X0711810Y0185790D01*
X0711806Y0185392D01*
X0711410Y0185390D01*
X0711408Y0184594D01*
X0711010Y0184590D01*
X0711009Y0184195D01*
X0710610Y0184190D01*
X0710606Y0183792D01*
X0710210Y0183790D01*
X0710206Y0183392D01*
X0709810Y0183390D01*
X0709807Y0182593D01*
X0709410Y0182590D01*
X0709408Y0182194D01*
X0709010Y0182190D01*
X0709005Y0181791D01*
X0708610Y0181790D01*
X0708609Y0181395D01*
X0708210Y0181390D01*
X0708206Y0180992D01*
X0707810Y0180990D01*
X0707806Y0180592D01*
X0707410Y0180590D01*
X0707408Y0180194D01*
X0707010Y0180190D01*
X0707005Y0179791D01*
X0706610Y0179790D01*
X0706609Y0179395D01*
X0706210Y0179390D01*
X0706206Y0178992D01*
X0705810Y0178990D01*
X0705807Y0178193D01*
X0705410Y0178190D01*
X0705409Y0177795D01*
X0705010Y0177790D01*
X0705005Y0177391D01*
X0704210Y0177390D01*
X0704208Y0176994D01*
X0703810Y0176990D01*
X0703808Y0176594D01*
X0703410Y0176590D01*
X0703405Y0176191D01*
X0703010Y0176190D01*
X0703009Y0175795D01*
X0702610Y0175790D01*
X0702606Y0175392D01*
X0702210Y0175390D01*
X0702208Y0174994D01*
X0701810Y0174990D01*
X0701805Y0174591D01*
X0701410Y0174590D01*
X0701409Y0174195D01*
X0701010Y0174190D01*
X0701006Y0173792D01*
X0700610Y0173790D01*
X0700607Y0173393D01*
X0699810Y0173390D01*
X0699808Y0172994D01*
X0699410Y0172990D01*
X0699409Y0172595D01*
X0699010Y0172590D01*
X0699006Y0172192D01*
X0698610Y0172190D01*
X0698607Y0171793D01*
X0697810Y0171790D01*
X0697808Y0171394D01*
X0697410Y0171390D01*
X0697409Y0170995D01*
X0697010Y0170990D01*
X0697005Y0170591D01*
X0696210Y0170590D01*
X0696208Y0170194D01*
X0695810Y0170190D01*
X0695809Y0169795D01*
X0695410Y0169790D01*
X0695406Y0169392D01*
X0694610Y0169390D01*
X0694609Y0168995D01*
X0694210Y0168990D01*
X0694206Y0168592D01*
X0693410Y0168590D01*
X0693409Y0168195D01*
X0693010Y0168190D01*
X0693007Y0167793D01*
X0692210Y0167790D01*
X0692204Y0167391D01*
X0691410Y0167390D01*
X0691409Y0166995D01*
X0691010Y0166990D01*
X0691005Y0166591D01*
X0690210Y0166590D01*
X0690203Y0166190D01*
X0689410Y0166190D01*
X0689409Y0165795D01*
X0689010Y0165790D01*
X0689005Y0165391D01*
X0688210Y0165390D01*
X0688206Y0164992D01*
X0687410Y0164990D01*
X0687407Y0164593D01*
X0686610Y0164590D01*
X0686603Y0164190D01*
X0685810Y0164190D01*
X0685804Y0163791D01*
X0685010Y0163790D01*
X0685006Y0163392D01*
X0684210Y0163390D01*
X0684207Y0162993D01*
X0683410Y0162990D01*
X0683403Y0162590D01*
X0682610Y0162590D01*
X0682604Y0162191D01*
X0681810Y0162190D01*
X0681805Y0161791D01*
X0680610Y0161790D01*
X0680607Y0161393D01*
X0679810Y0161390D01*
X0679804Y0160991D01*
X0678610Y0160990D01*
X0678602Y0160590D01*
X0677410Y0160590D01*
X0677407Y0160193D01*
X0676610Y0160190D01*
X0676605Y0159791D01*
X0675410Y0159790D01*
X0675402Y0159390D01*
X0674210Y0159390D01*
X0674203Y0158990D01*
X0672610Y0158990D01*
X0672603Y0158590D01*
X0671410Y0158590D01*
X0671403Y0158190D01*
X0669810Y0158190D01*
X0669801Y0157790D01*
X0668210Y0157790D01*
X0668202Y0157390D01*
X0666610Y0157390D01*
X0666602Y0156990D01*
X0664210Y0156990D01*
X0664201Y0156590D01*
X0661810Y0156590D01*
X0661802Y0156190D01*
X0659010Y0156190D01*
X0659001Y0155790D01*
X0654210Y0155790D01*
X0654200Y0155390D01*
X0542400Y0155390D01*
X0542400Y0275810D01*
X0544590Y0275810D01*
G37*

G36*
X0601407Y0139407D02*
X0601410Y0087000D01*
X0601010Y0086990D01*
X0601010Y0078999D01*
X0600610Y0078990D01*
X0600610Y0075399D01*
X0600210Y0075390D01*
X0600210Y0072598D01*
X0599810Y0072590D01*
X0599810Y0070198D01*
X0599410Y0070190D01*
X0599410Y0068198D01*
X0599010Y0068190D01*
X0599010Y0066599D01*
X0598610Y0066590D01*
X0598610Y0064997D01*
X0598210Y0064990D01*
X0598210Y0063798D01*
X0597810Y0063790D01*
X0597810Y0062598D01*
X0597410Y0062590D01*
X0597409Y0061395D01*
X0597010Y0061390D01*
X0597009Y0060196D01*
X0596610Y0060190D01*
X0596607Y0059393D01*
X0596210Y0059390D01*
X0596209Y0058196D01*
X0595810Y0058190D01*
X0595809Y0057396D01*
X0595410Y0057390D01*
X0595410Y0056597D01*
X0595010Y0056590D01*
X0595007Y0055793D01*
X0594610Y0055790D01*
X0594608Y0054994D01*
X0594210Y0054990D01*
X0594205Y0054591D01*
X0593810Y0054590D01*
X0593810Y0053797D01*
X0593410Y0053790D01*
X0593408Y0052994D01*
X0593010Y0052990D01*
X0593005Y0052591D01*
X0592610Y0052590D01*
X0592607Y0051793D01*
X0592210Y0051790D01*
X0592205Y0051391D01*
X0591810Y0051390D01*
X0591808Y0050594D01*
X0591410Y0050590D01*
X0591409Y0050195D01*
X0591010Y0050190D01*
X0591006Y0049792D01*
X0590610Y0049790D01*
X0590607Y0048993D01*
X0590210Y0048990D01*
X0590208Y0048594D01*
X0589810Y0048590D01*
X0589805Y0048191D01*
X0589410Y0048190D01*
X0589408Y0047794D01*
X0589010Y0047790D01*
X0589005Y0047391D01*
X0588610Y0047390D01*
X0588606Y0046992D01*
X0588210Y0046990D01*
X0588209Y0046195D01*
X0587810Y0046190D01*
X0587805Y0045791D01*
X0587410Y0045790D01*
X0587406Y0045392D01*
X0586610Y0045390D01*
X0586608Y0044994D01*
X0586210Y0044990D01*
X0586205Y0044591D01*
X0585810Y0044590D01*
X0585808Y0044194D01*
X0585410Y0044190D01*
X0585405Y0043791D01*
X0585010Y0043790D01*
X0585008Y0043394D01*
X0584610Y0043390D01*
X0584605Y0042991D01*
X0584210Y0042990D01*
X0584206Y0042592D01*
X0583410Y0042590D01*
X0583408Y0042194D01*
X0583010Y0042190D01*
X0583005Y0041791D01*
X0582610Y0041790D01*
X0582606Y0041392D01*
X0581810Y0041390D01*
X0581808Y0040994D01*
X0581410Y0040990D01*
X0581405Y0040591D01*
X0581010Y0040590D01*
X0581007Y0040193D01*
X0580210Y0040190D01*
X0580209Y0039795D01*
X0579810Y0039790D01*
X0579806Y0039392D01*
X0579010Y0039390D01*
X0579003Y0038990D01*
X0578210Y0038990D01*
X0578209Y0038595D01*
X0577810Y0038590D01*
X0577806Y0038192D01*
X0577010Y0038190D01*
X0577007Y0037793D01*
X0576210Y0037790D01*
X0576203Y0037390D01*
X0575410Y0037390D01*
X0575404Y0036991D01*
X0574610Y0036990D01*
X0574604Y0036591D01*
X0573810Y0036590D01*
X0573804Y0036191D01*
X0573010Y0036190D01*
X0573005Y0035791D01*
X0572210Y0035790D01*
X0572209Y0035395D01*
X0571810Y0035390D01*
X0571805Y0034991D01*
X0570610Y0034990D01*
X0570607Y0034593D01*
X0569810Y0034590D01*
X0569803Y0034190D01*
X0568610Y0034190D01*
X0568606Y0033792D01*
X0567810Y0033790D01*
X0567803Y0033390D01*
X0567010Y0033390D01*
X0567004Y0032991D01*
X0565810Y0032990D01*
X0565805Y0032591D01*
X0564610Y0032590D01*
X0564602Y0032190D01*
X0563410Y0032190D01*
X0563402Y0031790D01*
X0562210Y0031790D01*
X0562207Y0031393D01*
X0561410Y0031390D01*
X0561405Y0030991D01*
X0560210Y0030990D01*
X0560202Y0030590D01*
X0559010Y0030590D01*
X0559003Y0030190D01*
X0557410Y0030190D01*
X0557401Y0029790D01*
X0555810Y0029790D01*
X0555804Y0029391D01*
X0554610Y0029390D01*
X0554601Y0028990D01*
X0553010Y0028990D01*
X0553002Y0028590D01*
X0551410Y0028590D01*
X0551402Y0028190D01*
X0549810Y0028190D01*
X0549802Y0027790D01*
X0547810Y0027790D01*
X0547805Y0027391D01*
X0546210Y0027390D01*
X0546202Y0026990D01*
X0544210Y0026990D01*
X0544204Y0026591D01*
X0542400Y0026590D01*
X0542400Y0059410D01*
X0550190Y0059410D01*
X0550196Y0059809D01*
X0551790Y0059810D01*
X0551799Y0060210D01*
X0553390Y0060210D01*
X0553393Y0060607D01*
X0554190Y0060610D01*
X0554196Y0061009D01*
X0555390Y0061010D01*
X0555395Y0061409D01*
X0556190Y0061410D01*
X0556193Y0061807D01*
X0556990Y0061810D01*
X0556997Y0062210D01*
X0557790Y0062210D01*
X0557791Y0062605D01*
X0558190Y0062610D01*
X0558193Y0063007D01*
X0558990Y0063010D01*
X0558991Y0063405D01*
X0559390Y0063410D01*
X0559394Y0063808D01*
X0560190Y0063810D01*
X0560192Y0064206D01*
X0560590Y0064210D01*
X0560595Y0064609D01*
X0560990Y0064610D01*
X0560992Y0065006D01*
X0561390Y0065010D01*
X0561395Y0065409D01*
X0561790Y0065410D01*
X0561792Y0065806D01*
X0562190Y0065810D01*
X0562195Y0066209D01*
X0562590Y0066210D01*
X0562592Y0066606D01*
X0562990Y0066610D01*
X0562995Y0067009D01*
X0563390Y0067010D01*
X0563394Y0067408D01*
X0563790Y0067410D01*
X0563793Y0067807D01*
X0564190Y0067810D01*
X0564191Y0068205D01*
X0564590Y0068210D01*
X0564594Y0068608D01*
X0564990Y0068610D01*
X0564991Y0069405D01*
X0565390Y0069410D01*
X0565395Y0069809D01*
X0565790Y0069810D01*
X0565791Y0070605D01*
X0566190Y0070610D01*
X0566195Y0071009D01*
X0566590Y0071010D01*
X0566590Y0071803D01*
X0566990Y0071810D01*
X0566993Y0072607D01*
X0567390Y0072610D01*
X0567391Y0073405D01*
X0567790Y0073410D01*
X0567791Y0074604D01*
X0568190Y0074610D01*
X0568193Y0075407D01*
X0568590Y0075410D01*
X0568590Y0077003D01*
X0568990Y0077010D01*
X0568990Y0078603D01*
X0569390Y0078610D01*
X0569390Y0082601D01*
X0569790Y0082610D01*
X0569790Y0084190D01*
X0569390Y0084199D01*
X0569390Y0087790D01*
X0568990Y0087797D01*
X0568990Y0089790D01*
X0568590Y0089797D01*
X0568590Y0090990D01*
X0568190Y0090998D01*
X0568190Y0092190D01*
X0567793Y0092193D01*
X0567790Y0092990D01*
X0567391Y0092995D01*
X0567390Y0093790D01*
X0566992Y0093794D01*
X0566990Y0094590D01*
X0566590Y0094597D01*
X0566590Y0095390D01*
X0566191Y0095396D01*
X0566190Y0096190D01*
X0565795Y0096191D01*
X0565790Y0096590D01*
X0565392Y0096594D01*
X0565390Y0097390D01*
X0564994Y0097392D01*
X0564990Y0097790D01*
X0564595Y0097791D01*
X0564590Y0098190D01*
X0564191Y0098195D01*
X0564190Y0098990D01*
X0563794Y0098992D01*
X0563790Y0099390D01*
X0563391Y0099395D01*
X0563390Y0099790D01*
X0562994Y0099792D01*
X0562990Y0100190D01*
X0562591Y0100195D01*
X0562590Y0100590D01*
X0562195Y0100591D01*
X0562190Y0100990D01*
X0561792Y0100994D01*
X0561790Y0101390D01*
X0561393Y0101393D01*
X0561390Y0101790D01*
X0560991Y0101795D01*
X0560990Y0102190D01*
X0560194Y0102192D01*
X0560190Y0102590D01*
X0559791Y0102595D01*
X0559790Y0102990D01*
X0559392Y0102994D01*
X0559390Y0103390D01*
X0558597Y0103390D01*
X0558590Y0103790D01*
X0557794Y0103792D01*
X0557790Y0104190D01*
X0557391Y0104195D01*
X0557390Y0104590D01*
X0556595Y0104591D01*
X0556590Y0104990D01*
X0555396Y0104991D01*
X0555390Y0105390D01*
X0554597Y0105390D01*
X0554590Y0105790D01*
X0553794Y0105792D01*
X0553790Y0106190D01*
X0552595Y0106191D01*
X0552590Y0106590D01*
X0550998Y0106590D01*
X0550990Y0106990D01*
X0547798Y0106990D01*
X0547790Y0107390D01*
X0544210Y0107390D01*
X0544202Y0106990D01*
X0542400Y0106990D01*
X0542400Y0139408D01*
X0601407Y0139407D01*
G37*

G36*
X0405410Y0291390D02*
X0405401Y0290990D01*
X0401810Y0290990D01*
X0401802Y0290590D01*
X0399010Y0290590D01*
X0399002Y0290190D01*
X0397010Y0290190D01*
X0397003Y0289790D01*
X0395410Y0289790D01*
X0395403Y0289390D01*
X0393810Y0289390D01*
X0393803Y0288990D01*
X0392210Y0288990D01*
X0392203Y0288590D01*
X0390610Y0288590D01*
X0390603Y0288190D01*
X0389410Y0288190D01*
X0389406Y0287792D01*
X0388210Y0287790D01*
X0388202Y0287390D01*
X0387010Y0287390D01*
X0387007Y0286993D01*
X0386210Y0286990D01*
X0386204Y0286591D01*
X0385010Y0286590D01*
X0385002Y0286190D01*
X0383810Y0286190D01*
X0383806Y0285792D01*
X0383010Y0285790D01*
X0383007Y0285393D01*
X0382210Y0285390D01*
X0382203Y0284990D01*
X0381410Y0284990D01*
X0381404Y0284591D01*
X0380210Y0284590D01*
X0380206Y0284192D01*
X0379410Y0284190D01*
X0379403Y0283790D01*
X0378610Y0283790D01*
X0378605Y0283391D01*
X0377810Y0283390D01*
X0377807Y0282993D01*
X0377010Y0282990D01*
X0377003Y0282590D01*
X0376210Y0282590D01*
X0376209Y0282195D01*
X0375810Y0282190D01*
X0375805Y0281791D01*
X0375010Y0281790D01*
X0375007Y0281393D01*
X0374210Y0281390D01*
X0374203Y0280990D01*
X0373410Y0280990D01*
X0373409Y0280595D01*
X0373010Y0280590D01*
X0373005Y0280191D01*
X0372210Y0280190D01*
X0372203Y0279790D01*
X0371410Y0279790D01*
X0371409Y0279395D01*
X0371010Y0279390D01*
X0371007Y0278993D01*
X0370210Y0278990D01*
X0370209Y0278595D01*
X0369810Y0278590D01*
X0369806Y0278192D01*
X0369010Y0278190D01*
X0369009Y0277795D01*
X0368610Y0277790D01*
X0368607Y0277393D01*
X0367810Y0277390D01*
X0367809Y0276995D01*
X0367410Y0276990D01*
X0367405Y0276591D01*
X0366610Y0276590D01*
X0366608Y0276194D01*
X0366210Y0276190D01*
X0366205Y0275791D01*
X0365810Y0275790D01*
X0365806Y0275392D01*
X0365010Y0275390D01*
X0365008Y0274994D01*
X0364610Y0274990D01*
X0364608Y0274594D01*
X0364210Y0274590D01*
X0364205Y0274191D01*
X0363810Y0274190D01*
X0363806Y0273792D01*
X0363010Y0273790D01*
X0363008Y0273394D01*
X0362610Y0273390D01*
X0362605Y0272991D01*
X0362210Y0272990D01*
X0362209Y0272595D01*
X0361810Y0272590D01*
X0361806Y0272192D01*
X0361410Y0272190D01*
X0361409Y0271795D01*
X0361010Y0271790D01*
X0361006Y0271392D01*
X0360210Y0271390D01*
X0360207Y0270993D01*
X0359810Y0270990D01*
X0359808Y0270594D01*
X0359410Y0270590D01*
X0359408Y0270194D01*
X0359010Y0270190D01*
X0359008Y0269794D01*
X0358610Y0269790D01*
X0358605Y0269391D01*
X0358210Y0269390D01*
X0358209Y0268995D01*
X0357810Y0268990D01*
X0357806Y0268592D01*
X0357410Y0268590D01*
X0357409Y0268195D01*
X0357010Y0268190D01*
X0357006Y0267792D01*
X0356610Y0267790D01*
X0356608Y0267394D01*
X0356210Y0267390D01*
X0356205Y0266991D01*
X0355810Y0266990D01*
X0355808Y0266594D01*
X0355410Y0266590D01*
X0355405Y0266191D01*
X0355010Y0266190D01*
X0355009Y0265795D01*
X0354610Y0265790D01*
X0354606Y0265392D01*
X0354210Y0265390D01*
X0354206Y0264992D01*
X0353810Y0264990D01*
X0353807Y0264593D01*
X0353410Y0264590D01*
X0353408Y0263794D01*
X0353010Y0263790D01*
X0353008Y0263394D01*
X0352610Y0263390D01*
X0352605Y0262991D01*
X0352210Y0262990D01*
X0352209Y0262595D01*
X0351810Y0262590D01*
X0351806Y0262192D01*
X0351410Y0262190D01*
X0351408Y0261394D01*
X0351010Y0261390D01*
X0351009Y0260995D01*
X0350610Y0260990D01*
X0350606Y0260592D01*
X0350210Y0260590D01*
X0350206Y0260192D01*
X0349810Y0260190D01*
X0349808Y0259394D01*
X0349410Y0259390D01*
X0349409Y0258995D01*
X0349010Y0258990D01*
X0349006Y0258592D01*
X0348610Y0258590D01*
X0348607Y0257793D01*
X0348210Y0257790D01*
X0348209Y0257395D01*
X0347810Y0257390D01*
X0347806Y0256992D01*
X0347410Y0256990D01*
X0347408Y0256194D01*
X0347010Y0256190D01*
X0347005Y0255791D01*
X0346610Y0255790D01*
X0346607Y0254993D01*
X0346210Y0254990D01*
X0346205Y0254591D01*
X0345810Y0254590D01*
X0345810Y0253797D01*
X0345410Y0253790D01*
X0345408Y0252994D01*
X0345010Y0252990D01*
X0345005Y0252591D01*
X0344610Y0252590D01*
X0344610Y0251797D01*
X0344210Y0251790D01*
X0344208Y0250994D01*
X0343810Y0250990D01*
X0343805Y0250591D01*
X0343410Y0250590D01*
X0343409Y0249796D01*
X0343010Y0249790D01*
X0343009Y0248996D01*
X0342610Y0248990D01*
X0342609Y0248196D01*
X0342210Y0248190D01*
X0342210Y0247397D01*
X0341810Y0247390D01*
X0341807Y0246593D01*
X0341410Y0246590D01*
X0341408Y0245794D01*
X0341010Y0245790D01*
X0341005Y0245391D01*
X0340610Y0245390D01*
X0340609Y0244196D01*
X0340210Y0244190D01*
X0340210Y0243397D01*
X0339810Y0243390D01*
X0339808Y0242594D01*
X0339410Y0242590D01*
X0339410Y0241397D01*
X0339010Y0241390D01*
X0339007Y0240593D01*
X0338610Y0240590D01*
X0338609Y0239795D01*
X0338210Y0239790D01*
X0338210Y0238597D01*
X0337810Y0238590D01*
X0337810Y0237398D01*
X0337410Y0237390D01*
X0337408Y0236194D01*
X0337010Y0236190D01*
X0337009Y0234996D01*
X0336610Y0234990D01*
X0336610Y0233798D01*
X0336210Y0233790D01*
X0336210Y0232597D01*
X0335810Y0232590D01*
X0335810Y0230999D01*
X0335410Y0230990D01*
X0335410Y0229398D01*
X0335010Y0229390D01*
X0335010Y0227398D01*
X0334610Y0227390D01*
X0334609Y0225795D01*
X0334210Y0225790D01*
X0334210Y0223398D01*
X0333810Y0223390D01*
X0333810Y0220199D01*
X0333410Y0220190D01*
X0333410Y0214999D01*
X0333010Y0214990D01*
X0333001Y0155390D01*
X0280600Y0155390D01*
X0280590Y0155790D01*
X0276599Y0155790D01*
X0276590Y0156190D01*
X0274199Y0156190D01*
X0274190Y0156590D01*
X0272196Y0156591D01*
X0272190Y0156990D01*
X0270197Y0156990D01*
X0270190Y0157390D01*
X0268997Y0157390D01*
X0268990Y0157790D01*
X0267397Y0157790D01*
X0267390Y0158190D01*
X0266198Y0158190D01*
X0266190Y0158590D01*
X0265395Y0158591D01*
X0265390Y0158990D01*
X0264198Y0158990D01*
X0264190Y0159390D01*
X0262996Y0159391D01*
X0262990Y0159790D01*
X0262196Y0159791D01*
X0262190Y0160190D01*
X0261397Y0160190D01*
X0261390Y0160590D01*
X0260593Y0160593D01*
X0260590Y0160990D01*
X0259794Y0160992D01*
X0259790Y0161390D01*
X0258995Y0161391D01*
X0258990Y0161790D01*
X0258195Y0161791D01*
X0258190Y0162190D01*
X0257395Y0162191D01*
X0257390Y0162590D01*
X0256595Y0162591D01*
X0256590Y0162990D01*
X0256191Y0162995D01*
X0256190Y0163390D01*
X0255397Y0163390D01*
X0255390Y0163790D01*
X0254594Y0163792D01*
X0254590Y0164190D01*
X0254191Y0164195D01*
X0254190Y0164590D01*
X0253393Y0164593D01*
X0253390Y0164990D01*
X0252995Y0164991D01*
X0252990Y0165390D01*
X0252592Y0165394D01*
X0252590Y0165790D01*
X0251794Y0165792D01*
X0251790Y0166190D01*
X0251395Y0166191D01*
X0251390Y0166590D01*
X0250992Y0166594D01*
X0250990Y0166990D01*
X0250592Y0166994D01*
X0250590Y0167390D01*
X0249794Y0167392D01*
X0249790Y0167790D01*
X0249391Y0167795D01*
X0249390Y0168190D01*
X0248994Y0168192D01*
X0248990Y0168590D01*
X0248595Y0168591D01*
X0248590Y0168990D01*
X0248192Y0168994D01*
X0248190Y0169390D01*
X0247795Y0169391D01*
X0247790Y0169790D01*
X0247392Y0169794D01*
X0247390Y0170190D01*
X0246993Y0170193D01*
X0246990Y0170590D01*
X0246593Y0170593D01*
X0246590Y0170990D01*
X0246194Y0170992D01*
X0246190Y0171390D01*
X0245791Y0171395D01*
X0245790Y0171790D01*
X0245394Y0171792D01*
X0245390Y0172190D01*
X0244991Y0172195D01*
X0244990Y0172590D01*
X0244594Y0172592D01*
X0244590Y0172990D01*
X0244191Y0172995D01*
X0244190Y0173390D01*
X0243792Y0173394D01*
X0243790Y0173790D01*
X0243394Y0173792D01*
X0243390Y0174190D01*
X0242991Y0174195D01*
X0242990Y0174590D01*
X0242592Y0174594D01*
X0242590Y0175390D01*
X0242194Y0175392D01*
X0242190Y0175790D01*
X0241795Y0175791D01*
X0241790Y0176190D01*
X0241392Y0176194D01*
X0241390Y0176590D01*
X0240993Y0176593D01*
X0240990Y0177390D01*
X0240594Y0177392D01*
X0240590Y0177790D01*
X0240195Y0177791D01*
X0240190Y0178190D01*
X0239791Y0178195D01*
X0239790Y0178990D01*
X0239394Y0178992D01*
X0239390Y0179390D01*
X0238991Y0179395D01*
X0238990Y0179790D01*
X0238592Y0179794D01*
X0238590Y0180590D01*
X0238190Y0180597D01*
X0238190Y0181390D01*
X0237795Y0181391D01*
X0237790Y0181790D01*
X0237392Y0181794D01*
X0237390Y0182590D01*
X0236995Y0182591D01*
X0236990Y0182990D01*
X0236593Y0182993D01*
X0236590Y0183790D01*
X0236195Y0183791D01*
X0236190Y0184190D01*
X0235791Y0184195D01*
X0235790Y0184990D01*
X0235393Y0184993D01*
X0235390Y0185790D01*
X0234990Y0185797D01*
X0234990Y0186590D01*
X0234595Y0186591D01*
X0234590Y0186990D01*
X0234191Y0186995D01*
X0234190Y0187790D01*
X0233791Y0187795D01*
X0233790Y0188590D01*
X0233391Y0188595D01*
X0233390Y0189390D01*
X0232992Y0189394D01*
X0232990Y0190190D01*
X0232593Y0190193D01*
X0232590Y0190990D01*
X0232190Y0190997D01*
X0232190Y0191790D01*
X0231791Y0191796D01*
X0231790Y0192590D01*
X0231391Y0192596D01*
X0231390Y0193790D01*
X0230992Y0193794D01*
X0230990Y0194590D01*
X0230593Y0194593D01*
X0230590Y0195390D01*
X0230190Y0195397D01*
X0230190Y0196190D01*
X0229791Y0196196D01*
X0229790Y0197390D01*
X0229393Y0197393D01*
X0229390Y0198190D01*
X0228990Y0198197D01*
X0228990Y0199390D01*
X0228593Y0199393D01*
X0228590Y0200190D01*
X0228191Y0200196D01*
X0228190Y0201390D01*
X0227790Y0201398D01*
X0227790Y0202590D01*
X0227393Y0202593D01*
X0227390Y0203390D01*
X0226991Y0203396D01*
X0226990Y0204590D01*
X0226592Y0204594D01*
X0226590Y0205790D01*
X0226190Y0205798D01*
X0226190Y0206990D01*
X0225790Y0206997D01*
X0225790Y0208590D01*
X0225390Y0208597D01*
X0225390Y0209790D01*
X0224992Y0209794D01*
X0224990Y0210990D01*
X0224590Y0210998D01*
X0224590Y0212190D01*
X0224190Y0212197D01*
X0224190Y0213790D01*
X0223790Y0213799D01*
X0223790Y0215390D01*
X0223392Y0215394D01*
X0223390Y0216590D01*
X0222990Y0216597D01*
X0222990Y0218190D01*
X0222590Y0218199D01*
X0222590Y0219790D01*
X0222190Y0219798D01*
X0222190Y0221390D01*
X0221790Y0221398D01*
X0221790Y0222990D01*
X0221390Y0222998D01*
X0221390Y0224590D01*
X0220990Y0224598D01*
X0220990Y0226590D01*
X0220590Y0226597D01*
X0220590Y0228190D01*
X0220190Y0228199D01*
X0220190Y0230190D01*
X0219791Y0230195D01*
X0219790Y0231790D01*
X0219390Y0231798D01*
X0219390Y0233790D01*
X0218991Y0233795D01*
X0218990Y0235390D01*
X0218590Y0235398D01*
X0218590Y0237390D01*
X0218191Y0237396D01*
X0218190Y0239390D01*
X0217790Y0239399D01*
X0217790Y0241790D01*
X0217391Y0241796D01*
X0217390Y0243790D01*
X0216990Y0243799D01*
X0216990Y0246190D01*
X0216591Y0246196D01*
X0216590Y0248190D01*
X0216190Y0248198D01*
X0216190Y0250590D01*
X0215790Y0250599D01*
X0215790Y0253390D01*
X0215390Y0253399D01*
X0215390Y0256190D01*
X0214990Y0256199D01*
X0214990Y0259390D01*
X0214590Y0259399D01*
X0214590Y0262190D01*
X0214190Y0262199D01*
X0214190Y0265790D01*
X0213790Y0265799D01*
X0213790Y0270190D01*
X0213390Y0270199D01*
X0213390Y0275390D01*
X0212990Y0275400D01*
X0212990Y0301001D01*
X0213390Y0301010D01*
X0213390Y0305800D01*
X0213790Y0305810D01*
X0213790Y0309801D01*
X0214190Y0309810D01*
X0214190Y0313001D01*
X0214590Y0313010D01*
X0214590Y0315801D01*
X0214990Y0315810D01*
X0214990Y0318202D01*
X0215390Y0318210D01*
X0215390Y0321002D01*
X0215790Y0321010D01*
X0215790Y0323001D01*
X0216190Y0323010D01*
X0216191Y0325004D01*
X0216590Y0325010D01*
X0216590Y0327002D01*
X0216990Y0327010D01*
X0216990Y0328602D01*
X0217390Y0328610D01*
X0217390Y0330602D01*
X0217790Y0330610D01*
X0217790Y0332202D01*
X0218190Y0332210D01*
X0218190Y0333802D01*
X0218590Y0333810D01*
X0218590Y0335401D01*
X0218990Y0335410D01*
X0218990Y0337003D01*
X0219390Y0337010D01*
X0219392Y0338206D01*
X0219790Y0338210D01*
X0219790Y0339801D01*
X0220190Y0339810D01*
X0220190Y0341403D01*
X0220590Y0341410D01*
X0220590Y0342603D01*
X0220990Y0342610D01*
X0220990Y0343803D01*
X0221390Y0343810D01*
X0221390Y0345003D01*
X0221790Y0345010D01*
X0221790Y0346203D01*
X0222190Y0346210D01*
X0222190Y0347403D01*
X0222590Y0347410D01*
X0222590Y0348603D01*
X0222990Y0348610D01*
X0222990Y0349803D01*
X0223390Y0349810D01*
X0223390Y0351003D01*
X0223790Y0351010D01*
X0223790Y0352203D01*
X0224190Y0352210D01*
X0224190Y0353402D01*
X0224590Y0353410D01*
X0224590Y0354602D01*
X0224990Y0354610D01*
X0224991Y0355805D01*
X0225390Y0355810D01*
X0225391Y0357004D01*
X0225790Y0357010D01*
X0225793Y0357807D01*
X0226190Y0357810D01*
X0226190Y0359002D01*
X0226590Y0359010D01*
X0226592Y0360206D01*
X0226990Y0360210D01*
X0226991Y0361404D01*
X0227390Y0361410D01*
X0227393Y0362207D01*
X0227790Y0362210D01*
X0227790Y0363403D01*
X0228190Y0363410D01*
X0228193Y0364207D01*
X0228590Y0364210D01*
X0228591Y0365405D01*
X0228990Y0365410D01*
X0228993Y0366207D01*
X0229390Y0366210D01*
X0229391Y0367404D01*
X0229790Y0367410D01*
X0229790Y0368203D01*
X0230190Y0368210D01*
X0230192Y0369006D01*
X0230590Y0369010D01*
X0230590Y0370203D01*
X0230990Y0370210D01*
X0230990Y0371003D01*
X0231390Y0371010D01*
X0231392Y0371806D01*
X0231790Y0371810D01*
X0231791Y0372605D01*
X0232190Y0372610D01*
X0232191Y0373805D01*
X0232590Y0373810D01*
X0232591Y0374604D01*
X0232990Y0374610D01*
X0232991Y0375404D01*
X0233390Y0375410D01*
X0233390Y0376203D01*
X0233790Y0376210D01*
X0233793Y0377007D01*
X0234190Y0377010D01*
X0234192Y0377806D01*
X0234590Y0377810D01*
X0234591Y0378605D01*
X0234990Y0378610D01*
X0234991Y0379405D01*
X0235390Y0379410D01*
X0235391Y0380205D01*
X0235790Y0380210D01*
X0235791Y0381005D01*
X0236190Y0381010D01*
X0236195Y0381409D01*
X0236590Y0381410D01*
X0236590Y0382203D01*
X0236990Y0382210D01*
X0236992Y0383006D01*
X0237390Y0383010D01*
X0237395Y0383409D01*
X0237790Y0383410D01*
X0237790Y0384203D01*
X0238190Y0384210D01*
X0238193Y0385007D01*
X0238590Y0385010D01*
X0238591Y0385805D01*
X0238990Y0385810D01*
X0238995Y0386209D01*
X0239390Y0386210D01*
X0239391Y0387005D01*
X0239790Y0387010D01*
X0239795Y0387409D01*
X0240190Y0387410D01*
X0240191Y0388204D01*
X0240590Y0388210D01*
X0240595Y0388609D01*
X0240990Y0388610D01*
X0240992Y0389406D01*
X0241390Y0389410D01*
X0241391Y0389805D01*
X0241790Y0389810D01*
X0241794Y0390208D01*
X0242190Y0390210D01*
X0242192Y0391006D01*
X0242590Y0391010D01*
X0242591Y0391405D01*
X0242990Y0391410D01*
X0242994Y0391808D01*
X0243390Y0391810D01*
X0243392Y0392606D01*
X0243790Y0392610D01*
X0243795Y0393009D01*
X0244190Y0393010D01*
X0244192Y0393406D01*
X0244590Y0393410D01*
X0244595Y0393809D01*
X0244990Y0393810D01*
X0244994Y0394208D01*
X0245390Y0394210D01*
X0245392Y0395006D01*
X0245790Y0395010D01*
X0245792Y0395406D01*
X0246190Y0395410D01*
X0246195Y0395809D01*
X0246590Y0395810D01*
X0246592Y0396206D01*
X0246990Y0396210D01*
X0246995Y0396609D01*
X0247390Y0396610D01*
X0247391Y0397005D01*
X0247790Y0397010D01*
X0247794Y0397408D01*
X0248190Y0397410D01*
X0248194Y0397808D01*
X0248590Y0397810D01*
X0248593Y0398207D01*
X0248990Y0398210D01*
X0248992Y0398606D01*
X0249390Y0398610D01*
X0249392Y0399006D01*
X0249790Y0399010D01*
X0249795Y0399409D01*
X0250190Y0399410D01*
X0250194Y0399808D01*
X0250990Y0399810D01*
X0250992Y0400206D01*
X0251390Y0400210D01*
X0251392Y0400606D01*
X0251790Y0400610D01*
X0251795Y0401009D01*
X0252190Y0401010D01*
X0252194Y0401408D01*
X0252590Y0401410D01*
X0252594Y0401808D01*
X0253390Y0401810D01*
X0253392Y0402206D01*
X0253790Y0402210D01*
X0253795Y0402609D01*
X0254190Y0402610D01*
X0254194Y0403008D01*
X0254990Y0403010D01*
X0254991Y0403405D01*
X0255390Y0403410D01*
X0255396Y0403809D01*
X0256190Y0403810D01*
X0256191Y0404205D01*
X0256590Y0404210D01*
X0256595Y0404609D01*
X0257390Y0404610D01*
X0257397Y0405010D01*
X0258190Y0405010D01*
X0258191Y0405405D01*
X0258590Y0405410D01*
X0258595Y0405809D01*
X0259390Y0405810D01*
X0259394Y0406208D01*
X0260190Y0406210D01*
X0260193Y0406607D01*
X0260990Y0406610D01*
X0260997Y0407010D01*
X0261790Y0407010D01*
X0261796Y0407409D01*
X0262990Y0407410D01*
X0262993Y0407807D01*
X0263790Y0407810D01*
X0263797Y0408210D01*
X0264990Y0408210D01*
X0264998Y0408610D01*
X0266190Y0408610D01*
X0266195Y0409009D01*
X0267390Y0409010D01*
X0267398Y0409410D01*
X0268590Y0409410D01*
X0268597Y0409810D01*
X0269790Y0409810D01*
X0269797Y0410210D01*
X0271390Y0410210D01*
X0271399Y0410610D01*
X0273390Y0410610D01*
X0273399Y0411010D01*
X0276190Y0411010D01*
X0276199Y0411410D01*
X0279790Y0411410D01*
X0279800Y0411810D01*
X0407200Y0411810D01*
X0407200Y0388590D01*
X0281010Y0388590D01*
X0281002Y0388190D01*
X0277810Y0388190D01*
X0277802Y0387790D01*
X0276210Y0387790D01*
X0276201Y0387390D01*
X0274610Y0387390D01*
X0274604Y0386991D01*
X0273410Y0386990D01*
X0273407Y0386593D01*
X0272610Y0386590D01*
X0272604Y0386191D01*
X0271410Y0386190D01*
X0271405Y0385791D01*
X0270610Y0385790D01*
X0270603Y0385390D01*
X0269810Y0385390D01*
X0269809Y0384995D01*
X0269410Y0384990D01*
X0269406Y0384592D01*
X0268610Y0384590D01*
X0268603Y0384190D01*
X0267810Y0384190D01*
X0267808Y0383794D01*
X0267410Y0383790D01*
X0267408Y0383394D01*
X0267010Y0383390D01*
X0267009Y0382995D01*
X0266610Y0382990D01*
X0266606Y0382592D01*
X0265810Y0382590D01*
X0265808Y0382194D01*
X0265410Y0382190D01*
X0265405Y0381791D01*
X0265010Y0381790D01*
X0265008Y0381394D01*
X0264610Y0381390D01*
X0264605Y0380991D01*
X0264210Y0380990D01*
X0264206Y0380592D01*
X0263810Y0380590D01*
X0263807Y0380193D01*
X0263410Y0380190D01*
X0263405Y0379791D01*
X0263010Y0379790D01*
X0263008Y0378994D01*
X0262610Y0378990D01*
X0262609Y0378595D01*
X0262210Y0378590D01*
X0262206Y0378192D01*
X0261810Y0378190D01*
X0261806Y0377792D01*
X0261410Y0377790D01*
X0261406Y0377392D01*
X0261010Y0377390D01*
X0261008Y0376594D01*
X0260610Y0376590D01*
X0260605Y0376191D01*
X0260210Y0376190D01*
X0260209Y0375395D01*
X0259810Y0375390D01*
X0259805Y0374991D01*
X0259410Y0374990D01*
X0259409Y0374196D01*
X0259010Y0374190D01*
X0259005Y0373791D01*
X0258610Y0373790D01*
X0258608Y0372994D01*
X0258210Y0372990D01*
X0258205Y0372591D01*
X0257810Y0372590D01*
X0257810Y0371797D01*
X0257410Y0371790D01*
X0257409Y0370995D01*
X0257010Y0370990D01*
X0257005Y0370591D01*
X0256610Y0370590D01*
X0256610Y0369797D01*
X0256210Y0369790D01*
X0256207Y0368993D01*
X0255810Y0368990D01*
X0255809Y0368195D01*
X0255410Y0368190D01*
X0255409Y0367395D01*
X0255010Y0367390D01*
X0255009Y0366596D01*
X0254610Y0366590D01*
X0254610Y0365797D01*
X0254210Y0365790D01*
X0254208Y0364994D01*
X0253810Y0364990D01*
X0253809Y0364195D01*
X0253410Y0364190D01*
X0253410Y0363397D01*
X0253010Y0363390D01*
X0253008Y0362594D01*
X0252610Y0362590D01*
X0252609Y0361395D01*
X0252210Y0361390D01*
X0252210Y0360597D01*
X0251810Y0360590D01*
X0251808Y0359794D01*
X0251410Y0359790D01*
X0251410Y0358597D01*
X0251010Y0358590D01*
X0251007Y0357793D01*
X0250610Y0357790D01*
X0250609Y0356596D01*
X0250210Y0356590D01*
X0250207Y0355793D01*
X0249810Y0355790D01*
X0249810Y0354598D01*
X0249410Y0354590D01*
X0249409Y0353795D01*
X0249010Y0353790D01*
X0249010Y0352598D01*
X0248610Y0352590D01*
X0248609Y0351396D01*
X0248210Y0351390D01*
X0248207Y0350593D01*
X0247810Y0350590D01*
X0247810Y0349398D01*
X0247410Y0349390D01*
X0247410Y0348198D01*
X0247010Y0348190D01*
X0247009Y0346995D01*
X0246610Y0346990D01*
X0246610Y0345797D01*
X0246210Y0345790D01*
X0246207Y0344993D01*
X0245810Y0344990D01*
X0245810Y0343797D01*
X0245410Y0343790D01*
X0245410Y0342598D01*
X0245010Y0342590D01*
X0245009Y0341395D01*
X0244610Y0341390D01*
X0244610Y0339797D01*
X0244210Y0339790D01*
X0244207Y0338993D01*
X0243810Y0338990D01*
X0243810Y0337797D01*
X0243410Y0337790D01*
X0243408Y0336594D01*
X0243010Y0336590D01*
X0243010Y0334999D01*
X0242610Y0334990D01*
X0242610Y0333397D01*
X0242210Y0333390D01*
X0242208Y0332194D01*
X0241810Y0332190D01*
X0241810Y0330597D01*
X0241410Y0330590D01*
X0241408Y0329394D01*
X0241010Y0329390D01*
X0241010Y0327799D01*
X0240610Y0327790D01*
X0240609Y0326196D01*
X0240210Y0326190D01*
X0240210Y0324198D01*
X0239810Y0324190D01*
X0239809Y0322595D01*
X0239410Y0322590D01*
X0239410Y0320599D01*
X0239010Y0320590D01*
X0239009Y0318596D01*
X0238610Y0318590D01*
X0238610Y0316597D01*
X0238210Y0316590D01*
X0238210Y0313798D01*
X0237810Y0313790D01*
X0237810Y0311397D01*
X0237410Y0311390D01*
X0237410Y0308199D01*
X0237010Y0308190D01*
X0237010Y0304599D01*
X0236610Y0304590D01*
X0236610Y0300199D01*
X0236210Y0300190D01*
X0236210Y0276210D01*
X0236610Y0276201D01*
X0236610Y0271410D01*
X0237010Y0271401D01*
X0237010Y0267410D01*
X0237410Y0267401D01*
X0237410Y0264210D01*
X0237810Y0264201D01*
X0237810Y0261010D01*
X0238210Y0261002D01*
X0238210Y0257810D01*
X0238610Y0257802D01*
X0238610Y0255010D01*
X0239010Y0255002D01*
X0239010Y0252610D01*
X0239410Y0252602D01*
X0239410Y0250610D01*
X0239810Y0250602D01*
X0239810Y0248210D01*
X0240209Y0248204D01*
X0240210Y0246210D01*
X0240610Y0246202D01*
X0240610Y0243810D01*
X0241010Y0243803D01*
X0241010Y0241810D01*
X0241409Y0241805D01*
X0241410Y0240210D01*
X0241810Y0240202D01*
X0241810Y0238210D01*
X0242209Y0238204D01*
X0242210Y0236210D01*
X0242610Y0236201D01*
X0242610Y0234210D01*
X0243010Y0234203D01*
X0243010Y0232610D01*
X0243410Y0232601D01*
X0243410Y0231010D01*
X0243810Y0231002D01*
X0243810Y0229410D01*
X0244210Y0229402D01*
X0244210Y0227810D01*
X0244610Y0227802D01*
X0244610Y0226210D01*
X0245010Y0226202D01*
X0245010Y0224210D01*
X0245410Y0224203D01*
X0245410Y0222610D01*
X0245808Y0222606D01*
X0245810Y0221410D01*
X0246210Y0221403D01*
X0246210Y0219810D01*
X0246608Y0219806D01*
X0246610Y0218610D01*
X0247010Y0218603D01*
X0247010Y0217010D01*
X0247409Y0217004D01*
X0247410Y0215810D01*
X0247809Y0215805D01*
X0247810Y0214610D01*
X0248210Y0214602D01*
X0248210Y0213410D01*
X0248610Y0213402D01*
X0248610Y0212210D01*
X0249010Y0212203D01*
X0249010Y0211010D01*
X0249410Y0211002D01*
X0249410Y0209810D01*
X0249807Y0209807D01*
X0249810Y0209010D01*
X0250209Y0209004D01*
X0250210Y0207810D01*
X0250609Y0207805D01*
X0250610Y0207010D01*
X0251010Y0207002D01*
X0251010Y0205810D01*
X0251407Y0205807D01*
X0251410Y0205010D01*
X0251810Y0205003D01*
X0251810Y0203810D01*
X0252208Y0203806D01*
X0252210Y0203010D01*
X0252607Y0203007D01*
X0252610Y0202210D01*
X0253010Y0202203D01*
X0253010Y0201410D01*
X0253409Y0201404D01*
X0253410Y0200610D01*
X0253809Y0200605D01*
X0253810Y0199810D01*
X0254207Y0199807D01*
X0254210Y0199010D01*
X0254610Y0199003D01*
X0254610Y0198210D01*
X0255005Y0198209D01*
X0255010Y0197810D01*
X0255408Y0197806D01*
X0255410Y0197010D01*
X0255807Y0197007D01*
X0255810Y0196210D01*
X0256210Y0196203D01*
X0256210Y0195410D01*
X0256605Y0195409D01*
X0256610Y0195010D01*
X0257007Y0195007D01*
X0257010Y0194210D01*
X0257405Y0194209D01*
X0257410Y0193810D01*
X0257808Y0193806D01*
X0257810Y0193010D01*
X0258205Y0193009D01*
X0258210Y0192610D01*
X0258609Y0192604D01*
X0258610Y0191810D01*
X0259006Y0191808D01*
X0259010Y0191410D01*
X0259406Y0191408D01*
X0259410Y0191010D01*
X0259805Y0191009D01*
X0259810Y0190610D01*
X0260208Y0190606D01*
X0260210Y0189810D01*
X0260607Y0189807D01*
X0260610Y0189410D01*
X0261006Y0189408D01*
X0261010Y0189010D01*
X0261409Y0189005D01*
X0261410Y0188610D01*
X0261806Y0188608D01*
X0261810Y0188210D01*
X0262209Y0188205D01*
X0262210Y0187810D01*
X0262606Y0187808D01*
X0262610Y0187410D01*
X0263009Y0187405D01*
X0263010Y0187010D01*
X0263408Y0187006D01*
X0263410Y0186610D01*
X0263806Y0186608D01*
X0263810Y0186210D01*
X0264205Y0186209D01*
X0264210Y0185810D01*
X0264608Y0185806D01*
X0264610Y0185410D01*
X0265007Y0185407D01*
X0265010Y0185010D01*
X0265806Y0185008D01*
X0265810Y0184610D01*
X0266205Y0184609D01*
X0266210Y0184210D01*
X0266608Y0184206D01*
X0266610Y0183810D01*
X0267406Y0183808D01*
X0267410Y0183410D01*
X0267809Y0183405D01*
X0267810Y0183010D01*
X0268607Y0183007D01*
X0268610Y0182610D01*
X0269009Y0182605D01*
X0269010Y0182210D01*
X0269805Y0182209D01*
X0269810Y0181810D01*
X0271004Y0181809D01*
X0271010Y0181410D01*
X0271803Y0181410D01*
X0271810Y0181010D01*
X0272606Y0181008D01*
X0272610Y0180610D01*
X0273802Y0180610D01*
X0273810Y0180210D01*
X0275004Y0180209D01*
X0275010Y0179810D01*
X0276604Y0179809D01*
X0276610Y0179410D01*
X0278602Y0179410D01*
X0278610Y0179010D01*
X0281802Y0179010D01*
X0281810Y0178610D01*
X0309790Y0178610D01*
X0309790Y0215400D01*
X0310190Y0215410D01*
X0310190Y0221401D01*
X0310590Y0221410D01*
X0310590Y0225001D01*
X0310990Y0225010D01*
X0310990Y0227801D01*
X0311390Y0227810D01*
X0311390Y0230202D01*
X0311790Y0230210D01*
X0311791Y0231805D01*
X0312190Y0231810D01*
X0312190Y0233802D01*
X0312590Y0233810D01*
X0312590Y0235402D01*
X0312990Y0235410D01*
X0312990Y0237001D01*
X0313390Y0237010D01*
X0313390Y0238603D01*
X0313790Y0238610D01*
X0313792Y0239806D01*
X0314190Y0239810D01*
X0314190Y0241402D01*
X0314590Y0241410D01*
X0314590Y0242602D01*
X0314990Y0242610D01*
X0314991Y0243805D01*
X0315390Y0243810D01*
X0315391Y0245004D01*
X0315790Y0245010D01*
X0315791Y0246204D01*
X0316190Y0246210D01*
X0316193Y0247007D01*
X0316590Y0247010D01*
X0316590Y0248202D01*
X0316990Y0248210D01*
X0316991Y0249005D01*
X0317390Y0249010D01*
X0317390Y0250202D01*
X0317790Y0250210D01*
X0317791Y0251404D01*
X0318190Y0251410D01*
X0318191Y0252204D01*
X0318590Y0252210D01*
X0318590Y0253003D01*
X0318990Y0253010D01*
X0318993Y0253807D01*
X0319390Y0253810D01*
X0319392Y0254606D01*
X0319790Y0254610D01*
X0319790Y0255802D01*
X0320190Y0255810D01*
X0320191Y0256605D01*
X0320590Y0256610D01*
X0320595Y0257009D01*
X0320990Y0257010D01*
X0320990Y0257803D01*
X0321390Y0257810D01*
X0321391Y0258605D01*
X0321790Y0258610D01*
X0321790Y0259403D01*
X0322190Y0259410D01*
X0322193Y0260207D01*
X0322590Y0260210D01*
X0322592Y0261006D01*
X0322990Y0261010D01*
X0322991Y0261805D01*
X0323390Y0261810D01*
X0323395Y0262209D01*
X0323790Y0262210D01*
X0323791Y0263004D01*
X0324190Y0263010D01*
X0324190Y0263803D01*
X0324590Y0263810D01*
X0324592Y0264606D01*
X0324990Y0264610D01*
X0324995Y0265009D01*
X0325390Y0265010D01*
X0325392Y0265806D01*
X0325790Y0265810D01*
X0325795Y0266209D01*
X0326190Y0266210D01*
X0326190Y0267003D01*
X0326590Y0267010D01*
X0326592Y0267806D01*
X0326990Y0267810D01*
X0326995Y0268209D01*
X0327390Y0268210D01*
X0327393Y0269007D01*
X0327790Y0269010D01*
X0327791Y0269405D01*
X0328190Y0269410D01*
X0328194Y0269808D01*
X0328590Y0269810D01*
X0328591Y0270605D01*
X0328990Y0270610D01*
X0328995Y0271009D01*
X0329390Y0271010D01*
X0329393Y0271807D01*
X0329790Y0271810D01*
X0329791Y0272205D01*
X0330190Y0272210D01*
X0330194Y0272608D01*
X0330590Y0272610D01*
X0330592Y0273406D01*
X0330990Y0273410D01*
X0330991Y0273805D01*
X0331390Y0273810D01*
X0331394Y0274208D01*
X0331790Y0274210D01*
X0331792Y0275006D01*
X0332190Y0275010D01*
X0332195Y0275409D01*
X0332590Y0275410D01*
X0332591Y0275805D01*
X0332990Y0275810D01*
X0332994Y0276208D01*
X0333390Y0276210D01*
X0333392Y0277006D01*
X0333790Y0277010D01*
X0333795Y0277409D01*
X0334190Y0277410D01*
X0334191Y0277805D01*
X0334590Y0277810D01*
X0334594Y0278208D01*
X0334990Y0278210D01*
X0334994Y0278608D01*
X0335390Y0278610D01*
X0335392Y0279406D01*
X0335790Y0279410D01*
X0335795Y0279809D01*
X0336190Y0279810D01*
X0336192Y0280206D01*
X0336590Y0280210D01*
X0336591Y0280605D01*
X0336990Y0280610D01*
X0336994Y0281008D01*
X0337390Y0281010D01*
X0337394Y0281408D01*
X0337790Y0281410D01*
X0337794Y0281808D01*
X0338190Y0281810D01*
X0338192Y0282206D01*
X0338590Y0282210D01*
X0338595Y0282609D01*
X0338990Y0282610D01*
X0338994Y0283008D01*
X0339390Y0283010D01*
X0339393Y0283407D01*
X0339790Y0283410D01*
X0339793Y0283807D01*
X0340190Y0283810D01*
X0340193Y0284207D01*
X0340590Y0284210D01*
X0340593Y0284607D01*
X0340990Y0284610D01*
X0340993Y0285007D01*
X0341390Y0285010D01*
X0341393Y0285407D01*
X0341790Y0285410D01*
X0341793Y0285807D01*
X0342190Y0285810D01*
X0342193Y0286207D01*
X0342590Y0286210D01*
X0342593Y0286607D01*
X0342990Y0286610D01*
X0342993Y0287007D01*
X0343390Y0287010D01*
X0343393Y0287407D01*
X0343790Y0287410D01*
X0343793Y0287807D01*
X0344190Y0287810D01*
X0344193Y0288207D01*
X0344590Y0288210D01*
X0344593Y0288607D01*
X0344990Y0288610D01*
X0344993Y0289007D01*
X0345390Y0289010D01*
X0345393Y0289407D01*
X0346190Y0289410D01*
X0346192Y0289806D01*
X0346590Y0289810D01*
X0346595Y0290209D01*
X0346990Y0290210D01*
X0346992Y0290606D01*
X0347390Y0290610D01*
X0347395Y0291009D01*
X0347790Y0291010D01*
X0347791Y0291405D01*
X0348190Y0291410D01*
X0348194Y0291808D01*
X0348990Y0291810D01*
X0348992Y0292206D01*
X0349390Y0292210D01*
X0349391Y0292605D01*
X0349790Y0292610D01*
X0349794Y0293008D01*
X0350190Y0293010D01*
X0350193Y0293407D01*
X0350990Y0293410D01*
X0350992Y0293806D01*
X0351390Y0293810D01*
X0351391Y0294205D01*
X0351790Y0294210D01*
X0351795Y0294609D01*
X0352590Y0294610D01*
X0352592Y0295006D01*
X0352990Y0295010D01*
X0352995Y0295409D01*
X0353390Y0295410D01*
X0353394Y0295808D01*
X0354190Y0295810D01*
X0354191Y0296205D01*
X0354590Y0296210D01*
X0354594Y0296608D01*
X0355390Y0296610D01*
X0355391Y0297005D01*
X0355790Y0297010D01*
X0355796Y0297409D01*
X0356590Y0297410D01*
X0356591Y0297805D01*
X0356990Y0297810D01*
X0356995Y0298209D01*
X0357790Y0298210D01*
X0357791Y0298605D01*
X0358190Y0298610D01*
X0358195Y0299009D01*
X0358990Y0299010D01*
X0358991Y0299405D01*
X0359390Y0299410D01*
X0359395Y0299809D01*
X0360190Y0299810D01*
X0360197Y0300210D01*
X0360990Y0300210D01*
X0360991Y0300605D01*
X0361390Y0300610D01*
X0361395Y0301009D01*
X0362190Y0301010D01*
X0362193Y0301407D01*
X0362990Y0301410D01*
X0362997Y0301810D01*
X0363790Y0301810D01*
X0363791Y0302205D01*
X0364190Y0302210D01*
X0364195Y0302609D01*
X0364990Y0302610D01*
X0364995Y0303009D01*
X0365790Y0303010D01*
X0365795Y0303409D01*
X0366590Y0303410D01*
X0366595Y0303809D01*
X0367390Y0303810D01*
X0367395Y0304209D01*
X0368190Y0304210D01*
X0368194Y0304608D01*
X0368990Y0304610D01*
X0368993Y0305007D01*
X0369790Y0305010D01*
X0369797Y0305410D01*
X0370590Y0305410D01*
X0370596Y0305809D01*
X0371390Y0305810D01*
X0371396Y0306209D01*
X0372590Y0306210D01*
X0372594Y0306608D01*
X0373390Y0306610D01*
X0373397Y0307010D01*
X0374190Y0307010D01*
X0374196Y0307409D01*
X0375390Y0307410D01*
X0375393Y0307807D01*
X0376190Y0307810D01*
X0376196Y0308209D01*
X0377390Y0308210D01*
X0377394Y0308608D01*
X0378590Y0308610D01*
X0378598Y0309010D01*
X0379790Y0309010D01*
X0379793Y0309407D01*
X0380590Y0309410D01*
X0380595Y0309809D01*
X0381790Y0309810D01*
X0381798Y0310210D01*
X0382990Y0310210D01*
X0382997Y0310610D01*
X0384590Y0310610D01*
X0384594Y0311008D01*
X0385790Y0311010D01*
X0385797Y0311410D01*
X0387390Y0311410D01*
X0387399Y0311810D01*
X0388990Y0311810D01*
X0388998Y0312210D01*
X0390590Y0312210D01*
X0390598Y0312610D01*
X0392590Y0312610D01*
X0392599Y0313010D01*
X0394590Y0313010D01*
X0394598Y0313410D01*
X0397390Y0313410D01*
X0397399Y0313810D01*
X0400190Y0313810D01*
X0400199Y0314210D01*
X0403790Y0314210D01*
X0403799Y0314610D01*
X0407200Y0314610D01*
X0407200Y0291390D01*
X0405410Y0291390D01*
G37*

G36*
X0349000Y0427790D02*
X0348990Y0428190D01*
X0348590Y0428198D01*
X0348590Y0478200D01*
X0348990Y0478210D01*
X0348990Y0483401D01*
X0349390Y0483410D01*
X0349390Y0486201D01*
X0349790Y0486210D01*
X0349790Y0488202D01*
X0350190Y0488210D01*
X0350190Y0489801D01*
X0350590Y0489810D01*
X0350590Y0491403D01*
X0350990Y0491410D01*
X0350990Y0492602D01*
X0351390Y0492610D01*
X0351390Y0493802D01*
X0351790Y0493810D01*
X0351791Y0495005D01*
X0352190Y0495010D01*
X0352191Y0496204D01*
X0352590Y0496210D01*
X0352590Y0497003D01*
X0352990Y0497010D01*
X0352992Y0497806D01*
X0353390Y0497810D01*
X0353391Y0499004D01*
X0353790Y0499010D01*
X0353791Y0499804D01*
X0354190Y0499810D01*
X0354190Y0500603D01*
X0354590Y0500610D01*
X0354593Y0501407D01*
X0354990Y0501410D01*
X0354992Y0502206D01*
X0355390Y0502210D01*
X0355395Y0502609D01*
X0355790Y0502610D01*
X0355790Y0503403D01*
X0356190Y0503410D01*
X0356193Y0504207D01*
X0356590Y0504210D01*
X0356592Y0505006D01*
X0356990Y0505010D01*
X0356995Y0505409D01*
X0357390Y0505410D01*
X0357391Y0506205D01*
X0357790Y0506210D01*
X0357795Y0506609D01*
X0358190Y0506610D01*
X0358191Y0507404D01*
X0358590Y0507410D01*
X0358595Y0507809D01*
X0358990Y0507810D01*
X0358992Y0508606D01*
X0359390Y0508610D01*
X0359391Y0509005D01*
X0359790Y0509010D01*
X0359794Y0509408D01*
X0360190Y0509410D01*
X0360194Y0509808D01*
X0360590Y0509810D01*
X0360592Y0510606D01*
X0360990Y0510610D01*
X0360992Y0511006D01*
X0361390Y0511010D01*
X0361395Y0511409D01*
X0361790Y0511410D01*
X0361791Y0511805D01*
X0362190Y0511810D01*
X0362194Y0512208D01*
X0362590Y0512210D01*
X0362594Y0512608D01*
X0362990Y0512610D01*
X0362992Y0513406D01*
X0363390Y0513410D01*
X0363395Y0513809D01*
X0363790Y0513810D01*
X0363792Y0514206D01*
X0364190Y0514210D01*
X0364192Y0514606D01*
X0364590Y0514610D01*
X0364595Y0515009D01*
X0364990Y0515010D01*
X0364992Y0515406D01*
X0365390Y0515410D01*
X0365392Y0515806D01*
X0365790Y0515810D01*
X0365795Y0516209D01*
X0366190Y0516210D01*
X0366194Y0516608D01*
X0366590Y0516610D01*
X0366594Y0517008D01*
X0366990Y0517010D01*
X0366993Y0517407D01*
X0367790Y0517410D01*
X0367792Y0517806D01*
X0368190Y0517810D01*
X0368191Y0518205D01*
X0368590Y0518210D01*
X0368594Y0518608D01*
X0368990Y0518610D01*
X0368992Y0519006D01*
X0369390Y0519010D01*
X0369395Y0519409D01*
X0369790Y0519410D01*
X0369794Y0519808D01*
X0370590Y0519810D01*
X0370592Y0520206D01*
X0370990Y0520210D01*
X0370991Y0520605D01*
X0371390Y0520610D01*
X0371394Y0521008D01*
X0371790Y0521010D01*
X0371793Y0521407D01*
X0372590Y0521410D01*
X0372592Y0521806D01*
X0372990Y0521810D01*
X0372991Y0522205D01*
X0373390Y0522210D01*
X0373395Y0522609D01*
X0374190Y0522610D01*
X0374192Y0523006D01*
X0374590Y0523010D01*
X0374591Y0523405D01*
X0374990Y0523410D01*
X0374994Y0523808D01*
X0375790Y0523810D01*
X0375791Y0524205D01*
X0376190Y0524210D01*
X0376194Y0524608D01*
X0376990Y0524610D01*
X0376991Y0525005D01*
X0377390Y0525010D01*
X0377393Y0525407D01*
X0378190Y0525410D01*
X0378196Y0525809D01*
X0378990Y0525810D01*
X0378991Y0526205D01*
X0379390Y0526210D01*
X0379395Y0526609D01*
X0380190Y0526610D01*
X0380197Y0527010D01*
X0380990Y0527010D01*
X0380991Y0527405D01*
X0381390Y0527410D01*
X0381395Y0527809D01*
X0382190Y0527810D01*
X0382193Y0528207D01*
X0382990Y0528210D01*
X0382997Y0528610D01*
X0383790Y0528610D01*
X0383791Y0529005D01*
X0384190Y0529010D01*
X0384195Y0529409D01*
X0384990Y0529410D01*
X0384995Y0529809D01*
X0385790Y0529810D01*
X0385795Y0530209D01*
X0386590Y0530210D01*
X0386595Y0530609D01*
X0387390Y0530610D01*
X0387395Y0531009D01*
X0388190Y0531010D01*
X0388194Y0531408D01*
X0388990Y0531410D01*
X0388993Y0531807D01*
X0389790Y0531810D01*
X0389797Y0532210D01*
X0390590Y0532210D01*
X0390596Y0532609D01*
X0391390Y0532610D01*
X0391396Y0533009D01*
X0392590Y0533010D01*
X0392593Y0533407D01*
X0393390Y0533410D01*
X0393396Y0533809D01*
X0394590Y0533810D01*
X0394594Y0534208D01*
X0395390Y0534210D01*
X0395397Y0534610D01*
X0396190Y0534610D01*
X0396196Y0535009D01*
X0397390Y0535010D01*
X0397395Y0535409D01*
X0398190Y0535410D01*
X0398198Y0535810D01*
X0399390Y0535810D01*
X0399397Y0536210D01*
X0400590Y0536210D01*
X0400593Y0536607D01*
X0401390Y0536610D01*
X0401397Y0537010D01*
X0402590Y0537010D01*
X0402598Y0537410D01*
X0403790Y0537410D01*
X0403796Y0537809D01*
X0404990Y0537810D01*
X0404995Y0538209D01*
X0406190Y0538210D01*
X0406198Y0538610D01*
X0407200Y0538610D01*
X0407200Y0514191D01*
X0407010Y0514190D01*
X0407004Y0513791D01*
X0405810Y0513790D01*
X0405807Y0513393D01*
X0405010Y0513390D01*
X0405003Y0512990D01*
X0403810Y0512990D01*
X0403806Y0512592D01*
X0403010Y0512590D01*
X0403003Y0512190D01*
X0402210Y0512190D01*
X0402205Y0511791D01*
X0401010Y0511790D01*
X0401006Y0511392D01*
X0400210Y0511390D01*
X0400207Y0510993D01*
X0399410Y0510990D01*
X0399403Y0510590D01*
X0398610Y0510590D01*
X0398605Y0510191D01*
X0397810Y0510190D01*
X0397806Y0509792D01*
X0397010Y0509790D01*
X0397007Y0509393D01*
X0396210Y0509390D01*
X0396203Y0508990D01*
X0395410Y0508990D01*
X0395404Y0508591D01*
X0394610Y0508590D01*
X0394609Y0508195D01*
X0394210Y0508190D01*
X0394206Y0507792D01*
X0393410Y0507790D01*
X0393403Y0507390D01*
X0392610Y0507390D01*
X0392609Y0506995D01*
X0392210Y0506990D01*
X0392206Y0506592D01*
X0391410Y0506590D01*
X0391403Y0506190D01*
X0390610Y0506190D01*
X0390609Y0505795D01*
X0390210Y0505790D01*
X0390206Y0505392D01*
X0389410Y0505390D01*
X0389409Y0504995D01*
X0389010Y0504990D01*
X0389004Y0504591D01*
X0388210Y0504590D01*
X0388209Y0504195D01*
X0387810Y0504190D01*
X0387806Y0503792D01*
X0387010Y0503790D01*
X0387008Y0503394D01*
X0386610Y0503390D01*
X0386608Y0502994D01*
X0386210Y0502990D01*
X0386205Y0502591D01*
X0385810Y0502590D01*
X0385806Y0502192D01*
X0385010Y0502190D01*
X0385008Y0501794D01*
X0384610Y0501790D01*
X0384609Y0501395D01*
X0384210Y0501390D01*
X0384206Y0500992D01*
X0383810Y0500990D01*
X0383808Y0500594D01*
X0383410Y0500590D01*
X0383405Y0500191D01*
X0383010Y0500190D01*
X0383006Y0499792D01*
X0382210Y0499790D01*
X0382207Y0499393D01*
X0381810Y0499390D01*
X0381808Y0498994D01*
X0381410Y0498990D01*
X0381409Y0498595D01*
X0381010Y0498590D01*
X0381006Y0498192D01*
X0380610Y0498190D01*
X0380606Y0497792D01*
X0380210Y0497790D01*
X0380207Y0496993D01*
X0379810Y0496990D01*
X0379808Y0496594D01*
X0379410Y0496590D01*
X0379408Y0496194D01*
X0379010Y0496190D01*
X0379005Y0495791D01*
X0378610Y0495790D01*
X0378606Y0495392D01*
X0378210Y0495390D01*
X0378208Y0494594D01*
X0377810Y0494590D01*
X0377809Y0494195D01*
X0377410Y0494190D01*
X0377406Y0493792D01*
X0377010Y0493790D01*
X0377010Y0492997D01*
X0376610Y0492990D01*
X0376609Y0492195D01*
X0376210Y0492190D01*
X0376205Y0491791D01*
X0375810Y0491790D01*
X0375810Y0490997D01*
X0375410Y0490990D01*
X0375409Y0490195D01*
X0375010Y0490190D01*
X0375010Y0489397D01*
X0374610Y0489390D01*
X0374608Y0488594D01*
X0374210Y0488590D01*
X0374210Y0487397D01*
X0373810Y0487390D01*
X0373810Y0486198D01*
X0373410Y0486190D01*
X0373408Y0484994D01*
X0373010Y0484990D01*
X0373009Y0483796D01*
X0372610Y0483790D01*
X0372610Y0481798D01*
X0372210Y0481790D01*
X0372210Y0477799D01*
X0371810Y0477790D01*
X0371810Y0451410D01*
X0372207Y0451407D01*
X0372210Y0451010D01*
X0407200Y0451010D01*
X0407200Y0427790D01*
X0349000Y0427790D01*
G37*

G36*
X0576610Y0305390D02*
X0576606Y0304992D01*
X0576210Y0304990D01*
X0576206Y0304592D01*
X0575410Y0304590D01*
X0575408Y0304194D01*
X0575010Y0304190D01*
X0575009Y0303795D01*
X0574610Y0303790D01*
X0574606Y0303392D01*
X0573810Y0303390D01*
X0573808Y0302994D01*
X0573410Y0302990D01*
X0573405Y0302591D01*
X0573010Y0302590D01*
X0573006Y0302192D01*
X0572210Y0302190D01*
X0572203Y0301790D01*
X0571410Y0301790D01*
X0571409Y0301395D01*
X0571010Y0301390D01*
X0571007Y0300993D01*
X0570210Y0300990D01*
X0570209Y0300595D01*
X0569810Y0300590D01*
X0569806Y0300192D01*
X0569010Y0300190D01*
X0569007Y0299793D01*
X0568210Y0299790D01*
X0568203Y0299390D01*
X0567410Y0299390D01*
X0567409Y0298995D01*
X0567010Y0298990D01*
X0567006Y0298592D01*
X0566210Y0298590D01*
X0566207Y0298193D01*
X0565410Y0298190D01*
X0565403Y0297790D01*
X0564610Y0297790D01*
X0564604Y0297391D01*
X0563810Y0297390D01*
X0563804Y0296991D01*
X0562610Y0296990D01*
X0562605Y0296591D01*
X0561810Y0296590D01*
X0561807Y0296193D01*
X0561010Y0296190D01*
X0561003Y0295790D01*
X0559810Y0295790D01*
X0559807Y0295393D01*
X0559010Y0295390D01*
X0559003Y0294990D01*
X0557410Y0294990D01*
X0557407Y0294593D01*
X0556610Y0294590D01*
X0556603Y0294190D01*
X0555010Y0294190D01*
X0555004Y0293791D01*
X0553810Y0293790D01*
X0553801Y0293390D01*
X0552210Y0293390D01*
X0552202Y0292990D01*
X0550210Y0292990D01*
X0550202Y0292590D01*
X0548210Y0292590D01*
X0548202Y0292190D01*
X0545810Y0292190D01*
X0545801Y0291790D01*
X0541010Y0291790D01*
X0541000Y0291390D01*
X0407200Y0291390D01*
X0407200Y0314610D01*
X0540190Y0314610D01*
X0540199Y0315010D01*
X0543790Y0315010D01*
X0543798Y0315410D01*
X0546190Y0315410D01*
X0546197Y0315810D01*
X0547790Y0315810D01*
X0547795Y0316209D01*
X0548990Y0316210D01*
X0548998Y0316610D01*
X0550190Y0316610D01*
X0550197Y0317010D01*
X0551390Y0317010D01*
X0551393Y0317407D01*
X0552190Y0317410D01*
X0552196Y0317809D01*
X0553390Y0317810D01*
X0553393Y0318207D01*
X0554190Y0318210D01*
X0554195Y0318609D01*
X0554990Y0318610D01*
X0554994Y0319008D01*
X0555790Y0319010D01*
X0555797Y0319410D01*
X0556590Y0319410D01*
X0556596Y0319809D01*
X0557390Y0319810D01*
X0557391Y0320205D01*
X0557790Y0320210D01*
X0557794Y0320608D01*
X0558590Y0320610D01*
X0558591Y0321005D01*
X0558990Y0321010D01*
X0558996Y0321409D01*
X0559790Y0321410D01*
X0559791Y0321805D01*
X0560190Y0321810D01*
X0560194Y0322208D01*
X0560990Y0322210D01*
X0560992Y0322606D01*
X0561390Y0322610D01*
X0561395Y0323009D01*
X0561790Y0323010D01*
X0561793Y0323407D01*
X0562590Y0323410D01*
X0562591Y0323805D01*
X0562990Y0323810D01*
X0562993Y0324207D01*
X0563390Y0324210D01*
X0563392Y0324606D01*
X0563790Y0324610D01*
X0563795Y0325009D01*
X0564190Y0325010D01*
X0564192Y0325406D01*
X0564590Y0325410D01*
X0564592Y0325806D01*
X0564990Y0325810D01*
X0564995Y0326209D01*
X0565390Y0326210D01*
X0565394Y0326608D01*
X0565790Y0326610D01*
X0565791Y0327005D01*
X0566190Y0327010D01*
X0566194Y0327408D01*
X0566590Y0327410D01*
X0566593Y0327807D01*
X0566990Y0327810D01*
X0566992Y0328206D01*
X0567390Y0328210D01*
X0567395Y0328609D01*
X0567790Y0328610D01*
X0567791Y0329005D01*
X0568190Y0329010D01*
X0568194Y0329408D01*
X0568590Y0329410D01*
X0568592Y0330206D01*
X0568990Y0330210D01*
X0568991Y0330605D01*
X0569390Y0330610D01*
X0569394Y0331008D01*
X0569790Y0331010D01*
X0569792Y0331806D01*
X0570190Y0331810D01*
X0570195Y0332209D01*
X0570590Y0332210D01*
X0570594Y0332608D01*
X0570990Y0332610D01*
X0570992Y0333406D01*
X0571390Y0333410D01*
X0571395Y0333809D01*
X0571790Y0333810D01*
X0571790Y0334603D01*
X0572190Y0334610D01*
X0572192Y0335406D01*
X0572590Y0335410D01*
X0572595Y0335809D01*
X0572990Y0335810D01*
X0572990Y0336603D01*
X0573390Y0336610D01*
X0573393Y0337407D01*
X0573790Y0337410D01*
X0573791Y0338205D01*
X0574190Y0338210D01*
X0574191Y0339404D01*
X0574590Y0339410D01*
X0574590Y0340203D01*
X0574990Y0340210D01*
X0574992Y0341006D01*
X0575390Y0341010D01*
X0575390Y0342202D01*
X0575790Y0342210D01*
X0575792Y0343406D01*
X0576190Y0343410D01*
X0576191Y0344604D01*
X0576590Y0344610D01*
X0576590Y0346202D01*
X0576990Y0346210D01*
X0576991Y0347805D01*
X0577390Y0347810D01*
X0577390Y0349802D01*
X0577790Y0349810D01*
X0577790Y0353802D01*
X0578190Y0353810D01*
X0578190Y0477790D01*
X0577790Y0477799D01*
X0577790Y0481390D01*
X0577390Y0481398D01*
X0577390Y0483390D01*
X0576991Y0483396D01*
X0576990Y0484590D01*
X0576592Y0484594D01*
X0576590Y0485790D01*
X0576190Y0485798D01*
X0576190Y0486990D01*
X0575790Y0486997D01*
X0575790Y0488190D01*
X0575393Y0488193D01*
X0575390Y0488990D01*
X0574991Y0488995D01*
X0574990Y0489790D01*
X0574590Y0489797D01*
X0574590Y0490590D01*
X0574195Y0490591D01*
X0574190Y0490990D01*
X0573791Y0490995D01*
X0573790Y0491790D01*
X0573390Y0491797D01*
X0573390Y0492590D01*
X0572995Y0492591D01*
X0572990Y0492990D01*
X0572591Y0492995D01*
X0572590Y0493790D01*
X0572194Y0493792D01*
X0572190Y0494190D01*
X0571795Y0494191D01*
X0571790Y0494590D01*
X0571392Y0494594D01*
X0571390Y0494990D01*
X0570993Y0494993D01*
X0570990Y0495790D01*
X0570594Y0495792D01*
X0570590Y0496190D01*
X0570195Y0496191D01*
X0570190Y0496590D01*
X0569792Y0496594D01*
X0569790Y0496990D01*
X0569395Y0496991D01*
X0569390Y0497390D01*
X0568992Y0497394D01*
X0568990Y0497790D01*
X0568593Y0497793D01*
X0568590Y0498190D01*
X0568194Y0498192D01*
X0568190Y0498590D01*
X0567791Y0498595D01*
X0567790Y0498990D01*
X0567395Y0498991D01*
X0567390Y0499390D01*
X0566992Y0499394D01*
X0566990Y0499790D01*
X0566595Y0499791D01*
X0566590Y0500190D01*
X0566192Y0500194D01*
X0566190Y0500590D01*
X0565795Y0500591D01*
X0565790Y0500990D01*
X0565392Y0500994D01*
X0565390Y0501390D01*
X0564594Y0501392D01*
X0564590Y0501790D01*
X0564194Y0501792D01*
X0564190Y0502190D01*
X0563791Y0502195D01*
X0563790Y0502590D01*
X0563392Y0502594D01*
X0563390Y0502990D01*
X0562594Y0502992D01*
X0562590Y0503390D01*
X0562195Y0503391D01*
X0562190Y0503790D01*
X0561792Y0503794D01*
X0561790Y0504190D01*
X0560995Y0504191D01*
X0560990Y0504590D01*
X0560591Y0504595D01*
X0560590Y0504990D01*
X0559793Y0504993D01*
X0559790Y0505390D01*
X0559391Y0505395D01*
X0559390Y0505790D01*
X0558594Y0505792D01*
X0558590Y0506190D01*
X0558191Y0506195D01*
X0558190Y0506590D01*
X0557397Y0506590D01*
X0557390Y0506990D01*
X0556594Y0506992D01*
X0556590Y0507390D01*
X0556191Y0507395D01*
X0556190Y0507790D01*
X0555397Y0507790D01*
X0555390Y0508190D01*
X0554593Y0508193D01*
X0554590Y0508590D01*
X0553794Y0508592D01*
X0553790Y0508990D01*
X0553391Y0508995D01*
X0553390Y0509390D01*
X0552595Y0509391D01*
X0552590Y0509790D01*
X0551797Y0509790D01*
X0551790Y0510190D01*
X0550995Y0510191D01*
X0550990Y0510590D01*
X0550196Y0510591D01*
X0550190Y0510990D01*
X0549397Y0510990D01*
X0549390Y0511390D01*
X0548593Y0511393D01*
X0548590Y0511790D01*
X0547794Y0511792D01*
X0547790Y0512190D01*
X0546597Y0512190D01*
X0546590Y0512590D01*
X0545793Y0512593D01*
X0545790Y0512990D01*
X0544596Y0512991D01*
X0544590Y0513390D01*
X0543797Y0513390D01*
X0543790Y0513790D01*
X0542994Y0513792D01*
X0542990Y0514190D01*
X0541796Y0514191D01*
X0541790Y0514590D01*
X0540993Y0514593D01*
X0540990Y0514990D01*
X0539798Y0514990D01*
X0539790Y0515390D01*
X0538598Y0515390D01*
X0538590Y0515790D01*
X0537395Y0515791D01*
X0537390Y0516190D01*
X0536197Y0516190D01*
X0536190Y0516590D01*
X0535393Y0516593D01*
X0535390Y0516990D01*
X0533799Y0516990D01*
X0533790Y0517390D01*
X0532597Y0517390D01*
X0532590Y0517790D01*
X0530997Y0517790D01*
X0530990Y0518190D01*
X0529798Y0518190D01*
X0529790Y0518590D01*
X0528595Y0518591D01*
X0528590Y0518990D01*
X0526999Y0518990D01*
X0526990Y0519390D01*
X0525398Y0519390D01*
X0525390Y0519790D01*
X0523799Y0519790D01*
X0523790Y0520190D01*
X0522596Y0520191D01*
X0522590Y0520590D01*
X0520998Y0520590D01*
X0520990Y0520990D01*
X0519395Y0520991D01*
X0519390Y0521390D01*
X0517399Y0521390D01*
X0517390Y0521790D01*
X0515797Y0521790D01*
X0515790Y0522190D01*
X0513799Y0522190D01*
X0513790Y0522590D01*
X0511798Y0522590D01*
X0511790Y0522990D01*
X0510195Y0522991D01*
X0510190Y0523390D01*
X0507798Y0523390D01*
X0507790Y0523790D01*
X0505796Y0523791D01*
X0505790Y0524190D01*
X0502998Y0524190D01*
X0502990Y0524590D01*
X0500597Y0524590D01*
X0500590Y0524990D01*
X0497399Y0524990D01*
X0497390Y0525390D01*
X0494198Y0525390D01*
X0494190Y0525790D01*
X0490199Y0525790D01*
X0490190Y0526190D01*
X0482999Y0526190D01*
X0482990Y0526590D01*
X0467810Y0526590D01*
X0467801Y0526190D01*
X0461010Y0526190D01*
X0461001Y0525790D01*
X0456610Y0525790D01*
X0456602Y0525390D01*
X0453010Y0525390D01*
X0453001Y0524990D01*
X0450210Y0524990D01*
X0450201Y0524590D01*
X0447410Y0524590D01*
X0447402Y0524190D01*
X0445010Y0524190D01*
X0445002Y0523790D01*
X0442610Y0523790D01*
X0442603Y0523390D01*
X0440210Y0523390D01*
X0440203Y0522990D01*
X0438610Y0522990D01*
X0438601Y0522590D01*
X0436610Y0522590D01*
X0436602Y0522190D01*
X0434610Y0522190D01*
X0434601Y0521790D01*
X0432610Y0521790D01*
X0432603Y0521390D01*
X0431010Y0521390D01*
X0431001Y0520990D01*
X0429410Y0520990D01*
X0429402Y0520590D01*
X0427810Y0520590D01*
X0427802Y0520190D01*
X0426210Y0520190D01*
X0426205Y0519791D01*
X0424610Y0519790D01*
X0424602Y0519390D01*
X0423010Y0519390D01*
X0423001Y0518990D01*
X0421410Y0518990D01*
X0421405Y0518591D01*
X0420210Y0518590D01*
X0420202Y0518190D01*
X0419010Y0518190D01*
X0419003Y0517790D01*
X0417410Y0517790D01*
X0417406Y0517392D01*
X0416210Y0517390D01*
X0416202Y0516990D01*
X0414610Y0516990D01*
X0414605Y0516591D01*
X0413410Y0516590D01*
X0413407Y0516193D01*
X0412610Y0516190D01*
X0412603Y0515790D01*
X0411410Y0515790D01*
X0411405Y0515391D01*
X0410210Y0515390D01*
X0410202Y0514990D01*
X0409010Y0514990D01*
X0409002Y0514590D01*
X0407810Y0514590D01*
X0407807Y0514193D01*
X0407200Y0514191D01*
X0407200Y0538610D01*
X0407390Y0538610D01*
X0407398Y0539010D01*
X0408590Y0539010D01*
X0408597Y0539410D01*
X0409790Y0539410D01*
X0409797Y0539810D01*
X0411390Y0539810D01*
X0411394Y0540208D01*
X0412590Y0540210D01*
X0412597Y0540610D01*
X0414190Y0540610D01*
X0414194Y0541008D01*
X0415390Y0541010D01*
X0415397Y0541410D01*
X0416990Y0541410D01*
X0416999Y0541810D01*
X0418590Y0541810D01*
X0418598Y0542210D01*
X0420190Y0542210D01*
X0420198Y0542610D01*
X0421790Y0542610D01*
X0421798Y0543010D01*
X0423390Y0543010D01*
X0423398Y0543410D01*
X0424990Y0543410D01*
X0424998Y0543810D01*
X0426590Y0543810D01*
X0426598Y0544210D01*
X0428190Y0544210D01*
X0428198Y0544610D01*
X0430190Y0544610D01*
X0430196Y0545009D01*
X0432190Y0545010D01*
X0432199Y0545410D01*
X0434190Y0545410D01*
X0434195Y0545809D01*
X0435790Y0545810D01*
X0435798Y0546210D01*
X0438190Y0546210D01*
X0438198Y0546610D01*
X0440590Y0546610D01*
X0440597Y0547010D01*
X0442990Y0547010D01*
X0442999Y0547410D01*
X0445790Y0547410D01*
X0445799Y0547810D01*
X0448590Y0547810D01*
X0448599Y0548210D01*
X0451390Y0548210D01*
X0451399Y0548610D01*
X0455390Y0548610D01*
X0455400Y0549010D01*
X0460190Y0549010D01*
X0460199Y0549410D01*
X0467390Y0549410D01*
X0467400Y0549810D01*
X0483400Y0549810D01*
X0483410Y0549410D01*
X0490601Y0549410D01*
X0490610Y0549010D01*
X0495400Y0549010D01*
X0495410Y0548610D01*
X0499001Y0548610D01*
X0499010Y0548210D01*
X0502201Y0548210D01*
X0502210Y0547810D01*
X0505002Y0547810D01*
X0505010Y0547410D01*
X0507401Y0547410D01*
X0507410Y0547010D01*
X0509803Y0547010D01*
X0509810Y0546610D01*
X0512202Y0546610D01*
X0512210Y0546210D01*
X0514602Y0546210D01*
X0514610Y0545810D01*
X0516205Y0545809D01*
X0516210Y0545410D01*
X0518201Y0545410D01*
X0518210Y0545010D01*
X0520202Y0545010D01*
X0520210Y0544610D01*
X0521805Y0544609D01*
X0521810Y0544210D01*
X0523802Y0544210D01*
X0523810Y0543810D01*
X0525402Y0543810D01*
X0525410Y0543410D01*
X0527002Y0543410D01*
X0527010Y0543010D01*
X0528602Y0543010D01*
X0528610Y0542610D01*
X0530201Y0542610D01*
X0530210Y0542210D01*
X0531803Y0542210D01*
X0531810Y0541810D01*
X0533006Y0541808D01*
X0533010Y0541410D01*
X0534603Y0541410D01*
X0534610Y0541010D01*
X0535806Y0541008D01*
X0535810Y0540610D01*
X0537403Y0540610D01*
X0537410Y0540210D01*
X0538606Y0540208D01*
X0538610Y0539810D01*
X0540203Y0539810D01*
X0540210Y0539410D01*
X0541403Y0539410D01*
X0541410Y0539010D01*
X0542602Y0539010D01*
X0542610Y0538610D01*
X0543802Y0538610D01*
X0543810Y0538210D01*
X0545005Y0538209D01*
X0545010Y0537810D01*
X0546204Y0537809D01*
X0546210Y0537410D01*
X0547403Y0537410D01*
X0547410Y0537010D01*
X0548207Y0537007D01*
X0548210Y0536610D01*
X0549403Y0536610D01*
X0549410Y0536210D01*
X0550207Y0536207D01*
X0550210Y0535810D01*
X0551402Y0535810D01*
X0551410Y0535410D01*
X0552604Y0535409D01*
X0552610Y0535010D01*
X0553403Y0535010D01*
X0553410Y0534610D01*
X0554206Y0534608D01*
X0554210Y0534210D01*
X0555404Y0534209D01*
X0555410Y0533810D01*
X0556203Y0533810D01*
X0556210Y0533410D01*
X0557006Y0533408D01*
X0557010Y0533010D01*
X0558204Y0533009D01*
X0558210Y0532610D01*
X0559004Y0532609D01*
X0559010Y0532210D01*
X0559803Y0532210D01*
X0559810Y0531810D01*
X0560607Y0531807D01*
X0560610Y0531410D01*
X0561406Y0531408D01*
X0561410Y0531010D01*
X0562205Y0531009D01*
X0562210Y0530610D01*
X0563005Y0530609D01*
X0563010Y0530210D01*
X0563805Y0530209D01*
X0563810Y0529810D01*
X0564209Y0529805D01*
X0564210Y0529410D01*
X0565004Y0529409D01*
X0565010Y0529010D01*
X0565803Y0529010D01*
X0565810Y0528610D01*
X0566606Y0528608D01*
X0566610Y0528210D01*
X0567405Y0528209D01*
X0567410Y0527810D01*
X0567809Y0527805D01*
X0567810Y0527410D01*
X0568603Y0527410D01*
X0568610Y0527010D01*
X0569405Y0527009D01*
X0569410Y0526610D01*
X0569809Y0526605D01*
X0569810Y0526210D01*
X0570603Y0526210D01*
X0570610Y0525810D01*
X0571405Y0525809D01*
X0571410Y0525410D01*
X0571809Y0525405D01*
X0571810Y0525010D01*
X0572208Y0525006D01*
X0572210Y0524610D01*
X0573003Y0524610D01*
X0573010Y0524210D01*
X0573805Y0524209D01*
X0573810Y0523810D01*
X0574209Y0523805D01*
X0574210Y0523410D01*
X0574608Y0523406D01*
X0574610Y0523010D01*
X0575404Y0523009D01*
X0575410Y0522610D01*
X0575809Y0522605D01*
X0575810Y0522210D01*
X0576606Y0522208D01*
X0576610Y0521810D01*
X0577005Y0521809D01*
X0577010Y0521410D01*
X0577408Y0521406D01*
X0577410Y0521010D01*
X0577808Y0521006D01*
X0577810Y0520610D01*
X0578605Y0520609D01*
X0578610Y0520210D01*
X0579009Y0520205D01*
X0579010Y0519810D01*
X0579408Y0519806D01*
X0579410Y0519410D01*
X0579808Y0519406D01*
X0579810Y0519010D01*
X0580607Y0519007D01*
X0580610Y0518610D01*
X0581007Y0518607D01*
X0581010Y0518210D01*
X0581407Y0518207D01*
X0581410Y0517810D01*
X0581807Y0517807D01*
X0581810Y0517410D01*
X0582207Y0517407D01*
X0582210Y0517010D01*
X0582607Y0517007D01*
X0582610Y0516610D01*
X0583007Y0516607D01*
X0583010Y0516210D01*
X0583407Y0516207D01*
X0583410Y0515810D01*
X0583807Y0515807D01*
X0583810Y0515410D01*
X0584207Y0515407D01*
X0584210Y0515010D01*
X0584607Y0515007D01*
X0584610Y0514610D01*
X0585006Y0514608D01*
X0585010Y0514210D01*
X0585409Y0514205D01*
X0585410Y0513810D01*
X0585805Y0513809D01*
X0585810Y0513410D01*
X0586208Y0513406D01*
X0586210Y0513010D01*
X0586606Y0513008D01*
X0586610Y0512610D01*
X0587005Y0512609D01*
X0587010Y0512210D01*
X0587408Y0512206D01*
X0587410Y0511810D01*
X0587808Y0511806D01*
X0587810Y0511410D01*
X0588205Y0511409D01*
X0588210Y0511010D01*
X0588608Y0511006D01*
X0588610Y0510210D01*
X0589006Y0510208D01*
X0589010Y0509810D01*
X0589409Y0509805D01*
X0589410Y0509410D01*
X0589805Y0509409D01*
X0589810Y0509010D01*
X0590208Y0509006D01*
X0590210Y0508210D01*
X0590606Y0508208D01*
X0590610Y0507810D01*
X0591009Y0507805D01*
X0591010Y0507410D01*
X0591408Y0507406D01*
X0591410Y0506610D01*
X0591805Y0506609D01*
X0591810Y0506210D01*
X0592209Y0506204D01*
X0592210Y0505410D01*
X0592605Y0505409D01*
X0592610Y0505010D01*
X0593009Y0505005D01*
X0593010Y0504210D01*
X0593405Y0504209D01*
X0593410Y0503810D01*
X0593808Y0503806D01*
X0593810Y0503010D01*
X0594207Y0503007D01*
X0594210Y0502210D01*
X0594610Y0502203D01*
X0594610Y0501410D01*
X0595009Y0501404D01*
X0595010Y0500610D01*
X0595405Y0500609D01*
X0595410Y0500210D01*
X0595809Y0500205D01*
X0595810Y0499410D01*
X0596210Y0499402D01*
X0596210Y0498210D01*
X0596608Y0498206D01*
X0596610Y0497410D01*
X0597008Y0497406D01*
X0597010Y0496610D01*
X0597410Y0496603D01*
X0597410Y0495810D01*
X0597810Y0495803D01*
X0597810Y0494610D01*
X0598209Y0494605D01*
X0598210Y0493410D01*
X0598610Y0493402D01*
X0598610Y0492210D01*
X0599010Y0492202D01*
X0599010Y0491010D01*
X0599410Y0491003D01*
X0599410Y0489410D01*
X0599810Y0489401D01*
X0599810Y0487810D01*
X0600210Y0487802D01*
X0600210Y0485810D01*
X0600610Y0485802D01*
X0600610Y0483010D01*
X0601010Y0483001D01*
X0601010Y0478210D01*
X0601410Y0478200D01*
X0601410Y0353400D01*
X0601010Y0353390D01*
X0601010Y0348199D01*
X0600610Y0348190D01*
X0600610Y0345398D01*
X0600210Y0345390D01*
X0600210Y0343398D01*
X0599810Y0343390D01*
X0599810Y0341398D01*
X0599410Y0341390D01*
X0599410Y0339799D01*
X0599010Y0339790D01*
X0599009Y0338596D01*
X0598610Y0338590D01*
X0598610Y0336997D01*
X0598210Y0336990D01*
X0598210Y0335798D01*
X0597810Y0335790D01*
X0597808Y0334594D01*
X0597410Y0334590D01*
X0597409Y0333396D01*
X0597010Y0333390D01*
X0597007Y0332593D01*
X0596610Y0332590D01*
X0596609Y0331396D01*
X0596210Y0331390D01*
X0596207Y0330593D01*
X0595810Y0330590D01*
X0595809Y0329396D01*
X0595410Y0329390D01*
X0595409Y0328596D01*
X0595010Y0328590D01*
X0595010Y0327797D01*
X0594610Y0327790D01*
X0594607Y0326993D01*
X0594210Y0326990D01*
X0594208Y0326194D01*
X0593810Y0326190D01*
X0593809Y0325395D01*
X0593410Y0325390D01*
X0593405Y0324991D01*
X0593010Y0324990D01*
X0593010Y0324197D01*
X0592610Y0324190D01*
X0592607Y0323393D01*
X0592210Y0323390D01*
X0592209Y0322595D01*
X0591810Y0322590D01*
X0591805Y0322191D01*
X0591410Y0322190D01*
X0591409Y0321395D01*
X0591010Y0321390D01*
X0591005Y0320991D01*
X0590610Y0320990D01*
X0590609Y0320196D01*
X0590210Y0320190D01*
X0590205Y0319791D01*
X0589810Y0319790D01*
X0589808Y0318994D01*
X0589410Y0318990D01*
X0589405Y0318591D01*
X0589010Y0318590D01*
X0589008Y0317794D01*
X0588610Y0317790D01*
X0588609Y0317395D01*
X0588210Y0317390D01*
X0588206Y0316992D01*
X0587810Y0316990D01*
X0587807Y0316193D01*
X0587410Y0316190D01*
X0587408Y0315794D01*
X0587010Y0315790D01*
X0587005Y0315391D01*
X0586610Y0315390D01*
X0586606Y0314992D01*
X0586210Y0314990D01*
X0586208Y0314194D01*
X0585810Y0314190D01*
X0585808Y0313794D01*
X0585410Y0313790D01*
X0585405Y0313391D01*
X0585010Y0313390D01*
X0585009Y0312995D01*
X0584610Y0312990D01*
X0584606Y0312592D01*
X0584210Y0312590D01*
X0584206Y0312192D01*
X0583810Y0312190D01*
X0583808Y0311794D01*
X0583410Y0311790D01*
X0583405Y0311391D01*
X0583010Y0311390D01*
X0583009Y0310995D01*
X0582610Y0310990D01*
X0582606Y0310592D01*
X0582210Y0310590D01*
X0582207Y0310193D01*
X0581810Y0310190D01*
X0581807Y0309793D01*
X0581410Y0309790D01*
X0581407Y0309393D01*
X0581010Y0309390D01*
X0581007Y0308993D01*
X0580610Y0308990D01*
X0580607Y0308593D01*
X0580210Y0308590D01*
X0580207Y0308193D01*
X0579810Y0308190D01*
X0579807Y0307793D01*
X0579410Y0307790D01*
X0579407Y0307393D01*
X0579010Y0307390D01*
X0579007Y0306993D01*
X0578610Y0306990D01*
X0578607Y0306593D01*
X0578210Y0306590D01*
X0578207Y0306193D01*
X0577410Y0306190D01*
X0577410Y0305800D01*
X0577010Y0305790D01*
X0577005Y0305391D01*
X0576610Y0305390D01*
G37*

G36*
X0474990Y0411810D02*
X0474990Y0427790D01*
X0407200Y0427790D01*
X0407200Y0451010D01*
X0478200Y0451010D01*
X0478210Y0450610D01*
X0480202Y0450610D01*
X0480210Y0450210D01*
X0481801Y0450210D01*
X0481810Y0449810D01*
X0483004Y0449809D01*
X0483010Y0449410D01*
X0483807Y0449407D01*
X0483810Y0449010D01*
X0485004Y0449009D01*
X0485010Y0448610D01*
X0485807Y0448607D01*
X0485810Y0448210D01*
X0486209Y0448205D01*
X0486210Y0447810D01*
X0487003Y0447810D01*
X0487010Y0447410D01*
X0487806Y0447408D01*
X0487810Y0447010D01*
X0488209Y0447005D01*
X0488210Y0446610D01*
X0489006Y0446608D01*
X0489010Y0446210D01*
X0489409Y0446205D01*
X0489410Y0445810D01*
X0489806Y0445808D01*
X0489810Y0445410D01*
X0490209Y0445405D01*
X0490210Y0445010D01*
X0490606Y0445008D01*
X0490610Y0444610D01*
X0491005Y0444609D01*
X0491010Y0444210D01*
X0491408Y0444206D01*
X0491410Y0443810D01*
X0491806Y0443808D01*
X0491810Y0443410D01*
X0492209Y0443405D01*
X0492210Y0443010D01*
X0492608Y0443006D01*
X0492610Y0442610D01*
X0493007Y0442607D01*
X0493010Y0442210D01*
X0493405Y0442209D01*
X0493410Y0441810D01*
X0493808Y0441806D01*
X0493810Y0441010D01*
X0494205Y0441009D01*
X0494210Y0440610D01*
X0494608Y0440606D01*
X0494610Y0439810D01*
X0495007Y0439807D01*
X0495010Y0439010D01*
X0495410Y0439003D01*
X0495410Y0438210D01*
X0495809Y0438204D01*
X0495810Y0437410D01*
X0496209Y0437404D01*
X0496210Y0436610D01*
X0496609Y0436604D01*
X0496610Y0435410D01*
X0497008Y0435406D01*
X0497010Y0434210D01*
X0497410Y0434202D01*
X0497410Y0432610D01*
X0497810Y0432602D01*
X0497810Y0430210D01*
X0498210Y0430200D01*
X0498210Y0409399D01*
X0497810Y0409390D01*
X0497810Y0406999D01*
X0497410Y0406990D01*
X0497410Y0405397D01*
X0497010Y0405390D01*
X0497010Y0404198D01*
X0496610Y0404190D01*
X0496610Y0402997D01*
X0496210Y0402990D01*
X0496210Y0402197D01*
X0495810Y0402190D01*
X0495808Y0401394D01*
X0495410Y0401390D01*
X0495408Y0400594D01*
X0495010Y0400590D01*
X0495009Y0399795D01*
X0494610Y0399790D01*
X0494605Y0399391D01*
X0494210Y0399390D01*
X0494209Y0398596D01*
X0493810Y0398590D01*
X0493805Y0398191D01*
X0493410Y0398190D01*
X0493407Y0397393D01*
X0493010Y0397390D01*
X0493008Y0396994D01*
X0492610Y0396990D01*
X0492609Y0396595D01*
X0492210Y0396590D01*
X0492206Y0396192D01*
X0491810Y0396190D01*
X0491808Y0395794D01*
X0491410Y0395790D01*
X0491405Y0395391D01*
X0491010Y0395390D01*
X0491009Y0394995D01*
X0490610Y0394990D01*
X0490606Y0394592D01*
X0490210Y0394590D01*
X0490208Y0394194D01*
X0489810Y0394190D01*
X0489805Y0393791D01*
X0489410Y0393790D01*
X0489406Y0393392D01*
X0488610Y0393390D01*
X0488609Y0392995D01*
X0488210Y0392990D01*
X0488204Y0392591D01*
X0487410Y0392590D01*
X0487409Y0392195D01*
X0487010Y0392190D01*
X0487006Y0391792D01*
X0486210Y0391790D01*
X0486206Y0391392D01*
X0485410Y0391390D01*
X0485406Y0390992D01*
X0484610Y0390990D01*
X0484603Y0390590D01*
X0483810Y0390590D01*
X0483803Y0390190D01*
X0482610Y0390190D01*
X0482605Y0389791D01*
X0481410Y0389790D01*
X0481402Y0389390D01*
X0480210Y0389390D01*
X0480202Y0388990D01*
X0477810Y0388990D01*
X0477801Y0388590D01*
X0407200Y0388590D01*
X0407200Y0411810D01*
X0474990Y0411810D01*
G37*

G36*
X0394990Y0467790D02*
X0394591Y0467795D01*
X0394590Y0468190D01*
X0393796Y0468191D01*
X0393790Y0468590D01*
X0393391Y0468595D01*
X0393390Y0468990D01*
X0392594Y0468992D01*
X0392590Y0469390D01*
X0392191Y0469395D01*
X0392190Y0469790D01*
X0391795Y0469791D01*
X0391790Y0470190D01*
X0391392Y0470194D01*
X0391390Y0470590D01*
X0390992Y0470594D01*
X0390990Y0470990D01*
X0390594Y0470992D01*
X0390590Y0471390D01*
X0390195Y0471391D01*
X0390190Y0471790D01*
X0389792Y0471794D01*
X0389790Y0472190D01*
X0389392Y0472194D01*
X0389390Y0472990D01*
X0388995Y0472991D01*
X0388990Y0473390D01*
X0388592Y0473394D01*
X0388590Y0474190D01*
X0388195Y0474191D01*
X0388190Y0474590D01*
X0387792Y0474594D01*
X0387790Y0475390D01*
X0387390Y0475397D01*
X0387390Y0476190D01*
X0386991Y0476195D01*
X0386990Y0477390D01*
X0386590Y0477398D01*
X0386590Y0478590D01*
X0386190Y0478598D01*
X0386190Y0479790D01*
X0385790Y0479797D01*
X0385790Y0483390D01*
X0385390Y0483397D01*
X0385390Y0484601D01*
X0385790Y0484610D01*
X0385790Y0487801D01*
X0386190Y0487810D01*
X0386190Y0489402D01*
X0386590Y0489410D01*
X0386590Y0490602D01*
X0386990Y0490610D01*
X0386991Y0491405D01*
X0387390Y0491410D01*
X0387391Y0492604D01*
X0387790Y0492610D01*
X0387795Y0493009D01*
X0388190Y0493010D01*
X0388190Y0493803D01*
X0388590Y0493810D01*
X0388592Y0494606D01*
X0388990Y0494610D01*
X0388995Y0495009D01*
X0389390Y0495010D01*
X0389394Y0495408D01*
X0389790Y0495410D01*
X0389792Y0496206D01*
X0390190Y0496210D01*
X0390195Y0496609D01*
X0390590Y0496610D01*
X0390594Y0497008D01*
X0390990Y0497010D01*
X0390994Y0497408D01*
X0391390Y0497410D01*
X0391394Y0497808D01*
X0391790Y0497810D01*
X0391793Y0498207D01*
X0392190Y0498210D01*
X0392191Y0498605D01*
X0392590Y0498610D01*
X0392595Y0499009D01*
X0393390Y0499010D01*
X0393391Y0499405D01*
X0393790Y0499410D01*
X0393795Y0499809D01*
X0394590Y0499810D01*
X0394597Y0500210D01*
X0395390Y0500210D01*
X0395391Y0500605D01*
X0395790Y0500610D01*
X0395796Y0501009D01*
X0396990Y0501010D01*
X0396993Y0501407D01*
X0397790Y0501410D01*
X0397795Y0501809D01*
X0399390Y0501810D01*
X0399398Y0502210D01*
X0400990Y0502210D01*
X0400999Y0502610D01*
X0407001Y0502610D01*
X0407010Y0502210D01*
X0408601Y0502210D01*
X0408610Y0501810D01*
X0410204Y0501809D01*
X0410210Y0501410D01*
X0411004Y0501409D01*
X0411010Y0501010D01*
X0411804Y0501009D01*
X0411810Y0500610D01*
X0412603Y0500610D01*
X0412610Y0500210D01*
X0413407Y0500207D01*
X0413410Y0499810D01*
X0414206Y0499808D01*
X0414210Y0499410D01*
X0414605Y0499409D01*
X0414610Y0499010D01*
X0415008Y0499006D01*
X0415010Y0498610D01*
X0415803Y0498610D01*
X0415810Y0498210D01*
X0416207Y0498207D01*
X0416210Y0497810D01*
X0416606Y0497808D01*
X0416610Y0497410D01*
X0417006Y0497408D01*
X0417010Y0497010D01*
X0417406Y0497008D01*
X0417410Y0496610D01*
X0417805Y0496609D01*
X0417810Y0496210D01*
X0418208Y0496206D01*
X0418210Y0495410D01*
X0418606Y0495408D01*
X0418610Y0495010D01*
X0419005Y0495009D01*
X0419010Y0494610D01*
X0419408Y0494606D01*
X0419410Y0493810D01*
X0419807Y0493807D01*
X0419810Y0493010D01*
X0420210Y0493003D01*
X0420210Y0492210D01*
X0420609Y0492204D01*
X0420610Y0491410D01*
X0421009Y0491404D01*
X0421010Y0490610D01*
X0421409Y0490604D01*
X0421410Y0489410D01*
X0421810Y0489401D01*
X0421810Y0487810D01*
X0422210Y0487801D01*
X0422210Y0480200D01*
X0421810Y0480190D01*
X0421810Y0478598D01*
X0421410Y0478590D01*
X0421408Y0477394D01*
X0421010Y0477390D01*
X0421009Y0476196D01*
X0420610Y0476190D01*
X0420610Y0475397D01*
X0420210Y0475390D01*
X0420208Y0474594D01*
X0419810Y0474590D01*
X0419805Y0474191D01*
X0419410Y0474190D01*
X0419408Y0473394D01*
X0419010Y0473390D01*
X0419005Y0472991D01*
X0418610Y0472990D01*
X0418608Y0472194D01*
X0418210Y0472190D01*
X0418205Y0471791D01*
X0417810Y0471790D01*
X0417808Y0471394D01*
X0417410Y0471390D01*
X0417409Y0470995D01*
X0417010Y0470990D01*
X0417006Y0470592D01*
X0416610Y0470590D01*
X0416608Y0470194D01*
X0416210Y0470190D01*
X0416205Y0469791D01*
X0415810Y0469790D01*
X0415806Y0469392D01*
X0415410Y0469390D01*
X0415407Y0468993D01*
X0414610Y0468990D01*
X0414609Y0468595D01*
X0414210Y0468590D01*
X0414207Y0468193D01*
X0413410Y0468190D01*
X0413409Y0467795D01*
X0413010Y0467790D01*
X0413006Y0467392D01*
X0412210Y0467390D01*
X0412202Y0466990D01*
X0411010Y0466990D01*
X0411007Y0466593D01*
X0410210Y0466590D01*
X0410203Y0466190D01*
X0409010Y0466190D01*
X0409001Y0465790D01*
X0407410Y0465790D01*
X0407401Y0465390D01*
X0400599Y0465390D01*
X0400590Y0465790D01*
X0398999Y0465790D01*
X0398990Y0466190D01*
X0397796Y0466191D01*
X0397790Y0466590D01*
X0396993Y0466593D01*
X0396990Y0466990D01*
X0395796Y0466991D01*
X0395790Y0467390D01*
X0394995Y0467391D01*
X0394990Y0467790D01*
G37*

M02*
