G04 pcbflow Gerber RS-274X export*
G75*
%MOMM*%
%FSLAX34Y34*%
%LPD*%
%INTop Copper*%
%IPPOS*%
%AMOC8*
5,1,8,0,0,1.08239X$1,22.5*%
G01*
%ADD10C,0.010000*%
%TF.FileFunction,Copper,L1,Top*%G36*
X0062583Y0131553D02*
X0063717Y0130898D01*
X0064777Y0130128D01*
X0065751Y0129251D01*
X0066628Y0128277D01*
X0067398Y0127217D01*
X0068053Y0126083D01*
X0068586Y0124886D01*
X0068991Y0123640D01*
X0069148Y0122900D01*
X0075864Y0122900D01*
X0082203Y0129239D01*
X0082385Y0129404D01*
X0082582Y0129550D01*
X0082793Y0129676D01*
X0083014Y0129781D01*
X0083245Y0129863D01*
X0083483Y0129923D01*
X0083726Y0129959D01*
X0083971Y0129971D01*
X0108971Y0129971D01*
X0109216Y0129959D01*
X0109459Y0129923D01*
X0109697Y0129863D01*
X0109928Y0129781D01*
X0110150Y0129676D01*
X0110360Y0129550D01*
X0110557Y0129404D01*
X0110739Y0129239D01*
X0117078Y0122900D01*
X0234652Y0122900D01*
X0234809Y0123640D01*
X0235214Y0124886D01*
X0235747Y0126083D01*
X0236402Y0127217D01*
X0237172Y0128277D01*
X0238049Y0129251D01*
X0239023Y0130128D01*
X0240083Y0130898D01*
X0241217Y0131553D01*
X0242414Y0132086D01*
X0243660Y0132491D01*
X0244400Y0132648D01*
X0244400Y0199564D01*
X0186932Y0257032D01*
X0186767Y0257214D01*
X0186621Y0257411D01*
X0186495Y0257622D01*
X0186390Y0257843D01*
X0186308Y0258074D01*
X0186248Y0258312D01*
X0186212Y0258555D01*
X0186200Y0258800D01*
X0186200Y0369108D01*
X0186108Y0369127D01*
X0185111Y0369451D01*
X0184154Y0369878D01*
X0183246Y0370402D01*
X0182398Y0371018D01*
X0181619Y0371719D01*
X0180918Y0372498D01*
X0180302Y0373346D01*
X0179778Y0374254D01*
X0179351Y0375211D01*
X0179027Y0376208D01*
X0178810Y0377234D01*
X0178700Y0378276D01*
X0178700Y0379324D01*
X0178810Y0380366D01*
X0179027Y0381392D01*
X0179351Y0382389D01*
X0179778Y0383346D01*
X0180302Y0384254D01*
X0180918Y0385102D01*
X0181619Y0385881D01*
X0182398Y0386582D01*
X0183246Y0387198D01*
X0184154Y0387722D01*
X0185111Y0388149D01*
X0186108Y0388473D01*
X0187134Y0388690D01*
X0188176Y0388800D01*
X0188700Y0388800D01*
X0189224Y0388800D01*
X0190266Y0388690D01*
X0191292Y0388473D01*
X0192289Y0388149D01*
X0193246Y0387722D01*
X0194154Y0387198D01*
X0195002Y0386582D01*
X0195781Y0385881D01*
X0196482Y0385102D01*
X0197098Y0384254D01*
X0197622Y0383346D01*
X0198049Y0382389D01*
X0198373Y0381392D01*
X0198590Y0380366D01*
X0198700Y0379324D01*
X0198700Y0378276D01*
X0198590Y0377234D01*
X0198373Y0376208D01*
X0198049Y0375211D01*
X0197622Y0374254D01*
X0197098Y0373346D01*
X0196482Y0372498D01*
X0195781Y0371719D01*
X0195002Y0371018D01*
X0194154Y0370402D01*
X0193246Y0369878D01*
X0192289Y0369451D01*
X0191292Y0369127D01*
X0191200Y0369108D01*
X0191200Y0259836D01*
X0248668Y0202368D01*
X0248833Y0202186D01*
X0248979Y0201989D01*
X0249105Y0201778D01*
X0249210Y0201557D01*
X0249292Y0201326D01*
X0249352Y0201088D01*
X0249388Y0200845D01*
X0249400Y0200600D01*
X0249400Y0132648D01*
X0250140Y0132491D01*
X0251386Y0132086D01*
X0252583Y0131553D01*
X0253717Y0130898D01*
X0254777Y0130128D01*
X0255751Y0129251D01*
X0256628Y0128277D01*
X0257398Y0127217D01*
X0258053Y0126083D01*
X0258586Y0124886D01*
X0258991Y0123640D01*
X0259148Y0122900D01*
X0265864Y0122900D01*
X0272203Y0129239D01*
X0272385Y0129404D01*
X0272582Y0129550D01*
X0272793Y0129676D01*
X0273014Y0129781D01*
X0273245Y0129863D01*
X0273483Y0129923D01*
X0273726Y0129959D01*
X0273971Y0129971D01*
X0298971Y0129971D01*
X0299216Y0129959D01*
X0299459Y0129923D01*
X0299697Y0129863D01*
X0299928Y0129781D01*
X0300150Y0129676D01*
X0300360Y0129550D01*
X0300557Y0129404D01*
X0300739Y0129239D01*
X0307078Y0122900D01*
X0424652Y0122900D01*
X0424809Y0123640D01*
X0425214Y0124886D01*
X0425747Y0126083D01*
X0426402Y0127217D01*
X0427172Y0128277D01*
X0428049Y0129251D01*
X0429023Y0130128D01*
X0430083Y0130898D01*
X0431217Y0131553D01*
X0432414Y0132086D01*
X0433660Y0132491D01*
X0434942Y0132763D01*
X0436245Y0132900D01*
X0436900Y0132900D01*
X0437555Y0132900D01*
X0438858Y0132763D01*
X0440140Y0132491D01*
X0441386Y0132086D01*
X0442583Y0131553D01*
X0443717Y0130898D01*
X0444777Y0130128D01*
X0445751Y0129251D01*
X0446628Y0128277D01*
X0447398Y0127217D01*
X0448053Y0126083D01*
X0448586Y0124886D01*
X0448991Y0123640D01*
X0449148Y0122900D01*
X0455864Y0122900D01*
X0462203Y0129239D01*
X0462385Y0129404D01*
X0462582Y0129550D01*
X0462793Y0129676D01*
X0463014Y0129781D01*
X0463245Y0129863D01*
X0463483Y0129923D01*
X0463726Y0129959D01*
X0463971Y0129971D01*
X0488971Y0129971D01*
X0489216Y0129959D01*
X0489459Y0129923D01*
X0489697Y0129863D01*
X0489928Y0129781D01*
X0490150Y0129676D01*
X0490360Y0129550D01*
X0490557Y0129404D01*
X0490739Y0129239D01*
X0497078Y0122900D01*
X0614652Y0122900D01*
X0614809Y0123640D01*
X0615214Y0124886D01*
X0615747Y0126083D01*
X0616402Y0127217D01*
X0617172Y0128277D01*
X0618049Y0129251D01*
X0619023Y0130128D01*
X0620083Y0130898D01*
X0621217Y0131553D01*
X0622414Y0132086D01*
X0623660Y0132491D01*
X0624942Y0132763D01*
X0626245Y0132900D01*
X0626900Y0132900D01*
X0627555Y0132900D01*
X0628858Y0132763D01*
X0630140Y0132491D01*
X0631386Y0132086D01*
X0632583Y0131553D01*
X0633717Y0130898D01*
X0634777Y0130128D01*
X0635751Y0129251D01*
X0636628Y0128277D01*
X0637398Y0127217D01*
X0638053Y0126083D01*
X0638586Y0124886D01*
X0638991Y0123640D01*
X0639263Y0122358D01*
X0639400Y0121055D01*
X0639400Y0119745D01*
X0639263Y0118442D01*
X0638991Y0117160D01*
X0638586Y0115914D01*
X0638053Y0114717D01*
X0637398Y0113583D01*
X0636628Y0112523D01*
X0635751Y0111549D01*
X0634777Y0110672D01*
X0633717Y0109902D01*
X0632583Y0109247D01*
X0631386Y0108714D01*
X0630140Y0108309D01*
X0628858Y0108037D01*
X0627555Y0107900D01*
X0626245Y0107900D01*
X0624942Y0108037D01*
X0623660Y0108309D01*
X0622414Y0108714D01*
X0621217Y0109247D01*
X0620083Y0109902D01*
X0619023Y0110672D01*
X0618049Y0111549D01*
X0617172Y0112523D01*
X0616402Y0113583D01*
X0615747Y0114717D01*
X0615214Y0115914D01*
X0614809Y0117160D01*
X0614652Y0117900D01*
X0496042Y0117900D01*
X0495797Y0117912D01*
X0495554Y0117948D01*
X0495316Y0118008D01*
X0495085Y0118090D01*
X0494864Y0118195D01*
X0494653Y0118321D01*
X0494456Y0118467D01*
X0494274Y0118632D01*
X0487936Y0124971D01*
X0465007Y0124971D01*
X0458668Y0118632D01*
X0458486Y0118467D01*
X0458289Y0118321D01*
X0458078Y0118195D01*
X0457857Y0118090D01*
X0457626Y0118008D01*
X0457388Y0117948D01*
X0457145Y0117912D01*
X0456900Y0117900D01*
X0449148Y0117900D01*
X0448991Y0117160D01*
X0448586Y0115914D01*
X0448053Y0114717D01*
X0447398Y0113583D01*
X0446628Y0112523D01*
X0445751Y0111549D01*
X0444777Y0110672D01*
X0443717Y0109902D01*
X0442583Y0109247D01*
X0441386Y0108714D01*
X0440140Y0108309D01*
X0438858Y0108037D01*
X0437555Y0107900D01*
X0436245Y0107900D01*
X0434942Y0108037D01*
X0433660Y0108309D01*
X0432414Y0108714D01*
X0431217Y0109247D01*
X0430083Y0109902D01*
X0429023Y0110672D01*
X0428049Y0111549D01*
X0427172Y0112523D01*
X0426402Y0113583D01*
X0425747Y0114717D01*
X0425214Y0115914D01*
X0424809Y0117160D01*
X0424652Y0117900D01*
X0306042Y0117900D01*
X0305797Y0117912D01*
X0305554Y0117948D01*
X0305316Y0118008D01*
X0305085Y0118090D01*
X0304864Y0118195D01*
X0304653Y0118321D01*
X0304456Y0118467D01*
X0304274Y0118632D01*
X0297936Y0124971D01*
X0275007Y0124971D01*
X0268668Y0118632D01*
X0268486Y0118467D01*
X0268289Y0118321D01*
X0268078Y0118195D01*
X0267857Y0118090D01*
X0267626Y0118008D01*
X0267388Y0117948D01*
X0267145Y0117912D01*
X0266900Y0117900D01*
X0259148Y0117900D01*
X0258991Y0117160D01*
X0258586Y0115914D01*
X0258053Y0114717D01*
X0257398Y0113583D01*
X0256628Y0112523D01*
X0255751Y0111549D01*
X0254777Y0110672D01*
X0253717Y0109902D01*
X0252583Y0109247D01*
X0251386Y0108714D01*
X0250140Y0108309D01*
X0248858Y0108037D01*
X0247555Y0107900D01*
X0246245Y0107900D01*
X0244942Y0108037D01*
X0243660Y0108309D01*
X0242414Y0108714D01*
X0241217Y0109247D01*
X0240083Y0109902D01*
X0239023Y0110672D01*
X0238049Y0111549D01*
X0237172Y0112523D01*
X0236402Y0113583D01*
X0235747Y0114717D01*
X0235214Y0115914D01*
X0234809Y0117160D01*
X0234652Y0117900D01*
X0116042Y0117900D01*
X0115797Y0117912D01*
X0115554Y0117948D01*
X0115316Y0118008D01*
X0115085Y0118090D01*
X0114864Y0118195D01*
X0114653Y0118321D01*
X0114456Y0118467D01*
X0114274Y0118632D01*
X0107936Y0124971D01*
X0085007Y0124971D01*
X0078668Y0118632D01*
X0078486Y0118467D01*
X0078289Y0118321D01*
X0078078Y0118195D01*
X0077857Y0118090D01*
X0077626Y0118008D01*
X0077388Y0117948D01*
X0077145Y0117912D01*
X0076900Y0117900D01*
X0069148Y0117900D01*
X0068991Y0117160D01*
X0068586Y0115914D01*
X0068053Y0114717D01*
X0067398Y0113583D01*
X0066628Y0112523D01*
X0065751Y0111549D01*
X0064777Y0110672D01*
X0063717Y0109902D01*
X0062583Y0109247D01*
X0061386Y0108714D01*
X0060140Y0108309D01*
X0058858Y0108037D01*
X0057555Y0107900D01*
X0056245Y0107900D01*
X0054942Y0108037D01*
X0053660Y0108309D01*
X0052414Y0108714D01*
X0051217Y0109247D01*
X0050083Y0109902D01*
X0049023Y0110672D01*
X0048049Y0111549D01*
X0047172Y0112523D01*
X0046402Y0113583D01*
X0045747Y0114717D01*
X0045214Y0115914D01*
X0044809Y0117160D01*
X0044537Y0118442D01*
X0044400Y0119745D01*
X0044400Y0121055D01*
X0044537Y0122358D01*
X0044809Y0123640D01*
X0045214Y0124886D01*
X0045747Y0126083D01*
X0046402Y0127217D01*
X0047172Y0128277D01*
X0048049Y0129251D01*
X0049023Y0130128D01*
X0050083Y0130898D01*
X0051217Y0131553D01*
X0052414Y0132086D01*
X0053660Y0132491D01*
X0054942Y0132763D01*
X0056245Y0132900D01*
X0056900Y0132900D01*
X0057555Y0132900D01*
X0058858Y0132763D01*
X0060140Y0132491D01*
X0061386Y0132086D01*
X0062583Y0131553D01*
G37*

G36*
X0127217Y0156298D02*
X0128277Y0155528D01*
X0129251Y0154651D01*
X0130128Y0153677D01*
X0130898Y0152617D01*
X0131553Y0151483D01*
X0132086Y0150286D01*
X0132491Y0149040D01*
X0132763Y0147758D01*
X0132900Y0146455D01*
X0132900Y0145145D01*
X0132763Y0143842D01*
X0132491Y0142560D01*
X0132086Y0141314D01*
X0131553Y0140117D01*
X0130898Y0138983D01*
X0130128Y0137923D01*
X0129251Y0136949D01*
X0128277Y0136072D01*
X0127217Y0135302D01*
X0126083Y0134647D01*
X0124886Y0134114D01*
X0123640Y0133709D01*
X0122358Y0133437D01*
X0121055Y0133300D01*
X0119745Y0133300D01*
X0118442Y0133437D01*
X0117160Y0133709D01*
X0115914Y0134114D01*
X0114717Y0134647D01*
X0113583Y0135302D01*
X0112523Y0136072D01*
X0111549Y0136949D01*
X0110672Y0137923D01*
X0109902Y0138983D01*
X0109247Y0140117D01*
X0108714Y0141314D01*
X0108309Y0142560D01*
X0108037Y0143842D01*
X0107900Y0145145D01*
X0107900Y0146455D01*
X0108037Y0147758D01*
X0108309Y0149040D01*
X0108714Y0150286D01*
X0109247Y0151483D01*
X0109902Y0152617D01*
X0110672Y0153677D01*
X0111549Y0154651D01*
X0112523Y0155528D01*
X0113583Y0156298D01*
X0114717Y0156953D01*
X0115914Y0157486D01*
X0117160Y0157891D01*
X0118442Y0158163D01*
X0119745Y0158300D01*
X0120400Y0158300D01*
X0121055Y0158300D01*
X0122358Y0158163D01*
X0123640Y0157891D01*
X0124886Y0157486D01*
X0126083Y0156953D01*
X0127217Y0156298D01*
G37*

G36*
X0100771Y0214499D02*
X0101280Y0215199D01*
X0101858Y0215842D01*
X0102501Y0216420D01*
X0103201Y0216929D01*
X0103949Y0217361D01*
X0104739Y0217713D01*
X0105200Y0217862D01*
X0105200Y0407964D01*
X0041379Y0471785D01*
X0040846Y0471478D01*
X0039889Y0471051D01*
X0038892Y0470727D01*
X0037866Y0470510D01*
X0036824Y0470400D01*
X0035776Y0470400D01*
X0034734Y0470510D01*
X0033708Y0470727D01*
X0032711Y0471051D01*
X0031754Y0471478D01*
X0030846Y0472002D01*
X0029998Y0472618D01*
X0029219Y0473319D01*
X0028518Y0474098D01*
X0027902Y0474946D01*
X0027378Y0475854D01*
X0026951Y0476811D01*
X0026627Y0477808D01*
X0026410Y0478834D01*
X0026300Y0479876D01*
X0026300Y0480924D01*
X0026410Y0481966D01*
X0026627Y0482992D01*
X0026951Y0483989D01*
X0027378Y0484946D01*
X0027902Y0485854D01*
X0028518Y0486702D01*
X0029219Y0487481D01*
X0029998Y0488182D01*
X0030846Y0488798D01*
X0031754Y0489322D01*
X0032711Y0489749D01*
X0033708Y0490073D01*
X0034734Y0490290D01*
X0035776Y0490400D01*
X0036300Y0490400D01*
X0036824Y0490400D01*
X0037866Y0490290D01*
X0038892Y0490073D01*
X0039889Y0489749D01*
X0040846Y0489322D01*
X0041754Y0488798D01*
X0042602Y0488182D01*
X0043381Y0487481D01*
X0044082Y0486702D01*
X0044698Y0485854D01*
X0045222Y0484946D01*
X0045649Y0483989D01*
X0045973Y0482992D01*
X0046190Y0481966D01*
X0046300Y0480924D01*
X0046300Y0479876D01*
X0046190Y0478834D01*
X0045973Y0477808D01*
X0045649Y0476811D01*
X0045222Y0475854D01*
X0044915Y0475321D01*
X0109468Y0410768D01*
X0109633Y0410586D01*
X0109779Y0410389D01*
X0109905Y0410178D01*
X0110010Y0409957D01*
X0110092Y0409726D01*
X0110152Y0409488D01*
X0110188Y0409245D01*
X0110200Y0409000D01*
X0110200Y0217862D01*
X0110661Y0217713D01*
X0111451Y0217361D01*
X0112199Y0216929D01*
X0112899Y0216420D01*
X0113542Y0215842D01*
X0114120Y0215199D01*
X0114629Y0214499D01*
X0115061Y0213751D01*
X0115413Y0212961D01*
X0115680Y0212138D01*
X0115860Y0211292D01*
X0115950Y0210432D01*
X0115950Y0209568D01*
X0115860Y0208708D01*
X0115680Y0207862D01*
X0115413Y0207039D01*
X0115061Y0206249D01*
X0114629Y0205501D01*
X0114120Y0204801D01*
X0113542Y0204158D01*
X0112899Y0203580D01*
X0112199Y0203071D01*
X0111451Y0202639D01*
X0110661Y0202287D01*
X0109838Y0202020D01*
X0108992Y0201840D01*
X0108132Y0201750D01*
X0107268Y0201750D01*
X0106408Y0201840D01*
X0105562Y0202020D01*
X0104739Y0202287D01*
X0103949Y0202639D01*
X0103201Y0203071D01*
X0102501Y0203580D01*
X0101858Y0204158D01*
X0101280Y0204801D01*
X0100771Y0205501D01*
X0100339Y0206249D01*
X0099987Y0207039D01*
X0099720Y0207862D01*
X0099540Y0208708D01*
X0099450Y0209568D01*
X0099450Y0210000D01*
X0099450Y0210432D01*
X0099540Y0211292D01*
X0099720Y0212138D01*
X0099987Y0212961D01*
X0100339Y0213751D01*
X0100771Y0214499D01*
G37*

G36*
X0075371Y0214499D02*
X0075880Y0215199D01*
X0076458Y0215842D01*
X0077101Y0216420D01*
X0077801Y0216929D01*
X0078549Y0217361D01*
X0079339Y0217713D01*
X0079800Y0217862D01*
X0079800Y0407964D01*
X0041379Y0446385D01*
X0040846Y0446078D01*
X0039889Y0445651D01*
X0038892Y0445327D01*
X0037866Y0445110D01*
X0036824Y0445000D01*
X0035776Y0445000D01*
X0034734Y0445110D01*
X0033708Y0445327D01*
X0032711Y0445651D01*
X0031754Y0446078D01*
X0030846Y0446602D01*
X0029998Y0447218D01*
X0029219Y0447919D01*
X0028518Y0448698D01*
X0027902Y0449546D01*
X0027378Y0450454D01*
X0026951Y0451411D01*
X0026627Y0452408D01*
X0026410Y0453434D01*
X0026300Y0454476D01*
X0026300Y0455524D01*
X0026410Y0456566D01*
X0026627Y0457592D01*
X0026951Y0458589D01*
X0027378Y0459546D01*
X0027902Y0460454D01*
X0028518Y0461302D01*
X0029219Y0462081D01*
X0029998Y0462782D01*
X0030846Y0463398D01*
X0031754Y0463922D01*
X0032711Y0464349D01*
X0033708Y0464673D01*
X0034734Y0464890D01*
X0035776Y0465000D01*
X0036300Y0465000D01*
X0036824Y0465000D01*
X0037866Y0464890D01*
X0038892Y0464673D01*
X0039889Y0464349D01*
X0040846Y0463922D01*
X0041754Y0463398D01*
X0042602Y0462782D01*
X0043381Y0462081D01*
X0044082Y0461302D01*
X0044698Y0460454D01*
X0045222Y0459546D01*
X0045649Y0458589D01*
X0045973Y0457592D01*
X0046190Y0456566D01*
X0046300Y0455524D01*
X0046300Y0454476D01*
X0046190Y0453434D01*
X0045973Y0452408D01*
X0045649Y0451411D01*
X0045222Y0450454D01*
X0044915Y0449921D01*
X0084068Y0410768D01*
X0084233Y0410586D01*
X0084379Y0410389D01*
X0084505Y0410178D01*
X0084610Y0409957D01*
X0084692Y0409726D01*
X0084752Y0409488D01*
X0084788Y0409245D01*
X0084800Y0409000D01*
X0084800Y0217862D01*
X0085261Y0217713D01*
X0086051Y0217361D01*
X0086799Y0216929D01*
X0087499Y0216420D01*
X0088142Y0215842D01*
X0088720Y0215199D01*
X0089229Y0214499D01*
X0089661Y0213751D01*
X0090013Y0212961D01*
X0090280Y0212138D01*
X0090460Y0211292D01*
X0090550Y0210432D01*
X0090550Y0209568D01*
X0090460Y0208708D01*
X0090280Y0207862D01*
X0090013Y0207039D01*
X0089661Y0206249D01*
X0089229Y0205501D01*
X0088720Y0204801D01*
X0088142Y0204158D01*
X0087499Y0203580D01*
X0086799Y0203071D01*
X0086051Y0202639D01*
X0085261Y0202287D01*
X0084438Y0202020D01*
X0083592Y0201840D01*
X0082732Y0201750D01*
X0081868Y0201750D01*
X0081008Y0201840D01*
X0080162Y0202020D01*
X0079339Y0202287D01*
X0078549Y0202639D01*
X0077801Y0203071D01*
X0077101Y0203580D01*
X0076458Y0204158D01*
X0075880Y0204801D01*
X0075371Y0205501D01*
X0074939Y0206249D01*
X0074587Y0207039D01*
X0074320Y0207862D01*
X0074140Y0208708D01*
X0074050Y0209568D01*
X0074050Y0210000D01*
X0074050Y0210432D01*
X0074140Y0211292D01*
X0074320Y0212138D01*
X0074587Y0212961D01*
X0074939Y0213751D01*
X0075371Y0214499D01*
G37*

G36*
X0049971Y0214499D02*
X0050480Y0215199D01*
X0051058Y0215842D01*
X0051701Y0216420D01*
X0052401Y0216929D01*
X0053149Y0217361D01*
X0053939Y0217713D01*
X0054400Y0217862D01*
X0054400Y0382564D01*
X0041379Y0395585D01*
X0040846Y0395278D01*
X0039889Y0394851D01*
X0038892Y0394527D01*
X0037866Y0394310D01*
X0036824Y0394200D01*
X0035776Y0394200D01*
X0034734Y0394310D01*
X0033708Y0394527D01*
X0032711Y0394851D01*
X0031754Y0395278D01*
X0030846Y0395802D01*
X0029998Y0396418D01*
X0029219Y0397119D01*
X0028518Y0397898D01*
X0027902Y0398746D01*
X0027378Y0399654D01*
X0026951Y0400611D01*
X0026627Y0401608D01*
X0026410Y0402634D01*
X0026300Y0403676D01*
X0026300Y0404724D01*
X0026410Y0405766D01*
X0026627Y0406792D01*
X0026951Y0407789D01*
X0027378Y0408746D01*
X0027902Y0409654D01*
X0028518Y0410502D01*
X0029219Y0411281D01*
X0029998Y0411982D01*
X0030846Y0412598D01*
X0031754Y0413122D01*
X0032711Y0413549D01*
X0033708Y0413873D01*
X0034734Y0414090D01*
X0035776Y0414200D01*
X0036300Y0414200D01*
X0036824Y0414200D01*
X0037866Y0414090D01*
X0038892Y0413873D01*
X0039889Y0413549D01*
X0040846Y0413122D01*
X0041754Y0412598D01*
X0042602Y0411982D01*
X0043381Y0411281D01*
X0044082Y0410502D01*
X0044698Y0409654D01*
X0045222Y0408746D01*
X0045649Y0407789D01*
X0045973Y0406792D01*
X0046190Y0405766D01*
X0046300Y0404724D01*
X0046300Y0403676D01*
X0046190Y0402634D01*
X0045973Y0401608D01*
X0045649Y0400611D01*
X0045222Y0399654D01*
X0044915Y0399121D01*
X0058668Y0385368D01*
X0058833Y0385186D01*
X0058979Y0384989D01*
X0059105Y0384778D01*
X0059210Y0384557D01*
X0059292Y0384326D01*
X0059352Y0384088D01*
X0059388Y0383845D01*
X0059400Y0383600D01*
X0059400Y0217862D01*
X0059861Y0217713D01*
X0060651Y0217361D01*
X0061399Y0216929D01*
X0062099Y0216420D01*
X0062742Y0215842D01*
X0063320Y0215199D01*
X0063829Y0214499D01*
X0064261Y0213751D01*
X0064613Y0212961D01*
X0064880Y0212138D01*
X0065060Y0211292D01*
X0065150Y0210432D01*
X0065150Y0209568D01*
X0065060Y0208708D01*
X0064880Y0207862D01*
X0064613Y0207039D01*
X0064261Y0206249D01*
X0063829Y0205501D01*
X0063320Y0204801D01*
X0062742Y0204158D01*
X0062099Y0203580D01*
X0061399Y0203071D01*
X0061025Y0202855D01*
X0060651Y0202639D01*
X0059861Y0202287D01*
X0059038Y0202020D01*
X0058192Y0201840D01*
X0057332Y0201750D01*
X0056468Y0201750D01*
X0055608Y0201840D01*
X0054762Y0202020D01*
X0053939Y0202287D01*
X0053149Y0202639D01*
X0052401Y0203071D01*
X0051701Y0203580D01*
X0051058Y0204158D01*
X0050480Y0204801D01*
X0049971Y0205501D01*
X0049539Y0206249D01*
X0049187Y0207039D01*
X0048920Y0207862D01*
X0048740Y0208708D01*
X0048650Y0209568D01*
X0048650Y0210000D01*
X0048650Y0210432D01*
X0048740Y0211292D01*
X0048920Y0212138D01*
X0049187Y0212961D01*
X0049539Y0213751D01*
X0049971Y0214499D01*
G37*

G36*
X0125600Y0217500D02*
X0130600Y0217500D01*
X0130600Y0407964D01*
X0041379Y0497185D01*
X0040846Y0496878D01*
X0039889Y0496451D01*
X0038892Y0496127D01*
X0037866Y0495910D01*
X0036824Y0495800D01*
X0035776Y0495800D01*
X0034734Y0495910D01*
X0033708Y0496127D01*
X0032711Y0496451D01*
X0031754Y0496878D01*
X0030846Y0497402D01*
X0029998Y0498018D01*
X0029219Y0498719D01*
X0028518Y0499498D01*
X0027902Y0500346D01*
X0027378Y0501254D01*
X0026951Y0502211D01*
X0026627Y0503208D01*
X0026410Y0504234D01*
X0026300Y0505276D01*
X0026300Y0506324D01*
X0026410Y0507366D01*
X0026627Y0508392D01*
X0026951Y0509389D01*
X0027378Y0510346D01*
X0027902Y0511254D01*
X0028518Y0512102D01*
X0029219Y0512881D01*
X0029998Y0513582D01*
X0030846Y0514198D01*
X0031754Y0514722D01*
X0032711Y0515149D01*
X0033708Y0515473D01*
X0034734Y0515690D01*
X0035776Y0515800D01*
X0036300Y0515800D01*
X0036824Y0515800D01*
X0037866Y0515690D01*
X0038892Y0515473D01*
X0039889Y0515149D01*
X0040846Y0514722D01*
X0041754Y0514198D01*
X0042602Y0513582D01*
X0043381Y0512881D01*
X0044082Y0512102D01*
X0044698Y0511254D01*
X0045222Y0510346D01*
X0045649Y0509389D01*
X0045973Y0508392D01*
X0046190Y0507366D01*
X0046300Y0506324D01*
X0046300Y0505276D01*
X0046190Y0504234D01*
X0045973Y0503208D01*
X0045649Y0502211D01*
X0045222Y0501254D01*
X0044915Y0500721D01*
X0134868Y0410768D01*
X0135033Y0410586D01*
X0135179Y0410389D01*
X0135305Y0410178D01*
X0135410Y0409957D01*
X0135492Y0409726D01*
X0135552Y0409488D01*
X0135588Y0409245D01*
X0135600Y0409000D01*
X0135600Y0217500D01*
X0140600Y0217500D01*
X0140600Y0202500D01*
X0125600Y0202500D01*
X0125600Y0210000D01*
X0125600Y0217500D01*
G37*

G36*
X0041754Y0387198D02*
X0042602Y0386582D01*
X0043381Y0385881D01*
X0044082Y0385102D01*
X0044698Y0384254D01*
X0045222Y0383346D01*
X0045649Y0382389D01*
X0045973Y0381392D01*
X0046190Y0380366D01*
X0046300Y0379324D01*
X0046300Y0378276D01*
X0046190Y0377234D01*
X0045973Y0376208D01*
X0045649Y0375211D01*
X0045222Y0374254D01*
X0044698Y0373346D01*
X0044082Y0372498D01*
X0043381Y0371719D01*
X0042602Y0371018D01*
X0041754Y0370402D01*
X0040846Y0369878D01*
X0039889Y0369451D01*
X0038892Y0369127D01*
X0037866Y0368910D01*
X0036824Y0368800D01*
X0035776Y0368800D01*
X0034734Y0368910D01*
X0033708Y0369127D01*
X0032711Y0369451D01*
X0031754Y0369878D01*
X0030846Y0370402D01*
X0029998Y0371018D01*
X0029219Y0371719D01*
X0028518Y0372498D01*
X0027902Y0373346D01*
X0027378Y0374254D01*
X0026951Y0375211D01*
X0026627Y0376208D01*
X0026410Y0377234D01*
X0026300Y0378276D01*
X0026300Y0379324D01*
X0026410Y0380366D01*
X0026627Y0381392D01*
X0026951Y0382389D01*
X0027378Y0383346D01*
X0027902Y0384254D01*
X0028518Y0385102D01*
X0029219Y0385881D01*
X0029998Y0386582D01*
X0030846Y0387198D01*
X0031754Y0387722D01*
X0032711Y0388149D01*
X0033708Y0388473D01*
X0034734Y0388690D01*
X0035776Y0388800D01*
X0036300Y0388800D01*
X0036824Y0388800D01*
X0037866Y0388690D01*
X0038892Y0388473D01*
X0039889Y0388149D01*
X0040846Y0387722D01*
X0041754Y0387198D01*
G37*

G36*
X0040846Y0438522D02*
X0041754Y0437998D01*
X0042602Y0437382D01*
X0043381Y0436681D01*
X0044082Y0435902D01*
X0044698Y0435054D01*
X0045222Y0434146D01*
X0045649Y0433189D01*
X0045973Y0432192D01*
X0046190Y0431166D01*
X0046300Y0430124D01*
X0046300Y0429076D01*
X0046190Y0428034D01*
X0045973Y0427008D01*
X0045649Y0426011D01*
X0045222Y0425054D01*
X0044698Y0424146D01*
X0044082Y0423298D01*
X0043381Y0422519D01*
X0042602Y0421818D01*
X0041754Y0421202D01*
X0040846Y0420678D01*
X0039889Y0420251D01*
X0038892Y0419927D01*
X0037866Y0419710D01*
X0036824Y0419600D01*
X0035776Y0419600D01*
X0034734Y0419710D01*
X0033708Y0419927D01*
X0032711Y0420251D01*
X0031754Y0420678D01*
X0030846Y0421202D01*
X0029998Y0421818D01*
X0029219Y0422519D01*
X0028518Y0423298D01*
X0027902Y0424146D01*
X0027378Y0425054D01*
X0026951Y0426011D01*
X0026627Y0427008D01*
X0026410Y0428034D01*
X0026300Y0429076D01*
X0026300Y0430124D01*
X0026410Y0431166D01*
X0026627Y0432192D01*
X0026951Y0433189D01*
X0027378Y0434146D01*
X0027902Y0435054D01*
X0028518Y0435902D01*
X0029219Y0436681D01*
X0029998Y0437382D01*
X0030846Y0437998D01*
X0031754Y0438522D01*
X0032711Y0438949D01*
X0033708Y0439273D01*
X0034734Y0439490D01*
X0035776Y0439600D01*
X0036300Y0439600D01*
X0036824Y0439600D01*
X0037866Y0439490D01*
X0038892Y0439273D01*
X0039889Y0438949D01*
X0040846Y0438522D01*
G37*

G36*
X0194154Y0539598D02*
X0195002Y0538982D01*
X0195781Y0538281D01*
X0196482Y0537502D01*
X0197098Y0536654D01*
X0197622Y0535746D01*
X0198049Y0534789D01*
X0198373Y0533792D01*
X0198590Y0532766D01*
X0198700Y0531724D01*
X0198700Y0530676D01*
X0198590Y0529634D01*
X0198373Y0528608D01*
X0198049Y0527611D01*
X0197622Y0526654D01*
X0197315Y0526121D01*
X0220536Y0502900D01*
X0234652Y0502900D01*
X0234809Y0503640D01*
X0235214Y0504886D01*
X0235747Y0506083D01*
X0236402Y0507217D01*
X0237172Y0508277D01*
X0238049Y0509251D01*
X0239023Y0510128D01*
X0240083Y0510898D01*
X0241217Y0511553D01*
X0242414Y0512086D01*
X0243660Y0512491D01*
X0244942Y0512763D01*
X0246245Y0512900D01*
X0246900Y0512900D01*
X0247555Y0512900D01*
X0248858Y0512763D01*
X0250140Y0512491D01*
X0251386Y0512086D01*
X0252583Y0511553D01*
X0253717Y0510898D01*
X0254777Y0510128D01*
X0255751Y0509251D01*
X0256628Y0508277D01*
X0257398Y0507217D01*
X0258053Y0506083D01*
X0258586Y0504886D01*
X0258991Y0503640D01*
X0259148Y0502900D01*
X0265864Y0502900D01*
X0272203Y0509239D01*
X0272385Y0509404D01*
X0272582Y0509550D01*
X0272793Y0509676D01*
X0273014Y0509781D01*
X0273245Y0509863D01*
X0273483Y0509923D01*
X0273726Y0509959D01*
X0273971Y0509971D01*
X0298971Y0509971D01*
X0299216Y0509959D01*
X0299459Y0509923D01*
X0299697Y0509863D01*
X0299928Y0509781D01*
X0300150Y0509676D01*
X0300360Y0509550D01*
X0300557Y0509404D01*
X0300739Y0509239D01*
X0307078Y0502900D01*
X0424652Y0502900D01*
X0424809Y0503640D01*
X0425214Y0504886D01*
X0425747Y0506083D01*
X0426402Y0507217D01*
X0427172Y0508277D01*
X0428049Y0509251D01*
X0429023Y0510128D01*
X0430083Y0510898D01*
X0431217Y0511553D01*
X0432414Y0512086D01*
X0433660Y0512491D01*
X0434942Y0512763D01*
X0436245Y0512900D01*
X0436900Y0512900D01*
X0437555Y0512900D01*
X0438858Y0512763D01*
X0440140Y0512491D01*
X0441386Y0512086D01*
X0442583Y0511553D01*
X0443717Y0510898D01*
X0444777Y0510128D01*
X0445751Y0509251D01*
X0446628Y0508277D01*
X0447398Y0507217D01*
X0448053Y0506083D01*
X0448586Y0504886D01*
X0448991Y0503640D01*
X0449148Y0502900D01*
X0455864Y0502900D01*
X0462203Y0509239D01*
X0462385Y0509404D01*
X0462582Y0509550D01*
X0462793Y0509676D01*
X0463014Y0509781D01*
X0463245Y0509863D01*
X0463483Y0509923D01*
X0463726Y0509959D01*
X0463971Y0509971D01*
X0488971Y0509971D01*
X0489216Y0509959D01*
X0489459Y0509923D01*
X0489697Y0509863D01*
X0489928Y0509781D01*
X0490150Y0509676D01*
X0490360Y0509550D01*
X0490557Y0509404D01*
X0490739Y0509239D01*
X0497078Y0502900D01*
X0614652Y0502900D01*
X0614809Y0503640D01*
X0615214Y0504886D01*
X0615747Y0506083D01*
X0616402Y0507217D01*
X0617172Y0508277D01*
X0618049Y0509251D01*
X0619023Y0510128D01*
X0620083Y0510898D01*
X0621217Y0511553D01*
X0622414Y0512086D01*
X0623660Y0512491D01*
X0624942Y0512763D01*
X0626245Y0512900D01*
X0626900Y0512900D01*
X0627555Y0512900D01*
X0628858Y0512763D01*
X0630140Y0512491D01*
X0631386Y0512086D01*
X0632583Y0511553D01*
X0633717Y0510898D01*
X0634777Y0510128D01*
X0635751Y0509251D01*
X0636628Y0508277D01*
X0637398Y0507217D01*
X0638053Y0506083D01*
X0638586Y0504886D01*
X0638991Y0503640D01*
X0639263Y0502358D01*
X0639400Y0501055D01*
X0639400Y0499745D01*
X0639263Y0498442D01*
X0638991Y0497160D01*
X0638586Y0495914D01*
X0638053Y0494717D01*
X0637398Y0493583D01*
X0636628Y0492523D01*
X0635751Y0491549D01*
X0634777Y0490672D01*
X0633717Y0489902D01*
X0632583Y0489247D01*
X0631386Y0488714D01*
X0630140Y0488309D01*
X0628858Y0488037D01*
X0627555Y0487900D01*
X0626245Y0487900D01*
X0624942Y0488037D01*
X0623660Y0488309D01*
X0622414Y0488714D01*
X0621217Y0489247D01*
X0620083Y0489902D01*
X0619023Y0490672D01*
X0618049Y0491549D01*
X0617172Y0492523D01*
X0616402Y0493583D01*
X0615747Y0494717D01*
X0615214Y0495914D01*
X0614809Y0497160D01*
X0614652Y0497900D01*
X0496042Y0497900D01*
X0495797Y0497912D01*
X0495554Y0497948D01*
X0495316Y0498008D01*
X0495085Y0498090D01*
X0494864Y0498195D01*
X0494653Y0498321D01*
X0494456Y0498467D01*
X0494274Y0498632D01*
X0487936Y0504971D01*
X0465007Y0504971D01*
X0458668Y0498632D01*
X0458486Y0498467D01*
X0458289Y0498321D01*
X0458078Y0498195D01*
X0457857Y0498090D01*
X0457626Y0498008D01*
X0457388Y0497948D01*
X0457145Y0497912D01*
X0456900Y0497900D01*
X0449148Y0497900D01*
X0448991Y0497160D01*
X0448586Y0495914D01*
X0448053Y0494717D01*
X0447398Y0493583D01*
X0446628Y0492523D01*
X0445751Y0491549D01*
X0444777Y0490672D01*
X0443717Y0489902D01*
X0442583Y0489247D01*
X0441386Y0488714D01*
X0440140Y0488309D01*
X0438858Y0488037D01*
X0437555Y0487900D01*
X0436245Y0487900D01*
X0434942Y0488037D01*
X0433660Y0488309D01*
X0432414Y0488714D01*
X0431217Y0489247D01*
X0430083Y0489902D01*
X0429023Y0490672D01*
X0428049Y0491549D01*
X0427172Y0492523D01*
X0426402Y0493583D01*
X0425747Y0494717D01*
X0425214Y0495914D01*
X0424809Y0497160D01*
X0424652Y0497900D01*
X0306042Y0497900D01*
X0305797Y0497912D01*
X0305554Y0497948D01*
X0305316Y0498008D01*
X0305085Y0498090D01*
X0304864Y0498195D01*
X0304653Y0498321D01*
X0304456Y0498467D01*
X0304274Y0498632D01*
X0297936Y0504971D01*
X0275007Y0504971D01*
X0268668Y0498632D01*
X0268486Y0498467D01*
X0268289Y0498321D01*
X0268078Y0498195D01*
X0267857Y0498090D01*
X0267626Y0498008D01*
X0267388Y0497948D01*
X0267145Y0497912D01*
X0266900Y0497900D01*
X0259148Y0497900D01*
X0258991Y0497160D01*
X0258586Y0495914D01*
X0258053Y0494717D01*
X0257398Y0493583D01*
X0256628Y0492523D01*
X0255751Y0491549D01*
X0254777Y0490672D01*
X0253717Y0489902D01*
X0252583Y0489247D01*
X0251386Y0488714D01*
X0250140Y0488309D01*
X0248858Y0488037D01*
X0247555Y0487900D01*
X0246245Y0487900D01*
X0244942Y0488037D01*
X0243660Y0488309D01*
X0242414Y0488714D01*
X0241217Y0489247D01*
X0240083Y0489902D01*
X0239023Y0490672D01*
X0238049Y0491549D01*
X0237172Y0492523D01*
X0236402Y0493583D01*
X0235747Y0494717D01*
X0235214Y0495914D01*
X0234809Y0497160D01*
X0234652Y0497900D01*
X0219500Y0497900D01*
X0219255Y0497912D01*
X0219012Y0497948D01*
X0218774Y0498008D01*
X0218543Y0498090D01*
X0218322Y0498195D01*
X0218111Y0498321D01*
X0217914Y0498467D01*
X0217732Y0498632D01*
X0193779Y0522585D01*
X0193246Y0522278D01*
X0192289Y0521851D01*
X0191292Y0521527D01*
X0190266Y0521310D01*
X0189224Y0521200D01*
X0188176Y0521200D01*
X0187134Y0521310D01*
X0186108Y0521527D01*
X0185111Y0521851D01*
X0184154Y0522278D01*
X0183246Y0522802D01*
X0182398Y0523418D01*
X0181619Y0524119D01*
X0180918Y0524898D01*
X0180302Y0525746D01*
X0179778Y0526654D01*
X0179351Y0527611D01*
X0179027Y0528608D01*
X0178810Y0529634D01*
X0178700Y0530676D01*
X0178700Y0531724D01*
X0178810Y0532766D01*
X0179027Y0533792D01*
X0179351Y0534789D01*
X0179778Y0535746D01*
X0180302Y0536654D01*
X0180918Y0537502D01*
X0181619Y0538281D01*
X0182398Y0538982D01*
X0183246Y0539598D01*
X0184154Y0540122D01*
X0185111Y0540549D01*
X0186108Y0540873D01*
X0187134Y0541090D01*
X0188176Y0541200D01*
X0188700Y0541200D01*
X0189224Y0541200D01*
X0190266Y0541090D01*
X0191292Y0540873D01*
X0192289Y0540549D01*
X0193246Y0540122D01*
X0194154Y0539598D01*
G37*

G36*
X0041754Y0539598D02*
X0042602Y0538982D01*
X0043381Y0538281D01*
X0044082Y0537502D01*
X0044698Y0536654D01*
X0045222Y0535746D01*
X0045649Y0534789D01*
X0045973Y0533792D01*
X0046190Y0532766D01*
X0046300Y0531724D01*
X0046300Y0530676D01*
X0046190Y0529634D01*
X0045973Y0528608D01*
X0045649Y0527611D01*
X0045222Y0526654D01*
X0044698Y0525746D01*
X0044082Y0524898D01*
X0043381Y0524119D01*
X0042602Y0523418D01*
X0041754Y0522802D01*
X0040846Y0522278D01*
X0039889Y0521851D01*
X0038892Y0521527D01*
X0037866Y0521310D01*
X0036824Y0521200D01*
X0035776Y0521200D01*
X0034734Y0521310D01*
X0033708Y0521527D01*
X0032711Y0521851D01*
X0031754Y0522278D01*
X0030846Y0522802D01*
X0029998Y0523418D01*
X0029219Y0524119D01*
X0028518Y0524898D01*
X0027902Y0525746D01*
X0027378Y0526654D01*
X0026951Y0527611D01*
X0026627Y0528608D01*
X0026410Y0529634D01*
X0026300Y0530676D01*
X0026300Y0531724D01*
X0026410Y0532766D01*
X0026627Y0533792D01*
X0026951Y0534789D01*
X0027378Y0535746D01*
X0027902Y0536654D01*
X0028518Y0537502D01*
X0029219Y0538281D01*
X0029998Y0538982D01*
X0030846Y0539598D01*
X0031754Y0540122D01*
X0032711Y0540549D01*
X0033708Y0540873D01*
X0034734Y0541090D01*
X0035776Y0541200D01*
X0036300Y0541200D01*
X0036824Y0541200D01*
X0037866Y0541090D01*
X0038892Y0540873D01*
X0039889Y0540549D01*
X0040846Y0540122D01*
X0041754Y0539598D01*
G37*

G36*
X0317217Y0156298D02*
X0318277Y0155528D01*
X0319251Y0154651D01*
X0320128Y0153677D01*
X0320898Y0152617D01*
X0321553Y0151483D01*
X0322086Y0150286D01*
X0322491Y0149040D01*
X0322763Y0147758D01*
X0322900Y0146455D01*
X0322900Y0145145D01*
X0322763Y0143842D01*
X0322491Y0142560D01*
X0322086Y0141314D01*
X0321553Y0140117D01*
X0320898Y0138983D01*
X0320128Y0137923D01*
X0319251Y0136949D01*
X0318277Y0136072D01*
X0317217Y0135302D01*
X0316083Y0134647D01*
X0314886Y0134114D01*
X0313640Y0133709D01*
X0312358Y0133437D01*
X0311055Y0133300D01*
X0309745Y0133300D01*
X0308442Y0133437D01*
X0307160Y0133709D01*
X0305914Y0134114D01*
X0304717Y0134647D01*
X0303583Y0135302D01*
X0302523Y0136072D01*
X0301549Y0136949D01*
X0300672Y0137923D01*
X0299902Y0138983D01*
X0299247Y0140117D01*
X0298714Y0141314D01*
X0298309Y0142560D01*
X0298037Y0143842D01*
X0297900Y0145145D01*
X0297900Y0146455D01*
X0298037Y0147758D01*
X0298309Y0149040D01*
X0298714Y0150286D01*
X0299247Y0151483D01*
X0299902Y0152617D01*
X0300672Y0153677D01*
X0301549Y0154651D01*
X0302523Y0155528D01*
X0303583Y0156298D01*
X0304717Y0156953D01*
X0305914Y0157486D01*
X0307160Y0157891D01*
X0308442Y0158163D01*
X0309745Y0158300D01*
X0310400Y0158300D01*
X0311055Y0158300D01*
X0312358Y0158163D01*
X0313640Y0157891D01*
X0314886Y0157486D01*
X0316083Y0156953D01*
X0317217Y0156298D01*
G37*

G36*
X0253717Y0320898D02*
X0254777Y0320128D01*
X0255751Y0319251D01*
X0256628Y0318277D01*
X0257398Y0317217D01*
X0258053Y0316083D01*
X0258586Y0314886D01*
X0258991Y0313640D01*
X0259148Y0312900D01*
X0265864Y0312900D01*
X0272203Y0319239D01*
X0272385Y0319404D01*
X0272582Y0319550D01*
X0272793Y0319676D01*
X0273014Y0319781D01*
X0273245Y0319863D01*
X0273483Y0319923D01*
X0273726Y0319959D01*
X0273971Y0319971D01*
X0298971Y0319971D01*
X0299216Y0319959D01*
X0299459Y0319923D01*
X0299697Y0319863D01*
X0299928Y0319781D01*
X0300150Y0319676D01*
X0300360Y0319550D01*
X0300557Y0319404D01*
X0300739Y0319239D01*
X0307078Y0312900D01*
X0424652Y0312900D01*
X0424809Y0313640D01*
X0425214Y0314886D01*
X0425747Y0316083D01*
X0426402Y0317217D01*
X0427172Y0318277D01*
X0428049Y0319251D01*
X0429023Y0320128D01*
X0430083Y0320898D01*
X0431217Y0321553D01*
X0432414Y0322086D01*
X0433660Y0322491D01*
X0434942Y0322763D01*
X0436245Y0322900D01*
X0436900Y0322900D01*
X0437555Y0322900D01*
X0438858Y0322763D01*
X0440140Y0322491D01*
X0441386Y0322086D01*
X0442583Y0321553D01*
X0443717Y0320898D01*
X0444777Y0320128D01*
X0445751Y0319251D01*
X0446628Y0318277D01*
X0447398Y0317217D01*
X0448053Y0316083D01*
X0448586Y0314886D01*
X0448991Y0313640D01*
X0449148Y0312900D01*
X0455864Y0312900D01*
X0462203Y0319239D01*
X0462385Y0319404D01*
X0462582Y0319550D01*
X0462793Y0319676D01*
X0463014Y0319781D01*
X0463245Y0319863D01*
X0463483Y0319923D01*
X0463726Y0319959D01*
X0463971Y0319971D01*
X0488971Y0319971D01*
X0489216Y0319959D01*
X0489459Y0319923D01*
X0489697Y0319863D01*
X0489928Y0319781D01*
X0490150Y0319676D01*
X0490360Y0319550D01*
X0490557Y0319404D01*
X0490739Y0319239D01*
X0497078Y0312900D01*
X0614652Y0312900D01*
X0614809Y0313640D01*
X0615214Y0314886D01*
X0615747Y0316083D01*
X0616402Y0317217D01*
X0617172Y0318277D01*
X0618049Y0319251D01*
X0619023Y0320128D01*
X0620083Y0320898D01*
X0621217Y0321553D01*
X0622414Y0322086D01*
X0623660Y0322491D01*
X0624942Y0322763D01*
X0626245Y0322900D01*
X0626900Y0322900D01*
X0627555Y0322900D01*
X0628858Y0322763D01*
X0630140Y0322491D01*
X0631386Y0322086D01*
X0632583Y0321553D01*
X0633717Y0320898D01*
X0634777Y0320128D01*
X0635751Y0319251D01*
X0636628Y0318277D01*
X0637398Y0317217D01*
X0638053Y0316083D01*
X0638586Y0314886D01*
X0638991Y0313640D01*
X0639263Y0312358D01*
X0639400Y0311055D01*
X0639400Y0309745D01*
X0639263Y0308442D01*
X0638991Y0307160D01*
X0638586Y0305914D01*
X0638053Y0304717D01*
X0637398Y0303583D01*
X0636628Y0302523D01*
X0635751Y0301549D01*
X0634777Y0300672D01*
X0633717Y0299902D01*
X0632583Y0299247D01*
X0631386Y0298714D01*
X0630140Y0298309D01*
X0628858Y0298037D01*
X0627555Y0297900D01*
X0626245Y0297900D01*
X0624942Y0298037D01*
X0623660Y0298309D01*
X0622414Y0298714D01*
X0621217Y0299247D01*
X0620083Y0299902D01*
X0619023Y0300672D01*
X0618049Y0301549D01*
X0617172Y0302523D01*
X0616402Y0303583D01*
X0615747Y0304717D01*
X0615214Y0305914D01*
X0614809Y0307160D01*
X0614652Y0307900D01*
X0496042Y0307900D01*
X0495797Y0307912D01*
X0495554Y0307948D01*
X0495316Y0308008D01*
X0495085Y0308090D01*
X0494864Y0308195D01*
X0494653Y0308321D01*
X0494456Y0308467D01*
X0494274Y0308632D01*
X0487936Y0314971D01*
X0465007Y0314971D01*
X0458668Y0308632D01*
X0458486Y0308467D01*
X0458289Y0308321D01*
X0458078Y0308195D01*
X0457857Y0308090D01*
X0457626Y0308008D01*
X0457388Y0307948D01*
X0457145Y0307912D01*
X0456900Y0307900D01*
X0449148Y0307900D01*
X0448991Y0307160D01*
X0448586Y0305914D01*
X0448053Y0304717D01*
X0447398Y0303583D01*
X0446628Y0302523D01*
X0445751Y0301549D01*
X0444777Y0300672D01*
X0443717Y0299902D01*
X0442583Y0299247D01*
X0441386Y0298714D01*
X0440140Y0298309D01*
X0438858Y0298037D01*
X0437555Y0297900D01*
X0436245Y0297900D01*
X0434942Y0298037D01*
X0433660Y0298309D01*
X0432414Y0298714D01*
X0431217Y0299247D01*
X0430083Y0299902D01*
X0429023Y0300672D01*
X0428049Y0301549D01*
X0427172Y0302523D01*
X0426402Y0303583D01*
X0425747Y0304717D01*
X0425214Y0305914D01*
X0424809Y0307160D01*
X0424652Y0307900D01*
X0306042Y0307900D01*
X0305797Y0307912D01*
X0305554Y0307948D01*
X0305316Y0308008D01*
X0305085Y0308090D01*
X0304864Y0308195D01*
X0304653Y0308321D01*
X0304456Y0308467D01*
X0304274Y0308632D01*
X0297936Y0314971D01*
X0275007Y0314971D01*
X0268668Y0308632D01*
X0268486Y0308467D01*
X0268289Y0308321D01*
X0268078Y0308195D01*
X0267857Y0308090D01*
X0267626Y0308008D01*
X0267388Y0307948D01*
X0267145Y0307912D01*
X0266900Y0307900D01*
X0259148Y0307900D01*
X0258991Y0307160D01*
X0258586Y0305914D01*
X0258053Y0304717D01*
X0257398Y0303583D01*
X0256628Y0302523D01*
X0255751Y0301549D01*
X0254777Y0300672D01*
X0253717Y0299902D01*
X0252583Y0299247D01*
X0251386Y0298714D01*
X0250140Y0298309D01*
X0248858Y0298037D01*
X0247555Y0297900D01*
X0246245Y0297900D01*
X0244942Y0298037D01*
X0243660Y0298309D01*
X0242414Y0298714D01*
X0241217Y0299247D01*
X0240083Y0299902D01*
X0239023Y0300672D01*
X0238049Y0301549D01*
X0237172Y0302523D01*
X0236402Y0303583D01*
X0235747Y0304717D01*
X0235214Y0305914D01*
X0234809Y0307160D01*
X0234537Y0308442D01*
X0234400Y0309745D01*
X0234400Y0311055D01*
X0234537Y0312358D01*
X0234809Y0313640D01*
X0235214Y0314886D01*
X0235747Y0316083D01*
X0236402Y0317217D01*
X0237172Y0318277D01*
X0238049Y0319251D01*
X0239023Y0320128D01*
X0240083Y0320898D01*
X0241217Y0321553D01*
X0242414Y0322086D01*
X0243660Y0322491D01*
X0244400Y0322648D01*
X0244400Y0344964D01*
X0193779Y0395585D01*
X0193246Y0395278D01*
X0192289Y0394851D01*
X0191292Y0394527D01*
X0190266Y0394310D01*
X0189224Y0394200D01*
X0188176Y0394200D01*
X0187134Y0394310D01*
X0186108Y0394527D01*
X0185111Y0394851D01*
X0184154Y0395278D01*
X0183246Y0395802D01*
X0182398Y0396418D01*
X0181619Y0397119D01*
X0180918Y0397898D01*
X0180302Y0398746D01*
X0179778Y0399654D01*
X0179351Y0400611D01*
X0179027Y0401608D01*
X0178810Y0402634D01*
X0178700Y0403676D01*
X0178700Y0404724D01*
X0178810Y0405766D01*
X0179027Y0406792D01*
X0179351Y0407789D01*
X0179778Y0408746D01*
X0180302Y0409654D01*
X0180918Y0410502D01*
X0181619Y0411281D01*
X0182398Y0411982D01*
X0183246Y0412598D01*
X0184154Y0413122D01*
X0185111Y0413549D01*
X0186108Y0413873D01*
X0187134Y0414090D01*
X0188176Y0414200D01*
X0188700Y0414200D01*
X0189224Y0414200D01*
X0190266Y0414090D01*
X0191292Y0413873D01*
X0192289Y0413549D01*
X0193246Y0413122D01*
X0194154Y0412598D01*
X0195002Y0411982D01*
X0195781Y0411281D01*
X0196482Y0410502D01*
X0197098Y0409654D01*
X0197622Y0408746D01*
X0198049Y0407789D01*
X0198373Y0406792D01*
X0198590Y0405766D01*
X0198700Y0404724D01*
X0198700Y0403676D01*
X0198590Y0402634D01*
X0198373Y0401608D01*
X0198049Y0400611D01*
X0197622Y0399654D01*
X0197315Y0399121D01*
X0248668Y0347768D01*
X0248833Y0347586D01*
X0248979Y0347389D01*
X0249105Y0347178D01*
X0249210Y0346957D01*
X0249292Y0346726D01*
X0249352Y0346488D01*
X0249388Y0346245D01*
X0249400Y0346000D01*
X0249400Y0322648D01*
X0250140Y0322491D01*
X0251386Y0322086D01*
X0252583Y0321553D01*
X0253717Y0320898D01*
G37*

G36*
X0317217Y0346298D02*
X0318277Y0345528D01*
X0319251Y0344651D01*
X0320128Y0343677D01*
X0320898Y0342617D01*
X0321553Y0341483D01*
X0322086Y0340286D01*
X0322491Y0339040D01*
X0322763Y0337758D01*
X0322900Y0336455D01*
X0322900Y0335145D01*
X0322763Y0333842D01*
X0322491Y0332560D01*
X0322086Y0331314D01*
X0321553Y0330117D01*
X0320898Y0328983D01*
X0320128Y0327923D01*
X0319251Y0326949D01*
X0318277Y0326072D01*
X0317217Y0325302D01*
X0316083Y0324647D01*
X0314886Y0324114D01*
X0313640Y0323709D01*
X0312358Y0323437D01*
X0311055Y0323300D01*
X0309745Y0323300D01*
X0308442Y0323437D01*
X0307160Y0323709D01*
X0305914Y0324114D01*
X0304717Y0324647D01*
X0303583Y0325302D01*
X0302523Y0326072D01*
X0301549Y0326949D01*
X0300672Y0327923D01*
X0299902Y0328983D01*
X0299247Y0330117D01*
X0298714Y0331314D01*
X0298309Y0332560D01*
X0298037Y0333842D01*
X0297900Y0335145D01*
X0297900Y0336455D01*
X0298037Y0337758D01*
X0298309Y0339040D01*
X0298714Y0340286D01*
X0299247Y0341483D01*
X0299902Y0342617D01*
X0300672Y0343677D01*
X0301549Y0344651D01*
X0302523Y0345528D01*
X0303583Y0346298D01*
X0304717Y0346953D01*
X0305914Y0347486D01*
X0307160Y0347891D01*
X0308442Y0348163D01*
X0309745Y0348300D01*
X0310400Y0348300D01*
X0311055Y0348300D01*
X0312358Y0348163D01*
X0313640Y0347891D01*
X0314886Y0347486D01*
X0316083Y0346953D01*
X0317217Y0346298D01*
G37*

G36*
X0193246Y0438522D02*
X0194154Y0437998D01*
X0195002Y0437382D01*
X0195781Y0436681D01*
X0196482Y0435902D01*
X0197098Y0435054D01*
X0197622Y0434146D01*
X0198049Y0433189D01*
X0198373Y0432192D01*
X0198590Y0431166D01*
X0198700Y0430124D01*
X0198700Y0429076D01*
X0198590Y0428034D01*
X0198373Y0427008D01*
X0198140Y0426293D01*
X0212751Y0411681D01*
X0695680Y0411681D01*
X0718614Y0434615D01*
X0718533Y0434787D01*
X0718301Y0435434D01*
X0718135Y0436100D01*
X0718034Y0436780D01*
X0718000Y0437466D01*
X0718034Y0438152D01*
X0718135Y0438831D01*
X0718301Y0439498D01*
X0718533Y0440145D01*
X0718827Y0440766D01*
X0719180Y0441355D01*
X0719589Y0441906D01*
X0720050Y0442415D01*
X0720559Y0442877D01*
X0721111Y0443286D01*
X0721700Y0443639D01*
X0722321Y0443933D01*
X0722968Y0444164D01*
X0723634Y0444331D01*
X0724314Y0444432D01*
X0725000Y0444466D01*
X0725686Y0444432D01*
X0726366Y0444331D01*
X0727032Y0444164D01*
X0727679Y0443933D01*
X0728300Y0443639D01*
X0728889Y0443286D01*
X0729441Y0442877D01*
X0729950Y0442415D01*
X0730411Y0441906D01*
X0730820Y0441355D01*
X0731173Y0440766D01*
X0731467Y0440145D01*
X0731699Y0439498D01*
X0731865Y0438831D01*
X0731966Y0438152D01*
X0732000Y0437466D01*
X0731966Y0436780D01*
X0731865Y0436100D01*
X0731699Y0435434D01*
X0731467Y0434787D01*
X0731173Y0434166D01*
X0730820Y0433577D01*
X0730411Y0433025D01*
X0729950Y0432516D01*
X0729441Y0432055D01*
X0728889Y0431645D01*
X0728300Y0431292D01*
X0727679Y0430999D01*
X0727032Y0430767D01*
X0726366Y0430600D01*
X0725686Y0430499D01*
X0725000Y0430466D01*
X0724314Y0430499D01*
X0723634Y0430600D01*
X0722968Y0430767D01*
X0722321Y0430999D01*
X0722150Y0431080D01*
X0698483Y0407414D01*
X0698302Y0407249D01*
X0698105Y0407103D01*
X0697894Y0406977D01*
X0697672Y0406872D01*
X0697441Y0406789D01*
X0697203Y0406729D01*
X0696961Y0406693D01*
X0696716Y0406681D01*
X0211716Y0406681D01*
X0211471Y0406693D01*
X0211228Y0406729D01*
X0210990Y0406789D01*
X0210759Y0406872D01*
X0210537Y0406977D01*
X0210327Y0407103D01*
X0210130Y0407249D01*
X0209948Y0407414D01*
X0195287Y0422075D01*
X0195002Y0421818D01*
X0194154Y0421202D01*
X0193246Y0420678D01*
X0192289Y0420251D01*
X0191292Y0419927D01*
X0190266Y0419710D01*
X0189224Y0419600D01*
X0188176Y0419600D01*
X0187134Y0419710D01*
X0186108Y0419927D01*
X0185111Y0420251D01*
X0184154Y0420678D01*
X0183246Y0421202D01*
X0182398Y0421818D01*
X0181619Y0422519D01*
X0180918Y0423298D01*
X0180302Y0424146D01*
X0179778Y0425054D01*
X0179351Y0426011D01*
X0179027Y0427008D01*
X0178810Y0428034D01*
X0178700Y0429076D01*
X0178700Y0430124D01*
X0178810Y0431166D01*
X0179027Y0432192D01*
X0179351Y0433189D01*
X0179778Y0434146D01*
X0180302Y0435054D01*
X0180918Y0435902D01*
X0181619Y0436681D01*
X0182398Y0437382D01*
X0183246Y0437998D01*
X0184154Y0438522D01*
X0185111Y0438949D01*
X0186108Y0439273D01*
X0187134Y0439490D01*
X0188176Y0439600D01*
X0188700Y0439600D01*
X0189224Y0439600D01*
X0190266Y0439490D01*
X0191292Y0439273D01*
X0192289Y0438949D01*
X0193246Y0438522D01*
G37*

G36*
X0350820Y0433577D02*
X0350411Y0433025D01*
X0349950Y0432516D01*
X0349441Y0432055D01*
X0348889Y0431645D01*
X0348300Y0431292D01*
X0347679Y0430999D01*
X0347032Y0430767D01*
X0346366Y0430600D01*
X0345686Y0430499D01*
X0345000Y0430466D01*
X0344314Y0430499D01*
X0343634Y0430600D01*
X0342968Y0430767D01*
X0342321Y0430999D01*
X0341700Y0431292D01*
X0341111Y0431645D01*
X0340559Y0432055D01*
X0340050Y0432516D01*
X0339589Y0433025D01*
X0339180Y0433577D01*
X0338827Y0434166D01*
X0338533Y0434787D01*
X0338469Y0434966D01*
X0235000Y0434966D01*
X0234755Y0434978D01*
X0234512Y0435014D01*
X0234274Y0435073D01*
X0234043Y0435156D01*
X0233822Y0435261D01*
X0233611Y0435387D01*
X0233414Y0435533D01*
X0233232Y0435698D01*
X0195691Y0473239D01*
X0195002Y0472618D01*
X0194154Y0472002D01*
X0193246Y0471478D01*
X0192289Y0471051D01*
X0191292Y0470727D01*
X0190266Y0470510D01*
X0189224Y0470400D01*
X0188176Y0470400D01*
X0187134Y0470510D01*
X0186108Y0470727D01*
X0185111Y0471051D01*
X0184154Y0471478D01*
X0183246Y0472002D01*
X0182398Y0472618D01*
X0181619Y0473319D01*
X0180918Y0474098D01*
X0180302Y0474946D01*
X0179778Y0475854D01*
X0179351Y0476811D01*
X0179027Y0477808D01*
X0178810Y0478834D01*
X0178700Y0479876D01*
X0178700Y0480924D01*
X0178810Y0481966D01*
X0179027Y0482992D01*
X0179351Y0483989D01*
X0179778Y0484946D01*
X0180302Y0485854D01*
X0180918Y0486702D01*
X0181619Y0487481D01*
X0182398Y0488182D01*
X0183246Y0488798D01*
X0184154Y0489322D01*
X0185111Y0489749D01*
X0186108Y0490073D01*
X0187134Y0490290D01*
X0188176Y0490400D01*
X0188700Y0490400D01*
X0189224Y0490400D01*
X0190266Y0490290D01*
X0191292Y0490073D01*
X0192289Y0489749D01*
X0193246Y0489322D01*
X0194154Y0488798D01*
X0195002Y0488182D01*
X0195781Y0487481D01*
X0196482Y0486702D01*
X0197098Y0485854D01*
X0197622Y0484946D01*
X0198049Y0483989D01*
X0198373Y0482992D01*
X0198590Y0481966D01*
X0198700Y0480924D01*
X0198700Y0479876D01*
X0198590Y0478834D01*
X0198373Y0477808D01*
X0198328Y0477673D01*
X0236036Y0439966D01*
X0338469Y0439966D01*
X0338533Y0440145D01*
X0338827Y0440766D01*
X0339180Y0441355D01*
X0339589Y0441906D01*
X0340050Y0442415D01*
X0340559Y0442877D01*
X0341111Y0443286D01*
X0341700Y0443639D01*
X0342321Y0443933D01*
X0342968Y0444164D01*
X0343634Y0444331D01*
X0344314Y0444432D01*
X0345000Y0444466D01*
X0345686Y0444432D01*
X0346366Y0444331D01*
X0347032Y0444164D01*
X0347679Y0443933D01*
X0348300Y0443639D01*
X0348889Y0443286D01*
X0349441Y0442877D01*
X0349950Y0442415D01*
X0350411Y0441906D01*
X0350820Y0441355D01*
X0351173Y0440766D01*
X0351467Y0440145D01*
X0351699Y0439498D01*
X0351865Y0438831D01*
X0351966Y0438152D01*
X0352000Y0437466D01*
X0351966Y0436780D01*
X0351865Y0436100D01*
X0351699Y0435434D01*
X0351467Y0434787D01*
X0351173Y0434166D01*
X0350820Y0433577D01*
G37*

G36*
X0521346Y0420872D02*
X0521103Y0420836D01*
X0520858Y0420824D01*
X0225858Y0420824D01*
X0225613Y0420836D01*
X0225370Y0420872D01*
X0225132Y0420931D01*
X0224901Y0421014D01*
X0224679Y0421119D01*
X0224469Y0421245D01*
X0224272Y0421391D01*
X0224090Y0421556D01*
X0196678Y0448968D01*
X0196482Y0448698D01*
X0195781Y0447919D01*
X0195002Y0447218D01*
X0194154Y0446602D01*
X0193246Y0446078D01*
X0192289Y0445651D01*
X0191292Y0445327D01*
X0190266Y0445110D01*
X0189224Y0445000D01*
X0188176Y0445000D01*
X0187134Y0445110D01*
X0186108Y0445327D01*
X0185111Y0445651D01*
X0184154Y0446078D01*
X0183246Y0446602D01*
X0182398Y0447218D01*
X0181619Y0447919D01*
X0180918Y0448698D01*
X0180302Y0449546D01*
X0179778Y0450454D01*
X0179351Y0451411D01*
X0179027Y0452408D01*
X0178810Y0453434D01*
X0178700Y0454476D01*
X0178700Y0455524D01*
X0178810Y0456566D01*
X0179027Y0457592D01*
X0179351Y0458589D01*
X0179778Y0459546D01*
X0180302Y0460454D01*
X0180918Y0461302D01*
X0181619Y0462081D01*
X0182398Y0462782D01*
X0183246Y0463398D01*
X0184154Y0463922D01*
X0185111Y0464349D01*
X0186108Y0464673D01*
X0187134Y0464890D01*
X0188176Y0465000D01*
X0188700Y0465000D01*
X0189224Y0465000D01*
X0190266Y0464890D01*
X0191292Y0464673D01*
X0192289Y0464349D01*
X0193246Y0463922D01*
X0194154Y0463398D01*
X0195002Y0462782D01*
X0195781Y0462081D01*
X0196482Y0461302D01*
X0197098Y0460454D01*
X0197622Y0459546D01*
X0198049Y0458589D01*
X0198373Y0457592D01*
X0198590Y0456566D01*
X0198700Y0455524D01*
X0198700Y0454476D01*
X0198656Y0454061D01*
X0226893Y0425824D01*
X0519822Y0425824D01*
X0528614Y0434615D01*
X0528533Y0434787D01*
X0528301Y0435434D01*
X0528135Y0436100D01*
X0528034Y0436780D01*
X0528000Y0437466D01*
X0528034Y0438152D01*
X0528135Y0438831D01*
X0528301Y0439498D01*
X0528533Y0440145D01*
X0528827Y0440766D01*
X0529180Y0441355D01*
X0529589Y0441906D01*
X0530050Y0442415D01*
X0530559Y0442877D01*
X0531111Y0443286D01*
X0531700Y0443639D01*
X0532321Y0443933D01*
X0532968Y0444164D01*
X0533634Y0444331D01*
X0534314Y0444432D01*
X0535000Y0444466D01*
X0535686Y0444432D01*
X0536366Y0444331D01*
X0537032Y0444164D01*
X0537679Y0443933D01*
X0538300Y0443639D01*
X0538889Y0443286D01*
X0539441Y0442877D01*
X0539950Y0442415D01*
X0540411Y0441906D01*
X0540820Y0441355D01*
X0541173Y0440766D01*
X0541467Y0440145D01*
X0541699Y0439498D01*
X0541865Y0438831D01*
X0541966Y0438152D01*
X0542000Y0437466D01*
X0541966Y0436780D01*
X0541865Y0436100D01*
X0541699Y0435434D01*
X0541467Y0434787D01*
X0541173Y0434166D01*
X0540820Y0433577D01*
X0540411Y0433025D01*
X0539950Y0432516D01*
X0539441Y0432055D01*
X0538889Y0431645D01*
X0538300Y0431292D01*
X0537679Y0430999D01*
X0537032Y0430767D01*
X0536366Y0430600D01*
X0535686Y0430499D01*
X0535000Y0430466D01*
X0534314Y0430499D01*
X0533634Y0430600D01*
X0532968Y0430767D01*
X0532321Y0430999D01*
X0532150Y0431080D01*
X0522626Y0421556D01*
X0522444Y0421391D01*
X0522247Y0421245D01*
X0522036Y0421119D01*
X0521815Y0421014D01*
X0521584Y0420931D01*
X0521346Y0420872D01*
G37*

G36*
X0194154Y0514198D02*
X0195002Y0513582D01*
X0195781Y0512881D01*
X0196482Y0512102D01*
X0197098Y0511254D01*
X0197622Y0510346D01*
X0198049Y0509389D01*
X0198373Y0508392D01*
X0198590Y0507366D01*
X0198700Y0506324D01*
X0198700Y0505276D01*
X0198590Y0504234D01*
X0198373Y0503208D01*
X0198049Y0502211D01*
X0197622Y0501254D01*
X0197098Y0500346D01*
X0196482Y0499498D01*
X0195781Y0498719D01*
X0195002Y0498018D01*
X0194154Y0497402D01*
X0193246Y0496878D01*
X0192289Y0496451D01*
X0191292Y0496127D01*
X0190266Y0495910D01*
X0189224Y0495800D01*
X0188176Y0495800D01*
X0187134Y0495910D01*
X0186108Y0496127D01*
X0185111Y0496451D01*
X0184154Y0496878D01*
X0183246Y0497402D01*
X0182398Y0498018D01*
X0181619Y0498719D01*
X0180918Y0499498D01*
X0180302Y0500346D01*
X0179778Y0501254D01*
X0179351Y0502211D01*
X0179027Y0503208D01*
X0178810Y0504234D01*
X0178700Y0505276D01*
X0178700Y0506324D01*
X0178810Y0507366D01*
X0179027Y0508392D01*
X0179351Y0509389D01*
X0179778Y0510346D01*
X0180302Y0511254D01*
X0180918Y0512102D01*
X0181619Y0512881D01*
X0182398Y0513582D01*
X0183246Y0514198D01*
X0184154Y0514722D01*
X0185111Y0515149D01*
X0186108Y0515473D01*
X0187134Y0515690D01*
X0188176Y0515800D01*
X0188700Y0515800D01*
X0189224Y0515800D01*
X0190266Y0515690D01*
X0191292Y0515473D01*
X0192289Y0515149D01*
X0193246Y0514722D01*
X0194154Y0514198D01*
G37*

G36*
X0317217Y0536298D02*
X0318277Y0535528D01*
X0319251Y0534651D01*
X0320128Y0533677D01*
X0320898Y0532617D01*
X0321553Y0531483D01*
X0322086Y0530286D01*
X0322491Y0529040D01*
X0322763Y0527758D01*
X0322900Y0526455D01*
X0322900Y0525145D01*
X0322763Y0523842D01*
X0322491Y0522560D01*
X0322086Y0521314D01*
X0321553Y0520117D01*
X0320898Y0518983D01*
X0320128Y0517923D01*
X0319251Y0516949D01*
X0318277Y0516072D01*
X0317217Y0515302D01*
X0316083Y0514647D01*
X0314886Y0514114D01*
X0313640Y0513709D01*
X0312358Y0513437D01*
X0311055Y0513300D01*
X0309745Y0513300D01*
X0308442Y0513437D01*
X0307160Y0513709D01*
X0305914Y0514114D01*
X0304717Y0514647D01*
X0303583Y0515302D01*
X0302523Y0516072D01*
X0301549Y0516949D01*
X0300672Y0517923D01*
X0299902Y0518983D01*
X0299247Y0520117D01*
X0298714Y0521314D01*
X0298309Y0522560D01*
X0298037Y0523842D01*
X0297900Y0525145D01*
X0297900Y0526455D01*
X0298037Y0527758D01*
X0298309Y0529040D01*
X0298714Y0530286D01*
X0299247Y0531483D01*
X0299902Y0532617D01*
X0300672Y0533677D01*
X0301549Y0534651D01*
X0302523Y0535528D01*
X0303583Y0536298D01*
X0304717Y0536953D01*
X0305914Y0537486D01*
X0307160Y0537891D01*
X0308442Y0538163D01*
X0309745Y0538300D01*
X0310400Y0538300D01*
X0311055Y0538300D01*
X0312358Y0538163D01*
X0313640Y0537891D01*
X0314886Y0537486D01*
X0316083Y0536953D01*
X0317217Y0536298D01*
G37*

G36*
X0506083Y0156953D02*
X0507217Y0156298D01*
X0508277Y0155528D01*
X0509251Y0154651D01*
X0510128Y0153677D01*
X0510898Y0152617D01*
X0511553Y0151483D01*
X0512086Y0150286D01*
X0512491Y0149040D01*
X0512763Y0147758D01*
X0512900Y0146455D01*
X0512900Y0145145D01*
X0512763Y0143842D01*
X0512491Y0142560D01*
X0512086Y0141314D01*
X0511553Y0140117D01*
X0510898Y0138983D01*
X0510128Y0137923D01*
X0509251Y0136949D01*
X0508277Y0136072D01*
X0507217Y0135302D01*
X0506083Y0134647D01*
X0504886Y0134114D01*
X0503640Y0133709D01*
X0502358Y0133437D01*
X0501055Y0133300D01*
X0499745Y0133300D01*
X0498442Y0133437D01*
X0497160Y0133709D01*
X0495914Y0134114D01*
X0494717Y0134647D01*
X0493583Y0135302D01*
X0492523Y0136072D01*
X0491549Y0136949D01*
X0490672Y0137923D01*
X0489902Y0138983D01*
X0489247Y0140117D01*
X0488714Y0141314D01*
X0488309Y0142560D01*
X0488037Y0143842D01*
X0487900Y0145145D01*
X0487900Y0146455D01*
X0488037Y0147758D01*
X0488309Y0149040D01*
X0488714Y0150286D01*
X0489247Y0151483D01*
X0489902Y0152617D01*
X0490672Y0153677D01*
X0491549Y0154651D01*
X0492523Y0155528D01*
X0493583Y0156298D01*
X0494717Y0156953D01*
X0495914Y0157486D01*
X0497160Y0157891D01*
X0498442Y0158163D01*
X0499745Y0158300D01*
X0500400Y0158300D01*
X0501055Y0158300D01*
X0502358Y0158163D01*
X0503640Y0157891D01*
X0504886Y0157486D01*
X0506083Y0156953D01*
G37*

G36*
X0697217Y0156298D02*
X0698277Y0155528D01*
X0699251Y0154651D01*
X0700128Y0153677D01*
X0700898Y0152617D01*
X0701553Y0151483D01*
X0702086Y0150286D01*
X0702491Y0149040D01*
X0702763Y0147758D01*
X0702900Y0146455D01*
X0702900Y0145145D01*
X0702763Y0143842D01*
X0702491Y0142560D01*
X0702086Y0141314D01*
X0701553Y0140117D01*
X0700898Y0138983D01*
X0700128Y0137923D01*
X0699251Y0136949D01*
X0698277Y0136072D01*
X0697217Y0135302D01*
X0696083Y0134647D01*
X0694886Y0134114D01*
X0693640Y0133709D01*
X0692358Y0133437D01*
X0691055Y0133300D01*
X0689745Y0133300D01*
X0688442Y0133437D01*
X0687160Y0133709D01*
X0685914Y0134114D01*
X0684717Y0134647D01*
X0683583Y0135302D01*
X0682523Y0136072D01*
X0681549Y0136949D01*
X0680672Y0137923D01*
X0679902Y0138983D01*
X0679247Y0140117D01*
X0678714Y0141314D01*
X0678309Y0142560D01*
X0678037Y0143842D01*
X0677900Y0145145D01*
X0677900Y0146455D01*
X0678037Y0147758D01*
X0678309Y0149040D01*
X0678714Y0150286D01*
X0679247Y0151483D01*
X0679902Y0152617D01*
X0680672Y0153677D01*
X0681549Y0154651D01*
X0682523Y0155528D01*
X0683583Y0156298D01*
X0684717Y0156953D01*
X0685914Y0157486D01*
X0687160Y0157891D01*
X0688442Y0158163D01*
X0689745Y0158300D01*
X0690400Y0158300D01*
X0691055Y0158300D01*
X0692358Y0158163D01*
X0693640Y0157891D01*
X0694886Y0157486D01*
X0696083Y0156953D01*
X0697217Y0156298D01*
G37*

G36*
X0507217Y0346298D02*
X0508277Y0345528D01*
X0509251Y0344651D01*
X0510128Y0343677D01*
X0510898Y0342617D01*
X0511553Y0341483D01*
X0512086Y0340286D01*
X0512491Y0339040D01*
X0512763Y0337758D01*
X0512900Y0336455D01*
X0512900Y0335145D01*
X0512763Y0333842D01*
X0512491Y0332560D01*
X0512086Y0331314D01*
X0511553Y0330117D01*
X0510898Y0328983D01*
X0510128Y0327923D01*
X0509251Y0326949D01*
X0508277Y0326072D01*
X0507217Y0325302D01*
X0506083Y0324647D01*
X0504886Y0324114D01*
X0503640Y0323709D01*
X0502358Y0323437D01*
X0501055Y0323300D01*
X0499745Y0323300D01*
X0498442Y0323437D01*
X0497160Y0323709D01*
X0495914Y0324114D01*
X0494717Y0324647D01*
X0493583Y0325302D01*
X0492523Y0326072D01*
X0491549Y0326949D01*
X0490672Y0327923D01*
X0489902Y0328983D01*
X0489247Y0330117D01*
X0488714Y0331314D01*
X0488309Y0332560D01*
X0488037Y0333842D01*
X0487900Y0335145D01*
X0487900Y0336455D01*
X0488037Y0337758D01*
X0488309Y0339040D01*
X0488714Y0340286D01*
X0489247Y0341483D01*
X0489902Y0342617D01*
X0490672Y0343677D01*
X0491549Y0344651D01*
X0492523Y0345528D01*
X0493583Y0346298D01*
X0494717Y0346953D01*
X0495914Y0347486D01*
X0497160Y0347891D01*
X0498442Y0348163D01*
X0499745Y0348300D01*
X0500400Y0348300D01*
X0501055Y0348300D01*
X0502358Y0348163D01*
X0503640Y0347891D01*
X0504886Y0347486D01*
X0506083Y0346953D01*
X0507217Y0346298D01*
G37*

G36*
X0697217Y0346298D02*
X0698277Y0345528D01*
X0699251Y0344651D01*
X0700128Y0343677D01*
X0700898Y0342617D01*
X0701553Y0341483D01*
X0702086Y0340286D01*
X0702491Y0339040D01*
X0702763Y0337758D01*
X0702900Y0336455D01*
X0702900Y0335145D01*
X0702763Y0333842D01*
X0702491Y0332560D01*
X0702086Y0331314D01*
X0701553Y0330117D01*
X0700898Y0328983D01*
X0700128Y0327923D01*
X0699251Y0326949D01*
X0698277Y0326072D01*
X0697217Y0325302D01*
X0696083Y0324647D01*
X0694886Y0324114D01*
X0693640Y0323709D01*
X0692358Y0323437D01*
X0691055Y0323300D01*
X0689745Y0323300D01*
X0688442Y0323437D01*
X0687160Y0323709D01*
X0685914Y0324114D01*
X0684717Y0324647D01*
X0683583Y0325302D01*
X0682523Y0326072D01*
X0681549Y0326949D01*
X0680672Y0327923D01*
X0679902Y0328983D01*
X0679247Y0330117D01*
X0678714Y0331314D01*
X0678309Y0332560D01*
X0678037Y0333842D01*
X0677900Y0335145D01*
X0677900Y0336455D01*
X0678037Y0337758D01*
X0678309Y0339040D01*
X0678714Y0340286D01*
X0679247Y0341483D01*
X0679902Y0342617D01*
X0680672Y0343677D01*
X0681549Y0344651D01*
X0682523Y0345528D01*
X0683583Y0346298D01*
X0684717Y0346953D01*
X0685914Y0347486D01*
X0687160Y0347891D01*
X0688442Y0348163D01*
X0689745Y0348300D01*
X0690400Y0348300D01*
X0691055Y0348300D01*
X0692358Y0348163D01*
X0693640Y0347891D01*
X0694886Y0347486D01*
X0696083Y0346953D01*
X0697217Y0346298D01*
G37*

G36*
X0697217Y0536298D02*
X0698277Y0535528D01*
X0699251Y0534651D01*
X0700128Y0533677D01*
X0700898Y0532617D01*
X0701553Y0531483D01*
X0702086Y0530286D01*
X0702491Y0529040D01*
X0702763Y0527758D01*
X0702900Y0526455D01*
X0702900Y0525145D01*
X0702763Y0523842D01*
X0702491Y0522560D01*
X0702086Y0521314D01*
X0701553Y0520117D01*
X0700898Y0518983D01*
X0700128Y0517923D01*
X0699251Y0516949D01*
X0698277Y0516072D01*
X0697217Y0515302D01*
X0696083Y0514647D01*
X0694886Y0514114D01*
X0693640Y0513709D01*
X0692358Y0513437D01*
X0691055Y0513300D01*
X0689745Y0513300D01*
X0688442Y0513437D01*
X0687160Y0513709D01*
X0685914Y0514114D01*
X0684717Y0514647D01*
X0683583Y0515302D01*
X0682523Y0516072D01*
X0681549Y0516949D01*
X0680672Y0517923D01*
X0679902Y0518983D01*
X0679247Y0520117D01*
X0678714Y0521314D01*
X0678309Y0522560D01*
X0678037Y0523842D01*
X0677900Y0525145D01*
X0677900Y0526455D01*
X0678037Y0527758D01*
X0678309Y0529040D01*
X0678714Y0530286D01*
X0679247Y0531483D01*
X0679902Y0532617D01*
X0680672Y0533677D01*
X0681549Y0534651D01*
X0682523Y0535528D01*
X0683583Y0536298D01*
X0684717Y0536953D01*
X0685914Y0537486D01*
X0687160Y0537891D01*
X0688442Y0538163D01*
X0689745Y0538300D01*
X0690400Y0538300D01*
X0691055Y0538300D01*
X0692358Y0538163D01*
X0693640Y0537891D01*
X0694886Y0537486D01*
X0696083Y0536953D01*
X0697217Y0536298D01*
G37*

G36*
X0507217Y0536298D02*
X0508277Y0535528D01*
X0509251Y0534651D01*
X0510128Y0533677D01*
X0510898Y0532617D01*
X0511553Y0531483D01*
X0512086Y0530286D01*
X0512491Y0529040D01*
X0512763Y0527758D01*
X0512900Y0526455D01*
X0512900Y0525145D01*
X0512763Y0523842D01*
X0512491Y0522560D01*
X0512086Y0521314D01*
X0511553Y0520117D01*
X0510898Y0518983D01*
X0510128Y0517923D01*
X0509251Y0516949D01*
X0508277Y0516072D01*
X0507217Y0515302D01*
X0506083Y0514647D01*
X0504886Y0514114D01*
X0503640Y0513709D01*
X0502358Y0513437D01*
X0501055Y0513300D01*
X0499745Y0513300D01*
X0498442Y0513437D01*
X0497160Y0513709D01*
X0495914Y0514114D01*
X0494717Y0514647D01*
X0493583Y0515302D01*
X0492523Y0516072D01*
X0491549Y0516949D01*
X0490672Y0517923D01*
X0489902Y0518983D01*
X0489247Y0520117D01*
X0488714Y0521314D01*
X0488309Y0522560D01*
X0488037Y0523842D01*
X0487900Y0525145D01*
X0487900Y0526455D01*
X0488037Y0527758D01*
X0488309Y0529040D01*
X0488714Y0530286D01*
X0489247Y0531483D01*
X0489902Y0532617D01*
X0490672Y0533677D01*
X0491549Y0534651D01*
X0492523Y0535528D01*
X0493583Y0536298D01*
X0494717Y0536953D01*
X0495914Y0537486D01*
X0497160Y0537891D01*
X0498442Y0538163D01*
X0499745Y0538300D01*
X0500400Y0538300D01*
X0501055Y0538300D01*
X0502358Y0538163D01*
X0503640Y0537891D01*
X0504886Y0537486D01*
X0506083Y0536953D01*
X0507217Y0536298D01*
G37*

M02*
