M48
FMAT,2
ICI,OFF
METRIC,TZ,000.000
T2C1.700
T3C2.200
T4C4.000
%
G90
M71
T2
X33580Y47500
X23420Y47500
X52580Y47500
X42420Y47500
X71580Y47500
X61420Y47500
X33580Y28500
X23420Y28500
X52580Y28500
X42420Y28500
X71580Y28500
X61420Y28500
X14580Y9500
X4420Y9500
X33580Y9500
X23420Y9500
X52580Y9500
X42420Y9500
X71580Y9500
X61420Y9500
T3
X38000Y38000
X57000Y38000
X57000Y19000
X19000Y19000
T4
X28500Y47500
X47500Y47500
X66500Y47500
X28500Y28500
X47500Y28500
X66500Y28500
X9500Y9500
X28500Y9500
X47500Y9500
X66500Y9500
M30
